<?xml version="1.0" standalone="no"?>
<!DOCTYPE svg PUBLIC "-//W3C//DTD SVG 1.1//EN" "http://www.w3.org/Graphics/SVG/1.1/DTD/svg11.dtd" >
<svg xmlns="http://www.w3.org/2000/svg" xmlns:xlink="http://www.w3.org/1999/xlink" version="1.1">
<metadata>
Created by FontForge 20170731 at Mon Dec 14 20:22:09 2020
 By Aleksey,,,
Copyright (c) 2020 by Nizar Kazan. All rights reserved.
</metadata>
<defs>
<font id="VICEGrotesk-Italic" horiz-adv-x="0" >
  <font-face 
    font-family="VICE Grotesk"
    font-weight="400"
    font-style="italic"
    font-stretch="normal"
    units-per-em="2048"
    panose-1="2 0 5 3 4 0 0 2 0 4"
    ascent="1638"
    descent="-410"
    x-height="1059"
    cap-height="1462"
    bbox="-1677 -438 5537 2163"
    underline-thickness="126"
    underline-position="-640"
    slope="-10"
    unicode-range="U+000D-FEFF"
  />
<missing-glyph horiz-adv-x="1984" 
d="M1925 551v-41h-913v-913h-41v913h-912v41h912v911h41v-911h913z" />
    <glyph glyph-name="f_f" unicode="ff" horiz-adv-x="1259" 
d="M1264 1462h122l-28 -159h-62q-143 0 -166 -146l-16 -98h178l-28 -156h-179l-159 -903h-187l160 903h-440l-160 -903h-186l159 903h-145l27 156h147l21 121q20 124 99 203t216 79h123l-31 -159h-59q-143 0 -166 -146l-17 -98h441l20 121q20 124 99.5 203t216.5 79z" />
    <glyph glyph-name="f_i" unicode="fi" horiz-adv-x="1107" 
d="M670 1303q-143 0 -166 -146l-17 -98h177l-27 -156h-178l-160 -903h-186l159 903h-145l27 156h147l21 121q20 124 99 203t216 79h123l-31 -159h-59zM932 1462h203l-37 -209h-203zM684 0l186 1059h191l-187 -1059h-190z" />
    <glyph glyph-name="f_l" unicode="fl" horiz-adv-x="1091" 
d="M670 1303q-143 0 -166 -146l-17 -98h177l-27 -156h-178l-160 -903h-186l159 903h-145l27 156h147l21 121q20 124 99 203t216 79h123l-31 -159h-59zM930 1462h190l-258 -1462h-190z" />
    <glyph glyph-name=".notdef" horiz-adv-x="1984" 
d="M1925 551v-41h-913v-913h-41v913h-912v41h912v911h41v-911h913z" />
    <glyph glyph-name=".null" horiz-adv-x="1048" 
 />
    <glyph glyph-name="nonmarkingreturn" horiz-adv-x="682" 
 />
    <glyph glyph-name="CR" unicode="&#xd;" horiz-adv-x="479" 
 />
    <glyph glyph-name="space" unicode=" " horiz-adv-x="479" 
 />
    <glyph glyph-name="exclam" unicode="!" horiz-adv-x="532" 
d="M446 993l-155 -622h-107l62 622l84 469h200zM104 238h220l-43 -238h-218z" />
    <glyph glyph-name="quotedbl" unicode="&#x22;" horiz-adv-x="804" 
d="M291 1462h215l-109 -516h-153zM842 1462l-137 -516h-152l76 516h213z" />
    <glyph glyph-name="numbersign" unicode="#" horiz-adv-x="1204" 
d="M1174 864h-201l-96 -299h186l-27 -139h-202l-136 -426h-151l135 426h-279l-135 -426h-151l135 426h-184l24 139h203l96 299h-186l26 137h203l146 461h151l-145 -461h278l146 461h151l-145 -461h184zM725 565l96 299h-278l-97 -299h279z" />
    <glyph glyph-name="dollar" unicode="$" horiz-adv-x="1273" 
d="M727 834q179 -77 244 -116q141 -87 176 -211q14 -48 14 -104q0 -94 -28.5 -169t-77 -124.5t-115.5 -82.5t-140.5 -47.5t-154.5 -14.5l-39 -223h-192l43 248q-159 46 -262 166t-121 299h200q14 -86 53.5 -150.5t94 -100t112.5 -52.5t119 -17q127 0 218.5 67.5t91.5 182.5
q0 36 -8 66t-27 53.5t-36.5 40t-52 34.5t-57 28t-67 28.5t-68.5 28.5q-50 22 -82 36.5t-76.5 37t-72.5 42t-61.5 46t-53.5 54t-38.5 61.5t-27 74t-8.5 85q0 93 39 168t105.5 123t150 75t176.5 31l39 219h193l-43 -239q282 -75 338 -422h-195q-21 130 -96.5 201t-204.5 71
q-134 0 -214.5 -59.5t-80.5 -165.5q0 -33 9.5 -61.5t30.5 -52.5t43.5 -43t60.5 -40t68.5 -35t80.5 -36z" />
    <glyph glyph-name="percent" unicode="%" horiz-adv-x="1964" 
d="M559 1477q77 0 135 -25.5t92 -71t51 -102.5t17 -125q0 -113 -22 -213.5t-66.5 -185t-121 -134t-177.5 -49.5q-153 0 -222 88t-69 236q0 91 12.5 172.5t41 157.5t72 131t109.5 88t148 33zM1526 1464l-821 -1464h-160l821 1464h160zM467 698q63 0 111 43.5t74 114.5
t38 148.5t12 158.5q0 187 -143 187q-79 0 -133.5 -71t-77 -172t-22.5 -220q0 -98 38.5 -143.5t102.5 -45.5zM1563 891q77 0 135 -25.5t92 -71t51 -102.5t17 -125q0 -113 -22 -213.5t-66.5 -184.5t-120.5 -133.5t-176 -49.5q-79 0 -136.5 24.5t-90.5 69.5t-48.5 101.5
t-15.5 127.5q0 91 12.5 173t41 157.5t71.5 130.5t108.5 88t147.5 33zM1473 113q63 0 111 43.5t74 114.5t38 148.5t12 158.5q0 186 -145 186q-60 0 -106 -40.5t-72.5 -108t-40 -147.5t-13.5 -167q0 -98 38 -143t104 -45z" />
    <glyph glyph-name="ampersand" unicode="&#x26;" horiz-adv-x="1355" 
d="M905 166q-54 -59 -109.5 -98t-142 -66t-190.5 -27q-191 0 -301.5 98.5t-110.5 260.5q0 74 26 141.5t65 118t97 98t111 79t117 63.5q-35 65 -46.5 87t-30.5 66.5t-24.5 78t-5.5 73.5q0 135 101 229t256 94q147 0 244.5 -75t97.5 -195q0 -77 -29.5 -143.5t-83 -118
t-106 -87t-121.5 -71.5l223 -323q54 91 94 213h160q-55 -176 -174 -351l213 -311h-217zM629 895q14 9 52.5 31.5t59.5 36t52.5 39t48.5 48t30 55.5t13 69q0 68 -45.5 102.5t-122.5 34.5q-69 0 -122.5 -47.5t-53.5 -120.5q0 -81 88 -248zM555 700q-124 -67 -151 -84
q-129 -84 -158 -198q-10 -39 -10 -84q0 -97 66 -150t161 -53q48 0 91 9t71.5 18.5t62 32t47.5 34t45 39.5t39 35z" />
    <glyph glyph-name="quotesingle" unicode="'" horiz-adv-x="468" 
d="M291 1462h215l-123 -516h-154z" />
    <glyph glyph-name="parenleft" unicode="(" horiz-adv-x="604" 
d="M266 -406q-115 245 -156.5 474.5t1.5 484.5q43 243 170 489t321 455h166q-189 -253 -306 -481t-159 -463q-17 -101 -20 -202t5.5 -193.5t30 -190.5t48.5 -186t65 -187h-166z" />
    <glyph glyph-name="parenright" unicode=")" horiz-adv-x="602" 
d="M10 -406h-168q191 258 307.5 487.5t157.5 471.5q22 122 22.5 243.5t-19 239.5t-52 228.5t-80.5 232.5h168q120 -208 159 -456.5t-5 -487.5q-43 -254 -165 -483t-325 -476z" />
    <glyph glyph-name="asterisk" unicode="*" horiz-adv-x="806" 
d="M227 1264l23 127l184 -33l-63 176l121 45l65 -178l121 145l100 -84l-121 -145l185 -33l-25 -127l-182 33l63 -176l-120 -45l-66 178l-121 -146l-100 84l121 146z" />
    <glyph glyph-name="plus" unicode="+" horiz-adv-x="1261" 
d="M721 641h434v-162h-434v-440h-170v440h-434v162h434v438h170v-438z" />
    <glyph glyph-name="comma" unicode="," horiz-adv-x="487" 
d="M76 250h237l-45 -250l-155 -250h-117l160 250h-125z" />
    <glyph glyph-name="hyphen" unicode="-" horiz-adv-x="999" 
d="M190 649h662l-33 -176h-661z" />
    <glyph glyph-name="period" unicode="." horiz-adv-x="479" 
d="M76 250h229l-43 -250h-231z" />
    <glyph glyph-name="slash" unicode="/" horiz-adv-x="712" 
d="M688 1579h180l-815 -1778h-178z" />
    <glyph glyph-name="zero" unicode="0" horiz-adv-x="1251" 
d="M743 1470q101 0 181.5 -32t131.5 -83.5t85 -120.5t47.5 -139t13.5 -143q0 -117 -15.5 -231t-47 -224.5t-83.5 -204t-120 -165t-161 -112t-202 -40.5q-230 0 -341 138.5t-111 378.5q0 150 22 289t70.5 265.5t119.5 220t176.5 148.5t233.5 55zM573 135q96 0 173 52.5
t125.5 136.5t80.5 196.5t45 224.5t13 228q0 54 -7 100t-26 91t-48 76.5t-76.5 51t-109.5 19.5q-88 0 -161.5 -49t-122.5 -130.5t-83 -191t-49.5 -227.5t-15.5 -242q0 -175 70.5 -255.5t191.5 -80.5z" />
    <glyph glyph-name="one" unicode="1" horiz-adv-x="817" 
d="M668 1462h157l-258 -1462h-190l188 1079h-348l19 142q65 0 114 5t100.5 20t89 41t71.5 70t57 105z" />
    <glyph glyph-name="two" unicode="2" horiz-adv-x="1222" 
d="M809 561q-48 -29 -119.5 -70.5t-111.5 -64.5t-92 -57.5t-83 -62.5t-62 -65.5t-50 -78.5h762l-33 -162h-987q15 87 34 151.5t54 120t63.5 91.5t92 83.5t108 76t141.5 87.5q23 14 66 40q54 33 80 49t70 44t64.5 43.5t53 40.5t47 42.5t34 42.5t28 47t14.5 48.5t6 55.5
q0 121 -73 182.5t-199 61.5q-115 0 -203.5 -72.5t-110.5 -202.5h-196q32 195 173.5 323t346.5 128q216 0 338.5 -108t122.5 -277q0 -124 -42 -217t-120 -164t-217 -156z" />
    <glyph glyph-name="three" unicode="3" horiz-adv-x="1208" 
d="M246 1081q36 179 160.5 289.5t300.5 110.5q195 0 308 -93.5t113 -271.5q0 -140 -70 -228.5t-171 -125.5q205 -88 205 -361q0 -185 -137 -305.5t-363 -120.5t-347 98t-153 306l-6 39h197l4 -29q36 -252 286 -252q330 0 330 281q0 132 -77.5 202t-202.5 70q-95 0 -140 -2
l27 152h117q45 0 87.5 7.5t85 26.5t74 47t51 72t19.5 99q0 110 -58.5 169.5t-178.5 59.5q-54 0 -101.5 -20t-79 -52.5t-52 -68.5t-28.5 -72l-6 -27h-194z" />
    <glyph glyph-name="four" unicode="4" horiz-adv-x="1183" 
d="M1081 1462l-166 -936h164l-28 -159h-162l-66 -367h-190l63 367h-645l27 159l825 936h178zM285 526h440l106 615h-4z" />
    <glyph glyph-name="five" unicode="5" horiz-adv-x="1253" 
d="M713 973q204 -6 322 -132t118 -356q0 -109 -34 -203t-99 -164.5t-166.5 -110.5t-228.5 -40q-112 0 -202 29t-147 73t-98.5 105t-61.5 117t-30 117h203q21 -127 106.5 -204t231.5 -77q150 0 243 101.5t93 256.5q0 152 -79 241t-214 89q-77 0 -137.5 -24t-97 -58.5
t-70.5 -85.5l-201 27l254 792l756 -4l-27 -155h-598l-139 -437q128 107 303 103z" />
    <glyph glyph-name="six" unicode="6" horiz-adv-x="1249" 
d="M131 707q19 119 51 224.5t85 207.5t122 174.5t167 117t214 44.5q87 0 155.5 -21t111.5 -54t74.5 -82t47.5 -95.5t27 -104.5h-185q-8 31 -15 51t-25 51t-42 49.5t-65.5 33t-95.5 14.5q-60 0 -111 -18.5t-91 -56.5t-71 -80t-58 -104.5t-45 -113t-40 -121.5q150 156 373 148
q103 -3 186 -41t133.5 -99.5t77.5 -137.5t27 -158q0 -127 -45 -233.5t-122 -177.5t-179.5 -110t-217.5 -39q-567 0 -444 732zM672 813q-168 0 -273.5 -108.5t-105.5 -307.5q0 -116 79.5 -189t196.5 -73q169 0 275 104t106 304q0 65 -26 118t-67 85t-89 49.5t-96 17.5z" />
    <glyph glyph-name="seven" unicode="7" horiz-adv-x="1089" 
d="M213 1462h948l-28 -164q-254 -216 -482 -588.5t-307 -709.5h-186q62 251 181 498.5t261.5 446t302.5 355.5h-717z" />
    <glyph glyph-name="eight" unicode="8" horiz-adv-x="1243" 
d="M909 770q91 -29 153 -117t62 -186q0 -218 -152.5 -355t-402.5 -137q-107 0 -191.5 21.5t-140 58.5t-92 89t-52 110t-15.5 125q0 78 33 148.5t85.5 120t114 83t123.5 47.5q-87 35 -137.5 112.5t-50.5 168.5q0 186 141.5 301t374.5 115q95 0 170 -22.5t121 -58t76 -82
t41.5 -91t11.5 -88.5q0 -134 -79 -230t-194 -133zM754 1319q-140 0 -229 -74t-89 -215q0 -88 71 -138t159 -50q142 0 229.5 76t87.5 219q0 82 -65 132t-164 50zM555 133q172 0 277.5 89t105.5 255q0 95 -79.5 153t-196.5 58q-111 0 -196.5 -34.5t-138.5 -111t-53 -186.5
q0 -72 44.5 -124.5t107 -75.5t129.5 -23z" />
    <glyph glyph-name="nine" unicode="9" horiz-adv-x="1247" 
d="M1186 743q-125 -768 -639 -768q-87 0 -155.5 21t-111.5 54t-74.5 82t-47.5 95.5t-27 104.5h184q8 -31 15 -50t25.5 -51t42 -50.5t65 -33t94.5 -14.5q56 0 103.5 15.5t82 36.5t67 64t52 74.5t43 92.5t34.5 95t32 103q3 9 4 13q-159 -166 -371 -150q-132 10 -231.5 74.5
t-148 159.5t-48.5 204q0 126 45 232.5t122 177.5t179.5 110.5t216.5 39.5q121 0 211.5 -35t144.5 -99.5t83.5 -155t28.5 -202t-21 -240.5zM645 637q167 0 273 108.5t106 307.5q0 117 -79.5 189.5t-196.5 72.5q-169 0 -275 -104t-106 -304q0 -65 26 -118t67 -85t89 -49.5
t96 -17.5z" />
    <glyph glyph-name="colon" unicode=":" horiz-adv-x="479" 
d="M199 958h231l-45 -249h-229zM76 250h229l-43 -250h-231z" />
    <glyph glyph-name="semicolon" unicode=";" horiz-adv-x="479" 
d="M160 729l43 250h231l-45 -250h-229zM-8 -250l160 250h-121l45 250h229l-43 -250l-153 -250h-117z" />
    <glyph glyph-name="less" unicode="&#x3c;" horiz-adv-x="1216" 
d="M1047 870l-762 -352l762 -352v-184l-961 452v170l961 451v-185z" />
    <glyph glyph-name="equal" unicode="=" horiz-adv-x="1331" 
d="M1182 643h-1037v154h1037v-154zM145 393h1037v-153h-1037v153z" />
    <glyph glyph-name="greater" unicode="&#x3e;" horiz-adv-x="1216" 
d="M166 870v185l960 -451v-170l-960 -452v184l762 352z" />
    <glyph glyph-name="question" unicode="?" horiz-adv-x="1142" 
d="M213 1014l8 41q36 202 164.5 322t319.5 120q195 0 302 -106t107 -265q0 -43 -7 -81.5t-24.5 -73t-31 -58.5t-43.5 -55t-43.5 -44.5t-49 -44.5t-43.5 -38q-6 -5 -47 -42t-51.5 -47.5t-40.5 -43t-42 -52.5t-26 -51.5t-20 -62.5l-8 -41h-191l13 70q10 57 33.5 107t63 96.5
t67.5 74t79 72.5q18 16 59.5 47.5t63.5 52.5t49 54.5t39.5 75t12.5 92.5q0 86 -60.5 145t-165.5 59q-116 0 -192 -80.5t-98 -214.5l-9 -28h-188zM414 238h217l-41 -238h-219z" />
    <glyph glyph-name="at" unicode="@" horiz-adv-x="1740" 
d="M1270 -115h-363q-176 0 -324.5 55.5t-252.5 154.5t-157.5 245t-41.5 319q13 176 89.5 329t193 256.5t265 162.5t304.5 59q222 0 384.5 -89.5t241 -250t64.5 -368.5q-17 -226 -115.5 -358t-257.5 -132h-219l17 103q-34 -49 -101 -85t-155 -36q-151 0 -244.5 108t-81.5 291
q13 185 137.5 310.5t276.5 125.5q92 0 150.5 -36.5t84.5 -94.5l15 93h153l-94 -646h72q87 0 142.5 101.5t66.5 267.5q18 253 -120.5 400t-418.5 147q-132 0 -251.5 -48t-211 -134t-150 -212.5t-69.5 -275.5q-20 -278 144.5 -445t469.5 -167h367zM1120 717q8 97 -39 157
t-139 60q-105 0 -177 -81.5t-81 -209.5q-19 -244 180 -244q111 0 178.5 80t77.5 238z" />
    <glyph glyph-name="A" unicode="A" horiz-adv-x="1413" 
d="M1077 0l-78 420h-622l-223 -420h-211l788 1462h252l299 -1462h-205zM831 1282l-370 -702h510l-133 702h-7z" />
    <glyph glyph-name="B" unicode="B" horiz-adv-x="1288" 
d="M61 0l258 1462h474q141 0 245 -49q88 -45 136.5 -117.5t48.5 -162.5q0 -138 -69.5 -245t-178.5 -149q97 -37 144.5 -110t47.5 -164q0 -178 -97.5 -291.5t-281.5 -153.5q-84 -20 -204 -20h-523zM410 825h172q87 0 145.5 4.5t119.5 21.5t96.5 47t58 82.5t22.5 127.5
q0 186 -301 186h-231zM291 168h162q209 0 292 15q157 30 202 141q22 52 22 127q0 206 -330 206h-260z" />
    <glyph glyph-name="C" unicode="C" horiz-adv-x="1617" 
d="M788 -31q-138 0 -251.5 38.5t-189.5 103t-128.5 150t-76 177.5t-23.5 189q0 195 64.5 358.5t177.5 273.5t266.5 171t330.5 61q115 0 211.5 -26t164.5 -69t120 -104t83 -126t50 -140h-192q-98 295 -447 295q-185 0 -326.5 -83t-222 -244t-80.5 -380q0 -61 15 -123.5
t51.5 -126.5t90 -113.5t137.5 -80.5t186 -31q174 0 312 80.5t204 222.5h194q-99 -223 -285 -348t-436 -125z" />
    <glyph glyph-name="D" unicode="D" horiz-adv-x="1449" 
d="M1212 1290q97 -88 143 -208.5t46 -252.5q0 -214 -76 -376t-213 -267q-234 -186 -592 -186h-459l258 1462h357q339 0 536 -172zM543 170q92 0 180.5 20t176 69t153 122.5t106.5 190.5t41 262q0 207 -124 332.5t-371 125.5h-216l-196 -1122h250z" />
    <glyph glyph-name="E" unicode="E" horiz-adv-x="1198" 
d="M1204 1292h-715l-81 -465h671l-30 -168h-670l-86 -489h719l-31 -170h-920l258 1462h914z" />
    <glyph glyph-name="F" unicode="F" horiz-adv-x="1132" 
d="M1194 1292h-707l-79 -465h645l-31 -168h-645l-115 -659h-201l258 1462h904z" />
    <glyph glyph-name="G" unicode="G" horiz-adv-x="1617" 
d="M858 584l29 164h655l-149 -748h-144l27 209q-165 -240 -520 -240q-124 0 -230 39t-179.5 104t-126 150t-77 178t-24.5 187q0 195 64.5 358.5t177.5 273.5t266.5 171t330.5 61q497 0 598 -465h-190q-42 141 -139.5 218t-278.5 77q-185 0 -326.5 -83t-222 -244t-80.5 -380
q0 -61 15 -123.5t51.5 -126.5t90 -113.5t137.5 -80.5t186 -31q208 0 340 122t149 327z" />
    <glyph glyph-name="H" unicode="H" horiz-adv-x="1411" 
d="M1219 1462h200l-258 -1462h-200l114 649h-698l-115 -649h-201l258 1462h201l-114 -645h698z" />
    <glyph glyph-name="I" unicode="I" horiz-adv-x="512" 
d="M319 1462h201l-258 -1462h-201z" />
    <glyph glyph-name="J" unicode="J" horiz-adv-x="1032" 
d="M240 444l-11 -82q-14 -111 42.5 -167t160.5 -56q107 0 158 72t74 207l186 1044h201l-183 -1042q-20 -111 -51.5 -190t-83 -139t-130 -89t-185.5 -29q-116 0 -207 46t-139.5 137t-32.5 211l10 77h191z" />
    <glyph glyph-name="K" unicode="K" horiz-adv-x="1312" 
d="M1446 1462l-686 -624l428 -838h-230l-342 709l-272 -240l-82 -469h-201l258 1462h201l-129 -729l797 729h258z" />
    <glyph glyph-name="L" unicode="L" horiz-adv-x="1122" 
d="M293 170h706l-28 -170h-910l258 1462h201z" />
    <glyph glyph-name="M" unicode="M" horiz-adv-x="1789" 
d="M1466 1462h332l-258 -1462h-199l195 1106l25 143l-639 -1249h-236l-201 1249h-4l-24 -143l-195 -1106h-201l258 1462l328 -2l193 -1237z" />
    <glyph glyph-name="N" unicode="N" horiz-adv-x="1476" 
d="M319 1462h246l398 -919q7 -15 50 -115.5t66 -146.5q9 48 26 147t28 154l155 880h199l-258 -1462h-252l-389 909q-16 35 -55 126.5t-62 135.5q-14 -64 -31.5 -179t-21.5 -136l-152 -856h-205z" />
    <glyph glyph-name="O" unicode="O" horiz-adv-x="1673" 
d="M958 1491q143 0 258.5 -39t190.5 -102.5t125.5 -148.5t72 -171.5t21.5 -175.5q0 -204 -64.5 -372.5t-177 -280t-266 -172t-330.5 -60.5q-138 0 -251.5 38.5t-189.5 103t-128.5 150t-76 177.5t-23.5 189q0 195 64.5 358.5t177.5 273.5t266.5 171t330.5 61zM799 139
q135 0 251.5 51t199.5 141.5t130 219t47 278.5q0 69 -13.5 134t-48 131.5t-87 115.5t-138 80t-192.5 31q-185 0 -326.5 -83t-222 -244t-80.5 -380q0 -61 15 -123.5t51.5 -126.5t90 -113.5t137.5 -80.5t186 -31z" />
    <glyph glyph-name="P" unicode="P" horiz-adv-x="1224" 
d="M805 1462q106 0 191.5 -34t137.5 -90.5t79.5 -124.5t27.5 -140q0 -119 -47.5 -215t-128.5 -156t-186 -92t-224 -32h-290l-103 -578h-201l258 1462h486zM653 748q179 0 283 76t104 237q0 42 -14.5 80.5t-45 73.5t-87 56t-131.5 21h-270l-97 -544h258z" />
    <glyph glyph-name="Q" unicode="Q" horiz-adv-x="1673" 
d="M1626 854q0 -217 -70.5 -389t-199.5 -289l139 -141l-117 -117l-155 162q-187 -111 -435 -111q-138 0 -251.5 38.5t-189.5 103t-128.5 150t-76 177.5t-23.5 189q0 195 64.5 358.5t177.5 273.5t266.5 171t330.5 61q143 0 258.5 -39t190.5 -102.5t125.5 -148.5t72 -171.5
t21.5 -175.5zM319 614q0 -61 15 -123.5t51.5 -126.5t90 -113.5t137.5 -80.5t186 -31q163 0 295 72l-228 231l117 115l244 -250q95 94 147.5 228t52.5 294q0 69 -13.5 134t-48 131.5t-87 115.5t-138 80t-192.5 31q-185 0 -326.5 -83t-222 -244t-80.5 -380z" />
    <glyph glyph-name="R" unicode="R" horiz-adv-x="1366" 
d="M61 0l258 1462h512q96 0 174.5 -23t129.5 -60.5t86 -86t50 -98.5t15 -100q0 -95 -24.5 -167.5t-72.5 -123.5t-102.5 -84t-132.5 -64q26 -12 45.5 -27t33.5 -40t23 -45.5t17.5 -62.5t12.5 -70t12 -88q21 -170 86 -314v-8h-213q-52 155 -76 360q-7 54 -22 93.5t-43 73.5
t-75.5 51.5t-113.5 17.5h-274l-105 -596h-201zM395 764h324q79 0 144 17t115.5 52t78.5 94.5t28 139.5q0 24 -4.5 49t-22 59t-45.5 59t-80.5 42.5t-121.5 17.5h-319z" />
    <glyph glyph-name="S" unicode="S" horiz-adv-x="1273" 
d="M274 455q14 -86 53.5 -150.5t94 -100t112.5 -52.5t119 -17q127 0 218.5 67.5t91.5 182.5q0 36 -8 66t-27 53.5t-36.5 40t-52 34.5t-57 28t-67 28.5t-68.5 28.5q-50 22 -82 36.5t-76.5 37t-72.5 42t-61.5 46t-53.5 54t-38.5 61.5t-27 74t-8.5 85q0 96 42.5 173.5
t113.5 125.5t160 73t186 25q213 0 338 -115.5t158 -326.5h-195q-21 130 -96.5 201t-204.5 71q-134 0 -214.5 -59.5t-80.5 -165.5q0 -33 9.5 -61.5t30.5 -52.5t43.5 -43t60.5 -40t68.5 -35t80.5 -36q179 -77 244 -116q141 -87 176 -211q14 -48 14 -104q0 -94 -28.5 -169
t-77 -124.5t-115.5 -82.5t-140.5 -47.5t-154.5 -14.5q-149 0 -271.5 56t-203.5 168.5t-96 265.5h200z" />
    <glyph glyph-name="T" unicode="T" horiz-adv-x="1165" 
d="M1294 1462l-30 -170h-447l-227 -1292h-201l227 1292h-446l31 170h1093z" />
    <glyph glyph-name="U" unicode="U" horiz-adv-x="1396" 
d="M1249 518q-23 -133 -65.5 -231.5t-112.5 -172.5t-174 -111.5t-242 -37.5q-286 0 -418.5 169t-82.5 452l155 876h201l-158 -891q-37 -203 47 -319.5t265 -116.5q91 0 158.5 27t112.5 81t72 123.5t44 165.5l163 930h203z" />
    <glyph glyph-name="V" unicode="V" horiz-adv-x="1341" 
d="M1266 1462h221l-787 -1460l-251 -2l-265 1462h219l205 -1259h4z" />
    <glyph glyph-name="W" unicode="W" horiz-adv-x="1884" 
d="M184 1462h207l68 -1249h2l502 1249h280l51 -1251h2l523 1251h209l-637 -1462h-273l-49 1262h-2l-510 -1262h-268z" />
    <glyph glyph-name="X" unicode="X" horiz-adv-x="1339" 
d="M-74 0l666 756l-371 706h240l270 -547l483 547h246l-641 -725l406 -737h-240l-303 578l-508 -578h-248z" />
    <glyph glyph-name="Y" unicode="Y" horiz-adv-x="1280" 
d="M197 1462h227l256 -678h4l496 678h233l-661 -862l-107 -600h-201l107 600z" />
    <glyph glyph-name="Z" unicode="Z" horiz-adv-x="1249" 
d="M1298 1462l-30 -178l-992 -1108h822l-33 -176h-1067l31 180l995 1106h-756l31 176h999z" />
    <glyph glyph-name="bracketleft" unicode="[" horiz-adv-x="571" 
d="M690 1352h-219l-285 -1612h220l-27 -146h-387l336 1903h387z" />
    <glyph glyph-name="backslash" unicode="\" horiz-adv-x="710" 
d="M389 1579l186 -1778h-176l-186 1778h176z" />
    <glyph glyph-name="bracketright" unicode="]" horiz-adv-x="571" 
d="M-113 -260h219l285 1612h-217l25 145h389l-336 -1903h-389z" />
    <glyph glyph-name="asciicircum" unicode="^" horiz-adv-x="1224" 
d="M549 1427h137l447 -866h-183l-334 670l-329 -670h-183z" />
    <glyph glyph-name="underscore" unicode="_" horiz-adv-x="1460" 
d="M-100 -70h1433v-84h-1433v84z" />
    <glyph glyph-name="grave" unicode="`" horiz-adv-x="491" 
d="M369 1462l133 -268h-140l-231 268h238z" />
    <glyph glyph-name="a" unicode="a" horiz-adv-x="1116" 
d="M37 270q0 46 12.5 85.5t31 69.5t51.5 55.5t62.5 43t76 33t79.5 24.5t85.5 18t82 13.5t80.5 10.5q11 1 16 2q124 17 178 55t54 100q0 72 -66 110t-166 38q-207 0 -260 -189h-190q12 63 48 123t91.5 110.5t137 81.5t175.5 31q80 0 145 -15t108.5 -40t75 -59.5t48.5 -72
t24.5 -79t6.5 -78.5t-8 -73l-86 -455q-23 -129 -17 -213h-198q0 68 8 123q-37 -50 -131 -99t-221 -49q-74 0 -133.5 20t-96 50.5t-61 71t-34 78.5t-9.5 75zM223 279q0 -70 49 -111t146 -41q74 0 132.5 20.5t99.5 55.5t72.5 90t51 116.5t35.5 141.5q-46 -26 -64.5 -35
t-77.5 -24.5t-153 -30.5q-56 -8 -93.5 -15.5t-78 -21.5t-64.5 -32t-39.5 -46.5t-15.5 -66.5z" />
    <glyph glyph-name="b" unicode="b" horiz-adv-x="1249" 
d="M41 0l258 1462h190l-61 -354l-31 -172q142 147 351 147q113 0 199.5 -40.5t136.5 -109t75 -151t25 -174.5q0 -142 -43 -261t-117.5 -200.5t-177 -126.5t-219.5 -45q-146 0 -240 51t-131 124l-31 -150h-184zM692 924q-74 0 -137.5 -28.5t-108 -76t-76.5 -110t-47.5 -130.5
t-15.5 -137q0 -142 73 -223.5t214 -81.5q94 0 171 40.5t125.5 108t74.5 150.5t26 172q0 149 -77 232.5t-222 83.5z" />
    <glyph glyph-name="c" unicode="c" horiz-adv-x="1171" 
d="M1071 328q-63 -175 -190.5 -264t-333.5 -89q-114 0 -208.5 41.5t-153 109t-90.5 149.5t-32 167q0 153 49 277t132.5 202.5t190.5 120t227 41.5q101 0 181 -28.5t130.5 -78.5t81 -109.5t41.5 -129.5h-187q-20 83 -83.5 135t-170.5 52q-78 0 -150 -31.5t-129 -89.5
t-90.5 -148.5t-33.5 -199.5q0 -77 34.5 -149t105.5 -121.5t161 -49.5q125 0 199.5 47.5t124.5 145.5h194z" />
    <glyph glyph-name="d" unicode="d" horiz-adv-x="1247" 
d="M63 451q0 183 73 327.5t202.5 224.5t290.5 80q140 0 230 -52t128 -116l98 547h191l-258 -1462h-187l17 125q-60 -71 -139.5 -110.5t-214.5 -39.5q-190 0 -310.5 126.5t-120.5 349.5zM637 924q-74 0 -137.5 -28.5t-108 -76t-76.5 -110t-47.5 -130.5t-15.5 -137
q0 -141 74 -223t213 -82q94 0 171 40.5t125.5 108t74.5 150.5t26 172q0 150 -76.5 233t-222.5 83z" />
    <glyph glyph-name="e" unicode="e" horiz-adv-x="1177" 
d="M537 -25q-153 0 -261 65t-159 173t-51 248q0 181 76 323.5t209 220.5t300 78q90 0 165.5 -27t127.5 -72t89 -106t55 -127.5t20 -136.5q3 -80 -6 -143h-850q0 -156 75.5 -247t227.5 -91q127 0 199.5 46t109.5 130h193q-71 -174 -199 -254t-321 -80zM276 629h654
q-8 130 -88.5 213.5t-208.5 83.5q-134 0 -228 -82.5t-129 -214.5z" />
    <glyph glyph-name="f" unicode="f" horiz-adv-x="630" 
d="M637 1462h123l-31 -159h-59q-143 0 -166 -146l-17 -98h177l-27 -156h-178l-160 -903h-186l159 903h-145l27 156h147l21 121q20 124 99 203t216 79z" />
    <glyph glyph-name="g" unicode="g" horiz-adv-x="1243" 
d="M1202 1059l-172 -979q-43 -238 -187.5 -354.5t-355.5 -116.5q-201 0 -325 91t-137 251h178q25 -197 297 -197q135 0 226 81.5t124 252.5q1 9 4 26.5t4 26.5q-64 -78 -153 -121t-228 -43q-85 0 -156 28t-118 73.5t-80 105.5t-47.5 123t-14.5 127q0 150 46.5 275t125 205.5
t179 124.5t209.5 44q141 0 234 -50.5t130 -112.5l25 139h192zM637 924q-73 0 -135 -28t-106 -75.5t-75 -109t-46 -129t-15 -136.5q0 -142 72.5 -224.5t210.5 -82.5q91 0 166 40.5t121.5 107.5t72 150t25.5 171q0 148 -75 232t-216 84z" />
    <glyph glyph-name="h" unicode="h" horiz-adv-x="1140" 
d="M41 0l258 1462h190l-57 -323q-16 -93 -49 -228q140 172 344 172q80 0 141.5 -23.5t98.5 -65.5t58 -99.5t21 -126t-12 -145.5l-108 -623h-193l103 578q14 81 15 141t-10.5 98.5t-36 62t-56.5 33t-76 9.5q-124 0 -220 -107t-130 -305l-91 -510h-190z" />
    <glyph glyph-name="i" unicode="i" horiz-adv-x="475" 
d="M465 1253h-203l39 209h203zM53 0l187 1059h190l-186 -1059h-191z" />
    <glyph glyph-name="j" unicode="j" horiz-adv-x="509" 
d="M498 1253h-203l37 209h203zM467 1059l-211 -1192q-22 -124 -96.5 -197t-212.5 -73h-125l31 159h75q69 0 100 22t42 93l211 1188h186z" />
    <glyph glyph-name="k" unicode="k" horiz-adv-x="1046" 
d="M1110 1059l-530 -453l354 -606h-221l-279 487l-135 -108l-68 -379h-190l258 1462h190l-151 -858l530 455h242z" />
    <glyph glyph-name="l" unicode="l" horiz-adv-x="458" 
d="M299 1462h190l-258 -1462h-190z" />
    <glyph glyph-name="m" unicode="m" horiz-adv-x="1701" 
d="M43 0l186 1059h179l-27 -148q67 84 142 128t182 44q202 0 251 -180q128 180 349 180q77 0 136 -21.5t94.5 -59t56.5 -88.5t22 -111.5t-10 -126.5l-119 -676h-191l119 668q46 254 -141 254q-110 0 -198 -106t-124 -302l-92 -514h-190l102 578q26 134 19 210.5t-40.5 105
t-107.5 28.5q-120 0 -201 -103.5t-116 -308.5l-91 -510h-190z" />
    <glyph glyph-name="n" unicode="n" horiz-adv-x="1142" 
d="M43 0l186 1059h179l-27 -148q138 172 348 172q81 0 142.5 -23.5t98.5 -65.5t58 -99.5t20.5 -126t-12.5 -145.5l-108 -623h-193l103 578q16 102 15 168.5t-25.5 105.5t-60.5 54.5t-91 15.5q-125 0 -221.5 -106t-130.5 -306l-91 -510h-190z" />
    <glyph glyph-name="o" unicode="o" horiz-adv-x="1208" 
d="M666 1083q98 0 179.5 -27.5t136 -73t92 -105.5t54.5 -124t17 -130q0 -312 -157.5 -480t-444.5 -168q-114 0 -208 41.5t-152 109t-89 149t-31 167.5q0 154 48.5 277.5t132 202t191.5 120t231 41.5zM657 924q-81 0 -153.5 -31.5t-129 -89.5t-89.5 -148t-33 -200
q0 -78 33.5 -149.5t103.5 -121t160 -49.5q201 0 303 120t102 343q0 63 -17 119t-51 103.5t-93 75.5t-136 28z" />
    <glyph glyph-name="p" unicode="p" horiz-adv-x="1251" 
d="M-29 -403l258 1462h191l-21 -123q39 39 77 67t112.5 54t161.5 26q92 0 166 -27t123.5 -72t83 -107t48.5 -129t15 -140q0 -142 -43 -261t-117.5 -200.5t-177 -126.5t-219.5 -45q-145 0 -237.5 51t-131.5 124l-98 -553h-191zM694 924q-74 0 -137.5 -28.5t-108 -76
t-76.5 -110t-47.5 -130.5t-15.5 -137q0 -142 73 -223.5t214 -81.5q94 0 171 40.5t125.5 108t74.5 150.5t26 172q0 149 -77 232.5t-222 83.5z" />
    <glyph glyph-name="q" unicode="q" horiz-adv-x="1245" 
d="M63 451q0 183 73 327.5t202.5 224.5t290.5 80q141 0 232 -53t128 -115l29 144h186l-258 -1462h-190l61 362l29 164q-35 -45 -75.5 -75t-111.5 -51.5t-165 -21.5q-190 0 -310.5 126.5t-120.5 349.5zM637 924q-74 0 -137.5 -28.5t-108 -76t-76.5 -110t-47.5 -130.5
t-15.5 -137q0 -141 74 -223t213 -82q94 0 171 40.5t125.5 108t74.5 150.5t26 172q0 150 -76.5 233t-222.5 83z" />
    <glyph glyph-name="r" unicode="r" horiz-adv-x="684" 
d="M43 0l186 1059h191l-27 -148q53 65 143 108t189 50l-35 -190q-154 -7 -225 -62q-59 -44 -90 -120t-53 -205l-89 -492h-190z" />
    <glyph glyph-name="s" unicode="s" horiz-adv-x="983" 
d="M762 762q-18 93 -75.5 128.5t-156.5 35.5q-86 0 -145 -36t-59 -99q0 -36 11 -60.5t47 -47t61 -33.5t96 -37q12 -5 18 -7q58 -21 95 -36.5t84 -42.5t74 -55t46 -69.5t19 -91.5q0 -89 -39 -156.5t-102.5 -105t-135 -56t-147.5 -18.5q-82 0 -153.5 20t-131 60t-96.5 108.5
t-43 158.5h186q17 -101 74 -145t174 -44q92 0 157.5 42.5t65.5 111.5q0 62 -50.5 99t-176.5 79q-40 14 -64 22.5t-62.5 25.5t-62 32t-51.5 39t-44 50t-27 61t-11 75q0 80 36 142.5t95.5 98.5t129 54t145.5 18q175 0 280.5 -83t118.5 -238h-180z" />
    <glyph glyph-name="t" unicode="t" horiz-adv-x="626" 
d="M424 903l-107 -604q-24 -143 103 -143h78l-27 -156h-90q-151 0 -214.5 82.5t-39.5 214.5l106 606h-157l26 156h158l51 291h191l-51 -291h200l-26 -156h-201z" />
    <glyph glyph-name="u" unicode="u" horiz-adv-x="1142" 
d="M1102 1059l-187 -1059h-178l25 147q-137 -172 -348 -172q-100 0 -170 36.5t-103.5 99.5t-44 147t9.5 178l111 623h191l-103 -578q-14 -80 -14 -140t11.5 -98.5t35.5 -62.5t55.5 -33.5t75.5 -9.5q125 0 220.5 106.5t131.5 305.5l88 510h193z" />
    <glyph glyph-name="v" unicode="v" horiz-adv-x="1034" 
d="M111 1059h204l142 -866h4q167 334 442 866h209q-97 -176 -291 -529.5t-291 -529.5h-211q-36 176 -104 529.5t-104 529.5z" />
    <glyph glyph-name="w" unicode="w" horiz-adv-x="1542" 
d="M227 0l-116 1059h196l53 -649q2 -33 5.5 -98.5t5.5 -98.5h2q10 24 37 92t43 103l286 651h248l57 -649q10 -168 13 -199h2q14 34 40.5 99.5t41.5 99.5l280 649h199l-492 -1059h-219l-63 686l-17 180h-2q-13 -30 -37 -90t-38 -90l-306 -686h-219z" />
    <glyph glyph-name="x" unicode="x" horiz-adv-x="1075" 
d="M1141 1059l-494 -512l316 -547h-215l-228 410l-368 -410h-230l514 553l-307 506h215l219 -371l350 371h228z" />
    <glyph glyph-name="y" unicode="y" horiz-adv-x="1067" 
d="M111 1059h196l125 -604q10 -53 53 -265h2l138 267l311 602h209l-701 -1264q-56 -101 -128 -153t-175 -52h-147l26 160h117q29 0 52.5 7.5t38 16t31.5 30t24.5 34t25.5 43.5l51 90z" />
    <glyph glyph-name="z" unicode="z" horiz-adv-x="1005" 
d="M0 131l737 768h-133h-424l27 160h803l-21 -117l-749 -782h125h503l-26 -160h-865z" />
    <glyph glyph-name="braceleft" unicode="{" horiz-adv-x="724" 
d="M805 1368h-94q-55 0 -89.5 -53t-48.5 -129l-63 -369q-12 -66 -41 -120t-64 -83.5t-63.5 -45.5t-50.5 -21l-12 -4q16 -2 35 -11.5t42 -30.5t38 -52.5t22.5 -78t-4.5 -108.5l-66 -368q-28 -170 66 -170h104l-24 -130h-140q-84 0 -142 76.5t-36 198.5l66 371
q19 108 -18 169.5t-107 61.5l14 147q69 0 135 71t84 175l66 371q22 122 100 192t162 70h151z" />
    <glyph glyph-name="bar" unicode="|" horiz-adv-x="634" 
d="M268 1774h148v-2212h-148v2212z" />
    <glyph glyph-name="braceright" unicode="}" horiz-adv-x="724" 
d="M-74 -276h92q55 0 89.5 53t46.5 129l65 368q12 66 41.5 120t64.5 84t63.5 46t49.5 21l15 4q-16 2 -35.5 11.5t-43 30t-39 52t-23 78t4.5 108.5l64 365q7 46 9 85t-15.5 64t-55.5 25h-104l23 129h141q84 0 142 -76t36 -198l-65 -371q-19 -108 17 -171t105 -63l-16 -147
q-68 0 -132.5 -70t-82.5 -174l-68 -370q-22 -123 -99 -193t-161 -70h-153z" />
    <glyph glyph-name="asciitilde" unicode="~" horiz-adv-x="1214" 
d="M1137 666q-8 -137 -91 -221.5t-215 -84.5q-70 0 -154.5 35t-162.5 70t-133 35q-57 0 -94.5 -37.5t-40.5 -102.5h-174q8 136 90 221t217 85q63 0 132.5 -22t119 -48t105 -48t93.5 -22q54 0 91 37t43 103h174z" />
    <glyph glyph-name="uni00A0" unicode="&#xa0;" horiz-adv-x="479" 
 />
    <glyph glyph-name="exclamdown" unicode="&#xa1;" horiz-adv-x="530" 
d="M426 825h-217l41 238h217zM84 70l158 622h104l-59 -622l-84 -469h-201z" />
    <glyph glyph-name="cent" unicode="&#xa2;" horiz-adv-x="1171" 
d="M618 139q94 11 154.5 58t104.5 131h194q-122 -336 -481 -353l-33 -184h-166l35 197q-171 38 -267 168.5t-96 285.5q0 146 44.5 265.5t121 198t175.5 123.5t212 52l33 183h166l-33 -193q138 -29 216 -120t98 -214h-187q-31 134 -155 172zM252 455q0 -95 55 -182t148 -121
l133 766q-143 -26 -239.5 -148.5t-96.5 -314.5z" />
    <glyph glyph-name="sterling" unicode="&#xa3;" horiz-adv-x="1302" 
d="M109 -35l-80 139q18 15 59 49t59.5 50.5t51.5 48.5t50.5 57.5t39.5 61.5t35 77t22 89q7 43 -2 88h-231l22 139h164q-43 118 -51.5 174t4.5 143q20 129 104.5 225.5t203 143.5t253.5 47q222 0 337 -117t101 -323h-198q0 134 -55.5 202t-192.5 68q-136 0 -234.5 -67
t-119.5 -191q-4 -23 -4.5 -46.5t3.5 -49.5t9 -48.5t14.5 -53t16.5 -51.5t20 -56h381l-23 -139h-317q12 -68 4 -113q-37 -197 -287 -362q97 47 193 47q79 0 193.5 -33t179.5 -33q53 0 112 18.5t101 47.5l75 -140q-120 -92 -323 -92q-62 0 -226 43q-125 33 -239 33
q-101 0 -225 -76z" />
    <glyph glyph-name="currency" unicode="&#xa4;" horiz-adv-x="1316" 
d="M1204 719q0 -167 -106 -305l112 -117l-98 -98l-111 116q-140 -108 -305 -108q-174 0 -311 108l-113 -118l-100 100l113 121q-105 137 -105 297q0 165 105 305l-113 117l102 102l115 -117q137 105 309 105q158 0 293 -101l115 115l104 -106l-110 -113q104 -142 104 -303z
M696 365q139 0 233.5 103.5t94.5 250.5q0 143 -95 246.5t-231 103.5q-145 0 -242.5 -101.5t-97.5 -252.5q0 -147 98.5 -248.5t239.5 -101.5z" />
    <glyph glyph-name="yen" unicode="&#xa5;" horiz-adv-x="1294" 
d="M1419 1462l-522 -680h190l-26 -145h-275l-28 -37l-21 -113h299l-28 -145h-295l-62 -342h-200l61 342h-299l27 145h297l20 113l-14 37h-277l25 145h190l-278 680h231q92 -240 256 -680h4q93 128 264 365t228 315h233z" />
    <glyph glyph-name="brokenbar" unicode="&#xa6;" horiz-adv-x="505" 
d="M338 842h-143v512h143v-512zM195 371h143v-512h-143v512z" />
    <glyph glyph-name="section" unicode="&#xa7;" horiz-adv-x="1171" 
d="M743 1020q55 -20 95 -37.5t86 -48t74.5 -64.5t47.5 -84.5t19 -111.5q0 -111 -64.5 -183.5t-169.5 -109.5q121 -79 121 -205q0 -89 -38.5 -156.5t-102 -105t-135 -56t-148.5 -18.5q-82 0 -153.5 19.5t-130.5 60t-96 108.5t-44 158h187q17 -101 74 -144.5t174 -43.5
q93 0 158 42t65 112q0 62 -50 99t-175 79q-144 48 -207 84q-170 97 -170 272q0 63 22 113t62 84t86.5 55.5t103.5 34.5q-112 76 -112 211q0 65 23.5 118t63 88.5t92.5 60t109.5 35.5t116.5 11q175 0 280.5 -83t118.5 -238h-180q-18 91 -75.5 127t-155.5 36q-88 0 -146.5 -36
t-58.5 -101t45 -97t166 -77q14 -5 22 -8zM694 451q71 18 125.5 79.5t54.5 118.5q0 90 -52.5 139t-178.5 91q-43 14 -76 26q-83 -15 -150 -71t-67 -127q0 -39 15.5 -70.5t31 -50.5t61 -42t64.5 -30t83 -30q20 -7 30 -11z" />
    <glyph glyph-name="dieresis" unicode="&#xa8;" horiz-adv-x="702" 
d="M233 1436h187l-37 -215h-188zM602 1436h189l-37 -215h-189z" />
    <glyph glyph-name="copyright" unicode="&#xa9;" horiz-adv-x="1794" 
d="M936 -49q-159 0 -303.5 60t-251.5 163t-170.5 249.5t-63.5 311.5q0 162 63.5 306.5t170 247t252 162.5t303.5 60t302 -60t250 -162.5t169 -247t63 -306.5q0 -165 -63 -311.5t-169 -249.5t-250 -163t-302 -60zM936 84q127 0 242.5 49.5t200 135t134.5 207t50 259.5
q0 179 -84.5 327t-228.5 232t-314 84q-174 0 -318.5 -84t-228.5 -232t-84 -327q0 -184 84 -333.5t228.5 -233.5t318.5 -84zM1286 602q-30 -114 -120 -180t-224 -66q-164 0 -267.5 105t-103.5 274q0 166 104 272.5t269 106.5q265 0 342 -244h-143q-55 121 -199 121
q-100 0 -163.5 -72t-63.5 -184q0 -111 64 -182.5t163 -71.5q151 0 197 121h145z" />
    <glyph glyph-name="ordfeminine" unicode="&#xaa;" horiz-adv-x="813" 
d="M391 662q-122 0 -191 64t-50 161q7 39 24.5 71t39.5 54t53.5 39.5t59.5 28t64.5 19t61 12.5t57.5 8.5t45 6.5q62 11 86.5 27t30.5 51q6 36 -26.5 57t-96.5 21q-60 0 -102.5 -31.5t-61.5 -89.5h-156q3 39 24 83t58.5 85.5t100.5 68.5t139 27q166 0 232 -71t40 -219
l-53 -295l-18 -162h-168q-2 6 6 61h-2q-37 -39 -81.5 -58t-115.5 -19zM416 803q85 0 146.5 59t78.5 160q-44 -16 -170 -39q-78 -13 -115 -36t-43 -60q-8 -38 20 -61t83 -23z" />
    <glyph glyph-name="guillemotleft" unicode="&#xab;" horiz-adv-x="929" 
d="M78 530l338 441h170l-307 -441l153 -440h-170zM420 530l338 441h170l-307 -441l153 -440h-170z" />
    <glyph glyph-name="logicalnot" unicode="&#xac;" horiz-adv-x="1331" 
d="M145 797h1035v-574h-144v430h-891v144z" />
    <glyph glyph-name="uni00AD" unicode="&#xad;" horiz-adv-x="999" 
d="M190 649h662l-33 -176h-661z" />
    <glyph glyph-name="registered" unicode="&#xae;" horiz-adv-x="1794" 
d="M936 -49q158 0 302 60t250 163t169 249.5t63 311.5q0 162 -63 306.5t-169 247t-250 162.5t-302 60t-303.5 -59.5t-252 -162t-170 -247.5t-63.5 -307q0 -165 63.5 -311.5t170.5 -249.5t251.5 -163t303.5 -60zM936 84q-174 0 -318.5 84t-228.5 233.5t-84 333.5
q0 179 84 327t228.5 232t318.5 84q127 0 242.5 -50t200 -135.5t134.5 -205t50 -252.5q0 -138 -50 -259.5t-134.5 -207t-200 -135t-242.5 -49.5zM1182 549q5 -17 12.5 -45t12 -43.5t13.5 -37t21 -40.5v-8h-147q-19 23 -36 87.5t-22 78.5q-17 54 -44.5 81t-82.5 27h-88v-274
h-143v731h272q124 0 195.5 -57.5t71.5 -151.5q0 -75 -40 -128.5t-102 -68.5q43 -16 64 -49t43 -102zM942 766q61 0 96 32t35 85q0 47 -34 73.5t-99 26.5h-119v-217h121z" />
    <glyph glyph-name="macron" unicode="&#xaf;" horiz-adv-x="833" 
d="M217 1382h698l-20 -112h-698z" />
    <glyph glyph-name="degree" unicode="&#xb0;" horiz-adv-x="794" 
d="M508 1452q122 0 208.5 -87t86.5 -208q0 -124 -86.5 -209.5t-208.5 -85.5q-124 0 -209.5 85t-85.5 210q0 122 85.5 208.5t209.5 86.5zM508 989q75 0 121.5 50.5t46.5 117.5t-46.5 117.5t-121.5 50.5t-121.5 -50.5t-46.5 -117.5t46.5 -117.5t121.5 -50.5z" />
    <glyph glyph-name="plusminus" unicode="&#xb1;" horiz-adv-x="1357" 
d="M129 705h442v333h152v-333h442v-154h-442v-336h-152v336h-442v154zM129 143h1036v-147h-1036v147z" />
    <glyph glyph-name="acute" unicode="&#xb4;" horiz-adv-x="487" 
d="M434 1462h238l-279 -268h-139z" />
    <glyph glyph-name="uni00B5" unicode="&#xb5;" horiz-adv-x="1148" 
d="M-41 -403l258 1462h191l-117 -664q-25 -132 28 -195t166 -63q120 0 212.5 104t127.5 302l90 516h193l-186 -1059h-191l23 135q-125 -160 -324 -160q-136 0 -207 41l-73 -419h-191z" />
    <glyph glyph-name="paragraph" unicode="&#xb6;" horiz-adv-x="1183" 
d="M897 -236h-139l278 1584h-252l-278 -1584h-137l155 859q-181 0 -279 114.5t-98 290.5q0 127 76.5 227.5t201 153.5t269.5 53h502z" />
    <glyph glyph-name="periodcentered" unicode="&#xb7;" horiz-adv-x="514" 
d="M274 768q54 0 93 -38.5t39 -92.5q0 -50 -39.5 -90.5t-90.5 -40.5q-54 0 -93.5 38.5t-39.5 92.5t38.5 92.5t92.5 38.5z" />
    <glyph glyph-name="cedilla" unicode="&#xb8;" horiz-adv-x="544" 
d="M72 -430q-101 0 -183 39l58 102q53 -39 116 -39q48 0 90 16.5t48 47.5q4 29 -19.5 46t-64.5 17q-33 0 -86 -16l-41 80l147 137h111l-109 -109l4 -4q24 15 70 15q72 0 116 -39.5t31 -110.5q-9 -49 -39 -86t-72 -57t-86.5 -29.5t-90.5 -9.5z" />
    <glyph glyph-name="ordmasculine" unicode="&#xba;" horiz-adv-x="927" 
d="M485 651q-163 0 -251 108t-56 279q31 170 155.5 277.5t287.5 107.5t252 -107.5t59 -277.5q-30 -171 -157 -279t-290 -108zM508 786q92 0 163 70.5t91 181.5q20 109 -26.5 179.5t-137.5 70.5t-162.5 -70.5t-91.5 -179.5t27 -180.5t137 -71.5z" />
    <glyph glyph-name="guillemotright" unicode="&#xbb;" horiz-adv-x="931" 
d="M512 530l-340 -440h-170l309 440l-153 441h168zM854 530l-340 -440h-170l309 440l-153 441h168z" />
    <glyph glyph-name="onequarter" unicode="&#xbc;" horiz-adv-x="1529" 
d="M1094 1464h159l-821 -1464h-160zM285 584l106 612h-215l17 107q97 2 161 35t105 124h133l-156 -878h-151zM1442 338l-23 -125h-102l-37 -213h-152l37 213h-383l25 143l471 523h158l-97 -541h103zM950 338h238l55 328h-4z" />
    <glyph glyph-name="onehalf" unicode="&#xbd;" horiz-adv-x="1632" 
d="M1108 1464h162l-821 -1464h-162zM436 584h-151l106 612h-215l17 107q97 2 161 35t105 124h133zM1356 332q-34 -21 -90 -54t-84.5 -50.5t-61.5 -44t-53 -54.5h438l-22 -129h-623q19 100 56.5 166t89.5 109.5t155 105.5q22 14 68 41.5t62.5 38t47.5 31.5t42 33.5t26 32
t20 39t5 42.5q-1 58 -38 89.5t-102 31.5q-62 0 -107.5 -40t-58.5 -116h-155q15 124 107 205.5t220 81.5q131 0 209 -65.5t78 -166.5q0 -108 -52.5 -178.5t-176.5 -148.5z" />
    <glyph glyph-name="threequarters" unicode="&#xbe;" horiz-adv-x="1673" 
d="M739 827q0 -108 -86 -184t-221 -76q-139 0 -220.5 62t-100.5 186l-2 23h151l2 -17q19 -127 158 -127q85 0 129.5 39.5t44.5 108.5q0 66 -37.5 101.5t-103.5 35.5h-84l14 119h72q67 0 117.5 34.5t50.5 102.5q0 53 -32 84t-91 31q-56 0 -91 -33.5t-49 -81.5l-2 -10h-155
q25 114 104 182t193 68q124 0 198 -60t74 -164q0 -85 -43.5 -137t-107.5 -76q118 -47 118 -211zM1245 1464h162l-821 -1464h-162zM1583 338l-20 -125h-103l-37 -213h-151l37 213h-383l24 143l471 523h158l-96 -541h100zM1094 338h237l55 328h-4z" />
    <glyph glyph-name="questiondown" unicode="&#xbf;" horiz-adv-x="1081" 
d="M729 825h-217l41 238h217zM930 49l-8 -41q-36 -202 -165 -322t-321 -120q-194 0 -300.5 106t-106.5 265q0 38 7 73.5t16 62.5t27.5 56.5t32 48t39 45t39 38.5t42 37t38.5 34q8 7 47 42.5t51 47t41.5 43t42 52.5t26.5 52t20 62l8 41h190l-12 -68q-8 -47 -28 -91.5t-40 -76
t-55.5 -69.5t-57.5 -58.5t-63 -56.5q-17 -15 -49.5 -40t-52.5 -41t-45.5 -43.5t-40 -53t-25 -63.5t-10.5 -81q0 -86 60 -145t165 -59q116 0 191.5 80t99.5 214l6 29h191z" />
    <glyph glyph-name="Agrave" unicode="&#xc0;" horiz-adv-x="1413" 
d="M1016 1577h-201l-285 231h271zM1077 0l-78 420h-622l-223 -420h-211l788 1462h252l299 -1462h-205zM831 1282l-370 -702h510l-133 702h-7z" />
    <glyph glyph-name="Aacute" unicode="&#xc1;" horiz-adv-x="1413" 
d="M1327 1808l-364 -231h-215l296 231h283zM731 1462h252l299 -1462h-205l-78 420h-622l-223 -420h-211zM831 1282l-370 -702h510l-133 702h-7z" />
    <glyph glyph-name="Acircumflex" unicode="&#xc2;" horiz-adv-x="1413" 
d="M913 1706l-147 -129h-209l250 231h213l207 -231h-209zM1077 0l-78 420h-622l-223 -420h-211l788 1462h252l299 -1462h-205zM831 1282l-370 -702h510l-133 702h-7z" />
    <glyph glyph-name="Atilde" unicode="&#xc3;" horiz-adv-x="1413" 
d="M762 1659q-75 0 -96 -84h-127q25 100 91 162.5t165 62.5q57 0 142.5 -41t125.5 -41q35 0 56.5 22.5t37.5 67.5h135q-26 -100 -93 -164.5t-157 -64.5q-51 0 -103.5 20t-98 40t-78.5 20zM731 1462h252l299 -1462h-205l-78 420h-622l-223 -420h-211zM831 1282l-370 -702h510
l-133 702h-7z" />
    <glyph glyph-name="Adieresis" unicode="&#xc4;" horiz-adv-x="1413" 
d="M831 1800l-36 -215h-187l37 215h186zM1217 1800l-37 -215h-187l37 215h187zM1077 0l-78 420h-622l-223 -420h-211l788 1462h252l299 -1462h-205zM831 1282l-370 -702h510l-133 702h-7z" />
    <glyph glyph-name="Aring" unicode="&#xc5;" horiz-adv-x="1413" 
d="M895 1569q-95 0 -150 64.5t-38 156.5q19 98 89.5 160.5t164.5 62.5q97 0 152 -65.5t38 -157.5q-17 -93 -90 -157t-166 -64zM831 1788q-8 -43 14 -70.5t66 -27.5q43 0 75 27.5t40 70.5q7 44 -15 72t-65 28q-44 0 -75.5 -28t-39.5 -72zM1077 0l-78 420h-622l-223 -420h-211
l788 1462h252l299 -1462h-205zM831 1282l-370 -702h510l-133 702h-7z" />
    <glyph glyph-name="AE" unicode="&#xc6;" horiz-adv-x="2072" 
d="M-57 0l1083 1462h1083l-30 -168h-719l-82 -467h676l-31 -168h-674l-88 -489h725l-28 -170h-926l78 449h-510l-328 -449h-229zM618 612h422l119 682h-41z" />
    <glyph glyph-name="Ccedilla" unicode="&#xc7;" horiz-adv-x="1617" 
d="M799 139q174 0 312 80.5t204 222.5h194q-96 -217 -275.5 -342t-420.5 -131l-78 -73l2 -5q37 11 74 11q72 0 116 -39.5t31 -110.5q-9 -49 -39 -86t-72 -57t-86.5 -29.5t-90.5 -9.5q-101 0 -183 39l58 106q23 -17 60.5 -28t70.5 -11q47 0 82 15.5t41 48.5q4 28 -19.5 43.5
t-64.5 15.5q-33 0 -86 -16l-41 80l104 110q-146 16 -259.5 79.5t-180 156t-100 199t-33.5 219.5q0 195 64.5 358.5t177.5 273.5t266.5 171t330.5 61q115 0 211.5 -26t164.5 -69t120 -104t83 -126t50 -140h-192q-98 295 -447 295q-185 0 -326.5 -83t-222 -244t-80.5 -380
q0 -61 15 -123.5t51.5 -126.5t90 -113.5t137.5 -80.5t186 -31z" />
    <glyph glyph-name="Egrave" unicode="&#xc8;" horiz-adv-x="1198" 
d="M901 1577h-201l-284 231h270zM1204 1292h-715l-81 -465h671l-30 -168h-670l-86 -489h719l-31 -170h-920l258 1462h914z" />
    <glyph glyph-name="Eacute" unicode="&#xc9;" horiz-adv-x="1198" 
d="M1210 1808l-364 -231h-215l297 231h282zM1204 1292h-715l-81 -465h671l-30 -168h-670l-86 -489h719l-31 -170h-920l258 1462h914z" />
    <glyph glyph-name="Ecircumflex" unicode="&#xca;" horiz-adv-x="1198" 
d="M797 1706l-148 -129h-209l250 231h213l207 -231h-209zM1204 1292h-715l-81 -465h671l-30 -168h-670l-86 -489h719l-31 -170h-920l258 1462h914z" />
    <glyph glyph-name="Edieresis" unicode="&#xcb;" horiz-adv-x="1198" 
d="M715 1800l-37 -215h-186l36 215h187zM1100 1800l-37 -215h-186l36 215h187zM1204 1292h-715l-81 -465h671l-30 -168h-670l-86 -489h719l-31 -170h-920l258 1462h914z" />
    <glyph glyph-name="Igrave" unicode="&#xcc;" horiz-adv-x="512" 
d="M352 1808l215 -231h-200l-285 231h270zM319 1462h201l-258 -1462h-201z" />
    <glyph glyph-name="Iacute" unicode="&#xcd;" horiz-adv-x="512" 
d="M594 1808h283l-365 -231h-215zM319 1462h201l-258 -1462h-201z" />
    <glyph glyph-name="Icircumflex" unicode="&#xce;" horiz-adv-x="512" 
d="M106 1577l250 231h213l207 -231h-209l-104 129l-148 -129h-209zM319 1462h201l-258 -1462h-201z" />
    <glyph glyph-name="Idieresis" unicode="&#xcf;" horiz-adv-x="512" 
d="M195 1800h186l-37 -215h-186zM580 1800h186l-37 -215h-186zM319 1462h201l-258 -1462h-201z" />
    <glyph glyph-name="Eth" unicode="&#xd0;" horiz-adv-x="1449" 
d="M1212 1290q97 -88 143 -208.5t46 -252.5q0 -214 -76 -376t-213 -267q-234 -186 -592 -186h-459l115 651h-117l19 144h123l118 667h357q339 0 536 -172zM543 170q92 0 180.5 20t176 69t153 122.5t106.5 190.5t41 262q0 207 -124 332.5t-371 125.5h-216l-88 -497h326
l-20 -144h-330l-84 -481h250z" />
    <glyph glyph-name="Ntilde" unicode="&#xd1;" horiz-adv-x="1476" 
d="M571 1575q25 100 91 162.5t165 62.5q57 0 143 -41t126 -41q35 0 56.5 22.5t37.5 67.5h135q-26 -100 -93 -164.5t-157 -64.5q-51 0 -103.5 20t-98 40t-78.5 20q-76 0 -97 -84h-127zM319 1462h246l398 -919q7 -15 50 -115.5t66 -146.5q9 48 26 147t28 154l155 880h199
l-258 -1462h-252l-389 909q-16 35 -55 126.5t-62 135.5q-14 -64 -31.5 -179t-21.5 -136l-152 -856h-205z" />
    <glyph glyph-name="Ograve" unicode="&#xd2;" horiz-adv-x="1673" 
d="M891 1808l215 -231h-201l-284 231h270zM958 1491q143 0 258.5 -39t190.5 -102.5t125.5 -148.5t72 -171.5t21.5 -175.5q0 -204 -64.5 -372.5t-177 -280t-266 -172t-330.5 -60.5q-138 0 -251.5 38.5t-189.5 103t-128.5 150t-76 177.5t-23.5 189q0 195 64.5 358.5
t177.5 273.5t266.5 171t330.5 61zM799 139q135 0 251.5 51t199.5 141.5t130 219t47 278.5q0 69 -13.5 134t-48 131.5t-87 115.5t-138 80t-192.5 31q-185 0 -326.5 -83t-222 -244t-80.5 -380q0 -61 15 -123.5t51.5 -126.5t90 -113.5t137.5 -80.5t186 -31z" />
    <glyph glyph-name="Oacute" unicode="&#xd3;" horiz-adv-x="1673" 
d="M1133 1808h282l-364 -231h-215zM958 1491q143 0 258.5 -39t190.5 -102.5t125.5 -148.5t72 -171.5t21.5 -175.5q0 -204 -64.5 -372.5t-177 -280t-266 -172t-330.5 -60.5q-138 0 -251.5 38.5t-189.5 103t-128.5 150t-76 177.5t-23.5 189q0 195 64.5 358.5t177.5 273.5
t266.5 171t330.5 61zM799 139q135 0 251.5 51t199.5 141.5t130 219t47 278.5q0 69 -13.5 134t-48 131.5t-87 115.5t-138 80t-192.5 31q-185 0 -326.5 -83t-222 -244t-80.5 -380q0 -61 15 -123.5t51.5 -126.5t90 -113.5t137.5 -80.5t186 -31z" />
    <glyph glyph-name="Ocircumflex" unicode="&#xd4;" horiz-adv-x="1673" 
d="M645 1577l250 231h213l207 -231h-209l-105 129l-147 -129h-209zM958 1491q143 0 258.5 -39t190.5 -102.5t125.5 -148.5t72 -171.5t21.5 -175.5q0 -204 -64.5 -372.5t-177 -280t-266 -172t-330.5 -60.5q-138 0 -251.5 38.5t-189.5 103t-128.5 150t-76 177.5t-23.5 189
q0 195 64.5 358.5t177.5 273.5t266.5 171t330.5 61zM799 139q135 0 251.5 51t199.5 141.5t130 219t47 278.5q0 69 -13.5 134t-48 131.5t-87 115.5t-138 80t-192.5 31q-185 0 -326.5 -83t-222 -244t-80.5 -380q0 -61 15 -123.5t51.5 -126.5t90 -113.5t137.5 -80.5t186 -31z
" />
    <glyph glyph-name="Otilde" unicode="&#xd5;" horiz-adv-x="1673" 
d="M629 1575q25 100 91 162.5t165 62.5q57 0 142.5 -41t125.5 -41q35 0 56.5 22.5t37.5 67.5h135q-26 -100 -92.5 -164.5t-156.5 -64.5q-51 0 -103.5 20t-98.5 40t-79 20q-75 0 -96 -84h-127zM958 1491q143 0 258.5 -39t190.5 -102.5t125.5 -148.5t72 -171.5t21.5 -175.5
q0 -204 -64.5 -372.5t-177 -280t-266 -172t-330.5 -60.5q-138 0 -251.5 38.5t-189.5 103t-128.5 150t-76 177.5t-23.5 189q0 195 64.5 358.5t177.5 273.5t266.5 171t330.5 61zM799 139q135 0 251.5 51t199.5 141.5t130 219t47 278.5q0 69 -13.5 134t-48 131.5t-87 115.5
t-138 80t-192.5 31q-185 0 -326.5 -83t-222 -244t-80.5 -380q0 -61 15 -123.5t51.5 -126.5t90 -113.5t137.5 -80.5t186 -31z" />
    <glyph glyph-name="Odieresis" unicode="&#xd6;" horiz-adv-x="1673" 
d="M733 1800h187l-37 -215h-187zM1118 1800h187l-37 -215h-187zM958 1491q143 0 258.5 -39t190.5 -102.5t125.5 -148.5t72 -171.5t21.5 -175.5q0 -204 -64.5 -372.5t-177 -280t-266 -172t-330.5 -60.5q-138 0 -251.5 38.5t-189.5 103t-128.5 150t-76 177.5t-23.5 189
q0 195 64.5 358.5t177.5 273.5t266.5 171t330.5 61zM799 139q135 0 251.5 51t199.5 141.5t130 219t47 278.5q0 69 -13.5 134t-48 131.5t-87 115.5t-138 80t-192.5 31q-185 0 -326.5 -83t-222 -244t-80.5 -380q0 -61 15 -123.5t51.5 -126.5t90 -113.5t137.5 -80.5t186 -31z
" />
    <glyph glyph-name="multiply" unicode="&#xd7;" horiz-adv-x="1290" 
d="M160 877l129 129l356 -357l354 357l131 -129l-356 -357l356 -354l-131 -131l-354 356l-356 -356l-129 129l354 356z" />
    <glyph glyph-name="Oslash" unicode="&#xd8;" horiz-adv-x="1673" 
d="M1741 1386l-213 -178q98 -155 98 -354q0 -204 -64.5 -372.5t-177 -280t-266 -172t-330.5 -60.5q-319 0 -501 199l-211 -178l-72 94l213 178q-98 160 -98 365q0 195 64.5 358.5t177.5 273.5t266.5 171t330.5 61q322 0 496 -186l209 174zM319 614q0 -111 52 -221l938 787
q-128 141 -361 141q-185 0 -326.5 -83t-222 -244t-80.5 -380zM1427 829q0 141 -53 250l-938 -786q130 -154 363 -154q135 0 251.5 51t199.5 141.5t130 219t47 278.5z" />
    <glyph glyph-name="Ugrave" unicode="&#xd9;" horiz-adv-x="1396" 
d="M793 1808l215 -231h-201l-285 231h271zM1249 518q-23 -133 -65.5 -231.5t-112.5 -172.5t-174 -111.5t-242 -37.5q-286 0 -418.5 169t-82.5 452l155 876h201l-158 -891q-37 -203 47 -319.5t265 -116.5q91 0 158.5 27t112.5 81t72 123.5t44 165.5l163 930h203z" />
    <glyph glyph-name="Uacute" unicode="&#xda;" horiz-adv-x="1396" 
d="M1034 1808h283l-365 -231h-215zM1249 518q-23 -133 -65.5 -231.5t-112.5 -172.5t-174 -111.5t-242 -37.5q-286 0 -418.5 169t-82.5 452l155 876h201l-158 -891q-37 -203 47 -319.5t265 -116.5q91 0 158.5 27t112.5 81t72 123.5t44 165.5l163 930h203z" />
    <glyph glyph-name="Ucircumflex" unicode="&#xdb;" horiz-adv-x="1396" 
d="M547 1577l250 231h213l207 -231h-209l-105 129l-147 -129h-209zM1249 518q-23 -133 -65.5 -231.5t-112.5 -172.5t-174 -111.5t-242 -37.5q-286 0 -418.5 169t-82.5 452l155 876h201l-158 -891q-37 -203 47 -319.5t265 -116.5q91 0 158.5 27t112.5 81t72 123.5t44 165.5
l163 930h203z" />
    <glyph glyph-name="Udieresis" unicode="&#xdc;" horiz-adv-x="1396" 
d="M635 1800h186l-37 -215h-186zM1020 1800h186l-37 -215h-186zM1249 518q-23 -133 -65.5 -231.5t-112.5 -172.5t-174 -111.5t-242 -37.5q-286 0 -418.5 169t-82.5 452l155 876h201l-158 -891q-37 -203 47 -319.5t265 -116.5q91 0 158.5 27t112.5 81t72 123.5t44 165.5
l163 930h203z" />
    <glyph glyph-name="Yacute" unicode="&#xdd;" horiz-adv-x="1280" 
d="M977 1808h283l-365 -231h-215zM197 1462h227l256 -678h4l496 678h233l-661 -862l-107 -600h-201l107 600z" />
    <glyph glyph-name="Thorn" unicode="&#xde;" horiz-adv-x="1210" 
d="M61 0l258 1462h201l-47 -262h272q106 0 191 -34.5t137 -91t79.5 -124t27.5 -139.5q0 -119 -47 -215t-128.5 -156.5t-186 -92.5t-222.5 -32h-279l-55 -315h-201zM346 483h246q179 0 283 76.5t104 237.5q0 43 -14 82t-44.5 74t-87 56t-131.5 21h-258z" />
    <glyph glyph-name="germandbls" unicode="&#xdf;" horiz-adv-x="1110" 
d="M33 0l190 1090q35 191 151 299t306 108q177 0 283 -95.5t106 -234.5q0 -84 -25 -151.5t-67 -110.5t-86.5 -68.5t-93.5 -39.5q221 -81 221 -353q0 -97 -29 -175.5t-78 -131.5t-116 -89t-141.5 -52t-155.5 -16q-111 0 -181 28l21 160q51 -25 135 -25q106 0 185 29.5
t128.5 98t49.5 171.5q0 54 -14 100t-43.5 85t-82 61.5t-123.5 22.5h-55l21 147q53 2 99 10.5t91.5 29t77.5 51.5t52 80t20 112q0 82 -52 138t-149 56q-109 0 -175.5 -64.5t-94.5 -223.5l-185 -1047h-190z" />
    <glyph glyph-name="agrave" unicode="&#xe0;" horiz-adv-x="1116" 
d="M635 1462l133 -268h-139l-232 268h238zM37 270q0 46 12.5 85.5t31 69.5t51.5 55.5t62.5 43t76 33t79.5 24.5t85.5 18t82 13.5t80.5 10.5q11 1 16 2q124 17 178 55t54 100q0 72 -66 110t-166 38q-207 0 -260 -189h-190q12 63 48 123t91.5 110.5t137 81.5t175.5 31
q80 0 145 -15t108.5 -40t75 -59.5t48.5 -72t24.5 -79t6.5 -78.5t-8 -73l-86 -455q-23 -129 -17 -213h-198q0 68 8 123q-37 -50 -131 -99t-221 -49q-74 0 -133.5 20t-96 50.5t-61 71t-34 78.5t-9.5 75zM223 279q0 -70 49 -111t146 -41q74 0 132.5 20.5t99.5 55.5t72.5 90
t51 116.5t35.5 141.5q-46 -26 -64.5 -35t-77.5 -24.5t-153 -30.5q-56 -8 -93.5 -15.5t-78 -21.5t-64.5 -32t-39.5 -46.5t-15.5 -66.5z" />
    <glyph glyph-name="aacute" unicode="&#xe1;" horiz-adv-x="1116" 
d="M709 1462h237l-278 -268h-140zM37 270q0 46 12.5 85.5t31 69.5t51.5 55.5t62.5 43t76 33t79.5 24.5t85.5 18t82 13.5t80.5 10.5q11 1 16 2q124 17 178 55t54 100q0 72 -66 110t-166 38q-207 0 -260 -189h-190q12 63 48 123t91.5 110.5t137 81.5t175.5 31q80 0 145 -15
t108.5 -40t75 -59.5t48.5 -72t24.5 -79t6.5 -78.5t-8 -73l-86 -455q-23 -129 -17 -213h-198q0 68 8 123q-37 -50 -131 -99t-221 -49q-74 0 -133.5 20t-96 50.5t-61 71t-34 78.5t-9.5 75zM223 279q0 -70 49 -111t146 -41q74 0 132.5 20.5t99.5 55.5t72.5 90t51 116.5
t35.5 141.5q-46 -26 -64.5 -35t-77.5 -24.5t-153 -30.5q-56 -8 -93.5 -15.5t-78 -21.5t-64.5 -32t-39.5 -46.5t-15.5 -66.5z" />
    <glyph glyph-name="acircumflex" unicode="&#xe2;" horiz-adv-x="1116" 
d="M315 1194l281 268h195l182 -268h-195l-102 170l-164 -170h-197zM37 270q0 46 12.5 85.5t31 69.5t51.5 55.5t62.5 43t76 33t79.5 24.5t85.5 18t82 13.5t80.5 10.5q11 1 16 2q124 17 178 55t54 100q0 72 -66 110t-166 38q-207 0 -260 -189h-190q12 63 48 123t91.5 110.5
t137 81.5t175.5 31q80 0 145 -15t108.5 -40t75 -59.5t48.5 -72t24.5 -79t6.5 -78.5t-8 -73l-86 -455q-23 -129 -17 -213h-198q0 68 8 123q-37 -50 -131 -99t-221 -49q-74 0 -133.5 20t-96 50.5t-61 71t-34 78.5t-9.5 75zM223 279q0 -70 49 -111t146 -41q74 0 132.5 20.5
t99.5 55.5t72.5 90t51 116.5t35.5 141.5q-46 -26 -64.5 -35t-77.5 -24.5t-153 -30.5q-56 -8 -93.5 -15.5t-78 -21.5t-64.5 -32t-39.5 -46.5t-15.5 -66.5z" />
    <glyph glyph-name="atilde" unicode="&#xe3;" horiz-adv-x="1116" 
d="M303 1212q25 100 91 164t165 64q57 0 142.5 -41t125.5 -41q35 0 57 22t38 66h135q-26 -99 -92.5 -163t-157.5 -64q-51 0 -103.5 19.5t-98.5 39.5t-79 20q-74 0 -96 -86h-127zM37 270q0 46 12.5 85.5t31 69.5t51.5 55.5t62.5 43t76 33t79.5 24.5t85.5 18t82 13.5
t80.5 10.5q11 1 16 2q124 17 178 55t54 100q0 72 -66 110t-166 38q-207 0 -260 -189h-190q12 63 48 123t91.5 110.5t137 81.5t175.5 31q80 0 145 -15t108.5 -40t75 -59.5t48.5 -72t24.5 -79t6.5 -78.5t-8 -73l-86 -455q-23 -129 -17 -213h-198q0 68 8 123q-37 -50 -131 -99
t-221 -49q-74 0 -133.5 20t-96 50.5t-61 71t-34 78.5t-9.5 75zM223 279q0 -70 49 -111t146 -41q74 0 132.5 20.5t99.5 55.5t72.5 90t51 116.5t35.5 141.5q-46 -26 -64.5 -35t-77.5 -24.5t-153 -30.5q-56 -8 -93.5 -15.5t-78 -21.5t-64.5 -32t-39.5 -46.5t-15.5 -66.5z" />
    <glyph glyph-name="adieresis" unicode="&#xe4;" horiz-adv-x="1116" 
d="M410 1436h186l-37 -215h-188zM778 1436h189l-37 -215h-189zM37 270q0 46 12.5 85.5t31 69.5t51.5 55.5t62.5 43t76 33t79.5 24.5t85.5 18t82 13.5t80.5 10.5q11 1 16 2q124 17 178 55t54 100q0 72 -66 110t-166 38q-207 0 -260 -189h-190q12 63 48 123t91.5 110.5
t137 81.5t175.5 31q80 0 145 -15t108.5 -40t75 -59.5t48.5 -72t24.5 -79t6.5 -78.5t-8 -73l-86 -455q-23 -129 -17 -213h-198q0 68 8 123q-37 -50 -131 -99t-221 -49q-74 0 -133.5 20t-96 50.5t-61 71t-34 78.5t-9.5 75zM223 279q0 -70 49 -111t146 -41q74 0 132.5 20.5
t99.5 55.5t72.5 90t51 116.5t35.5 141.5q-46 -26 -64.5 -35t-77.5 -24.5t-153 -30.5q-56 -8 -93.5 -15.5t-78 -21.5t-64.5 -32t-39.5 -46.5t-15.5 -66.5z" />
    <glyph glyph-name="aring" unicode="&#xe5;" horiz-adv-x="1116" 
d="M451 1354q17 93 91 158t160 65q97 0 152.5 -64.5t38.5 -158.5q-17 -91 -92 -156t-160 -65q-97 0 -152 64.5t-38 156.5zM573 1352q-8 -43 14 -71t66 -28t76.5 28t40.5 71q6 45 -16 72.5t-66 27.5t-75.5 -28t-39.5 -72zM37 270q0 46 12.5 85.5t31 69.5t51.5 55.5t62.5 43
t76 33t79.5 24.5t85.5 18t82 13.5t80.5 10.5q11 1 16 2q124 17 178 55t54 100q0 72 -66 110t-166 38q-207 0 -260 -189h-190q12 63 48 123t91.5 110.5t137 81.5t175.5 31q80 0 145 -15t108.5 -40t75 -59.5t48.5 -72t24.5 -79t6.5 -78.5t-8 -73l-86 -455q-23 -129 -17 -213
h-198q0 68 8 123q-37 -50 -131 -99t-221 -49q-74 0 -133.5 20t-96 50.5t-61 71t-34 78.5t-9.5 75zM223 279q0 -70 49 -111t146 -41q74 0 132.5 20.5t99.5 55.5t72.5 90t51 116.5t35.5 141.5q-46 -26 -64.5 -35t-77.5 -24.5t-153 -30.5q-56 -8 -93.5 -15.5t-78 -21.5
t-64.5 -32t-39.5 -46.5t-15.5 -66.5z" />
    <glyph glyph-name="ae" unicode="&#xe6;" horiz-adv-x="1804" 
d="M389 -25q-90 0 -160 28.5t-110 75t-60 98t-20 104.5q0 57 19 104t48 79t74 57.5t86.5 40.5t97 27.5t94 18t89.5 12t71 9.5q110 19 153.5 50t43.5 97q0 152 -197 152q-207 0 -270 -187h-182q15 62 51 121t90.5 110t134.5 82t172 31q269 0 349 -202q145 200 387 200
q87 0 156 -23t113.5 -64.5t74.5 -95t42 -118.5t11.5 -132t-12.5 -138q-1 -6 -2 -16t-2 -15h-783q-20 -163 48.5 -255.5t201.5 -92.5q99 0 175.5 45t117.5 137h186q-149 -340 -481 -340q-152 0 -251 62t-132 184q-167 -246 -424 -246zM979 627h584q13 141 -41 221t-181 80
q-131 0 -227 -81.5t-135 -219.5zM399 129q56 0 111.5 20t108 60t92.5 111.5t57 164.5l10 62q-39 -20 -58.5 -28t-74 -21t-158.5 -31q-131 -23 -195.5 -63t-64.5 -123q0 -65 41.5 -108.5t130.5 -43.5z" />
    <glyph glyph-name="ccedilla" unicode="&#xe7;" horiz-adv-x="1171" 
d="M553 135q125 0 199.5 47.5t124.5 145.5h194q-63 -175 -190.5 -264t-333.5 -89h-12l-84 -84l4 -4q24 15 69 15q72 0 116.5 -39.5t31.5 -110.5q-9 -49 -39 -86t-72.5 -57t-87 -29.5t-90.5 -9.5q-100 0 -182 39l57 102q53 -39 117 -39q48 0 89.5 16.5t47.5 47.5
q4 29 -19.5 46t-64.5 17q-33 0 -86 -16l-41 80l133 123q-117 24 -203.5 97t-127 166t-40.5 193q0 153 49 277t132.5 202.5t190.5 120t227 41.5q101 0 181 -28.5t130.5 -78.5t81 -109.5t41.5 -129.5h-187q-20 83 -83.5 135t-170.5 52q-78 0 -150 -31.5t-129 -89.5
t-90.5 -148.5t-33.5 -199.5q0 -77 34.5 -149t105.5 -121.5t161 -49.5z" />
    <glyph glyph-name="egrave" unicode="&#xe8;" horiz-adv-x="1177" 
d="M647 1462l133 -268h-139l-231 268h237zM537 -25q-153 0 -261 65t-159 173t-51 248q0 181 76 323.5t209 220.5t300 78q90 0 165.5 -27t127.5 -72t89 -106t55 -127.5t20 -136.5q3 -80 -6 -143h-850q0 -156 75.5 -247t227.5 -91q127 0 199.5 46t109.5 130h193
q-71 -174 -199 -254t-321 -80zM276 629h654q-8 130 -88.5 213.5t-208.5 83.5q-134 0 -228 -82.5t-129 -214.5z" />
    <glyph glyph-name="eacute" unicode="&#xe9;" horiz-adv-x="1177" 
d="M719 1462h237l-278 -268h-139zM537 -25q-153 0 -261 65t-159 173t-51 248q0 181 76 323.5t209 220.5t300 78q90 0 165.5 -27t127.5 -72t89 -106t55 -127.5t20 -136.5q3 -80 -6 -143h-850q0 -156 75.5 -247t227.5 -91q127 0 199.5 46t109.5 130h193q-71 -174 -199 -254
t-321 -80zM276 629h654q-8 130 -88.5 213.5t-208.5 83.5q-134 0 -228 -82.5t-129 -214.5z" />
    <glyph glyph-name="ecircumflex" unicode="&#xea;" horiz-adv-x="1177" 
d="M326 1194l280 268h195l182 -268h-195l-102 170l-164 -170h-196zM537 -25q-153 0 -261 65t-159 173t-51 248q0 181 76 323.5t209 220.5t300 78q90 0 165.5 -27t127.5 -72t89 -106t55 -127.5t20 -136.5q3 -80 -6 -143h-850q0 -156 75.5 -247t227.5 -91q127 0 199.5 46
t109.5 130h193q-71 -174 -199 -254t-321 -80zM276 629h654q-8 130 -88.5 213.5t-208.5 83.5q-134 0 -228 -82.5t-129 -214.5z" />
    <glyph glyph-name="edieresis" unicode="&#xeb;" horiz-adv-x="1177" 
d="M420 1436h186l-37 -215h-188zM788 1436h189l-37 -215h-188zM537 -25q-153 0 -261 65t-159 173t-51 248q0 181 76 323.5t209 220.5t300 78q90 0 165.5 -27t127.5 -72t89 -106t55 -127.5t20 -136.5q3 -80 -6 -143h-850q0 -156 75.5 -247t227.5 -91q127 0 199.5 46
t109.5 130h193q-71 -174 -199 -254t-321 -80zM276 629h654q-8 130 -88.5 213.5t-208.5 83.5q-134 0 -228 -82.5t-129 -214.5z" />
    <glyph glyph-name="igrave" unicode="&#xec;" horiz-adv-x="460" 
d="M340 1462l133 -268h-139l-232 268h238zM43 0l186 1059h191l-187 -1059h-190z" />
    <glyph glyph-name="iacute" unicode="&#xed;" horiz-adv-x="460" 
d="M412 1462h237l-278 -268h-140zM43 0l186 1059h191l-187 -1059h-190z" />
    <glyph glyph-name="icircumflex" unicode="&#xee;" horiz-adv-x="460" 
d="M18 1194l281 268h195l182 -268h-195l-102 170l-164 -170h-197zM43 0l186 1059h191l-187 -1059h-190z" />
    <glyph glyph-name="idieresis" unicode="&#xef;" horiz-adv-x="460" 
d="M115 1436h186l-37 -215h-188zM483 1436h189l-37 -215h-189zM43 0l186 1059h191l-187 -1059h-190z" />
    <glyph glyph-name="eth" unicode="&#xf0;" horiz-adv-x="1228" 
d="M66 473q0 177 80.5 319.5t216 221t296.5 78.5q215 0 312 -129q-22 85 -85.5 183.5t-129.5 147.5l-264 -116l-33 104l215 94q-55 61 -152 103l197 100q97 -80 141 -119l268 117l29 -100l-221 -93q250 -244 250 -645q0 -347 -180 -555.5t-478 -208.5q-218 0 -340 132
t-122 366zM270 444q0 -133 72 -218t207 -85q122 0 220.5 71.5t152 188t53.5 252.5q0 124 -74 198.5t-223 74.5q-83 0 -156 -30.5t-130 -89t-89.5 -152t-32.5 -210.5z" />
    <glyph glyph-name="ntilde" unicode="&#xf1;" horiz-adv-x="1142" 
d="M328 1212q25 100 91 164t165 64q57 0 142.5 -41t125.5 -41q35 0 56.5 22t37.5 66h135q-26 -99 -92.5 -163t-157.5 -64q-51 0 -103.5 19.5t-98 39.5t-78.5 20q-74 0 -96 -86h-127zM43 0l186 1059h179l-27 -148q138 172 348 172q81 0 142.5 -23.5t98.5 -65.5t58 -99.5
t20.5 -126t-12.5 -145.5l-108 -623h-193l103 578q16 102 15 168.5t-25.5 105.5t-60.5 54.5t-91 15.5q-125 0 -221.5 -106t-130.5 -306l-91 -510h-190z" />
    <glyph glyph-name="ograve" unicode="&#xf2;" horiz-adv-x="1208" 
d="M674 1462l133 -268h-139l-232 268h238zM666 1083q98 0 179.5 -27.5t136 -73t92 -105.5t54.5 -124t17 -130q0 -312 -157.5 -480t-444.5 -168q-114 0 -208 41.5t-152 109t-89 149t-31 167.5q0 154 48.5 277.5t132 202t191.5 120t231 41.5zM657 924q-81 0 -153.5 -31.5
t-129 -89.5t-89.5 -148t-33 -200q0 -78 33.5 -149.5t103.5 -121t160 -49.5q201 0 303 120t102 343q0 63 -17 119t-51 103.5t-93 75.5t-136 28z" />
    <glyph glyph-name="oacute" unicode="&#xf3;" horiz-adv-x="1208" 
d="M745 1462h238l-278 -268h-140zM666 1083q98 0 179.5 -27.5t136 -73t92 -105.5t54.5 -124t17 -130q0 -312 -157.5 -480t-444.5 -168q-114 0 -208 41.5t-152 109t-89 149t-31 167.5q0 154 48.5 277.5t132 202t191.5 120t231 41.5zM657 924q-81 0 -153.5 -31.5t-129 -89.5
t-89.5 -148t-33 -200q0 -78 33.5 -149.5t103.5 -121t160 -49.5q201 0 303 120t102 343q0 63 -17 119t-51 103.5t-93 75.5t-136 28z" />
    <glyph glyph-name="ocircumflex" unicode="&#xf4;" horiz-adv-x="1208" 
d="M352 1194l281 268h194l183 -268h-195l-102 170l-164 -170h-197zM666 1083q98 0 179.5 -27.5t136 -73t92 -105.5t54.5 -124t17 -130q0 -312 -157.5 -480t-444.5 -168q-114 0 -208 41.5t-152 109t-89 149t-31 167.5q0 154 48.5 277.5t132 202t191.5 120t231 41.5zM657 924
q-81 0 -153.5 -31.5t-129 -89.5t-89.5 -148t-33 -200q0 -78 33.5 -149.5t103.5 -121t160 -49.5q201 0 303 120t102 343q0 63 -17 119t-51 103.5t-93 75.5t-136 28z" />
    <glyph glyph-name="otilde" unicode="&#xf5;" horiz-adv-x="1208" 
d="M340 1212q25 100 91 164t165 64q57 0 142.5 -41t125.5 -41q35 0 56.5 22t37.5 66h136q-26 -99 -92.5 -163t-157.5 -64q-51 0 -103.5 19.5t-98.5 39.5t-79 20q-74 0 -96 -86h-127zM666 1083q98 0 179.5 -27.5t136 -73t92 -105.5t54.5 -124t17 -130q0 -312 -157.5 -480
t-444.5 -168q-114 0 -208 41.5t-152 109t-89 149t-31 167.5q0 154 48.5 277.5t132 202t191.5 120t231 41.5zM657 924q-81 0 -153.5 -31.5t-129 -89.5t-89.5 -148t-33 -200q0 -78 33.5 -149.5t103.5 -121t160 -49.5q201 0 303 120t102 343q0 63 -17 119t-51 103.5t-93 75.5
t-136 28z" />
    <glyph glyph-name="odieresis" unicode="&#xf6;" horiz-adv-x="1208" 
d="M446 1436h187l-37 -215h-188zM815 1436h189l-37 -215h-189zM666 1083q98 0 179.5 -27.5t136 -73t92 -105.5t54.5 -124t17 -130q0 -312 -157.5 -480t-444.5 -168q-114 0 -208 41.5t-152 109t-89 149t-31 167.5q0 154 48.5 277.5t132 202t191.5 120t231 41.5zM657 924
q-81 0 -153.5 -31.5t-129 -89.5t-89.5 -148t-33 -200q0 -78 33.5 -149.5t103.5 -121t160 -49.5q201 0 303 120t102 343q0 63 -17 119t-51 103.5t-93 75.5t-136 28z" />
    <glyph glyph-name="divide" unicode="&#xf7;" horiz-adv-x="1261" 
d="M514 1036h229v-233h-229v233zM111 600h1036v-160h-1036v160zM514 238h229v-234h-229v234z" />
    <glyph glyph-name="oslash" unicode="&#xf8;" horiz-adv-x="1208" 
d="M1206 1008l-135 -127q74 -118 74 -258q0 -312 -157.5 -480t-444.5 -168q-196 0 -326 117l-133 -125l-80 78l141 131q-82 119 -82 266q0 154 48.5 277.5t132 202t191.5 120t231 41.5q204 0 333 -116l138 127zM252 455q0 -76 35 -148l579 537q-77 80 -209 80
q-81 0 -153.5 -31.5t-129 -89.5t-89.5 -148t-33 -200zM954 598q0 85 -26 150l-578 -533q80 -80 199 -80q201 0 303 120t102 343z" />
    <glyph glyph-name="ugrave" unicode="&#xf9;" horiz-adv-x="1142" 
d="M678 1462l133 -268h-139l-232 268h238zM1102 1059l-187 -1059h-178l25 147q-137 -172 -348 -172q-100 0 -170 36.5t-103.5 99.5t-44 147t9.5 178l111 623h191l-103 -578q-14 -80 -14 -140t11.5 -98.5t35.5 -62.5t55.5 -33.5t75.5 -9.5q125 0 220.5 106.5t131.5 305.5
l88 510h193z" />
    <glyph glyph-name="uacute" unicode="&#xfa;" horiz-adv-x="1142" 
d="M750 1462h237l-278 -268h-140zM1102 1059l-187 -1059h-178l25 147q-137 -172 -348 -172q-100 0 -170 36.5t-103.5 99.5t-44 147t9.5 178l111 623h191l-103 -578q-14 -80 -14 -140t11.5 -98.5t35.5 -62.5t55.5 -33.5t75.5 -9.5q125 0 220.5 106.5t131.5 305.5l88 510h193z
" />
    <glyph glyph-name="ucircumflex" unicode="&#xfb;" horiz-adv-x="1142" 
d="M356 1194l281 268h194l183 -268h-195l-102 170l-164 -170h-197zM1102 1059l-187 -1059h-178l25 147q-137 -172 -348 -172q-100 0 -170 36.5t-103.5 99.5t-44 147t9.5 178l111 623h191l-103 -578q-14 -80 -14 -140t11.5 -98.5t35.5 -62.5t55.5 -33.5t75.5 -9.5
q125 0 220.5 106.5t131.5 305.5l88 510h193z" />
    <glyph glyph-name="udieresis" unicode="&#xfc;" horiz-adv-x="1142" 
d="M453 1436h186l-37 -215h-188zM821 1436h189l-37 -215h-189zM1102 1059l-187 -1059h-178l25 147q-137 -172 -348 -172q-100 0 -170 36.5t-103.5 99.5t-44 147t9.5 178l111 623h191l-103 -578q-14 -80 -14 -140t11.5 -98.5t35.5 -62.5t55.5 -33.5t75.5 -9.5
q125 0 220.5 106.5t131.5 305.5l88 510h193z" />
    <glyph glyph-name="yacute" unicode="&#xfd;" horiz-adv-x="1067" 
d="M715 1462h237l-278 -268h-139zM111 1059h196l125 -604q10 -53 53 -265h2l138 267l311 602h209l-701 -1264q-56 -101 -128 -153t-175 -52h-147l26 160h117q29 0 52.5 7.5t38 16t31.5 30t24.5 34t25.5 43.5l51 90z" />
    <glyph glyph-name="thorn" unicode="&#xfe;" horiz-adv-x="1249" 
d="M-27 -403l326 1865h190l-61 -354l-31 -172q142 147 351 147q92 0 166 -27t123.5 -72t83 -107t48.5 -129t15 -140q0 -142 -43 -261t-117.5 -200.5t-177 -126.5t-219.5 -45q-146 0 -240 51t-131 124l-98 -553h-185zM692 924q-74 0 -137.5 -28.5t-108 -76t-76.5 -110
t-47.5 -130.5t-15.5 -137q0 -142 73 -223.5t214 -81.5q94 0 171 40.5t125.5 108t74.5 150.5t26 172q0 149 -77 232.5t-222 83.5z" />
    <glyph glyph-name="ydieresis" unicode="&#xff;" horiz-adv-x="1067" 
d="M416 1436h186l-37 -215h-188zM784 1436h189l-37 -215h-188zM111 1059h196l125 -604q10 -53 53 -265h2l138 267l311 602h209l-701 -1264q-56 -101 -128 -153t-175 -52h-147l26 160h117q29 0 52.5 7.5t38 16t31.5 30t24.5 34t25.5 43.5l51 90z" />
    <glyph glyph-name="Amacron" unicode="&#x100;" horiz-adv-x="1413" 
d="M1233 1753l-21 -123h-620l20 123h621zM1077 0l-78 420h-622l-223 -420h-211l788 1462h252l299 -1462h-205zM831 1282l-370 -702h510l-133 702h-7z" />
    <glyph glyph-name="amacron" unicode="&#x101;" horiz-adv-x="1116" 
d="M330 1382h698l-20 -112h-699zM37 270q0 46 12.5 85.5t31 69.5t51.5 55.5t62.5 43t76 33t79.5 24.5t85.5 18t82 13.5t80.5 10.5q11 1 16 2q124 17 178 55t54 100q0 72 -66 110t-166 38q-207 0 -260 -189h-190q12 63 48 123t91.5 110.5t137 81.5t175.5 31q80 0 145 -15
t108.5 -40t75 -59.5t48.5 -72t24.5 -79t6.5 -78.5t-8 -73l-86 -455q-23 -129 -17 -213h-198q0 68 8 123q-37 -50 -131 -99t-221 -49q-74 0 -133.5 20t-96 50.5t-61 71t-34 78.5t-9.5 75zM223 279q0 -70 49 -111t146 -41q74 0 132.5 20.5t99.5 55.5t72.5 90t51 116.5
t35.5 141.5q-46 -26 -64.5 -35t-77.5 -24.5t-153 -30.5q-56 -8 -93.5 -15.5t-78 -21.5t-64.5 -32t-39.5 -46.5t-15.5 -66.5z" />
    <glyph glyph-name="Abreve" unicode="&#x102;" horiz-adv-x="1413" 
d="M920 1561q-130 0 -210.5 69t-82.5 180h147q1 -52 40 -85t97 -33q59 0 108 33t66 85h152q-20 -76 -71 -134t-115 -86.5t-131 -28.5zM1077 0l-78 420h-622l-223 -420h-211l788 1462h252l299 -1462h-205zM831 1282l-370 -702h510l-133 702h-7z" />
    <glyph glyph-name="abreve" unicode="&#x103;" horiz-adv-x="1116" 
d="M666 1184q-133 0 -209.5 77.5t-63.5 200.5h148q-6 -67 27 -106t104 -39q73 0 118.5 39t61.5 106h152q-29 -124 -121.5 -201t-216.5 -77zM37 270q0 46 12.5 85.5t31 69.5t51.5 55.5t62.5 43t76 33t79.5 24.5t85.5 18t82 13.5t80.5 10.5q11 1 16 2q124 17 178 55t54 100
q0 72 -66 110t-166 38q-207 0 -260 -189h-190q12 63 48 123t91.5 110.5t137 81.5t175.5 31q80 0 145 -15t108.5 -40t75 -59.5t48.5 -72t24.5 -79t6.5 -78.5t-8 -73l-86 -455q-23 -129 -17 -213h-198q0 68 8 123q-37 -50 -131 -99t-221 -49q-74 0 -133.5 20t-96 50.5t-61 71
t-34 78.5t-9.5 75zM223 279q0 -70 49 -111t146 -41q74 0 132.5 20.5t99.5 55.5t72.5 90t51 116.5t35.5 141.5q-46 -26 -64.5 -35t-77.5 -24.5t-153 -30.5q-56 -8 -93.5 -15.5t-78 -21.5t-64.5 -32t-39.5 -46.5t-15.5 -66.5z" />
    <glyph glyph-name="Aogonek" unicode="&#x104;" horiz-adv-x="1413" 
d="M1057 -217q-6 -52 18.5 -72t91.5 -20l-22 -121q-135 0 -204 47t-52 143q5 36 21 67.5t47 64t54.5 52t69.5 56.5h-4l-78 420h-622l-223 -420h-211l788 1462h252l299 -1462q-98 -64 -159 -117.5t-66 -99.5zM831 1282l-370 -702h510l-133 702h-7z" />
    <glyph glyph-name="aogonek" unicode="&#x105;" horiz-adv-x="1116" 
d="M616 1085q80 0 145 -15t108.5 -40t75 -59.5t48.5 -72t24.5 -79t6.5 -78.5t-8 -73l-86 -455q-23 -129 -17 -213q-188 -122 -211 -217q-13 -50 14 -73t93 -23l-21 -117q-131 0 -193.5 46.5t-45.5 143.5q11 71 52 125t118 115h-4q0 68 8 123q-37 -50 -131 -99t-221 -49
q-74 0 -133.5 20t-96 50.5t-61 71t-34 78.5t-9.5 75q0 46 12.5 85.5t31 69.5t51.5 55.5t62.5 43t76 33t79.5 24.5t85.5 18t82 13.5t80.5 10.5q11 1 16 2q124 17 178 55t54 100q0 72 -66 110t-166 38q-207 0 -260 -189h-190q12 63 48 123t91.5 110.5t137 81.5t175.5 31z
M418 127q74 0 132.5 20.5t99.5 55.5t72.5 90t51 116.5t35.5 141.5q-46 -26 -64.5 -35t-77.5 -24.5t-153 -30.5q-56 -8 -93.5 -15.5t-78 -21.5t-64.5 -32t-39.5 -46.5t-15.5 -66.5q0 -70 49 -111t146 -41z" />
    <glyph glyph-name="Cacute" unicode="&#x106;" horiz-adv-x="1617" 
d="M1130 1808h283l-364 -231h-215zM788 -31q-138 0 -251.5 38.5t-189.5 103t-128.5 150t-76 177.5t-23.5 189q0 195 64.5 358.5t177.5 273.5t266.5 171t330.5 61q115 0 211.5 -26t164.5 -69t120 -104t83 -126t50 -140h-192q-98 295 -447 295q-185 0 -326.5 -83t-222 -244
t-80.5 -380q0 -61 15 -123.5t51.5 -126.5t90 -113.5t137.5 -80.5t186 -31q174 0 312 80.5t204 222.5h194q-99 -223 -285 -348t-436 -125z" />
    <glyph glyph-name="cacute" unicode="&#x107;" horiz-adv-x="1171" 
d="M768 1462h238l-279 -268h-139zM1071 328q-63 -175 -190.5 -264t-333.5 -89q-114 0 -208.5 41.5t-153 109t-90.5 149.5t-32 167q0 153 49 277t132.5 202.5t190.5 120t227 41.5q101 0 181 -28.5t130.5 -78.5t81 -109.5t41.5 -129.5h-187q-20 83 -83.5 135t-170.5 52
q-78 0 -150 -31.5t-129 -89.5t-90.5 -148.5t-33.5 -199.5q0 -77 34.5 -149t105.5 -121.5t161 -49.5q125 0 199.5 47.5t124.5 145.5h194z" />
    <glyph glyph-name="Ccircumflex" unicode="&#x108;" horiz-adv-x="1617" 
d="M643 1577l250 231h213l207 -231h-209l-105 129l-147 -129h-209zM788 -31q-138 0 -251.5 38.5t-189.5 103t-128.5 150t-76 177.5t-23.5 189q0 195 64.5 358.5t177.5 273.5t266.5 171t330.5 61q115 0 211.5 -26t164.5 -69t120 -104t83 -126t50 -140h-192q-98 295 -447 295
q-185 0 -326.5 -83t-222 -244t-80.5 -380q0 -61 15 -123.5t51.5 -126.5t90 -113.5t137.5 -80.5t186 -31q174 0 312 80.5t204 222.5h194q-99 -223 -285 -348t-436 -125z" />
    <glyph glyph-name="ccircumflex" unicode="&#x109;" horiz-adv-x="1171" 
d="M373 1194l280 268h195l182 -268h-194l-103 170l-164 -170h-196zM1071 328q-63 -175 -190.5 -264t-333.5 -89q-114 0 -208.5 41.5t-153 109t-90.5 149.5t-32 167q0 153 49 277t132.5 202.5t190.5 120t227 41.5q101 0 181 -28.5t130.5 -78.5t81 -109.5t41.5 -129.5h-187
q-20 83 -83.5 135t-170.5 52q-78 0 -150 -31.5t-129 -89.5t-90.5 -148.5t-33.5 -199.5q0 -77 34.5 -149t105.5 -121.5t161 -49.5q125 0 199.5 47.5t124.5 145.5h194z" />
    <glyph glyph-name="Cdotaccent" unicode="&#x10a;" horiz-adv-x="1617" 
d="M924 1792h188l-37 -207h-188zM788 -31q-138 0 -251.5 38.5t-189.5 103t-128.5 150t-76 177.5t-23.5 189q0 195 64.5 358.5t177.5 273.5t266.5 171t330.5 61q115 0 211.5 -26t164.5 -69t120 -104t83 -126t50 -140h-192q-98 295 -447 295q-185 0 -326.5 -83t-222 -244
t-80.5 -380q0 -61 15 -123.5t51.5 -126.5t90 -113.5t137.5 -80.5t186 -31q174 0 312 80.5t204 222.5h194q-99 -223 -285 -348t-436 -125z" />
    <glyph glyph-name="cdotaccent" unicode="&#x10b;" horiz-adv-x="1171" 
d="M803 1221h-187l37 215h187zM1071 328q-63 -175 -190.5 -264t-333.5 -89q-114 0 -208.5 41.5t-153 109t-90.5 149.5t-32 167q0 153 49 277t132.5 202.5t190.5 120t227 41.5q101 0 181 -28.5t130.5 -78.5t81 -109.5t41.5 -129.5h-187q-20 83 -83.5 135t-170.5 52
q-78 0 -150 -31.5t-129 -89.5t-90.5 -148.5t-33.5 -199.5q0 -77 34.5 -149t105.5 -121.5t161 -49.5q125 0 199.5 47.5t124.5 145.5h194z" />
    <glyph glyph-name="Ccaron" unicode="&#x10c;" horiz-adv-x="1617" 
d="M887 1577l-203 231h209l102 -131l150 131h209l-254 -231h-213zM788 -31q-138 0 -251.5 38.5t-189.5 103t-128.5 150t-76 177.5t-23.5 189q0 195 64.5 358.5t177.5 273.5t266.5 171t330.5 61q115 0 211.5 -26t164.5 -69t120 -104t83 -126t50 -140h-192q-98 295 -447 295
q-185 0 -326.5 -83t-222 -244t-80.5 -380q0 -61 15 -123.5t51.5 -126.5t90 -113.5t137.5 -80.5t186 -31q174 0 312 80.5t204 222.5h194q-99 -223 -285 -348t-436 -125z" />
    <glyph glyph-name="ccaron" unicode="&#x10d;" horiz-adv-x="1171" 
d="M639 1194l-182 268h194l105 -170l164 170h194l-278 -268h-197zM1071 328q-63 -175 -190.5 -264t-333.5 -89q-114 0 -208.5 41.5t-153 109t-90.5 149.5t-32 167q0 153 49 277t132.5 202.5t190.5 120t227 41.5q101 0 181 -28.5t130.5 -78.5t81 -109.5t41.5 -129.5h-187
q-20 83 -83.5 135t-170.5 52q-78 0 -150 -31.5t-129 -89.5t-90.5 -148.5t-33.5 -199.5q0 -77 34.5 -149t105.5 -121.5t161 -49.5q125 0 199.5 47.5t124.5 145.5h194z" />
    <glyph glyph-name="Dcaron" unicode="&#x10e;" horiz-adv-x="1449" 
d="M973 1577h-213l-203 231h209l102 -131l150 131h209zM1212 1290q97 -88 143 -208.5t46 -252.5q0 -214 -76 -376t-213 -267q-234 -186 -592 -186h-459l258 1462h357q339 0 536 -172zM543 170q92 0 180.5 20t176 69t153 122.5t106.5 190.5t41 262q0 207 -124 332.5
t-371 125.5h-216l-196 -1122h250z" />
    <glyph glyph-name="dcaron" unicode="&#x10f;" horiz-adv-x="1247" 
d="M63 451q0 183 73 327.5t202.5 224.5t290.5 80q140 0 230 -52t128 -116l98 547h191l-258 -1462h-187l17 125q-60 -71 -139.5 -110.5t-214.5 -39.5q-190 0 -310.5 126.5t-120.5 349.5zM1389 1462h200l-149 -354h-125zM637 924q-74 0 -137.5 -28.5t-108 -76t-76.5 -110
t-47.5 -130.5t-15.5 -137q0 -141 74 -223t213 -82q94 0 171 40.5t125.5 108t74.5 150.5t26 172q0 150 -76.5 233t-222.5 83z" />
    <glyph glyph-name="Dcroat" unicode="&#x110;" horiz-adv-x="1449" 
d="M1212 1290q97 -88 143 -208.5t46 -252.5q0 -214 -76 -376t-213 -267q-234 -186 -592 -186h-459l115 651h-117l19 144h123l118 667h357q339 0 536 -172zM543 170q92 0 180.5 20t176 69t153 122.5t106.5 190.5t41 262q0 207 -124 332.5t-371 125.5h-216l-88 -497h326
l-20 -144h-330l-84 -481h250z" />
    <glyph glyph-name="dcroat" unicode="&#x111;" horiz-adv-x="1247" 
d="M1458 1309l-20 -115h-209l-211 -1194h-187l17 125q-60 -71 -139.5 -110.5t-214.5 -39.5q-190 0 -310.5 126.5t-120.5 349.5q0 183 73 327.5t202.5 224.5t290.5 80q140 0 230 -52t128 -116l49 279h-303l21 115h305l26 153h191l-27 -153h209zM539 137q94 0 171 40.5
t125.5 108t74.5 150.5t26 172q0 150 -76.5 233t-222.5 83q-74 0 -137.5 -28.5t-108 -76t-76.5 -110t-47.5 -130.5t-15.5 -137q0 -141 74 -223t213 -82z" />
    <glyph glyph-name="Emacron" unicode="&#x112;" horiz-adv-x="1198" 
d="M1116 1753l-20 -123h-621l21 123h620zM1204 1292h-715l-81 -465h671l-30 -168h-670l-86 -489h719l-31 -170h-920l258 1462h914z" />
    <glyph glyph-name="emacron" unicode="&#x113;" horiz-adv-x="1177" 
d="M340 1382h698l-20 -112h-699zM537 -25q-153 0 -261 65t-159 173t-51 248q0 181 76 323.5t209 220.5t300 78q90 0 165.5 -27t127.5 -72t89 -106t55 -127.5t20 -136.5q3 -80 -6 -143h-850q0 -156 75.5 -247t227.5 -91q127 0 199.5 46t109.5 130h193q-71 -174 -199 -254
t-321 -80zM276 629h654q-8 130 -88.5 213.5t-208.5 83.5q-134 0 -228 -82.5t-129 -214.5z" />
    <glyph glyph-name="Ebreve" unicode="&#x114;" horiz-adv-x="1198" 
d="M805 1561q-130 0 -210.5 69t-82.5 180h147q1 -52 40.5 -85t97.5 -33q59 0 108 33t66 85h151q-20 -76 -71 -134t-115 -86.5t-131 -28.5zM1204 1292h-715l-81 -465h671l-30 -168h-670l-86 -489h719l-31 -170h-920l258 1462h914z" />
    <glyph glyph-name="ebreve" unicode="&#x115;" horiz-adv-x="1177" 
d="M676 1184q-133 0 -209.5 77.5t-63.5 200.5h148q-6 -67 27 -106t104 -39q73 0 118.5 39t61.5 106h152q-29 -124 -121.5 -201t-216.5 -77zM537 -25q-153 0 -261 65t-159 173t-51 248q0 181 76 323.5t209 220.5t300 78q90 0 165.5 -27t127.5 -72t89 -106t55 -127.5
t20 -136.5q3 -80 -6 -143h-850q0 -156 75.5 -247t227.5 -91q127 0 199.5 46t109.5 130h193q-71 -174 -199 -254t-321 -80zM276 629h654q-8 130 -88.5 213.5t-208.5 83.5q-134 0 -228 -82.5t-129 -214.5z" />
    <glyph glyph-name="Edotaccent" unicode="&#x116;" horiz-adv-x="1198" 
d="M909 1792l-37 -207h-188l37 207h188zM1204 1292h-715l-81 -465h671l-30 -168h-670l-86 -489h719l-31 -170h-920l258 1462h914z" />
    <glyph glyph-name="edotaccent" unicode="&#x117;" horiz-adv-x="1177" 
d="M754 1221h-187l37 215h187zM537 -25q-153 0 -261 65t-159 173t-51 248q0 181 76 323.5t209 220.5t300 78q90 0 165.5 -27t127.5 -72t89 -106t55 -127.5t20 -136.5q3 -80 -6 -143h-850q0 -156 75.5 -247t227.5 -91q127 0 199.5 46t109.5 130h193q-71 -174 -199 -254
t-321 -80zM276 629h654q-8 130 -88.5 213.5t-208.5 83.5q-134 0 -228 -82.5t-129 -214.5z" />
    <glyph glyph-name="Eogonek" unicode="&#x118;" horiz-adv-x="1198" 
d="M1204 1292h-715l-81 -465h671l-30 -168h-670l-86 -489h719l-31 -170q-98 -66 -158 -118.5t-65 -98.5q-6 -52 18.5 -72t89.5 -20l-22 -121q-133 0 -201.5 47t-54.5 143q6 36 22 67.5t47.5 64t54.5 52t70 56.5h-721l258 1462h914z" />
    <glyph glyph-name="eogonek" unicode="&#x119;" horiz-adv-x="1177" 
d="M1108 614q3 -80 -6 -143h-850q0 -156 75.5 -247t227.5 -91q127 0 199.5 46t109.5 130h193q-109 -268 -375 -321q-177 -116 -203 -205q-12 -50 15.5 -73t93.5 -23l-21 -117q-131 0 -193.5 46.5t-45.5 143.5q10 62 48 110.5t109 106.5q-204 17 -311.5 149t-107.5 335
q0 181 76 323.5t209 220.5t300 78q90 0 165.5 -27t127.5 -72t89 -106t55 -127.5t20 -136.5zM276 629h654q-8 130 -88.5 213.5t-208.5 83.5q-134 0 -228 -82.5t-129 -214.5z" />
    <glyph glyph-name="Ecaron" unicode="&#x11a;" horiz-adv-x="1198" 
d="M897 1577h-213l-203 231h209l103 -131l149 131h209zM1204 1292h-715l-81 -465h671l-30 -168h-670l-86 -489h719l-31 -170h-920l258 1462h914z" />
    <glyph glyph-name="ecaron" unicode="&#x11b;" horiz-adv-x="1177" 
d="M592 1194l-182 268h194l105 -170l163 170h195l-279 -268h-196zM537 -25q-153 0 -261 65t-159 173t-51 248q0 181 76 323.5t209 220.5t300 78q90 0 165.5 -27t127.5 -72t89 -106t55 -127.5t20 -136.5q3 -80 -6 -143h-850q0 -156 75.5 -247t227.5 -91q127 0 199.5 46
t109.5 130h193q-71 -174 -199 -254t-321 -80zM276 629h654q-8 130 -88.5 213.5t-208.5 83.5q-134 0 -228 -82.5t-129 -214.5z" />
    <glyph glyph-name="Gcircumflex" unicode="&#x11c;" horiz-adv-x="1617" 
d="M997 1706l-147 -129h-209l250 231h213l207 -231h-209zM858 584l29 164h655l-149 -748h-144l27 209q-165 -240 -520 -240q-124 0 -230 39t-179.5 104t-126 150t-77 178t-24.5 187q0 195 64.5 358.5t177.5 273.5t266.5 171t330.5 61q497 0 598 -465h-190
q-42 141 -139.5 218t-278.5 77q-185 0 -326.5 -83t-222 -244t-80.5 -380q0 -61 15 -123.5t51.5 -126.5t90 -113.5t137.5 -80.5t186 -31q208 0 340 122t149 327z" />
    <glyph glyph-name="gcircumflex" unicode="&#x11d;" horiz-adv-x="1243" 
d="M399 1194l281 268h194l183 -268h-195l-102 170l-164 -170h-197zM1202 1059l-172 -979q-43 -238 -187.5 -354.5t-355.5 -116.5q-201 0 -325 91t-137 251h178q25 -197 297 -197q135 0 226 81.5t124 252.5q1 9 4 26.5t4 26.5q-64 -78 -153 -121t-228 -43q-85 0 -156 28
t-118 73.5t-80 105.5t-47.5 123t-14.5 127q0 150 46.5 275t125 205.5t179 124.5t209.5 44q141 0 234 -50.5t130 -112.5l25 139h192zM637 924q-73 0 -135 -28t-106 -75.5t-75 -109t-46 -129t-15 -136.5q0 -142 72.5 -224.5t210.5 -82.5q91 0 166 40.5t121.5 107.5t72 150
t25.5 171q0 148 -75 232t-216 84z" />
    <glyph glyph-name="Gbreve" unicode="&#x11e;" horiz-adv-x="1617" 
d="M1006 1561q-130 0 -210.5 69t-82.5 180h147q1 -52 40 -85t97 -33q59 0 108 33t66 85h152q-20 -76 -71 -134t-115 -86.5t-131 -28.5zM858 584l29 164h655l-149 -748h-144l27 209q-165 -240 -520 -240q-124 0 -230 39t-179.5 104t-126 150t-77 178t-24.5 187
q0 195 64.5 358.5t177.5 273.5t266.5 171t330.5 61q497 0 598 -465h-190q-42 141 -139.5 218t-278.5 77q-185 0 -326.5 -83t-222 -244t-80.5 -380q0 -61 15 -123.5t51.5 -126.5t90 -113.5t137.5 -80.5t186 -31q208 0 340 122t149 327z" />
    <glyph glyph-name="gbreve" unicode="&#x11f;" horiz-adv-x="1243" 
d="M750 1184q-133 0 -209.5 77.5t-63.5 200.5h148q-6 -67 27 -106t104 -39q73 0 118.5 39t61.5 106h151q-30 -124 -122 -201t-215 -77zM1202 1059l-172 -979q-43 -238 -187.5 -354.5t-355.5 -116.5q-201 0 -325 91t-137 251h178q25 -197 297 -197q135 0 226 81.5t124 252.5
q1 9 4 26.5t4 26.5q-64 -78 -153 -121t-228 -43q-85 0 -156 28t-118 73.5t-80 105.5t-47.5 123t-14.5 127q0 150 46.5 275t125 205.5t179 124.5t209.5 44q141 0 234 -50.5t130 -112.5l25 139h192zM637 924q-73 0 -135 -28t-106 -75.5t-75 -109t-46 -129t-15 -136.5
q0 -142 72.5 -224.5t210.5 -82.5q91 0 166 40.5t121.5 107.5t72 150t25.5 171q0 148 -75 232t-216 84z" />
    <glyph glyph-name="Gdotaccent" unicode="&#x120;" horiz-adv-x="1617" 
d="M1110 1792l-37 -207h-188l37 207h188zM858 584l29 164h655l-149 -748h-144l27 209q-165 -240 -520 -240q-124 0 -230 39t-179.5 104t-126 150t-77 178t-24.5 187q0 195 64.5 358.5t177.5 273.5t266.5 171t330.5 61q497 0 598 -465h-190q-42 141 -139.5 218t-278.5 77
q-185 0 -326.5 -83t-222 -244t-80.5 -380q0 -61 15 -123.5t51.5 -126.5t90 -113.5t137.5 -80.5t186 -31q208 0 340 122t149 327z" />
    <glyph glyph-name="gdotaccent" unicode="&#x121;" horiz-adv-x="1243" 
d="M827 1221h-186l37 215h186zM1202 1059l-172 -979q-43 -238 -187.5 -354.5t-355.5 -116.5q-201 0 -325 91t-137 251h178q25 -197 297 -197q135 0 226 81.5t124 252.5q1 9 4 26.5t4 26.5q-64 -78 -153 -121t-228 -43q-85 0 -156 28t-118 73.5t-80 105.5t-47.5 123
t-14.5 127q0 150 46.5 275t125 205.5t179 124.5t209.5 44q141 0 234 -50.5t130 -112.5l25 139h192zM637 924q-73 0 -135 -28t-106 -75.5t-75 -109t-46 -129t-15 -136.5q0 -142 72.5 -224.5t210.5 -82.5q91 0 166 40.5t121.5 107.5t72 150t25.5 171q0 148 -75 232t-216 84z
" />
    <glyph glyph-name="uni0122" unicode="&#x122;" horiz-adv-x="1617" 
d="M858 584l29 164h655l-149 -748h-144l27 209q-165 -240 -520 -240q-124 0 -230 39t-179.5 104t-126 150t-77 178t-24.5 187q0 195 64.5 358.5t177.5 273.5t266.5 171t330.5 61q497 0 598 -465h-190q-42 141 -139.5 218t-278.5 77q-185 0 -326.5 -83t-222 -244t-80.5 -380
q0 -61 15 -123.5t51.5 -126.5t90 -113.5t137.5 -80.5t186 -31q208 0 340 122t149 327zM563 -285l33 181h227l-26 -158q-17 -85 -79 -127.5t-157 -42.5l12 72q42 9 64.5 24t26 23.5t8.5 27.5h-109z" />
    <glyph glyph-name="uni0123" unicode="&#x123;" horiz-adv-x="1243" 
d="M852 1241h-229l26 158q17 85 79 127.5t157 42.5l-13 -72q-38 -9 -60 -22.5t-26.5 -23t-8.5 -26.5q0 -1 -0.5 -2t-0.5 -2h107zM1202 1059l-172 -979q-43 -238 -187.5 -354.5t-355.5 -116.5q-201 0 -325 91t-137 251h178q25 -197 297 -197q135 0 226 81.5t124 252.5
q1 9 4 26.5t4 26.5q-64 -78 -153 -121t-228 -43q-85 0 -156 28t-118 73.5t-80 105.5t-47.5 123t-14.5 127q0 150 46.5 275t125 205.5t179 124.5t209.5 44q141 0 234 -50.5t130 -112.5l25 139h192zM637 924q-73 0 -135 -28t-106 -75.5t-75 -109t-46 -129t-15 -136.5
q0 -142 72.5 -224.5t210.5 -82.5q91 0 166 40.5t121.5 107.5t72 150t25.5 171q0 148 -75 232t-216 84z" />
    <glyph glyph-name="Hcircumflex" unicode="&#x124;" horiz-adv-x="1411" 
d="M911 1706l-147 -129h-209l250 231h213l207 -231h-209zM1219 1462h200l-258 -1462h-200l114 649h-698l-115 -649h-201l258 1462h201l-114 -645h698z" />
    <glyph glyph-name="hcircumflex" unicode="&#x125;" horiz-adv-x="1140" 
d="M80 1577l250 231h213l207 -231h-209l-105 129l-147 -129h-209zM41 0l258 1462h190l-57 -323q-16 -93 -49 -228q140 172 344 172q80 0 141.5 -23.5t98.5 -65.5t58 -99.5t21 -126t-12 -145.5l-108 -623h-193l103 578q14 81 15 141t-10.5 98.5t-36 62t-56.5 33t-76 9.5
q-124 0 -220 -107t-130 -305l-91 -510h-190z" />
    <glyph glyph-name="Hbar" unicode="&#x126;" horiz-adv-x="1411" 
d="M1477 1202l-21 -112h-102l-193 -1090h-200l114 649h-698l-115 -649h-201l193 1090h-102l20 112h102l45 260h201l-45 -260h699l45 260h200l-45 -260h103zM1104 817l49 273h-698l-49 -273h698z" />
    <glyph glyph-name="hbar" unicode="&#x127;" horiz-adv-x="1142" 
d="M727 1083q81 0 142.5 -23.5t98.5 -65.5t58 -100t21.5 -126.5t-11.5 -144.5l-110 -623h-191l103 578q14 81 14 141t-11.5 98.5t-35.5 62t-55.5 33t-75.5 9.5q-125 0 -220.5 -106.5t-131.5 -305.5l-91 -510h-190l211 1194h-123l21 115h122l27 153h190l-26 -153h385
l-21 -115h-385l-10 -55q-16 -93 -49 -228q140 172 344 172z" />
    <glyph glyph-name="Itilde" unicode="&#x128;" horiz-adv-x="512" 
d="M90 1575q25 100 91 162.5t165 62.5q57 0 142.5 -41t125.5 -41q35 0 57 22.5t38 67.5h135q-26 -100 -93 -164.5t-157 -64.5q-51 0 -103.5 20t-98.5 40t-79 20q-75 0 -96 -84h-127zM319 1462h201l-258 -1462h-201z" />
    <glyph glyph-name="itilde" unicode="&#x129;" horiz-adv-x="460" 
d="M6 1212q25 100 91 164t165 64q57 0 142.5 -41t125.5 -41q35 0 57 22t38 66h135q-26 -99 -92.5 -163t-157.5 -64q-51 0 -103.5 19.5t-98.5 39.5t-79 20q-74 0 -96 -86h-127zM43 0l186 1059h191l-187 -1059h-190z" />
    <glyph glyph-name="Imacron" unicode="&#x12a;" horiz-adv-x="512" 
d="M162 1753h620l-20 -123h-621zM319 1462h201l-258 -1462h-201z" />
    <glyph glyph-name="imacron" unicode="&#x12b;" horiz-adv-x="460" 
d="M33 1382h698l-20 -112h-699zM43 0l186 1059h191l-187 -1059h-190z" />
    <glyph glyph-name="Ibreve" unicode="&#x12c;" horiz-adv-x="512" 
d="M788 1810q-20 -76 -71 -134t-115 -86.5t-131 -28.5q-130 0 -210.5 69t-82.5 180h148q1 -52 40 -85t97 -33q59 0 108 33t66 85h151zM319 1462h201l-258 -1462h-201z" />
    <glyph glyph-name="ibreve" unicode="&#x12d;" horiz-adv-x="460" 
d="M369 1184q-133 0 -209.5 77.5t-63.5 200.5h148q-6 -67 27 -106t104 -39q73 0 118.5 39t61.5 106h152q-29 -124 -121.5 -201t-216.5 -77zM43 0l186 1059h191l-187 -1059h-190z" />
    <glyph glyph-name="Iogonek" unicode="&#x12e;" horiz-adv-x="512" 
d="M262 0q-45 -30 -77.5 -54t-67 -53.5t-54 -57.5t-22.5 -52q-6 -52 19 -72t90 -20l-23 -121q-134 0 -203.5 47t-52.5 143q7 47 40 93t62.5 72t92.5 75h-5l258 1462h201z" />
    <glyph glyph-name="iogonek" unicode="&#x12f;" horiz-adv-x="460" 
d="M299 1436h186l-36 -215h-187zM43 0l186 1059h191l-187 -1059q-198 -128 -219 -217q-13 -50 14 -73t93 -23l-21 -117q-131 0 -193.5 46.5t-45.5 143.5q11 68 56 120.5t130 119.5h-4z" />
    <glyph glyph-name="Idotaccent" unicode="&#x130;" horiz-adv-x="512" 
d="M387 1792h188l-36 -207h-189zM319 1462h201l-258 -1462h-201z" />
    <glyph glyph-name="dotlessi" unicode="&#x131;" horiz-adv-x="460" 
d="M43 0l186 1059h191l-187 -1059h-190z" />
    <glyph glyph-name="IJ" unicode="&#x132;" horiz-adv-x="1128" 
d="M334 444l-10 -82q-13 -111 43 -167t159 -56q57 0 98 20t67 60.5t41.5 86.5t27.5 112l186 1044h201l-184 -1042q-19 -111 -50 -190t-83 -139t-130.5 -89t-185.5 -29q-117 0 -208.5 46t-140 137t-32.5 211l10 77h191zM322 1462h200l-160 -897h-200z" />
    <glyph glyph-name="ij" unicode="&#x133;" horiz-adv-x="946" 
d="M465 1253h-203l39 209h203zM934 1253h-203l37 209h203zM53 0l187 1059h190l-186 -1059h-191zM903 1059l-211 -1192q-22 -124 -96.5 -197t-212.5 -73h-125l31 159h76q69 0 99.5 22t41.5 93l211 1188h186z" />
    <glyph glyph-name="Jcircumflex" unicode="&#x134;" horiz-adv-x="1032" 
d="M637 1577l250 231h213l207 -231h-209l-105 129l-147 -129h-209zM240 444l-11 -82q-14 -111 42.5 -167t160.5 -56q107 0 158 72t74 207l186 1044h201l-183 -1042q-20 -111 -51.5 -190t-83 -139t-130 -89t-185.5 -29q-116 0 -207 46t-139.5 137t-32.5 211l10 77h191z" />
    <glyph glyph-name="jcircumflex" unicode="&#x135;" horiz-adv-x="507" 
d="M66 1194l280 268h195l182 -268h-195l-102 170l-164 -170h-196zM465 1059l-209 -1192q-52 -270 -309 -270h-127l30 159h76q70 0 100.5 21.5t43.5 93.5l209 1188h186z" />
    <glyph glyph-name="uni0136" unicode="&#x136;" horiz-adv-x="1312" 
d="M1446 1462l-686 -624l428 -838h-230l-342 709l-272 -240l-82 -469h-201l258 1462h201l-129 -729l797 729h258zM451 -285l32 181h228l-27 -158q-17 -85 -78.5 -127.5t-156.5 -42.5l12 72q32 7 52 15.5t29 21t11 18t6 20.5h-108z" />
    <glyph glyph-name="uni0137" unicode="&#x137;" horiz-adv-x="1046" 
d="M1110 1059l-530 -453l354 -606h-221l-279 487l-135 -108l-68 -379h-190l258 1462h190l-151 -858l530 455h242zM303 -285l33 181h227l-26 -158q-17 -85 -79 -127.5t-157 -42.5l12 72q42 9 64.5 24t26 23.5t8.5 27.5h-109z" />
    <glyph glyph-name="kgreenlandic" unicode="&#x138;" horiz-adv-x="1046" 
d="M1110 1059l-530 -453l354 -606h-221l-279 487l-135 -108l-68 -379h-190l188 1059h191l-80 -455l528 455h242z" />
    <glyph glyph-name="Lacute" unicode="&#x139;" horiz-adv-x="1122" 
d="M967 1808l-365 -231h-215l297 231h283zM293 170h706l-28 -170h-910l258 1462h201z" />
    <glyph glyph-name="lacute" unicode="&#x13a;" horiz-adv-x="458" 
d="M565 1808h283l-365 -231h-215zM299 1462h190l-258 -1462h-190z" />
    <glyph glyph-name="uni013B" unicode="&#x13b;" horiz-adv-x="1122" 
d="M293 170h706l-28 -170h-910l258 1462h201zM367 -285l32 181h228l-27 -158q-17 -85 -78.5 -127.5t-156.5 -42.5l12 72q32 7 52 15.5t29 21t11 18t6 20.5h-108z" />
    <glyph glyph-name="uni013C" unicode="&#x13c;" horiz-adv-x="458" 
d="M299 1462h190l-258 -1462h-190zM14 -104h228l-27 -158q-17 -85 -78.5 -127.5t-156.5 -42.5l12 72q32 7 52 15.5t29 21t11 18t6 20.5h-108z" />
    <glyph glyph-name="Lcaron" unicode="&#x13d;" horiz-adv-x="1122" 
d="M293 170h706l-28 -170h-910l258 1462h201zM956 1462l-206 -415h-125l125 415h206z" />
    <glyph glyph-name="lcaron" unicode="&#x13e;" horiz-adv-x="458" 
d="M299 1462h190l-258 -1462h-190zM602 1462h201l-150 -354h-125z" />
    <glyph glyph-name="Ldot" unicode="&#x13f;" horiz-adv-x="1122" 
d="M520 1462l-227 -1292h706l-28 -170h-910l258 1462h201zM1008 901l-37 -207h-189l37 207h189z" />
    <glyph glyph-name="ldot" unicode="&#x140;" horiz-adv-x="608" 
d="M299 1462h190l-258 -1462h-190zM649 608h-186l37 215h186z" />
    <glyph glyph-name="Lslash" unicode="&#x141;" horiz-adv-x="1122" 
d="M293 170h706l-28 -170h-910l89 504l-170 -107l24 135l170 107l145 823h201l-119 -680l529 332l-25 -135l-528 -332z" />
    <glyph glyph-name="lslash" unicode="&#x142;" horiz-adv-x="432" 
d="M496 911l-148 -114l-139 -793h-193l109 617l-96 -76v145l127 101l118 675h193l-88 -497l115 90z" />
    <glyph glyph-name="Nacute" unicode="&#x143;" horiz-adv-x="1476" 
d="M1077 1808h283l-365 -231h-215zM319 1462h246l398 -919q7 -15 50 -115.5t66 -146.5q9 48 26 147t28 154l155 880h199l-258 -1462h-252l-389 909q-16 35 -55 126.5t-62 135.5q-14 -64 -31.5 -179t-21.5 -136l-152 -856h-205z" />
    <glyph glyph-name="nacute" unicode="&#x144;" horiz-adv-x="1142" 
d="M733 1462h238l-279 -268h-139zM43 0l186 1059h179l-27 -148q138 172 348 172q81 0 142.5 -23.5t98.5 -65.5t58 -99.5t20.5 -126t-12.5 -145.5l-108 -623h-193l103 578q16 102 15 168.5t-25.5 105.5t-60.5 54.5t-91 15.5q-125 0 -221.5 -106t-130.5 -306l-91 -510h-190z
" />
    <glyph glyph-name="uni0145" unicode="&#x145;" horiz-adv-x="1476" 
d="M319 1462h246l398 -919q7 -15 50 -115.5t66 -146.5q9 48 26 147t28 154l155 880h199l-258 -1462h-252l-389 909q-16 35 -55 126.5t-62 135.5q-14 -64 -31.5 -179t-21.5 -136l-152 -856h-205zM524 -104h228l-27 -158q-17 -85 -79 -127.5t-157 -42.5l13 72q32 7 52 15.5
t29 21t11 18t6 20.5h-108z" />
    <glyph glyph-name="uni0146" unicode="&#x146;" horiz-adv-x="1142" 
d="M43 0l186 1059h179l-27 -148q138 172 348 172q81 0 142.5 -23.5t98.5 -65.5t58 -99.5t20.5 -126t-12.5 -145.5l-108 -623h-193l103 578q16 102 15 168.5t-25.5 105.5t-60.5 54.5t-91 15.5q-125 0 -221.5 -106t-130.5 -306l-91 -510h-190zM358 -104h228l-27 -158
q-17 -85 -78.5 -127.5t-156.5 -42.5l12 72q32 7 52 15.5t29 21t11 18t6 20.5h-108z" />
    <glyph glyph-name="Ncaron" unicode="&#x147;" horiz-adv-x="1476" 
d="M834 1577l-203 231h209l102 -131l150 131h208l-253 -231h-213zM319 1462h246l398 -919q7 -15 50 -115.5t66 -146.5q9 48 26 147t28 154l155 880h199l-258 -1462h-252l-389 909q-16 35 -55 126.5t-62 135.5q-14 -64 -31.5 -179t-21.5 -136l-152 -856h-205z" />
    <glyph glyph-name="ncaron" unicode="&#x148;" horiz-adv-x="1142" 
d="M606 1194l-182 268h194l105 -170l164 170h194l-278 -268h-197zM43 0l186 1059h179l-27 -148q138 172 348 172q81 0 142.5 -23.5t98.5 -65.5t58 -99.5t20.5 -126t-12.5 -145.5l-108 -623h-193l103 578q16 102 15 168.5t-25.5 105.5t-60.5 54.5t-91 15.5
q-125 0 -221.5 -106t-130.5 -306l-91 -510h-190z" />
    <glyph glyph-name="napostrophe" unicode="&#x149;" horiz-adv-x="1142" 
d="M94 1462h160l-27 -159l-110 -181h-84l104 181h-71zM43 0l186 1059h179l-27 -148q138 172 348 172q81 0 142.5 -23.5t98.5 -65.5t58 -99.5t20.5 -126t-12.5 -145.5l-108 -623h-193l103 578q16 102 15 168.5t-25.5 105.5t-60.5 54.5t-91 15.5q-125 0 -221.5 -106
t-130.5 -306l-91 -510h-190z" />
    <glyph glyph-name="Eng" unicode="&#x14a;" horiz-adv-x="1476" 
d="M1487 1462l-258 -1462h-2q-35 -198 -157 -313.5t-320 -116.5l30 168q109 1 165.5 66t82.5 196h-51l-389 909q-16 35 -55 126.5t-62 135.5q-14 -64 -31.5 -179t-21.5 -136l-152 -856h-205l258 1462h246l398 -919q7 -15 50 -115.5t66 -146.5q9 48 26 147t28 154l155 880
h199z" />
    <glyph glyph-name="eng" unicode="&#x14b;" horiz-adv-x="1144" 
d="M43 0l186 1059h179l-27 -148q138 172 348 172q81 0 142.5 -23.5t98.5 -65.5t58 -99.5t20.5 -126t-12.5 -145.5l-131 -758q-22 -123 -97 -195.5t-212 -72.5h-125l29 159h75q70 0 99.5 21.5t40.5 91.5l123 709q16 102 15 168.5t-25.5 105.5t-60.5 54.5t-91 15.5
q-125 0 -221.5 -106t-130.5 -306l-91 -510h-190z" />
    <glyph glyph-name="Omacron" unicode="&#x14c;" horiz-adv-x="1673" 
d="M700 1753h621l-21 -123h-620zM958 1491q143 0 258.5 -39t190.5 -102.5t125.5 -148.5t72 -171.5t21.5 -175.5q0 -204 -64.5 -372.5t-177 -280t-266 -172t-330.5 -60.5q-138 0 -251.5 38.5t-189.5 103t-128.5 150t-76 177.5t-23.5 189q0 195 64.5 358.5t177.5 273.5
t266.5 171t330.5 61zM799 139q135 0 251.5 51t199.5 141.5t130 219t47 278.5q0 69 -13.5 134t-48 131.5t-87 115.5t-138 80t-192.5 31q-185 0 -326.5 -83t-222 -244t-80.5 -380q0 -61 15 -123.5t51.5 -126.5t90 -113.5t137.5 -80.5t186 -31z" />
    <glyph glyph-name="omacron" unicode="&#x14d;" horiz-adv-x="1208" 
d="M367 1382h698l-21 -112h-698zM666 1083q98 0 179.5 -27.5t136 -73t92 -105.5t54.5 -124t17 -130q0 -312 -157.5 -480t-444.5 -168q-114 0 -208 41.5t-152 109t-89 149t-31 167.5q0 154 48.5 277.5t132 202t191.5 120t231 41.5zM657 924q-81 0 -153.5 -31.5t-129 -89.5
t-89.5 -148t-33 -200q0 -78 33.5 -149.5t103.5 -121t160 -49.5q201 0 303 120t102 343q0 63 -17 119t-51 103.5t-93 75.5t-136 28z" />
    <glyph glyph-name="Obreve" unicode="&#x14e;" horiz-adv-x="1673" 
d="M1327 1810q-20 -76 -71 -134t-115 -86.5t-131 -28.5q-130 0 -210.5 69t-82.5 180h147q1 -52 40 -85t97 -33q59 0 108.5 33t66.5 85h151zM958 1491q143 0 258.5 -39t190.5 -102.5t125.5 -148.5t72 -171.5t21.5 -175.5q0 -204 -64.5 -372.5t-177 -280t-266 -172
t-330.5 -60.5q-138 0 -251.5 38.5t-189.5 103t-128.5 150t-76 177.5t-23.5 189q0 195 64.5 358.5t177.5 273.5t266.5 171t330.5 61zM799 139q135 0 251.5 51t199.5 141.5t130 219t47 278.5q0 69 -13.5 134t-48 131.5t-87 115.5t-138 80t-192.5 31q-185 0 -326.5 -83
t-222 -244t-80.5 -380q0 -61 15 -123.5t51.5 -126.5t90 -113.5t137.5 -80.5t186 -31z" />
    <glyph glyph-name="obreve" unicode="&#x14f;" horiz-adv-x="1208" 
d="M702 1184q-132 0 -208.5 77.5t-63.5 200.5h148q-6 -67 27 -106t104 -39q73 0 118.5 39t61.5 106h151q-29 -124 -121.5 -201t-216.5 -77zM666 1083q98 0 179.5 -27.5t136 -73t92 -105.5t54.5 -124t17 -130q0 -312 -157.5 -480t-444.5 -168q-114 0 -208 41.5t-152 109
t-89 149t-31 167.5q0 154 48.5 277.5t132 202t191.5 120t231 41.5zM657 924q-81 0 -153.5 -31.5t-129 -89.5t-89.5 -148t-33 -200q0 -78 33.5 -149.5t103.5 -121t160 -49.5q201 0 303 120t102 343q0 63 -17 119t-51 103.5t-93 75.5t-136 28z" />
    <glyph glyph-name="Ohungarumlaut" unicode="&#x150;" horiz-adv-x="1673" 
d="M961 1808h229l-297 -231h-158zM1282 1808h229l-299 -231h-157zM958 1491q143 0 258.5 -39t190.5 -102.5t125.5 -148.5t72 -171.5t21.5 -175.5q0 -204 -64.5 -372.5t-177 -280t-266 -172t-330.5 -60.5q-138 0 -251.5 38.5t-189.5 103t-128.5 150t-76 177.5t-23.5 189
q0 195 64.5 358.5t177.5 273.5t266.5 171t330.5 61zM799 139q135 0 251.5 51t199.5 141.5t130 219t47 278.5q0 69 -13.5 134t-48 131.5t-87 115.5t-138 80t-192.5 31q-185 0 -326.5 -83t-222 -244t-80.5 -380q0 -61 15 -123.5t51.5 -126.5t90 -113.5t137.5 -80.5t186 -31z
" />
    <glyph glyph-name="ohungarumlaut" unicode="&#x151;" horiz-adv-x="1208" 
d="M547 1462h217l-295 -268h-137zM866 1462h217l-292 -268h-140zM666 1083q98 0 179.5 -27.5t136 -73t92 -105.5t54.5 -124t17 -130q0 -312 -157.5 -480t-444.5 -168q-114 0 -208 41.5t-152 109t-89 149t-31 167.5q0 154 48.5 277.5t132 202t191.5 120t231 41.5zM657 924
q-81 0 -153.5 -31.5t-129 -89.5t-89.5 -148t-33 -200q0 -78 33.5 -149.5t103.5 -121t160 -49.5q201 0 303 120t102 343q0 63 -17 119t-51 103.5t-93 75.5t-136 28z" />
    <glyph glyph-name="OE" unicode="&#x152;" horiz-adv-x="2414" 
d="M119 627q0 195 64.5 358.5t177.5 273.5t266.5 171t330.5 61q208 0 338.5 -78t194.5 -209l47 258h911l-28 -170h-715l-82 -465h670l-29 -168h-670l-88 -489h721l-30 -170h-918l29 158q-208 -189 -521 -189q-138 0 -251.5 38.5t-189.5 103t-128.5 150t-76 177.5t-23.5 189z
M319 614q0 -61 15 -123.5t51.5 -126.5t90 -113.5t137.5 -80.5t186 -31q180 0 322.5 87.5t222 245t79.5 357.5q0 69 -13 134t-47 131.5t-86 115.5t-137 80t-192 31q-185 0 -326.5 -83t-222 -244t-80.5 -380z" />
    <glyph glyph-name="oe" unicode="&#x153;" horiz-adv-x="2000" 
d="M63 442q0 154 47.5 277.5t129.5 202t187.5 120t225.5 41.5q155 0 253 -65t145 -174q71 115 185 177t259 62q89 0 162 -27t122 -72t83.5 -106t50.5 -127t18 -137q3 -80 -6 -143h-809q0 -338 283 -338q123 0 187 45t102 131h192q-71 -176 -191 -255t-309 -79
q-286 0 -383 228q-140 -228 -467 -228q-111 0 -202.5 41.5t-147.5 109t-86.5 149t-30.5 167.5zM1139 625h614q-8 133 -80.5 217t-195.5 84q-130 0 -215 -83t-123 -218zM252 455q0 -57 19.5 -113.5t54.5 -102.5t90 -75t121 -29q197 0 294 119.5t97 343.5q0 63 -15.5 119
t-47 103.5t-88.5 75.5t-132 28q-162 0 -277.5 -126.5t-115.5 -342.5z" />
    <glyph glyph-name="Racute" unicode="&#x154;" horiz-adv-x="1366" 
d="M944 1808h283l-365 -231h-215zM61 0l258 1462h512q96 0 174.5 -23t129.5 -60.5t86 -86t50 -98.5t15 -100q0 -95 -24.5 -167.5t-72.5 -123.5t-102.5 -84t-132.5 -64q26 -12 45.5 -27t33.5 -40t23 -45.5t17.5 -62.5t12.5 -70t12 -88q21 -170 86 -314v-8h-213
q-52 155 -76 360q-7 54 -22 93.5t-43 73.5t-75.5 51.5t-113.5 17.5h-274l-105 -596h-201zM395 764h324q79 0 144 17t115.5 52t78.5 94.5t28 139.5q0 24 -4.5 49t-22 59t-45.5 59t-80.5 42.5t-121.5 17.5h-319z" />
    <glyph glyph-name="racute" unicode="&#x155;" horiz-adv-x="684" 
d="M532 1462h238l-278 -268h-140zM43 0l186 1059h191l-27 -148q53 65 143 108t189 50l-35 -190q-154 -7 -225 -62q-59 -44 -90 -120t-53 -205l-89 -492h-190z" />
    <glyph glyph-name="uni0156" unicode="&#x156;" horiz-adv-x="1366" 
d="M61 0l258 1462h512q96 0 174.5 -23t129.5 -60.5t86 -86t50 -98.5t15 -100q0 -95 -24.5 -167.5t-72.5 -123.5t-102.5 -84t-132.5 -64q26 -12 45.5 -27t33.5 -40t23 -45.5t17.5 -62.5t12.5 -70t12 -88q21 -170 86 -314v-8h-213q-52 155 -76 360q-7 54 -22 93.5t-43 73.5
t-75.5 51.5t-113.5 17.5h-274l-105 -596h-201zM395 764h324q79 0 144 17t115.5 52t78.5 94.5t28 139.5q0 24 -4.5 49t-22 59t-45.5 59t-80.5 42.5t-121.5 17.5h-319zM496 -104h227l-27 -158q-17 -85 -78.5 -127.5t-156.5 -42.5l12 72q32 7 52 15.5t29 21t11 18t6 20.5h-108z
" />
    <glyph glyph-name="uni0157" unicode="&#x157;" horiz-adv-x="684" 
d="M43 0l186 1059h191l-27 -148q53 65 143 108t189 50l-35 -190q-154 -7 -225 -62q-59 -44 -90 -120t-53 -205l-89 -492h-190zM16 -104h228l-27 -158q-17 -85 -78.5 -127.5t-156.5 -42.5l12 72q32 7 52 15.5t29 21t11 18t6 20.5h-108z" />
    <glyph glyph-name="Rcaron" unicode="&#x158;" horiz-adv-x="1366" 
d="M700 1577l-202 231h209l102 -131l149 131h209l-254 -231h-213zM61 0l258 1462h512q96 0 174.5 -23t129.5 -60.5t86 -86t50 -98.5t15 -100q0 -95 -24.5 -167.5t-72.5 -123.5t-102.5 -84t-132.5 -64q26 -12 45.5 -27t33.5 -40t23 -45.5t17.5 -62.5t12.5 -70t12 -88
q21 -170 86 -314v-8h-213q-52 155 -76 360q-7 54 -22 93.5t-43 73.5t-75.5 51.5t-113.5 17.5h-274l-105 -596h-201zM395 764h324q79 0 144 17t115.5 52t78.5 94.5t28 139.5q0 24 -4.5 49t-22 59t-45.5 59t-80.5 42.5t-121.5 17.5h-319z" />
    <glyph glyph-name="rcaron" unicode="&#x159;" horiz-adv-x="684" 
d="M403 1194l-182 268h195l104 -170l164 170h195l-279 -268h-197zM43 0l186 1059h191l-27 -148q53 65 143 108t189 50l-35 -190q-154 -7 -225 -62q-59 -44 -90 -120t-53 -205l-89 -492h-190z" />
    <glyph glyph-name="Sacute" unicode="&#x15a;" horiz-adv-x="1273" 
d="M893 1808h283l-365 -231h-215zM274 455q14 -86 53.5 -150.5t94 -100t112.5 -52.5t119 -17q127 0 218.5 67.5t91.5 182.5q0 36 -8 66t-27 53.5t-36.5 40t-52 34.5t-57 28t-67 28.5t-68.5 28.5q-50 22 -82 36.5t-76.5 37t-72.5 42t-61.5 46t-53.5 54t-38.5 61.5t-27 74
t-8.5 85q0 96 42.5 173.5t113.5 125.5t160 73t186 25q213 0 338 -115.5t158 -326.5h-195q-21 130 -96.5 201t-204.5 71q-134 0 -214.5 -59.5t-80.5 -165.5q0 -33 9.5 -61.5t30.5 -52.5t43.5 -43t60.5 -40t68.5 -35t80.5 -36q179 -77 244 -116q141 -87 176 -211
q14 -48 14 -104q0 -94 -28.5 -169t-77 -124.5t-115.5 -82.5t-140.5 -47.5t-154.5 -14.5q-149 0 -271.5 56t-203.5 168.5t-96 265.5h200z" />
    <glyph glyph-name="sacute" unicode="&#x15b;" horiz-adv-x="983" 
d="M631 1462h237l-278 -268h-139zM762 762q-18 93 -75.5 128.5t-156.5 35.5q-86 0 -145 -36t-59 -99q0 -36 11 -60.5t47 -47t61 -33.5t96 -37q12 -5 18 -7q58 -21 95 -36.5t84 -42.5t74 -55t46 -69.5t19 -91.5q0 -89 -39 -156.5t-102.5 -105t-135 -56t-147.5 -18.5
q-82 0 -153.5 20t-131 60t-96.5 108.5t-43 158.5h186q17 -101 74 -145t174 -44q92 0 157.5 42.5t65.5 111.5q0 62 -50.5 99t-176.5 79q-40 14 -64 22.5t-62.5 25.5t-62 32t-51.5 39t-44 50t-27 61t-11 75q0 80 36 142.5t95.5 98.5t129 54t145.5 18q175 0 280.5 -83
t118.5 -238h-180z" />
    <glyph glyph-name="Scircumflex" unicode="&#x15c;" horiz-adv-x="1273" 
d="M406 1577l249 231h213l207 -231h-209l-104 129l-148 -129h-208zM274 455q14 -86 53.5 -150.5t94 -100t112.5 -52.5t119 -17q127 0 218.5 67.5t91.5 182.5q0 36 -8 66t-27 53.5t-36.5 40t-52 34.5t-57 28t-67 28.5t-68.5 28.5q-50 22 -82 36.5t-76.5 37t-72.5 42t-61.5 46
t-53.5 54t-38.5 61.5t-27 74t-8.5 85q0 96 42.5 173.5t113.5 125.5t160 73t186 25q213 0 338 -115.5t158 -326.5h-195q-21 130 -96.5 201t-204.5 71q-134 0 -214.5 -59.5t-80.5 -165.5q0 -33 9.5 -61.5t30.5 -52.5t43.5 -43t60.5 -40t68.5 -35t80.5 -36q179 -77 244 -116
q141 -87 176 -211q14 -48 14 -104q0 -94 -28.5 -169t-77 -124.5t-115.5 -82.5t-140.5 -47.5t-154.5 -14.5q-149 0 -271.5 56t-203.5 168.5t-96 265.5h200z" />
    <glyph glyph-name="scircumflex" unicode="&#x15d;" horiz-adv-x="983" 
d="M238 1194l280 268h195l182 -268h-195l-102 170l-164 -170h-196zM762 762q-18 93 -75.5 128.5t-156.5 35.5q-86 0 -145 -36t-59 -99q0 -36 11 -60.5t47 -47t61 -33.5t96 -37q12 -5 18 -7q58 -21 95 -36.5t84 -42.5t74 -55t46 -69.5t19 -91.5q0 -89 -39 -156.5t-102.5 -105
t-135 -56t-147.5 -18.5q-82 0 -153.5 20t-131 60t-96.5 108.5t-43 158.5h186q17 -101 74 -145t174 -44q92 0 157.5 42.5t65.5 111.5q0 62 -50.5 99t-176.5 79q-40 14 -64 22.5t-62.5 25.5t-62 32t-51.5 39t-44 50t-27 61t-11 75q0 80 36 142.5t95.5 98.5t129 54t145.5 18
q175 0 280.5 -83t118.5 -238h-180z" />
    <glyph glyph-name="Scedilla" unicode="&#x15e;" horiz-adv-x="1273" 
d="M727 834q179 -77 244 -116q141 -87 176 -211q14 -48 14 -104q0 -94 -28.5 -169t-77 -124.5t-115.5 -82.5t-140.5 -47.5t-154.5 -14.5h-18l-74 -69l2 -5q37 11 74 11q72 0 116 -39.5t31 -110.5q-9 -49 -39 -86t-72.5 -57t-87 -29.5t-90.5 -9.5q-100 0 -182 39l57 106
q23 -17 61 -28t71 -11q47 0 81.5 15.5t40.5 48.5q4 28 -19.5 43.5t-64.5 15.5q-33 0 -86 -16l-40 80l108 114q-181 35 -300.5 159.5t-139.5 318.5h200q14 -86 53.5 -150.5t94 -100t112.5 -52.5t119 -17q127 0 218.5 67.5t91.5 182.5q0 36 -8 66t-27 53.5t-36.5 40t-52 34.5
t-57 28t-67 28.5t-68.5 28.5q-50 22 -82 36.5t-76.5 37t-72.5 42t-61.5 46t-53.5 54t-38.5 61.5t-27 74t-8.5 85q0 96 42.5 173.5t113.5 125.5t160 73t186 25q213 0 338 -115.5t158 -326.5h-195q-21 130 -96.5 201t-204.5 71q-134 0 -214.5 -59.5t-80.5 -165.5
q0 -33 9.5 -61.5t30.5 -52.5t43.5 -43t60.5 -40t68.5 -35t80.5 -36z" />
    <glyph glyph-name="scedilla" unicode="&#x15f;" horiz-adv-x="983" 
d="M559 606q58 -21 95 -36.5t84 -42.5t74 -55t46 -69.5t19 -91.5q0 -89 -39 -156.5t-102.5 -105t-135 -56t-147.5 -18.5h-13l-84 -84l4 -4q24 15 70 15q72 0 116.5 -39.5t31.5 -110.5q-9 -49 -39 -86t-72.5 -57t-87 -29.5t-90.5 -9.5q-101 0 -183 39l58 102q53 -39 117 -39
q48 0 89.5 16.5t47.5 47.5q4 29 -19.5 46t-64.5 17q-33 0 -86 -16l-41 80l131 123q-131 25 -215 108.5t-94 227.5h186q17 -101 74 -145t174 -44q92 0 157.5 42.5t65.5 111.5q0 62 -50.5 99t-176.5 79q-40 14 -64 22.5t-62.5 25.5t-62 32t-51.5 39t-44 50t-27 61t-11 75
q0 80 36 142.5t95.5 98.5t129 54t145.5 18q175 0 280.5 -83t118.5 -238h-180q-18 93 -75.5 128.5t-156.5 35.5q-86 0 -145 -36t-59 -99q0 -36 11 -60.5t47 -47t61 -33.5t96 -37q12 -5 18 -7z" />
    <glyph glyph-name="Scaron" unicode="&#x160;" horiz-adv-x="1273" 
d="M649 1577l-203 231h209l103 -131l149 131h209l-254 -231h-213zM274 455q14 -86 53.5 -150.5t94 -100t112.5 -52.5t119 -17q127 0 218.5 67.5t91.5 182.5q0 36 -8 66t-27 53.5t-36.5 40t-52 34.5t-57 28t-67 28.5t-68.5 28.5q-50 22 -82 36.5t-76.5 37t-72.5 42t-61.5 46
t-53.5 54t-38.5 61.5t-27 74t-8.5 85q0 96 42.5 173.5t113.5 125.5t160 73t186 25q213 0 338 -115.5t158 -326.5h-195q-21 130 -96.5 201t-204.5 71q-134 0 -214.5 -59.5t-80.5 -165.5q0 -33 9.5 -61.5t30.5 -52.5t43.5 -43t60.5 -40t68.5 -35t80.5 -36q179 -77 244 -116
q141 -87 176 -211q14 -48 14 -104q0 -94 -28.5 -169t-77 -124.5t-115.5 -82.5t-140.5 -47.5t-154.5 -14.5q-149 0 -271.5 56t-203.5 168.5t-96 265.5h200z" />
    <glyph glyph-name="scaron" unicode="&#x161;" horiz-adv-x="983" 
d="M504 1194l-182 268h194l105 -170l163 170h195l-279 -268h-196zM762 762q-18 93 -75.5 128.5t-156.5 35.5q-86 0 -145 -36t-59 -99q0 -36 11 -60.5t47 -47t61 -33.5t96 -37q12 -5 18 -7q58 -21 95 -36.5t84 -42.5t74 -55t46 -69.5t19 -91.5q0 -89 -39 -156.5t-102.5 -105
t-135 -56t-147.5 -18.5q-82 0 -153.5 20t-131 60t-96.5 108.5t-43 158.5h186q17 -101 74 -145t174 -44q92 0 157.5 42.5t65.5 111.5q0 62 -50.5 99t-176.5 79q-40 14 -64 22.5t-62.5 25.5t-62 32t-51.5 39t-44 50t-27 61t-11 75q0 80 36 142.5t95.5 98.5t129 54t145.5 18
q175 0 280.5 -83t118.5 -238h-180z" />
    <glyph glyph-name="uni0162" unicode="&#x162;" horiz-adv-x="1165" 
d="M1294 1462l-30 -170h-447l-227 -1292h-201l227 1292h-446l31 170h1093zM336 -285l33 181h227l-27 -158q-17 -85 -78.5 -127.5t-156.5 -42.5l12 72q32 7 52 15.5t29 21t11 18t6 20.5h-108z" />
    <glyph glyph-name="uni0163" unicode="&#x163;" horiz-adv-x="626" 
d="M424 903l-107 -604q-24 -143 103 -143h78l-27 -156h-90q-151 0 -214.5 82.5t-39.5 214.5l106 606h-157l26 156h158l51 291h191l-51 -291h200l-26 -156h-201zM121 -285l33 181h227l-27 -158q-17 -85 -78.5 -127.5t-156.5 -42.5l12 72q32 7 52 15.5t29 21t11 18t6 20.5
h-108z" />
    <glyph glyph-name="Tcaron" unicode="&#x164;" horiz-adv-x="1165" 
d="M891 1577h-213l-203 231h209l102 -131l150 131h209zM1294 1462l-30 -170h-447l-227 -1292h-201l227 1292h-446l31 170h1093z" />
    <glyph glyph-name="tcaron" unicode="&#x165;" horiz-adv-x="626" 
d="M635 1462h201l-150 -354h-125zM502 1350l-51 -291h200l-26 -156h-201l-107 -604q-24 -143 103 -143h78l-27 -156h-90q-151 0 -214.5 82.5t-39.5 214.5l106 606h-157l26 156h158l51 291h191z" />
    <glyph glyph-name="Tbar" unicode="&#x166;" horiz-adv-x="1165" 
d="M1264 1292h-447l-51 -299h301l-25 -143h-303l-149 -850h-201l150 850h-308l27 143h305l53 299h-446l31 170h1093z" />
    <glyph glyph-name="tbar" unicode="&#x167;" horiz-adv-x="626" 
d="M625 903h-201l-35 -198h191l-25 -132h-188l-50 -274q-24 -143 103 -143h78l-27 -156h-90q-151 0 -214.5 82.5t-39.5 214.5l49 276h-143l24 132h142l34 198h-157l26 156h158l51 291h191l-51 -291h200z" />
    <glyph glyph-name="Utilde" unicode="&#x168;" horiz-adv-x="1396" 
d="M530 1575q25 100 91 162.5t165 62.5q57 0 143 -41t126 -41q35 0 56.5 22.5t37.5 67.5h135q-26 -100 -93 -164.5t-157 -64.5q-51 0 -103.5 20t-98 40t-78.5 20q-76 0 -97 -84h-127zM1249 518q-23 -133 -65.5 -231.5t-112.5 -172.5t-174 -111.5t-242 -37.5
q-286 0 -418.5 169t-82.5 452l155 876h201l-158 -891q-37 -203 47 -319.5t265 -116.5q91 0 158.5 27t112.5 81t72 123.5t44 165.5l163 930h203z" />
    <glyph glyph-name="utilde" unicode="&#x169;" horiz-adv-x="1142" 
d="M344 1212q25 100 91 164t165 64q57 0 142.5 -41t125.5 -41q35 0 57 22t38 66h135q-26 -99 -92.5 -163t-157.5 -64q-51 0 -103.5 19.5t-98.5 39.5t-79 20q-74 0 -96 -86h-127zM1102 1059l-187 -1059h-178l25 147q-137 -172 -348 -172q-100 0 -170 36.5t-103.5 99.5
t-44 147t9.5 178l111 623h191l-103 -578q-14 -80 -14 -140t11.5 -98.5t35.5 -62.5t55.5 -33.5t75.5 -9.5q125 0 220.5 106.5t131.5 305.5l88 510h193z" />
    <glyph glyph-name="Umacron" unicode="&#x16a;" horiz-adv-x="1396" 
d="M602 1753h621l-21 -123h-620zM1249 518q-23 -133 -65.5 -231.5t-112.5 -172.5t-174 -111.5t-242 -37.5q-286 0 -418.5 169t-82.5 452l155 876h201l-158 -891q-37 -203 47 -319.5t265 -116.5q91 0 158.5 27t112.5 81t72 123.5t44 165.5l163 930h203z" />
    <glyph glyph-name="umacron" unicode="&#x16b;" horiz-adv-x="1142" 
d="M371 1382h698l-20 -112h-699zM1102 1059l-187 -1059h-178l25 147q-137 -172 -348 -172q-100 0 -170 36.5t-103.5 99.5t-44 147t9.5 178l111 623h191l-103 -578q-14 -80 -14 -140t11.5 -98.5t35.5 -62.5t55.5 -33.5t75.5 -9.5q125 0 220.5 106.5t131.5 305.5l88 510h193z
" />
    <glyph glyph-name="Ubreve" unicode="&#x16c;" horiz-adv-x="1396" 
d="M1229 1810q-20 -76 -71.5 -134t-115.5 -86.5t-131 -28.5q-130 0 -210.5 69t-82.5 180h148q1 -52 40 -85t97 -33q59 0 108 33t66 85h152zM1249 518q-23 -133 -65.5 -231.5t-112.5 -172.5t-174 -111.5t-242 -37.5q-286 0 -418.5 169t-82.5 452l155 876h201l-158 -891
q-37 -203 47 -319.5t265 -116.5q91 0 158.5 27t112.5 81t72 123.5t44 165.5l163 930h203z" />
    <glyph glyph-name="ubreve" unicode="&#x16d;" horiz-adv-x="1142" 
d="M707 1184q-133 0 -209.5 77.5t-63.5 200.5h148q-6 -67 27 -106t104 -39q73 0 118.5 39t61.5 106h151q-30 -124 -122 -201t-215 -77zM1102 1059l-187 -1059h-178l25 147q-137 -172 -348 -172q-100 0 -170 36.5t-103.5 99.5t-44 147t9.5 178l111 623h191l-103 -578
q-14 -80 -14 -140t11.5 -98.5t35.5 -62.5t55.5 -33.5t75.5 -9.5q125 0 220.5 106.5t131.5 305.5l88 510h193z" />
    <glyph glyph-name="Uring" unicode="&#x16e;" horiz-adv-x="1396" 
d="M696 1790q19 98 89.5 160.5t164.5 62.5q97 0 152.5 -65.5t38.5 -157.5q-17 -93 -90 -157t-166 -64q-95 0 -150.5 64.5t-38.5 156.5zM821 1788q-8 -43 14 -70.5t66 -27.5q43 0 75 27.5t40 70.5q7 44 -15 72t-65 28q-44 0 -75.5 -28t-39.5 -72zM1249 518
q-23 -133 -65.5 -231.5t-112.5 -172.5t-174 -111.5t-242 -37.5q-286 0 -418.5 169t-82.5 452l155 876h201l-158 -891q-37 -203 47 -319.5t265 -116.5q91 0 158.5 27t112.5 81t72 123.5t44 165.5l163 930h203z" />
    <glyph glyph-name="uring" unicode="&#x16f;" horiz-adv-x="1142" 
d="M492 1354q17 93 91 158t160 65q97 0 152.5 -64.5t38.5 -158.5q-17 -91 -92 -156t-160 -65q-97 0 -152 64.5t-38 156.5zM614 1352q-8 -43 14 -71t66 -28t76.5 28t40.5 71q6 45 -16 72.5t-66 27.5t-75.5 -28t-39.5 -72zM1102 1059l-187 -1059h-178l25 147
q-137 -172 -348 -172q-100 0 -170 36.5t-103.5 99.5t-44 147t9.5 178l111 623h191l-103 -578q-14 -80 -14 -140t11.5 -98.5t35.5 -62.5t55.5 -33.5t75.5 -9.5q125 0 220.5 106.5t131.5 305.5l88 510h193z" />
    <glyph glyph-name="Uhungarumlaut" unicode="&#x170;" horiz-adv-x="1396" 
d="M743 1808h230l-297 -231h-158zM1065 1808h229l-299 -231h-157zM1249 518q-23 -133 -65.5 -231.5t-112.5 -172.5t-174 -111.5t-242 -37.5q-286 0 -418.5 169t-82.5 452l155 876h201l-158 -891q-37 -203 47 -319.5t265 -116.5q91 0 158.5 27t112.5 81t72 123.5t44 165.5
l163 930h203z" />
    <glyph glyph-name="uhungarumlaut" unicode="&#x171;" horiz-adv-x="1142" 
d="M551 1462h217l-295 -268h-137zM870 1462h217l-292 -268h-140zM1102 1059l-187 -1059h-178l25 147q-137 -172 -348 -172q-100 0 -170 36.5t-103.5 99.5t-44 147t9.5 178l111 623h191l-103 -578q-14 -80 -14 -140t11.5 -98.5t35.5 -62.5t55.5 -33.5t75.5 -9.5
q125 0 220.5 106.5t131.5 305.5l88 510h193z" />
    <glyph glyph-name="Uogonek" unicode="&#x172;" horiz-adv-x="1396" 
d="M1214 1462h203l-168 -944q-44 -248 -162 -386.5t-342 -162.5q-173 -117 -180 -186q-6 -52 19 -72t92 -20l-23 -121q-135 0 -204 47t-52 143q8 60 46.5 107t109.5 104q-233 31 -338.5 195.5t-60.5 419.5l155 876h201l-158 -891q-37 -203 47 -319.5t265 -116.5
q91 0 158.5 27t112.5 81t72 123.5t44 165.5z" />
    <glyph glyph-name="uogonek" unicode="&#x173;" horiz-adv-x="1142" 
d="M915 0q-181 -118 -208 -217q-13 -50 14 -73t94 -23l-20 -117q-132 0 -194.5 46.5t-45.5 143.5q10 68 54 120.5t130 119.5h-2l25 147q-137 -172 -348 -172q-100 0 -170 36.5t-103.5 99.5t-44 147t9.5 178l111 623h191l-103 -578q-14 -80 -14 -140t11.5 -98.5t35.5 -62.5
t55.5 -33.5t75.5 -9.5q125 0 220.5 106.5t131.5 305.5l88 510h193z" />
    <glyph glyph-name="Wcircumflex" unicode="&#x174;" horiz-adv-x="1884" 
d="M793 1577l249 231h213l207 -231h-209l-104 129l-148 -129h-208zM184 1462h207l68 -1249h2l502 1249h280l51 -1251h2l523 1251h209l-637 -1462h-273l-49 1262h-2l-510 -1262h-268z" />
    <glyph glyph-name="wcircumflex" unicode="&#x175;" horiz-adv-x="1542" 
d="M559 1194l281 268h194l183 -268h-195l-102 170l-164 -170h-197zM227 0l-116 1059h196l53 -649q2 -33 5.5 -98.5t5.5 -98.5h2q10 24 37 92t43 103l286 651h248l57 -649q10 -168 13 -199h2q14 34 40.5 99.5t41.5 99.5l280 649h199l-492 -1059h-219l-63 686l-17 180h-2
q-13 -30 -37 -90t-38 -90l-306 -686h-219z" />
    <glyph glyph-name="Ycircumflex" unicode="&#x176;" horiz-adv-x="1280" 
d="M489 1577l250 231h213l207 -231h-209l-104 129l-148 -129h-209zM197 1462h227l256 -678h4l496 678h233l-661 -862l-107 -600h-201l107 600z" />
    <glyph glyph-name="ycircumflex" unicode="&#x177;" horiz-adv-x="1067" 
d="M322 1194l280 268h195l182 -268h-195l-102 170l-164 -170h-196zM111 1059h196l125 -604q10 -53 53 -265h2l138 267l311 602h209l-701 -1264q-56 -101 -128 -153t-175 -52h-147l26 160h117q29 0 52.5 7.5t38 16t31.5 30t24.5 34t25.5 43.5l51 90z" />
    <glyph glyph-name="Ydieresis" unicode="&#x178;" horiz-adv-x="1280" 
d="M578 1800h186l-37 -215h-186zM963 1800h186l-37 -215h-186zM197 1462h227l256 -678h4l496 678h233l-661 -862l-107 -600h-201l107 600z" />
    <glyph glyph-name="Zacute" unicode="&#x179;" horiz-adv-x="1249" 
d="M1235 1808l-365 -231h-215l297 231h283zM1298 1462l-30 -178l-992 -1108h822l-33 -176h-1067l31 180l995 1106h-756l31 176h999z" />
    <glyph glyph-name="zacute" unicode="&#x17a;" horiz-adv-x="1005" 
d="M676 1462h237l-278 -268h-139zM0 131l737 768h-133h-424l27 160h803l-21 -117l-749 -782h125h503l-26 -160h-865z" />
    <glyph glyph-name="Zdotaccent" unicode="&#x17b;" horiz-adv-x="1249" 
d="M934 1792l-37 -207h-188l36 207h189zM1298 1462l-30 -178l-992 -1108h822l-33 -176h-1067l31 180l995 1106h-756l31 176h999z" />
    <glyph glyph-name="zdotaccent" unicode="&#x17c;" horiz-adv-x="1005" 
d="M711 1221h-187l37 215h187zM0 131l737 768h-133h-424l27 160h803l-21 -117l-749 -782h125h503l-26 -160h-865z" />
    <glyph glyph-name="Zcaron" unicode="&#x17d;" horiz-adv-x="1249" 
d="M922 1577h-213l-203 231h209l102 -131l150 131h209zM1298 1462l-30 -178l-992 -1108h822l-33 -176h-1067l31 180l995 1106h-756l31 176h999z" />
    <glyph glyph-name="zcaron" unicode="&#x17e;" horiz-adv-x="1005" 
d="M549 1194l-182 268h194l105 -170l163 170h195l-279 -268h-196zM0 131l737 768h-133h-424l27 160h803l-21 -117l-749 -782h125h503l-26 -160h-865z" />
    <glyph glyph-name="florin" unicode="&#x192;" horiz-adv-x="792" 
d="M854 1462h121l-57 -159h-62q-64 0 -105 -29t-65 -96l-92 -260h176l-51 -148h-176l-277 -780q-45 -124 -143 -204.5t-236 -80.5h-94l55 152h62q56 0 103.5 45.5t70.5 113.5l266 754h-190l51 148h192l99 280q96 264 352 264z" />
    <glyph glyph-name="Aringacute" unicode="&#x1fa;" horiz-adv-x="1413" 
d="M895 1569q-95 0 -150 64.5t-38 156.5q19 97 86.5 158.5t158.5 64.5l193 150h282l-323 -205q66 -66 47 -168q-17 -93 -90 -157t-166 -64zM831 1788q-8 -43 14 -70.5t66 -27.5q43 0 75 27.5t40 70.5q7 44 -15 72t-65 28q-44 0 -75.5 -28t-39.5 -72zM731 1462h252l299 -1462
h-205l-78 420h-622l-223 -420h-211zM831 1282l-370 -702h510l-133 702h-7z" />
    <glyph glyph-name="aringacute" unicode="&#x1fb;" horiz-adv-x="1116" 
d="M641 1133q-97 0 -152 64.5t-38 156.5q13 72 63 129.5t117 81.5l153 229h238l-240 -231q62 -24 93 -81t18 -128q-17 -91 -92 -156t-160 -65zM573 1352q-8 -43 14 -71t66 -28t76.5 28t40.5 71q6 45 -16 72.5t-66 27.5t-75.5 -28t-39.5 -72zM616 1085q80 0 145 -15
t108.5 -40t75 -59.5t48.5 -72t24.5 -79t6.5 -78.5t-8 -73l-86 -455q-23 -129 -17 -213h-198q0 68 8 123q-37 -50 -131 -99t-221 -49q-74 0 -133.5 20t-96 50.5t-61 71t-34 78.5t-9.5 75q0 46 12.5 85.5t31 69.5t51.5 55.5t62.5 43t76 33t79.5 24.5t85.5 18t82 13.5
t80.5 10.5q11 1 16 2q124 17 178 55t54 100q0 72 -66 110t-166 38q-207 0 -260 -189h-190q12 63 48 123t91.5 110.5t137 81.5t175.5 31zM418 127q74 0 132.5 20.5t99.5 55.5t72.5 90t51 116.5t35.5 141.5q-46 -26 -64.5 -35t-77.5 -24.5t-153 -30.5q-56 -8 -93.5 -15.5
t-78 -21.5t-64.5 -32t-39.5 -46.5t-15.5 -66.5q0 -70 49 -111t146 -41z" />
    <glyph glyph-name="AEacute" unicode="&#x1fc;" horiz-adv-x="2072" 
d="M1679 1808h283l-365 -231h-215zM-57 0l1083 1462h1083l-30 -168h-719l-82 -467h676l-31 -168h-674l-88 -489h725l-28 -170h-926l78 449h-510l-328 -449h-229zM618 612h422l119 682h-41z" />
    <glyph glyph-name="aeacute" unicode="&#x1fd;" horiz-adv-x="1804" 
d="M1053 1462h237l-278 -268h-140zM389 -25q-90 0 -160 28.5t-110 75t-60 98t-20 104.5q0 57 19 104t48 79t74 57.5t86.5 40.5t97 27.5t94 18t89.5 12t71 9.5q110 19 153.5 50t43.5 97q0 152 -197 152q-207 0 -270 -187h-182q15 62 51 121t90.5 110t134.5 82t172 31
q269 0 349 -202q145 200 387 200q87 0 156 -23t113.5 -64.5t74.5 -95t42 -118.5t11.5 -132t-12.5 -138q-1 -6 -2 -16t-2 -15h-783q-20 -163 48.5 -255.5t201.5 -92.5q99 0 175.5 45t117.5 137h186q-149 -340 -481 -340q-152 0 -251 62t-132 184q-167 -246 -424 -246z
M979 627h584q13 141 -41 221t-181 80q-131 0 -227 -81.5t-135 -219.5zM399 129q56 0 111.5 20t108 60t92.5 111.5t57 164.5l10 62q-39 -20 -58.5 -28t-74 -21t-158.5 -31q-131 -23 -195.5 -63t-64.5 -123q0 -65 41.5 -108.5t130.5 -43.5z" />
    <glyph glyph-name="Oslashacute" unicode="&#x1fe;" horiz-adv-x="1673" 
d="M1415 1808l-364 -231h-215l297 231h282zM1741 1386l-213 -178q98 -155 98 -354q0 -204 -64.5 -372.5t-177 -280t-266 -172t-330.5 -60.5q-319 0 -501 199l-211 -178l-72 94l213 178q-98 160 -98 365q0 195 64.5 358.5t177.5 273.5t266.5 171t330.5 61q322 0 496 -186
l209 174zM319 614q0 -111 52 -221l938 787q-128 141 -361 141q-185 0 -326.5 -83t-222 -244t-80.5 -380zM1427 829q0 141 -53 250l-938 -786q130 -154 363 -154q135 0 251.5 51t199.5 141.5t130 219t47 278.5z" />
    <glyph glyph-name="oslashacute" unicode="&#x1ff;" horiz-adv-x="1208" 
d="M983 1462l-278 -268h-140l180 268h238zM1206 1008l-135 -127q74 -118 74 -258q0 -312 -157.5 -480t-444.5 -168q-196 0 -326 117l-133 -125l-80 78l141 131q-82 119 -82 266q0 154 48.5 277.5t132 202t191.5 120t231 41.5q204 0 333 -116l138 127zM252 455q0 -76 35 -148
l579 537q-77 80 -209 80q-81 0 -153.5 -31.5t-129 -89.5t-89.5 -148t-33 -200zM954 598q0 85 -26 150l-578 -533q80 -80 199 -80q201 0 303 120t102 343z" />
    <glyph glyph-name="uni0218" unicode="&#x218;" horiz-adv-x="1273" 
d="M274 455q14 -86 53.5 -150.5t94 -100t112.5 -52.5t119 -17q127 0 218.5 67.5t91.5 182.5q0 36 -8 66t-27 53.5t-36.5 40t-52 34.5t-57 28t-67 28.5t-68.5 28.5q-50 22 -82 36.5t-76.5 37t-72.5 42t-61.5 46t-53.5 54t-38.5 61.5t-27 74t-8.5 85q0 96 42.5 173.5
t113.5 125.5t160 73t186 25q213 0 338 -115.5t158 -326.5h-195q-21 130 -96.5 201t-204.5 71q-134 0 -214.5 -59.5t-80.5 -165.5q0 -33 9.5 -61.5t30.5 -52.5t43.5 -43t60.5 -40t68.5 -35t80.5 -36q179 -77 244 -116q141 -87 176 -211q14 -48 14 -104q0 -94 -28.5 -169
t-77 -124.5t-115.5 -82.5t-140.5 -47.5t-154.5 -14.5q-149 0 -271.5 56t-203.5 168.5t-96 265.5h200zM477 -104h228l-27 -158q-17 -85 -79 -127.5t-157 -42.5l13 72q32 7 52 15.5t29 21t11 18t6 20.5h-109z" />
    <glyph glyph-name="uni0219" unicode="&#x219;" horiz-adv-x="983" 
d="M762 762q-18 93 -75.5 128.5t-156.5 35.5q-86 0 -145 -36t-59 -99q0 -36 11 -60.5t47 -47t61 -33.5t96 -37q12 -5 18 -7q58 -21 95 -36.5t84 -42.5t74 -55t46 -69.5t19 -91.5q0 -89 -39 -156.5t-102.5 -105t-135 -56t-147.5 -18.5q-82 0 -153.5 20t-131 60t-96.5 108.5
t-43 158.5h186q17 -101 74 -145t174 -44q92 0 157.5 42.5t65.5 111.5q0 62 -50.5 99t-176.5 79q-40 14 -64 22.5t-62.5 25.5t-62 32t-51.5 39t-44 50t-27 61t-11 75q0 80 36 142.5t95.5 98.5t129 54t145.5 18q175 0 280.5 -83t118.5 -238h-180zM274 -104h228l-27 -158
q-17 -85 -78.5 -127.5t-156.5 -42.5l12 72q32 7 52 15.5t29 21t11 18t6 20.5h-108z" />
    <glyph glyph-name="uni021A" unicode="&#x21a;" horiz-adv-x="1165" 
d="M1294 1462l-30 -170h-447l-227 -1292h-201l227 1292h-446l31 170h1093zM336 -285l33 181h227l-27 -158q-17 -85 -78.5 -127.5t-156.5 -42.5l12 72q32 7 52 15.5t29 21t11 18t6 20.5h-108z" />
    <glyph glyph-name="uni021B" unicode="&#x21b;" horiz-adv-x="626" 
d="M424 903l-107 -604q-24 -143 103 -143h78l-27 -156h-90q-151 0 -214.5 82.5t-39.5 214.5l106 606h-157l26 156h158l51 291h191l-51 -291h200l-26 -156h-201zM121 -285l33 181h227l-27 -158q-17 -85 -78.5 -127.5t-156.5 -42.5l12 72q32 7 52 15.5t29 21t11 18t6 20.5
h-108z" />
    <glyph glyph-name="uni0237" unicode="&#x237;" horiz-adv-x="507" 
d="M465 1059l-209 -1192q-52 -270 -309 -270h-127l30 159h76q70 0 100.5 21.5t43.5 93.5l209 1188h186z" />
    <glyph glyph-name="circumflex" unicode="&#x2c6;" horiz-adv-x="825" 
d="M201 1194l280 268h195l182 -268h-194l-103 170l-164 -170h-196z" />
    <glyph glyph-name="caron" unicode="&#x2c7;" horiz-adv-x="825" 
d="M453 1194l-183 268h195l104 -170l164 170h195l-279 -268h-196z" />
    <glyph glyph-name="breve" unicode="&#x2d8;" horiz-adv-x="772" 
d="M522 1184q-132 0 -208.5 77.5t-63.5 200.5h147q-6 -67 27 -106t104 -39q73 0 119 39t62 106h151q-29 -124 -121.5 -201t-216.5 -77z" />
    <glyph glyph-name="dotaccent" unicode="&#x2d9;" horiz-adv-x="327" 
d="M381 1221h-186l36 215h187z" />
    <glyph glyph-name="ring" unicode="&#x2da;" horiz-adv-x="595" 
d="M221 1354q17 93 91.5 158t160.5 65q97 0 152.5 -64.5t38.5 -158.5q-17 -91 -92 -156t-160 -65q-97 0 -152.5 64.5t-38.5 156.5zM344 1352q-8 -43 14 -71t66 -28t76.5 28t40.5 71q6 45 -16 72.5t-66 27.5t-75.5 -28t-39.5 -72z" />
    <glyph glyph-name="ogonek" unicode="&#x2db;" horiz-adv-x="542" 
d="M348 0q-196 -125 -221 -217q-13 -50 15 -73t94 -23l-21 -117q-132 0 -194.5 46.5t-45.5 143.5q5 36 20.5 68t44.5 63.5t53 52.5t67 56h188z" />
    <glyph glyph-name="tilde" unicode="&#x2dc;" horiz-adv-x="1263" 
d="M381 1212q25 100 91 164t165 64q57 0 142.5 -41t125.5 -41q35 0 56.5 22t37.5 66h136q-26 -99 -92.5 -163t-157.5 -64q-51 0 -103.5 19.5t-98.5 39.5t-79 20q-74 0 -96 -86h-127z" />
    <glyph glyph-name="hungarumlaut" unicode="&#x2dd;" horiz-adv-x="835" 
d="M399 1462h217l-294 -268h-138zM719 1462h217l-293 -268h-139z" />
    <glyph glyph-name="gravecomb" unicode="&#x300;" 
d="M-123 1462l133 -268h-139l-231 268h237z" />
    <glyph glyph-name="acutecomb" unicode="&#x301;" 
d="M-53 1462h237l-278 -268h-139z" />
    <glyph glyph-name="uni0302" unicode="&#x302;" 
d="M-625 1194l281 268h194l183 -268h-195l-102 170l-164 -170h-197z" />
    <glyph glyph-name="tildecomb" unicode="&#x303;" 
d="M-883 1212q25 100 91 164t165 64q57 0 143 -41t126 -41q35 0 56.5 22t37.5 66h135q-26 -99 -92.5 -163t-157.5 -64q-51 0 -103.5 19.5t-98 39.5t-78.5 20q-75 0 -97 -86h-127z" />
    <glyph glyph-name="uni0304" unicode="&#x304;" 
d="M-616 1382h698l-21 -112h-698z" />
    <glyph glyph-name="uni0306" unicode="&#x306;" 
d="M-250 1184q-132 0 -208.5 77.5t-63.5 200.5h147q-6 -67 27 -106t104 -39q73 0 119 39t62 106h151q-29 -124 -121.5 -201t-216.5 -77z" />
    <glyph glyph-name="uni0307" unicode="&#x307;" 
d="M53 1221h-186l37 215h186z" />
    <glyph glyph-name="uni0308" unicode="&#x308;" 
d="M-469 1436h186l-36 -215h-189zM-100 1436h188l-37 -215h-188z" />
    <glyph glyph-name="uni030A" unicode="&#x30a;" 
d="M-375 1354q17 93 91.5 158t160.5 65q97 0 152.5 -64.5t38.5 -158.5q-17 -91 -92 -156t-160 -65q-97 0 -152.5 64.5t-38.5 156.5zM-252 1352q-8 -43 14 -71t66 -28t76.5 28t40.5 71q6 45 -16 72.5t-66 27.5t-75.5 -28t-39.5 -72z" />
    <glyph glyph-name="uni030B" unicode="&#x30b;" 
d="M-436 1462h217l-295 -268h-137zM-117 1462h217l-293 -268h-139z" />
    <glyph glyph-name="uni030C" unicode="&#x30c;" 
d="M-373 1194l-182 268h195l104 -170l164 170h194l-278 -268h-197z" />
    <glyph glyph-name="uni0312" unicode="&#x312;" 
d="M59 1241h-229l27 158q17 85 78.5 127.5t156.5 42.5l-12 -72q-38 -9 -60 -22.5t-26.5 -23t-8.5 -26.5q0 -1 -0.5 -2t-0.5 -2h106z" />
    <glyph glyph-name="uni0326" unicode="&#x326;" 
d="M-395 -104h227l-27 -158q-17 -85 -78.5 -127.5t-156.5 -42.5l12 72q42 9 64.5 24t26 23.5t8.5 27.5h-109z" />
    <glyph glyph-name="uni0327" unicode="&#x327;" 
d="M-473 -430q-100 0 -182 39l57 102q53 -39 117 -39q48 0 89.5 16.5t47.5 47.5q4 29 -19.5 46t-64.5 17q-33 0 -86 -16l-41 80l147 137h111l-109 -109l5 -4q24 15 69 15q72 0 116.5 -39.5t31.5 -110.5q-9 -49 -39 -86t-72.5 -57t-87 -29.5t-90.5 -9.5z" />
    <glyph glyph-name="uni0328" unicode="&#x328;" 
d="M-195 0q-196 -125 -221 -217q-13 -50 15 -73t94 -23l-21 -117q-131 0 -193.5 46.5t-45.5 143.5q9 67 53.5 119t130.5 121h188z" />
    <glyph glyph-name="uni0335" unicode="&#x335;" 
d="M-563 1194l20 115h699l-21 -115h-698z" />
    <glyph glyph-name="uni0338" unicode="&#x338;" 
d="M-6 1008l-1122 -1041l-80 78l1130 1049z" />
    <glyph glyph-name="uni0394" unicode="&#x394;" horiz-adv-x="1505" 
d="M-27 0l830 1458h170l334 -1458h-1334zM864 1272l-626 -1118h866z" />
    <glyph glyph-name="uni03A9" unicode="&#x3a9;" horiz-adv-x="1505" 
d="M-63 0l26 141h391l25 146q-301 146 -301 481q0 139 41.5 256.5t111.5 199.5t163.5 140t197.5 85.5t213 27.5q131 0 246 -45t193.5 -120t123.5 -174.5t45 -207.5q0 -80 -22 -162t-65.5 -158.5t-103.5 -141t-139.5 -112t-169.5 -69.5l-24 -146h391l-27 -141h-526l66 379
q140 24 243.5 107.5t153 195.5t49.5 236q0 74 -33 146t-91.5 130.5t-146.5 94.5t-190 36q-86 0 -162.5 -20.5t-144.5 -65t-117 -109.5t-77.5 -160.5t-28.5 -211.5q0 -275 284 -379l-65 -379h-530z" />
    <glyph glyph-name="uni03BC" unicode="&#x3bc;" horiz-adv-x="1161" 
d="M-35 -403l258 1462h191l-117 -664q-25 -132 28.5 -195t166.5 -63q120 0 211.5 103.5t127.5 302.5l91 516h192l-186 -1059h-191l23 135q-125 -160 -324 -160q-136 0 -207 41l-73 -419h-191z" />
    <glyph glyph-name="pi" unicode="&#x3c0;" horiz-adv-x="1226" 
d="M1049 844l-101 -578q-16 -91 13.5 -111t103.5 -3l35 8l-27 -150l-57 -10q-163 -32 -221.5 34.5t-32.5 211.5l104 598h-469l-147 -844h-182l147 844h-152l29 153h1149l-27 -153h-165z" />
    <glyph glyph-name="Wgrave" unicode="&#x1e80;" horiz-adv-x="1884" 
d="M1036 1808l215 -231h-200l-285 231h270zM184 1462h207l68 -1249h2l502 1249h280l51 -1251h2l523 1251h209l-637 -1462h-273l-49 1262h-2l-510 -1262h-268z" />
    <glyph glyph-name="wgrave" unicode="&#x1e81;" horiz-adv-x="1542" 
d="M881 1462l133 -268h-140l-231 268h238zM227 0l-116 1059h196l53 -649q2 -33 5.5 -98.5t5.5 -98.5h2q10 24 37 92t43 103l286 651h248l57 -649q10 -168 13 -199h2q14 34 40.5 99.5t41.5 99.5l280 649h199l-492 -1059h-219l-63 686l-17 180h-2q-13 -30 -37 -90t-38 -90
l-306 -686h-219z" />
    <glyph glyph-name="Wacute" unicode="&#x1e82;" horiz-adv-x="1884" 
d="M1278 1808h283l-365 -231h-215zM184 1462h207l68 -1249h2l502 1249h280l51 -1251h2l523 1251h209l-637 -1462h-273l-49 1262h-2l-510 -1262h-268z" />
    <glyph glyph-name="wacute" unicode="&#x1e83;" horiz-adv-x="1542" 
d="M952 1462h238l-279 -268h-139zM227 0l-116 1059h196l53 -649q2 -33 5.5 -98.5t5.5 -98.5h2q10 24 37 92t43 103l286 651h248l57 -649q10 -168 13 -199h2q14 34 40.5 99.5t41.5 99.5l280 649h199l-492 -1059h-219l-63 686l-17 180h-2q-13 -30 -37 -90t-38 -90l-306 -686
h-219z" />
    <glyph glyph-name="Wdieresis" unicode="&#x1e84;" horiz-adv-x="1884" 
d="M879 1800h186l-37 -215h-186zM1264 1800h186l-37 -215h-186zM184 1462h207l68 -1249h2l502 1249h280l51 -1251h2l523 1251h209l-637 -1462h-273l-49 1262h-2l-510 -1262h-268z" />
    <glyph glyph-name="wdieresis" unicode="&#x1e85;" horiz-adv-x="1542" 
d="M653 1436h187l-37 -215h-189zM1022 1436h188l-36 -215h-189zM227 0l-116 1059h196l53 -649q2 -33 5.5 -98.5t5.5 -98.5h2q10 24 37 92t43 103l286 651h248l57 -649q10 -168 13 -199h2q14 34 40.5 99.5t41.5 99.5l280 649h199l-492 -1059h-219l-63 686l-17 180h-2
q-13 -30 -37 -90t-38 -90l-306 -686h-219z" />
    <glyph glyph-name="uni1E9E" unicode="&#x1e9e;" horiz-adv-x="1388" 
d="M61 0l162 915q27 156 120 283.5t227 199.5t280 72q143 0 283 -46t235 -115l-469 -461q186 -28 276.5 -133.5t90.5 -261.5q0 -120 -47.5 -213t-130 -148.5t-186 -83.5t-222.5 -28q-126 0 -193 18l60 162q44 -17 137 -17q77 0 144 18.5t121 55t85 96.5t31 136
q0 107 -77 176t-230 69h-86l28 174l385 383q-75 52 -231 52q-151 0 -284.5 -127t-163.5 -306l-154 -870h-191z" />
    <glyph glyph-name="Ygrave" unicode="&#x1ef2;" horiz-adv-x="1280" 
d="M735 1808l215 -231h-200l-285 231h270zM197 1462h227l256 -678h4l496 678h233l-661 -862l-107 -600h-201l107 600z" />
    <glyph glyph-name="ygrave" unicode="&#x1ef3;" horiz-adv-x="1067" 
d="M643 1462l133 -268h-139l-231 268h237zM111 1059h196l125 -604q10 -53 53 -265h2l138 267l311 602h209l-701 -1264q-56 -101 -128 -153t-175 -52h-147l26 160h117q29 0 52.5 7.5t38 16t31.5 30t24.5 34t25.5 43.5l51 90z" />
    <glyph glyph-name="uni2011" unicode="&#x2011;" horiz-adv-x="999" 
d="M190 649h662l-33 -176h-661z" />
    <glyph glyph-name="endash" unicode="&#x2013;" horiz-adv-x="1363" 
d="M190 653h1027l-31 -168h-1026z" />
    <glyph glyph-name="emdash" unicode="&#x2014;" horiz-adv-x="1861" 
d="M190 655h1524l-31 -170h-1523z" />
    <glyph glyph-name="quoteleft" unicode="&#x2018;" horiz-adv-x="495" 
d="M436 973h-231l37 229l159 260h123l-151 -260h102z" />
    <glyph glyph-name="quoteright" unicode="&#x2019;" horiz-adv-x="491" 
d="M301 1462h231l-38 -229l-158 -260h-123l149 260h-102z" />
    <glyph glyph-name="quotesinglbase" unicode="&#x201a;" horiz-adv-x="493" 
d="M84 229h229l-37 -229l-159 -260h-121l151 260h-104z" />
    <glyph glyph-name="quotedblleft" unicode="&#x201c;" horiz-adv-x="811" 
d="M436 973h-231l37 229l159 260h123l-151 -260h102zM750 973h-230l37 229l160 260h123l-154 -260h105z" />
    <glyph glyph-name="quotedblright" unicode="&#x201d;" horiz-adv-x="806" 
d="M301 1462h231l-38 -229l-158 -260h-123l149 260h-102zM616 1462h232l-41 -229l-158 -260h-121l150 260h-103z" />
    <glyph glyph-name="quotedblbase" unicode="&#x201e;" horiz-adv-x="808" 
d="M84 229h229l-37 -229l-159 -260h-121l151 260h-104zM397 229h232l-37 -229l-160 -260h-121l152 260h-105z" />
    <glyph glyph-name="dagger" unicode="&#x2020;" horiz-adv-x="1163" 
d="M1161 1059l-28 -160h-404l-215 -1216h-170l215 1216h-397l26 160h398l71 403h170l-71 -403h405z" />
    <glyph glyph-name="daggerdbl" unicode="&#x2021;" horiz-adv-x="1163" 
d="M1133 899h-404l-117 -653h404l-27 -160h-405l-70 -403h-170l70 403h-398l29 160h395l117 653h-395l26 160h398l71 403h170l-71 -403h405z" />
    <glyph glyph-name="bullet" unicode="&#x2022;" horiz-adv-x="1026" 
d="M518 932q158 0 267.5 -108.5t109.5 -266.5q0 -159 -109.5 -270t-267.5 -111t-268.5 111.5t-110.5 269.5t110 266.5t269 108.5z" />
    <glyph glyph-name="ellipsis" unicode="&#x2026;" horiz-adv-x="1347" 
d="M76 250h225l-43 -250h-227zM512 250h225l-43 -250h-227zM948 250h226l-44 -250h-225z" />
    <glyph glyph-name="perthousand" unicode="&#x2030;" horiz-adv-x="2703" 
d="M559 1477q77 0 135 -25.5t92 -71t51 -102.5t17 -125q0 -113 -22 -213.5t-66.5 -185t-121 -134t-177.5 -49.5q-153 0 -222 88t-69 236q0 91 12.5 172.5t41 157.5t72 131t109.5 88t148 33zM1522 1464l-822 -1464h-161l823 1464h160zM467 698q63 0 111 43.5t74 114.5
t38 148.5t12 158.5q0 187 -143 187q-79 0 -133.5 -71t-77 -172t-22.5 -220q0 -98 38.5 -143.5t102.5 -45.5zM1563 891q77 0 135 -25.5t92 -71t51 -102.5t17 -125q0 -113 -22 -213.5t-66.5 -184.5t-120.5 -133.5t-176 -49.5q-79 0 -136.5 24.5t-90.5 69.5t-48.5 101.5
t-15.5 127.5q0 91 12.5 173t41 157.5t71.5 130.5t108.5 88t147.5 33zM2304 891q77 0 135 -25.5t92 -71t51 -102.5t17 -125q0 -113 -22 -213.5t-66.5 -184.5t-121 -133.5t-177.5 -49.5q-79 0 -136.5 24.5t-90.5 69.5t-48.5 101.5t-15.5 127.5q0 91 12.5 172.5t41 157.5
t72 131t109.5 88t148 33zM1473 113q63 0 111 43.5t74 114.5t38 148.5t12 158.5q0 186 -145 186q-60 0 -106 -40.5t-72.5 -108t-40 -147.5t-13.5 -167q0 -98 38 -143t104 -45zM2212 113q63 0 111 43.5t74 114.5t38 148.5t12 158.5q0 186 -143 186q-79 0 -133.5 -71t-77 -172
t-22.5 -220q0 -97 38.5 -142.5t102.5 -45.5z" />
    <glyph glyph-name="guilsinglleft" unicode="&#x2039;" horiz-adv-x="587" 
d="M78 530l338 441h170l-307 -441l153 -440h-170z" />
    <glyph glyph-name="guilsinglright" unicode="&#x203a;" horiz-adv-x="589" 
d="M512 530l-340 -440h-170l309 440l-153 441h168z" />
    <glyph glyph-name="fraction" unicode="&#x2044;" horiz-adv-x="489" 
d="M772 1464l-823 -1464h-160l821 1464h162z" />
    <glyph glyph-name="Euro" unicode="&#x20ac;" horiz-adv-x="1499" 
d="M1159 1321q-200 0 -350 -98t-223 -279h741l-84 -145h-698q-14 -78 -17 -140h637l-82 -145h-544q15 -71 48 -134.5t88 -119t140.5 -88.5t192.5 -33q155 0 274 43l-22 -176q-121 -37 -263 -37q-121 0 -224 30t-176.5 81t-128.5 121.5t-87 148.5t-45 164h-244l76 145h160
q3 80 14 140h-209l84 145h160q86 256 298 401.5t492 145.5q235 0 398 -105l-84 -147q-125 82 -322 82z" />
    <glyph glyph-name="uni2113" unicode="&#x2113;" horiz-adv-x="1003" 
d="M8 420l275 184l88 500q32 186 122 281.5t255 95.5q133 0 191 -85.5t34 -226.5q-14 -77 -44 -145t-69.5 -124t-100.5 -113.5t-123.5 -105.5t-150.5 -108l-39 -28l-38 -215q-21 -114 3.5 -157.5t102.5 -43.5q89 0 225 107l66 -123q-173 -140 -328 -140q-163 0 -217.5 84
t-23.5 275l12 82l-172 -111zM545 1108l-66 -371l29 19q252 174 295 407q14 81 -13 121.5t-81 40.5q-63 0 -103.5 -52.5t-60.5 -164.5z" />
    <glyph glyph-name="trademark" unicode="&#x2122;" horiz-adv-x="980" 
d="M528 1386h-125v-331h-90v331h-125v76h340v-76zM1026 1462v-407h-86v301h-2l-88 -301h-96l-86 301h-2v-301h-84v407h131l90 -305l90 305h133z" />
    <glyph glyph-name="uni2126" unicode="&#x2126;" horiz-adv-x="1560" 
d="M31 0l26 141h392l24 146q-301 146 -301 481q0 139 41.5 256.5t111.5 199.5t163.5 140t197.5 85.5t213 27.5q131 0 246 -45t193.5 -120t123.5 -174.5t45 -207.5q0 -135 -59.5 -267.5t-175.5 -236t-264 -139.5l-25 -146h391l-26 -141h-527l66 379q140 24 243.5 107.5
t153 195.5t49.5 236q0 74 -33 146t-91.5 130.5t-146.5 94.5t-190 36q-86 0 -162.5 -20.5t-144.5 -65t-117 -109.5t-77.5 -160.5t-28.5 -211.5q0 -275 285 -379l-68 -379h-528z" />
    <glyph glyph-name="estimated" unicode="&#x212e;" horiz-adv-x="1265" 
d="M360 530v-387q68 -57 129 -80.5t148 -23.5q128 0 223.5 59t171.5 187l72 -43q-95 -148 -201.5 -212.5t-265.5 -64.5q-157 0 -278.5 75.5t-185.5 203.5t-64 286q0 159 64 287t185.5 203.5t278.5 75.5q235 0 381.5 -158t148.5 -408h-807zM915 604v326q-61 55 -124 74.5
t-156 19.5q-91 0 -154 -20.5t-121 -73.5v-326h555z" />
    <glyph glyph-name="uni2153" unicode="&#x2153;" horiz-adv-x="1585" 
d="M1090 1464h159l-821 -1464h-160zM285 584l106 612h-215l17 107q97 2 161 35t105 124h133l-156 -878h-151zM1358 455q119 -48 119 -211q0 -108 -86.5 -184t-221.5 -76q-284 0 -321 247l-2 23h149l2 -16q19 -127 160 -127q85 0 129.5 39t44.5 108q0 66 -37.5 101.5
t-103.5 35.5h-84l14 119h72q67 0 117.5 34.5t50.5 102.5q0 53 -32 84t-91 31q-55 0 -90.5 -33t-50.5 -82l-2 -10h-154q25 114 104 182t193 68q124 0 198 -60t74 -163q0 -84 -43.5 -136.5t-107.5 -76.5z" />
    <glyph glyph-name="uni2154" unicode="&#x2154;" horiz-adv-x="1794" 
d="M367 965q22 14 60 37t55 33.5t45 28.5t40 29t29 28t23.5 31t12 32.5t5.5 38.5q-1 58 -38 89t-101 31q-63 0 -108 -39.5t-58 -115.5h-156q15 124 107 205.5t221 81.5q130 0 207 -65.5t77 -166.5q0 -74 -26 -131t-73 -101t-130 -96q-36 -23 -90 -54.5t-83.5 -49
t-62.5 -44.5t-53 -54h439l-23 -129h-620q19 100 56.5 166t89.5 109.5t155 105.5zM1309 1464h161l-821 -1464h-162zM1569 455q65 -26 91 -79t26 -132q0 -108 -86.5 -184t-221.5 -76q-284 0 -321 247l-2 23h151l2 -16q19 -127 158 -127q85 0 129.5 39t44.5 108
q0 66 -37.5 101.5t-103.5 35.5h-84l14 119h72q68 0 118 34.5t50 102.5q0 53 -32 84t-91 31q-54 0 -90 -33.5t-49 -81.5l-2 -10h-156q25 114 104 182t193 68q125 0 198.5 -59.5t73.5 -163.5q0 -84 -43 -136.5t-106 -76.5z" />
    <glyph glyph-name="oneeighth" unicode="&#x215b;" horiz-adv-x="1628" 
d="M1094 1464h159l-821 -1464h-160zM285 584l106 612h-215l17 107q97 2 161 35t105 124h133l-156 -878h-151zM1399 463q52 -19 89.5 -74.5t37.5 -114.5q0 -129 -94 -209.5t-246 -80.5q-153 0 -227 72t-74 175q0 90 64.5 155.5t140.5 82.5q-50 23 -78.5 68.5t-28.5 99.5
q0 111 88.5 182.5t228.5 71.5q71 0 124 -20.5t81 -53t41 -67t13 -68.5q0 -81 -46 -138t-114 -81zM1290 768q-68 0 -112.5 -38.5t-44.5 -111.5q0 -44 35 -70t79 -26q70 0 113 39t43 113q0 42 -33 68t-80 26zM1182 106q85 0 136.5 47.5t51.5 135.5q0 51 -39 81.5t-96 30.5
q-83 0 -137 -45t-54 -133q0 -55 42.5 -86t95.5 -31z" />
    <glyph glyph-name="threeeighths" unicode="&#x215c;" horiz-adv-x="1765" 
d="M739 827q0 -108 -86 -184t-221 -76q-139 0 -220.5 62t-100.5 186l-2 23h151l2 -17q19 -127 158 -127q85 0 129.5 39.5t44.5 108.5q0 66 -37.5 101.5t-103.5 35.5h-84l14 119h72q67 0 117.5 34.5t50.5 102.5q0 53 -32 84t-91 31q-56 0 -91 -33.5t-49 -81.5l-2 -10h-155
q25 114 104 182t193 68q124 0 198 -60t74 -164q0 -85 -43.5 -137t-107.5 -76q118 -47 118 -211zM1245 1464h162l-821 -1464h-162zM1534 463q53 -17 90 -73t37 -116q0 -129 -93 -209.5t-245 -80.5q-153 0 -228 72t-75 175q0 90 64.5 155.5t140.5 82.5q-50 21 -78.5 67.5
t-28.5 100.5q0 111 89.5 182.5t230.5 71.5q71 0 124 -20.5t80.5 -53t40.5 -66.5t13 -69q0 -81 -47 -138t-115 -81zM1427 768q-70 0 -113.5 -38.5t-43.5 -111.5q0 -44 35 -70t79 -26q69 0 112.5 39t43.5 113q0 42 -33 68t-80 26zM1319 106q83 0 135.5 47.5t52.5 135.5
q0 51 -39 81.5t-96 30.5q-84 0 -137 -45t-53 -133q0 -55 42 -86t95 -31z" />
    <glyph glyph-name="fiveeighths" unicode="&#x215d;" horiz-adv-x="1742" 
d="M766 877q0 -135 -87 -223.5t-239 -88.5q-85 0 -149.5 25t-101 66t-55.5 84t-25 89h149q16 -63 62.5 -101t119.5 -38q76 0 125 52.5t49 134.5q0 80 -40.5 126t-112.5 46q-97 0 -162 -91l-149 21l155 485l483 -2l-20 -125h-358l-68 -211q65 47 160 43q121 -3 192.5 -79
t71.5 -213zM1253 1464h162l-821 -1464h-162zM1511 463q53 -17 90 -73t37 -116q0 -129 -94 -209.5t-246 -80.5q-153 0 -227 72t-74 175q0 90 64.5 155.5t140.5 82.5q-50 21 -78 67.5t-28 100.5q0 111 88.5 182.5t228.5 71.5q71 0 124 -20.5t81 -53t41.5 -67t13.5 -68.5
q0 -81 -47 -138t-115 -81zM1403 768q-69 0 -113.5 -38.5t-44.5 -111.5q0 -44 36.5 -70t80.5 -26q69 0 112.5 39t43.5 113q0 42 -33.5 68t-81.5 26zM1296 106q83 0 135 47.5t52 135.5q0 51 -38 81.5t-97 30.5q-83 0 -137 -45t-54 -133q0 -54 43 -85.5t96 -31.5z" />
    <glyph glyph-name="seveneighths" unicode="&#x215e;" horiz-adv-x="1708" 
d="M1090 1464h159l-821 -1464h-160zM178 584q59 235 170 426t252 321h-401l20 131h596l-18 -114q-155 -131 -288.5 -347t-180.5 -417h-150zM1477 463q53 -17 90 -73t37 -116q0 -129 -93 -209.5t-245 -80.5q-153 0 -228 72t-75 175q0 90 64 155.5t140 82.5q-50 21 -78 67.5
t-28 100.5q0 111 89.5 182.5t229.5 71.5q71 0 124 -20.5t80.5 -53t40.5 -66.5t13 -69q0 -81 -46.5 -138t-114.5 -81zM1368 768q-68 0 -112 -38.5t-44 -111.5q0 -44 35.5 -70t79.5 -26q69 0 112.5 39t43.5 113q0 42 -33.5 68t-81.5 26zM1262 106q83 0 135.5 47.5t52.5 135.5
q0 51 -39 81.5t-98 30.5q-83 0 -136 -45t-53 -133q0 -55 42.5 -86t95.5 -31z" />
    <glyph glyph-name="arrowleft" unicode="&#x2190;" horiz-adv-x="1740" 
d="M129 702l700 695l119 -123l-493 -492l1204 2v-168h-1206l493 -491l-119 -123z" />
    <glyph glyph-name="arrowup" unicode="&#x2191;" horiz-adv-x="1591" 
d="M147 805l697 700l698 -698l-123 -119l-491 494v-1182h-168l2 1180l-492 -494z" />
    <glyph glyph-name="arrowright" unicode="&#x2192;" horiz-adv-x="1740" 
d="M143 616v168l1205 -2l-494 492l121 123l698 -695l-696 -700l-121 123l494 491h-1207z" />
    <glyph glyph-name="arrowdown" unicode="&#x2193;" horiz-adv-x="1591" 
d="M121 657l123 119l491 -493l-2 1179h168v-1181l492 493l123 -119l-699 -698z" />
    <glyph glyph-name="uni2196" unicode="&#x2196;" horiz-adv-x="1347" 
d="M305 623l2 839h840v-168h-555l635 -639l-119 -118l-635 639v-553h-168z" />
    <glyph glyph-name="uni2197" unicode="&#x2197;" horiz-adv-x="1275" 
d="M1149 623h-170v553l-633 -639l-121 118l635 639h-553v168h840z" />
    <glyph glyph-name="uni2198" unicode="&#x2198;" horiz-adv-x="1349" 
d="M1114 840l-2 -840h-840v168h555l-634 639l118 119l635 -639v553h168z" />
    <glyph glyph-name="uni2199" unicode="&#x2199;" horiz-adv-x="1275" 
d="M197 840h168v-553l634 639l119 -119l-635 -639h555v-168h-839z" />
    <glyph glyph-name="partialdiff" unicode="&#x2202;" horiz-adv-x="1228" 
d="M66 473q0 177 80.5 319.5t216 221t296.5 78.5q215 0 312 -129q-25 93 -101 201t-170.5 193t-177.5 122l197 100q132 -108 213.5 -192.5t142 -184t86 -210t25.5 -253.5q0 -347 -180 -555.5t-478 -208.5q-218 0 -340 132t-122 366zM270 444q0 -133 72 -218t207 -85
q122 0 220.5 71.5t152 188t53.5 252.5q0 124 -74 198.5t-223 74.5q-83 0 -156 -30.5t-130 -89t-89.5 -152t-32.5 -210.5z" />
    <glyph glyph-name="uni2206" unicode="&#x2206;" horiz-adv-x="1474" 
d="M-23 0l828 1458h170l334 -1458h-1332zM866 1272l-626 -1118h868z" />
    <glyph glyph-name="product" unicode="&#x220f;" horiz-adv-x="1732" 
d="M238 1282v180h1480v-180h-205v-1581h-198v1581h-676v-1581h-199v1581h-202z" />
    <glyph glyph-name="summation" unicode="&#x2211;" horiz-adv-x="1585" 
d="M209 -299v156l565 733l-536 717v155h1103v-164h-864l531 -708l-568 -725h926v-164h-1157z" />
    <glyph glyph-name="minus" unicode="&#x2212;" horiz-adv-x="1263" 
d="M117 633h1036v-170h-1036v170z" />
    <glyph glyph-name="uni2215" unicode="&#x2215;" horiz-adv-x="233" 
d="M514 1464l-571 -1464h-154l571 1464h154z" />
    <glyph glyph-name="uni2219" unicode="&#x2219;" horiz-adv-x="608" 
d="M324 768q54 0 92.5 -38.5t38.5 -92.5q0 -50 -39.5 -90.5t-89.5 -40.5q-54 0 -93.5 38.5t-39.5 92.5t38.5 92.5t92.5 38.5z" />
    <glyph glyph-name="radical" unicode="&#x221a;" horiz-adv-x="1402" 
d="M1282 1462h211l-539 -1460l-252 -2l-329 903h-205v156h352l305 -873h4z" />
    <glyph glyph-name="infinity" unicode="&#x221e;" horiz-adv-x="1593" 
d="M102 516q0 137 81 229.5t218 92.5q35 0 69.5 -8.5t60.5 -17t61.5 -32t52.5 -35t54.5 -46t47.5 -44.5t50 -49q7 7 36 36.5t38.5 38t36.5 34t40.5 35.5t39.5 29t45.5 27t45 18t51 14t52.5 4q137 0 221 -91t84 -229q0 -139 -82 -231t-221 -92q-106 0 -200.5 61.5
t-188.5 161.5q-10 -9 -42 -38.5t-44.5 -40.5t-42.5 -35.5t-47 -35.5t-46.5 -28t-53 -24t-53.5 -13t-60 -6q-137 0 -220.5 89t-83.5 226zM1350 516q0 78 -45 129t-121 51q-21 0 -43 -5.5t-39.5 -12t-41.5 -21.5t-37 -24t-38 -30.5t-34 -29t-34.5 -31.5t-29.5 -28
q34 -32 44 -41t42.5 -36.5t51 -38t48 -26.5t57.5 -22t58 -6q74 0 118 49t44 123zM240 516q0 -77 45.5 -124.5t122.5 -47.5q122 0 297 170q-48 43 -68.5 60.5t-68.5 53t-88.5 51t-78.5 15.5q-74 0 -117.5 -51.5t-43.5 -126.5z" />
    <glyph glyph-name="integral" unicode="&#x222b;" horiz-adv-x="755" 
d="M-47 -295l27 152h65q56 0 94 43t49 110l209 1182q22 124 97 197t213 73h114l-28 -159h-68q-63 0 -97 -26.5t-46 -92.5l-209 -1188q-24 -124 -110 -207.5t-224 -83.5h-86z" />
    <glyph glyph-name="approxequal" unicode="&#x2248;" horiz-adv-x="1282" 
d="M1171 852q-9 -137 -91.5 -221t-215.5 -84q-55 0 -120.5 21.5t-116 48t-110 48t-103.5 21.5q-56 0 -94 -37.5t-41 -101.5h-175q8 136 90.5 220.5t217.5 84.5q63 0 132.5 -21.5t119 -48t105 -48t93.5 -21.5q54 0 91.5 37t43.5 102h174zM1171 475q-9 -137 -91.5 -221
t-215.5 -84q-55 0 -120.5 21.5t-116 48t-110 48t-103.5 21.5q-56 0 -94 -37.5t-41 -101.5h-175q8 136 90.5 220.5t217.5 84.5q63 0 132.5 -21.5t119 -48t105 -48t93.5 -21.5q54 0 91.5 37t43.5 102h174z" />
    <glyph glyph-name="notequal" unicode="&#x2260;" horiz-adv-x="1337" 
d="M145 795h582l158 303l129 -68l-123 -235h297v-150h-377l-133 -256h510v-151h-590l-156 -299l-129 67l119 232h-287v151h367l135 256h-502v150z" />
    <glyph glyph-name="lessequal" unicode="&#x2264;" horiz-adv-x="1316" 
d="M117 610v158l1034 383v-166l-825 -295l825 -295v-164zM117 0v152h1034v-152h-1034z" />
    <glyph glyph-name="greaterequal" unicode="&#x2265;" horiz-adv-x="1386" 
d="M1219 610l-1035 -379v164l826 295l-826 295v166l1035 -383v-158zM1219 0h-1035v152h1035v-152z" />
    <glyph glyph-name="lozenge" unicode="&#x25ca;" horiz-adv-x="1171" 
d="M715 1462l442 -733l-442 -729h-205l-428 729l428 733h205zM612 188l326 541l-326 547l-311 -547z" />
    <glyph glyph-name="fi" unicode="&#xfb01;" horiz-adv-x="1107" 
d="M670 1303q-143 0 -166 -146l-17 -98h177l-27 -156h-178l-160 -903h-186l159 903h-145l27 156h147l21 121q20 124 99 203t216 79h123l-31 -159h-59zM932 1462h203l-39 -209h-203zM684 0l186 1059h191l-187 -1059h-190z" />
    <glyph glyph-name="fl" unicode="&#xfb02;" horiz-adv-x="1091" 
d="M670 1303q-143 0 -166 -146l-17 -98h177l-27 -156h-178l-160 -903h-186l159 903h-145l27 156h147l21 121q20 124 99 203t216 79h123l-31 -159h-59zM930 1462h190l-258 -1462h-190z" />
    <glyph glyph-name="uniFEFF" unicode="&#xfeff;" 
 />
    <glyph glyph-name="NULL" 
 />
    <glyph glyph-name="i.loclTRK" horiz-adv-x="460" 
d="M449 1221h-187l37 215h186zM43 0l186 1059h191l-187 -1059h-190z" />
    <glyph glyph-name="zero.zero" horiz-adv-x="1251" 
d="M743 1470q101 0 181.5 -32t131.5 -83.5t85 -120.5t47.5 -139t13.5 -143q0 -117 -15.5 -231t-47 -224.5t-83.5 -204t-120 -165t-161 -112t-202 -40.5q-230 0 -341 138.5t-111 378.5q0 150 22 289t70.5 265.5t119.5 220t176.5 148.5t233.5 55zM743 1311q-88 0 -161.5 -49
t-122.5 -130.5t-83 -191t-49.5 -227.5t-15.5 -242q0 -139 49 -223l496 1042q-54 21 -113 21zM573 135q96 0 173 52.5t125.5 136.5t80.5 196.5t45 224.5t13 228q0 118 -35 198l-490 -1024q41 -12 88 -12z" />
    <glyph glyph-name="zero.lf" horiz-adv-x="1251" 
d="M743 1470q101 0 181.5 -32t131.5 -83.5t85 -120.5t47.5 -139t13.5 -143q0 -117 -15.5 -231t-47 -224.5t-83.5 -204t-120 -165t-161 -112t-202 -40.5q-230 0 -341 138.5t-111 378.5q0 150 22 289t70.5 265.5t119.5 220t176.5 148.5t233.5 55zM573 135q96 0 173 52.5
t125.5 136.5t80.5 196.5t45 224.5t13 228q0 54 -7 100t-26 91t-48 76.5t-76.5 51t-109.5 19.5q-88 0 -161.5 -49t-122.5 -130.5t-83 -191t-49.5 -227.5t-15.5 -242q0 -175 70.5 -255.5t191.5 -80.5z" />
    <glyph glyph-name="one.lf" horiz-adv-x="817" 
d="M668 1462h157l-258 -1462h-190l188 1079h-348l19 142q65 0 114 5t100.5 20t89 41t71.5 70t57 105z" />
    <glyph glyph-name="two.lf" horiz-adv-x="1222" 
d="M809 561q-48 -29 -119.5 -70.5t-111.5 -64.5t-92 -57.5t-83 -62.5t-62 -65.5t-50 -78.5h762l-33 -162h-987q15 87 34 151.5t54 120t63.5 91.5t92 83.5t108 76t141.5 87.5q23 14 66 40q54 33 80 49t70 44t64.5 43.5t53 40.5t47 42.5t34 42.5t28 47t14.5 48.5t6 55.5
q0 121 -73 182.5t-199 61.5q-115 0 -203.5 -72.5t-110.5 -202.5h-196q32 195 173.5 323t346.5 128q216 0 338.5 -108t122.5 -277q0 -124 -42 -217t-120 -164t-217 -156z" />
    <glyph glyph-name="three.lf" horiz-adv-x="1208" 
d="M246 1081q36 179 160.5 289.5t300.5 110.5q195 0 308 -93.5t113 -271.5q0 -140 -70 -228.5t-171 -125.5q205 -88 205 -361q0 -185 -137 -305.5t-363 -120.5t-347 98t-153 306l-6 39h197l4 -29q36 -252 286 -252q330 0 330 281q0 132 -77.5 202t-202.5 70q-95 0 -140 -2
l27 152h117q45 0 87.5 7.5t85 26.5t74 47t51 72t19.5 99q0 110 -58.5 169.5t-178.5 59.5q-54 0 -101.5 -20t-79 -52.5t-52 -68.5t-28.5 -72l-6 -27h-194z" />
    <glyph glyph-name="four.lf" horiz-adv-x="1183" 
d="M1081 1462l-166 -936h164l-28 -159h-162l-66 -367h-190l63 367h-645l27 159l825 936h178zM285 526h440l106 615h-4z" />
    <glyph glyph-name="five.lf" horiz-adv-x="1253" 
d="M713 973q204 -6 322 -132t118 -356q0 -109 -34 -203t-99 -164.5t-166.5 -110.5t-228.5 -40q-112 0 -202 29t-147 73t-98.5 105t-61.5 117t-30 117h203q21 -127 106.5 -204t231.5 -77q150 0 243 101.5t93 256.5q0 152 -79 241t-214 89q-77 0 -137.5 -24t-97 -58.5
t-70.5 -85.5l-201 27l254 792l756 -4l-27 -155h-598l-139 -437q128 107 303 103z" />
    <glyph glyph-name="six.lf" horiz-adv-x="1249" 
d="M131 707q19 119 51 224.5t85 207.5t122 174.5t167 117t214 44.5q87 0 155.5 -21t111.5 -54t74.5 -82t47.5 -95.5t27 -104.5h-185q-8 31 -15 51t-25 51t-42 49.5t-65.5 33t-95.5 14.5q-60 0 -111 -18.5t-91 -56.5t-71 -80t-58 -104.5t-45 -113t-40 -121.5q150 156 373 148
q103 -3 186 -41t133.5 -99.5t77.5 -137.5t27 -158q0 -127 -45 -233.5t-122 -177.5t-179.5 -110t-217.5 -39q-567 0 -444 732zM672 813q-168 0 -273.5 -108.5t-105.5 -307.5q0 -116 79.5 -189t196.5 -73q169 0 275 104t106 304q0 65 -26 118t-67 85t-89 49.5t-96 17.5z" />
    <glyph glyph-name="seven.lf" horiz-adv-x="1089" 
d="M213 1462h948l-28 -164q-254 -216 -482 -588.5t-307 -709.5h-186q62 251 181 498.5t261.5 446t302.5 355.5h-717z" />
    <glyph glyph-name="eight.lf" horiz-adv-x="1243" 
d="M909 770q91 -29 153 -117t62 -186q0 -218 -152.5 -355t-402.5 -137q-107 0 -191.5 21.5t-140 58.5t-92 89t-52 110t-15.5 125q0 78 33 148.5t85.5 120t114 83t123.5 47.5q-87 35 -137.5 112.5t-50.5 168.5q0 186 141.5 301t374.5 115q95 0 170 -22.5t121 -58t76 -82
t41.5 -91t11.5 -88.5q0 -134 -79 -230t-194 -133zM754 1319q-140 0 -229 -74t-89 -215q0 -88 71 -138t159 -50q142 0 229.5 76t87.5 219q0 82 -65 132t-164 50zM555 133q172 0 277.5 89t105.5 255q0 95 -79.5 153t-196.5 58q-111 0 -196.5 -34.5t-138.5 -111t-53 -186.5
q0 -72 44.5 -124.5t107 -75.5t129.5 -23z" />
    <glyph glyph-name="nine.lf" horiz-adv-x="1247" 
d="M1186 743q-125 -768 -639 -768q-87 0 -155.5 21t-111.5 54t-74.5 82t-47.5 95.5t-27 104.5h184q8 -31 15 -50t25.5 -51t42 -50.5t65 -33t94.5 -14.5q56 0 103.5 15.5t82 36.5t67 64t52 74.5t43 92.5t34.5 95t32 103q3 9 4 13q-159 -166 -371 -150q-132 10 -231.5 74.5
t-148 159.5t-48.5 204q0 126 45 232.5t122 177.5t179.5 110.5t216.5 39.5q121 0 211.5 -35t144.5 -99.5t83.5 -155t28.5 -202t-21 -240.5zM645 637q167 0 273 108.5t106 307.5q0 117 -79.5 189.5t-196.5 72.5q-169 0 -275 -104t-106 -304q0 -65 26 -118t67 -85t89 -49.5
t96 -17.5z" />
    <glyph glyph-name="zero.tf" horiz-adv-x="1288" 
d="M762 1470q102 0 182.5 -32t131.5 -83.5t84.5 -121t47 -139t13.5 -142.5q0 -117 -15.5 -231t-47 -224.5t-83.5 -204t-120 -165t-161 -112t-202 -40.5q-230 0 -340.5 138.5t-110.5 378.5q0 150 21.5 289t70 265.5t119.5 220t176.5 148.5t233.5 55zM592 135q96 0 173 52.5
t125 136.5t80 196.5t45 224.5t13 228q0 68 -12 124.5t-40.5 106.5t-82.5 78.5t-131 28.5q-88 0 -161.5 -49t-122.5 -130.5t-83 -191t-49.5 -227.5t-15.5 -242q0 -175 70.5 -255.5t191.5 -80.5z" />
    <glyph glyph-name="one.tf" horiz-adv-x="1435" 
d="M829 160h408v-160h-1010v160h412v919h-348v144q65 0 112.5 5t94 19.5t78.5 40.5t57.5 69.5t38.5 104.5h157v-1302z" />
    <glyph glyph-name="two.tf" horiz-adv-x="1296" 
d="M850 561q-48 -29 -119.5 -70.5t-111.5 -64.5t-91.5 -57.5t-83 -62.5t-61.5 -65.5t-49 -78.5h760l-31 -162h-989q18 103 48 180t60.5 128t99.5 107.5t120 90t167 104.5q218 133 267 167q132 92 171 177q23 50 23 109q0 121 -72 182.5t-198 61.5q-117 0 -205.5 -72.5
t-110.5 -202.5h-196q32 195 173.5 323t346.5 128q217 0 340 -108t123 -277q0 -94 -21.5 -167t-71.5 -136.5t-117 -116.5t-171 -117z" />
    <glyph glyph-name="three.tf" horiz-adv-x="1300" 
d="M289 1081q36 179 160.5 289.5t300.5 110.5q195 0 308 -93.5t113 -271.5q0 -73 -21 -134.5t-57 -103.5t-76.5 -70.5t-86.5 -45.5q205 -88 205 -361q0 -185 -137 -305.5t-363 -120.5t-347 98t-153 306l-6 39h195l4 -29q40 -252 288 -252q328 0 328 281q0 132 -76.5 202
t-201.5 70q-95 0 -140 -2l27 152h117q45 0 87.5 7.5t85 26.5t74 47t51 72t19.5 99q0 110 -58.5 169.5t-178.5 59.5q-104 0 -173.5 -66t-89.5 -147l-6 -27h-192z" />
    <glyph glyph-name="four.tf" horiz-adv-x="1296" 
d="M1102 1462l-166 -936h164l-29 -159h-162l-65 -367h-191l64 367h-645l26 159l826 936h178zM305 526h440l107 615h-4z" />
    <glyph glyph-name="five.tf" horiz-adv-x="1329" 
d="M750 973q205 -6 322.5 -132t117.5 -356q0 -109 -34 -203t-99 -164.5t-166.5 -110.5t-228.5 -40q-112 0 -202 29t-147 73t-98 105t-60.5 117t-29.5 117h201q21 -127 106.5 -204t231.5 -77q150 0 242.5 101.5t92.5 256.5q0 153 -78 241.5t-214 88.5q-77 0 -138 -24
t-97.5 -58.5t-70.5 -85.5l-200 27l254 792l757 -4l-28 -155h-598l-140 -437q128 107 304 103z" />
    <glyph glyph-name="six.tf" horiz-adv-x="1288" 
d="M166 707q19 119 51 224.5t85 207.5t122 174.5t167 117t214 44.5q87 0 155.5 -21t111.5 -54t74.5 -82t47.5 -95.5t27 -104.5h-185q-8 31 -15 51t-25 51t-41.5 49.5t-65 33t-94.5 14.5q-52 0 -98 -15.5t-81 -39.5t-67 -64t-55 -78.5t-46 -93.5t-38 -99t-33 -104
q150 156 373 148q103 -3 186 -41t134.5 -99.5t78.5 -137.5t27 -158q0 -127 -45.5 -233.5t-122.5 -177.5t-180 -110t-218 -39q-567 0 -444 732zM707 813q-168 0 -273.5 -108.5t-105.5 -307.5q0 -116 79.5 -189t196.5 -73q169 0 275 104t106 304q0 65 -26 118t-67 85t-89 49.5
t-96 17.5z" />
    <glyph glyph-name="seven.tf" horiz-adv-x="1286" 
d="M324 1462h946l-27 -164q-255 -216 -483 -589t-305 -709h-189q94 372 297 714.5t451 585.5h-719z" />
    <glyph glyph-name="eight.tf" horiz-adv-x="1290" 
d="M934 770q91 -29 153 -117t62 -186q0 -218 -152.5 -355t-402.5 -137q-133 0 -231 32.5t-153.5 89.5t-81.5 127.5t-26 154.5q0 78 33 148.5t86 120t114.5 83t123.5 47.5q-87 35 -138 112.5t-51 168.5q0 186 141.5 301t374.5 115q95 0 170 -22.5t121 -58t76 -82t41.5 -91
t11.5 -88.5q0 -135 -78.5 -230.5t-193.5 -132.5zM778 1319q-140 0 -228.5 -74t-88.5 -215q0 -60 36.5 -104.5t87 -64t105.5 -19.5q142 0 230 76t88 219q0 82 -65.5 132t-164.5 50zM580 133q172 0 276.5 88.5t104.5 255.5q0 95 -79.5 153t-197.5 58q-169 0 -277 -84.5
t-108 -247.5q0 -72 44.5 -124.5t107 -75.5t129.5 -23z" />
    <glyph glyph-name="nine.tf" horiz-adv-x="1288" 
d="M1214 743q-129 -768 -639 -768q-87 0 -155.5 21t-111.5 54t-74.5 82t-47 95.5t-26.5 104.5h182q8 -30 15 -50t26 -51t42.5 -50t65.5 -33.5t95 -14.5q76 0 138 30t99 67t74 114t53 123.5t46 143.5q3 11 5 16q-158 -165 -368 -150q-132 10 -231.5 74.5t-148 159.5
t-48.5 204q0 126 45 232.5t122 177.5t179.5 110.5t216.5 39.5q121 0 211 -35t144 -99.5t83 -155t28 -202t-20 -240.5zM672 637q168 0 273.5 108.5t105.5 307.5q0 117 -79 189.5t-196 72.5q-169 0 -275 -104t-106 -304q0 -64 26 -117.5t67.5 -85.5t89 -49.5t94.5 -17.5z" />
    <glyph glyph-name="zero.subs" horiz-adv-x="776" 
d="M377 668q77 0 135.5 -25.5t92.5 -71t50.5 -102.5t16.5 -125q0 -113 -22 -213.5t-66.5 -185t-121 -134t-175.5 -49.5q-153 0 -222 88t-69 236q0 91 12.5 173t41 157.5t71.5 130.5t108.5 88t147.5 33zM287 -111q63 0 111 43.5t74 114.5t38 148.5t12 158.5q0 187 -145 187
q-60 0 -106 -40.5t-72.5 -108t-40 -147.5t-13.5 -167q0 -98 38 -143.5t104 -45.5z" />
    <glyph glyph-name="one.subs" horiz-adv-x="483" 
d="M317 659h134l-156 -878h-152l107 612h-215l16 107q97 2 161 35t105 124z" />
    <glyph glyph-name="two.subs" horiz-adv-x="733" 
d="M418 113q-35 -22 -89.5 -54t-84 -50t-62.5 -45t-53 -54h438l-22 -129h-621q19 100 56.5 166t89.5 109.5t155 105.5q22 14 68 41.5t62.5 38t47.5 31.5t42 33.5t26 32t20 39t5 42.5q-1 58 -38.5 89.5t-101.5 31.5q-63 0 -108 -39.5t-58 -116.5h-155q15 124 106.5 205.5
t220.5 81.5q131 0 208 -65.5t77 -166.5q0 -108 -52.5 -178.5t-176.5 -148.5z" />
    <glyph glyph-name="three.subs" horiz-adv-x="745" 
d="M61 422q25 114 104 182t193 68q124 0 198.5 -60t74.5 -163q0 -85 -43.5 -137t-108.5 -76q119 -48 119 -211q0 -109 -86 -185t-221 -76q-139 0 -221 62.5t-101 185.5l-2 23h152l2 -17q19 -127 158 -127q85 0 129.5 39.5t44.5 108.5q0 65 -37.5 101t-104.5 36h-84l15 119
h71q67 0 117.5 34.5t50.5 102.5q0 53 -32 84t-91 31q-55 0 -90 -33t-49 -82l-2 -10h-156z" />
    <glyph glyph-name="four.subs" horiz-adv-x="749" 
d="M621 119l-21 -125h-104l-37 -213h-150l37 213h-383l23 143l471 522h157l-96 -540h103zM129 119h240l55 327h-6z" />
    <glyph glyph-name="five.subs" horiz-adv-x="765" 
d="M627 535h-359l-67 -211q65 47 159 43q121 -3 193 -79.5t72 -213.5q0 -135 -87 -223.5t-239 -88.5q-85 0 -149.5 25t-101 66.5t-56 84.5t-25.5 89h150q16 -63 62.5 -101.5t119.5 -38.5q76 0 125 52.5t49 134.5q0 80 -41 126t-113 46q-97 0 -161 -90l-150 20l156 486
l483 -3z" />
    <glyph glyph-name="six.subs" horiz-adv-x="770" 
d="M-2 205q74 465 393 465q123 0 191.5 -62.5t79.5 -158.5h-148q-25 98 -129 98q-39 0 -71.5 -15.5t-54 -37.5t-41 -59t-31 -68t-25.5 -76q70 78 203 78q123 -3 195.5 -83t72.5 -192q0 -103 -51.5 -180.5t-130.5 -114.5t-170 -37q-75 0 -132 22t-91 62t-53.5 95t-19 121.5
t12.5 142.5zM332 246q-88 0 -143.5 -57.5t-55.5 -161.5q0 -61 41.5 -98.5t104.5 -37.5q89 0 144.5 54.5t55.5 158.5q0 66 -46 104t-101 38z" />
    <glyph glyph-name="seven.subs" horiz-adv-x="708" 
d="M78 659h596l-19 -114q-155 -131 -288.5 -347t-180.5 -417h-149q59 235 170 426t252 321h-402z" />
    <glyph glyph-name="eight.subs" horiz-adv-x="749" 
d="M481 244q53 -17 90 -73t37 -116q0 -129 -94 -210t-246 -81q-79 0 -139 21t-94 57t-51 79t-17 91q0 90 64.5 155.5t140.5 82.5q-50 23 -78 68.5t-28 99.5q0 111 88.5 182.5t228.5 71.5q71 0 124 -20.5t80.5 -53t40.5 -66.5t13 -69q0 -81 -46 -138t-114 -81zM373 549
q-69 0 -113.5 -38.5t-44.5 -111.5q0 -44 36 -70t79 -26q70 0 112.5 39t42.5 113q0 42 -32 68t-80 26zM264 -113q85 0 137 47.5t52 135.5q0 51 -38.5 81.5t-97.5 30.5q-83 0 -136.5 -45t-53.5 -133q0 -54 43 -85.5t94 -31.5z" />
    <glyph glyph-name="nine.subs" horiz-adv-x="774" 
d="M666 229q-13 -75 -31 -137.5t-49.5 -126t-73 -106.5t-103 -70t-137.5 -27q-124 0 -195.5 64.5t-82.5 159.5h149q24 -99 133 -99q41 0 74 16t54 37t41.5 61t30.5 67t26 77q-75 -82 -203 -77q-122 4 -196 82.5t-74 189.5q0 78 30 142t79.5 104t112 62t130.5 22
q93 0 158 -33.5t96 -92.5t40.5 -139.5t-9.5 -175.5zM330 188q89 0 143.5 57.5t54.5 162.5q0 61 -41.5 99t-103.5 38q-89 0 -144 -54t-55 -159q0 -67 45.5 -105.5t100.5 -38.5z" />
    <glyph glyph-name="zero.dnom" horiz-adv-x="776" 
d="M416 887q77 0 135.5 -25.5t92.5 -71t50.5 -102.5t16.5 -125q0 -113 -22 -213.5t-66.5 -184.5t-120.5 -133.5t-176 -49.5q-79 0 -136.5 24.5t-90.5 69.5t-48.5 101.5t-15.5 127.5q0 91 12.5 173t41 157.5t71.5 130.5t108.5 88t147.5 33zM326 109q63 0 111 43.5t74 114.5
t38 148t12 158q0 187 -145 187q-60 0 -106 -40.5t-72.5 -108t-40 -147.5t-13.5 -167q0 -98 38 -143t104 -45z" />
    <glyph glyph-name="one.dnom" horiz-adv-x="483" 
d="M356 879h133l-155 -879h-152l107 612h-215l16 107q97 2 161 35.5t105 124.5z" />
    <glyph glyph-name="two.dnom" horiz-adv-x="733" 
d="M457 332q-35 -22 -89.5 -54t-84 -50t-62.5 -45t-53 -54h438l-22 -129h-621q19 100 56.5 166t89.5 109.5t155 105.5q22 14 68 41.5t62.5 38t47.5 31.5t42 33.5t26 32t20 39t5 42.5q-1 58 -38.5 89.5t-101.5 31.5q-63 0 -108 -39.5t-58 -116.5h-155q15 124 106.5 205.5
t220.5 81.5q131 0 208 -65.5t77 -166.5q0 -108 -52.5 -178.5t-176.5 -148.5z" />
    <glyph glyph-name="three.dnom" horiz-adv-x="745" 
d="M100 641q25 114 104 182t193 68q124 0 198.5 -60t74.5 -163q0 -85 -43.5 -137t-108.5 -76q119 -48 119 -211q0 -108 -86 -184t-221 -76q-285 0 -322 247l-2 23h152l2 -16q19 -127 157 -127q85 0 130 39t45 108q0 65 -37.5 101t-104.5 36h-84l15 119h71q67 0 117.5 34.5
t50.5 102.5q0 53 -32 84t-91 31q-55 0 -90 -33t-49 -82l-2 -10h-156z" />
    <glyph glyph-name="four.dnom" horiz-adv-x="749" 
d="M659 338l-20 -125h-104l-37 -213h-150l37 213h-383l23 143l471 523h157l-96 -541h102zM168 338h240l55 328h-6z" />
    <glyph glyph-name="five.dnom" horiz-adv-x="765" 
d="M666 754h-359l-67 -211q65 47 159 43q121 -3 193 -79.5t72 -213.5q0 -135 -87 -223t-239 -88q-85 0 -149.5 25t-101 66t-56 84t-25.5 89h150q16 -63 62.5 -101.5t119.5 -38.5q76 0 125 52.5t49 134.5q0 80 -41 126t-113 46q-97 0 -161 -90l-150 20l156 486l483 -2z" />
    <glyph glyph-name="six.dnom" horiz-adv-x="770" 
d="M37 424q74 465 393 465q123 0 191 -62.5t79 -158.5h-147q-25 98 -129 98q-39 0 -71.5 -15.5t-54 -37.5t-41 -59t-31 -68t-25.5 -76q70 78 202 78q123 -3 196 -83t73 -192q0 -78 -30 -142t-80 -104.5t-112.5 -62.5t-130.5 -22q-75 0 -132 22t-91 61.5t-53 95t-18.5 121.5
t12.5 142zM371 465q-88 0 -143.5 -57.5t-55.5 -161.5q0 -61 41 -98t104 -37q89 0 145 54.5t56 158.5q0 66 -46 103.5t-101 37.5z" />
    <glyph glyph-name="seven.dnom" horiz-adv-x="708" 
d="M117 879h596l-19 -115q-155 -131 -288.5 -347t-180.5 -417h-149q59 235 170 426.5t252 321.5h-402z" />
    <glyph glyph-name="eight.dnom" horiz-adv-x="749" 
d="M520 463q53 -17 90 -73t37 -116q0 -129 -94 -209.5t-246 -80.5q-153 0 -227 72t-74 175q0 90 64.5 155.5t140.5 82.5q-50 23 -78.5 68.5t-28.5 99.5q0 111 89 182.5t229 71.5q71 0 124 -20.5t80.5 -53t40.5 -66.5t13 -69q0 -81 -46 -138t-114 -81zM412 768
q-69 0 -113.5 -38.5t-44.5 -111.5q0 -44 36 -70t79 -26q70 0 112.5 39t42.5 113q0 42 -32 68t-80 26zM303 106q85 0 137 47.5t52 135.5q0 51 -38.5 81.5t-97.5 30.5q-83 0 -136.5 -45t-53.5 -133q0 -54 43 -85.5t94 -31.5z" />
    <glyph glyph-name="nine.dnom" horiz-adv-x="774" 
d="M705 449q-13 -75 -31 -137.5t-49.5 -126t-73 -106.5t-103 -70t-137.5 -27q-125 0 -196 64t-82 159h149q24 -99 133 -99q41 0 74 16t54 37t41.5 61.5t30.5 67.5t26 77q-76 -83 -203 -78q-122 4 -196 82.5t-74 189.5q0 78 30 142t79.5 104t112 62t130.5 22q93 0 158 -33.5
t96 -92t40.5 -139t-9.5 -175.5zM369 408q89 0 143.5 57.5t54.5 161.5q0 61 -41.5 99t-103.5 38q-89 0 -144 -54t-55 -159q0 -67 45 -105t101 -38z" />
    <glyph glyph-name="zero.numr" horiz-adv-x="776" 
d="M518 1470q77 0 135.5 -25.5t92.5 -70.5t50.5 -102t16.5 -125q0 -113 -22 -213.5t-66.5 -185t-121 -134t-175.5 -49.5q-153 0 -222 88t-69 236q0 91 12.5 172.5t41 157.5t71.5 131t108.5 87.5t147.5 32.5zM428 692q63 0 111 43.5t74 114.5t38.5 148.5t12.5 158.5
q0 186 -146 186q-60 0 -106 -40t-72.5 -108t-39.5 -147.5t-13 -166.5q0 -98 38 -143.5t103 -45.5z" />
    <glyph glyph-name="one.numr" horiz-adv-x="483" 
d="M459 1462h133l-156 -878h-151l106 612h-215l17 107q97 2 161 35t105 124z" />
    <glyph glyph-name="two.numr" horiz-adv-x="733" 
d="M559 915q-36 -23 -90 -54.5t-83.5 -49t-62.5 -44.5t-53 -54h439l-23 -129h-620q19 100 56.5 166t89.5 109.5t155 105.5q22 14 60 37t55 33.5t45 28.5t40 29t29 28t23.5 31t12 32.5t5.5 38.5q-1 58 -38 89t-101 31q-63 0 -108 -39.5t-58 -115.5h-156q15 124 107 205.5
t221 81.5q130 0 207 -65.5t77 -166.5q0 -74 -26 -131t-73 -101t-130 -96z" />
    <glyph glyph-name="three.numr" horiz-adv-x="745" 
d="M203 1225q25 114 104 182t193 68q124 0 198 -60t74 -164q0 -85 -43.5 -137t-107.5 -76q118 -47 118 -211q0 -108 -86 -184t-221 -76q-139 0 -220.5 62t-100.5 186l-2 23h151l2 -17q19 -127 158 -127q85 0 129.5 39.5t44.5 108.5q0 66 -37.5 101.5t-103.5 35.5h-84l14 119
h72q67 0 117.5 34.5t50.5 102.5q0 53 -32 84t-91 31q-56 0 -91 -33.5t-49 -81.5l-2 -10h-155z" />
    <glyph glyph-name="four.numr" horiz-adv-x="749" 
d="M762 922l-21 -125h-104l-37 -213h-149l36 213h-383l23 143l471 522h158l-97 -540h103zM270 922h240l55 327h-6z" />
    <glyph glyph-name="five.numr" horiz-adv-x="765" 
d="M768 1337h-358l-68 -211q65 47 160 43q121 -3 192.5 -79t71.5 -213q0 -135 -87 -223.5t-239 -88.5q-85 0 -149.5 25t-101 66t-55.5 84t-25 89h149q16 -63 62.5 -101t119.5 -38q76 0 125 52.5t49 134.5q0 80 -40.5 126t-112.5 46q-97 0 -162 -91l-149 21l155 485l483 -2z
" />
    <glyph glyph-name="six.numr" horiz-adv-x="770" 
d="M139 1008q74 465 393 465q123 0 191.5 -63t79.5 -159h-148q-25 99 -129 99q-39 0 -71.5 -15.5t-54 -37.5t-41 -59t-31 -68t-25.5 -76q69 77 203 77q123 -3 195.5 -82.5t72.5 -191.5q0 -103 -51.5 -180.5t-130.5 -114.5t-170 -37q-75 0 -132 22t-91 62t-53.5 95t-19 121.5
t12.5 142.5zM473 1049q-88 0 -143.5 -58t-55.5 -162q0 -60 41.5 -97.5t104.5 -37.5q89 0 145 54.5t56 158.5q0 66 -46.5 104t-101.5 38z" />
    <glyph glyph-name="seven.numr" horiz-adv-x="708" 
d="M219 1462h596l-18 -114q-155 -131 -288.5 -347t-180.5 -417h-150q59 235 170 426t252 321h-401z" />
    <glyph glyph-name="eight.numr" horiz-adv-x="749" 
d="M623 1047q53 -17 90 -73t37 -116q0 -129 -94 -210t-246 -81q-79 0 -139 21t-94 57t-51 79t-17 91q0 91 64 156t140 82q-50 23 -78 68.5t-28 99.5q0 111 88.5 182.5t228.5 71.5q71 0 124 -20.5t80.5 -53t40.5 -66.5t13 -69q0 -81 -46 -138t-113 -81zM514 1352
q-69 0 -113.5 -38.5t-44.5 -111.5q0 -44 36 -70t79 -26q70 0 113 38.5t43 112.5q0 42 -32.5 68.5t-80.5 26.5zM406 690q85 0 136.5 47t51.5 135q0 51 -38.5 82t-96.5 31q-83 0 -137 -45t-54 -133q0 -54 43 -85.5t95 -31.5z" />
    <glyph glyph-name="nine.numr" horiz-adv-x="774" 
d="M807 1032q-13 -75 -30.5 -137.5t-49 -126t-73 -106.5t-103 -70t-137.5 -27q-125 0 -196.5 64t-82.5 159h150q24 -98 133 -98q29 0 54.5 8.5t44 20t36.5 34t28.5 40t23.5 49.5t19.5 51t18.5 55q-76 -83 -203 -78q-122 4 -196 83t-74 190q0 78 30 142t79.5 104t112 62
t130.5 22q93 0 158 -33.5t96 -92.5t40.5 -140t-9.5 -175zM471 991q89 0 144 57.5t55 161.5q0 61 -42 99.5t-104 38.5q-89 0 -143.5 -54t-54.5 -159q0 -67 45 -105.5t100 -38.5z" />
    <glyph glyph-name="zero.sups" horiz-adv-x="776" 
d="M557 1688q77 0 135.5 -25.5t92.5 -71t50.5 -102.5t16.5 -125q0 -113 -22 -213.5t-66.5 -185t-121 -134t-175.5 -49.5q-153 0 -222 88t-69 236q0 91 12.5 173t41 157.5t71.5 130.5t108.5 88t147.5 33zM467 909q63 0 111 43.5t74 114.5t38 148.5t12 158.5q0 187 -145 187
q-79 0 -133 -71t-76 -172t-22 -220q0 -98 38 -143.5t103 -45.5z" />
    <glyph glyph-name="one.sups" horiz-adv-x="483" 
d="M498 1679h133l-156 -878h-151l106 612h-215l16 107q97 2 161.5 35t105.5 124z" />
    <glyph glyph-name="two.sups" horiz-adv-x="733" 
d="M598 1133q-35 -22 -89.5 -54t-84 -50t-62.5 -45t-53 -54h439l-23 -129h-621q15 76 36.5 128.5t61 96.5t83 76.5t121.5 79.5q22 14 60 37t55 33.5t45 28.5t40 29t29 28t23.5 31t12 32.5t5.5 38.5q-1 58 -38 89.5t-101 31.5q-63 0 -108 -39.5t-58 -116.5h-156
q15 124 107 205.5t221 81.5q130 0 207 -65.5t77 -166.5q0 -108 -52.5 -178.5t-176.5 -148.5z" />
    <glyph glyph-name="three.sups" horiz-adv-x="745" 
d="M242 1442q25 114 104 182t193 68q124 0 198 -60t74 -164q0 -85 -43.5 -137t-108.5 -76q119 -48 119 -211q0 -108 -86 -184t-221 -76q-139 0 -220.5 62t-100.5 186l-3 23h152l2 -17q19 -127 158 -127q85 0 129.5 39.5t44.5 108.5q0 66 -37.5 101.5t-103.5 35.5h-84l14 119
h72q67 0 117.5 34.5t50.5 102.5q0 53 -32 84t-91 31q-56 0 -91 -33.5t-49 -81.5l-2 -10h-155z" />
    <glyph glyph-name="four.sups" horiz-adv-x="749" 
d="M801 1139l-21 -125h-104l-37 -213h-150l37 213h-383l23 143l471 522h158l-97 -540h103zM309 1139h240l55 327h-6z" />
    <glyph glyph-name="five.sups" horiz-adv-x="765" 
d="M807 1554h-358l-68 -211q65 47 160 43q121 -3 192.5 -79t71.5 -213q0 -135 -87 -223.5t-239 -88.5q-85 0 -149.5 25t-101 66.5t-56 84.5t-25.5 89h150q16 -63 62.5 -101.5t119.5 -38.5q76 0 125 52.5t49 134.5q0 80 -40.5 126t-112.5 46q-98 0 -162 -90l-150 20l156 485
l483 -2z" />
    <glyph glyph-name="six.sups" horiz-adv-x="770" 
d="M178 1225q74 465 393 465q123 0 191.5 -63t79.5 -159h-148q-25 99 -129 99q-39 0 -71.5 -15.5t-54 -37.5t-41 -59t-31 -68t-25.5 -76q70 78 203 78q123 -3 195.5 -83t72.5 -192q0 -103 -51.5 -180.5t-130.5 -114.5t-170 -37q-75 0 -132 22t-91 62t-53.5 95t-19 121.5
t12.5 142.5zM512 1266q-88 0 -143.5 -57.5t-55.5 -161.5q0 -61 41.5 -98.5t104.5 -37.5q89 0 144.5 54.5t55.5 158.5q0 66 -46 104t-101 38z" />
    <glyph glyph-name="seven.sups" horiz-adv-x="708" 
d="M258 1679h596l-18 -114q-155 -131 -288.5 -347t-180.5 -417h-150q59 235 170 426t252 321h-401z" />
    <glyph glyph-name="eight.sups" horiz-adv-x="749" 
d="M662 1264q53 -17 89.5 -73t36.5 -116q0 -129 -93.5 -210t-245.5 -81q-153 0 -227.5 72.5t-74.5 175.5q0 90 64.5 155.5t140.5 82.5q-50 23 -78 68.5t-28 99.5q0 111 88.5 182.5t228.5 71.5q71 0 124 -20.5t80.5 -53t40.5 -66.5t13 -69q0 -81 -46 -138t-113 -81zM553 1569
q-69 0 -113.5 -38.5t-44.5 -111.5q0 -44 36 -70t79 -26q70 0 113 39t43 113q0 42 -32.5 68t-80.5 26zM444 907q85 0 137 47.5t52 135.5q0 51 -38 81.5t-97 30.5q-83 0 -137 -45t-54 -133q0 -54 43 -85.5t94 -31.5z" />
    <glyph glyph-name="nine.sups" horiz-adv-x="774" 
d="M846 1249q-13 -75 -30.5 -137.5t-49 -126t-73 -106.5t-103 -70t-137.5 -27q-125 0 -196.5 64.5t-82.5 159.5h150q24 -99 133 -99q29 0 54.5 8.5t44 20t36.5 34t28.5 40t23.5 49.5t19.5 51t18.5 55q-76 -83 -203 -78q-122 4 -196 83t-74 190q0 78 30 142t79.5 104t112 62
t130.5 22q93 0 158 -33.5t96 -92.5t40.5 -139.5t-9.5 -175.5zM510 1208q89 0 144 57.5t55 161.5q0 61 -42 99.5t-104 38.5q-89 0 -143.5 -54t-54.5 -159q0 -67 45 -105.5t100 -38.5z" />
    <glyph glyph-name="bullet.001" horiz-adv-x="1021" 
d="M545 1087q159 0 268 -108t109 -266q0 -159 -109.5 -270t-267.5 -111t-268.5 111.5t-110.5 269.5t110 266t269 108z" />
    <glyph glyph-name="colon.case" horiz-adv-x="477" 
d="M227 1126h232l-45 -249h-230zM104 420h230l-43 -250h-232z" />
    <glyph glyph-name="exclamdown.case" horiz-adv-x="530" 
d="M496 1225h-217l40 237h220zM154 469l157 623h107l-62 -623l-84 -469h-200z" />
    <glyph glyph-name="questiondown.case" horiz-adv-x="1081" 
d="M801 1225h-219l43 237h217zM1001 449l-8 -41q-36 -203 -164.5 -323t-320.5 -120q-194 0 -301 106t-107 265q0 38 7 73.5t16 62.5t27.5 56.5t31.5 48t39 45t39 38.5t42 37.5t38 33.5q7 7 41 36.5t44.5 39.5t37.5 36.5t38.5 43t28.5 42t25.5 50t13.5 51.5l9 41h190l-12 -70
q-10 -57 -33.5 -107t-63.5 -96.5t-68 -74t-79 -72.5q-18 -16 -59 -47.5t-63 -52t-49 -54t-39.5 -75t-12.5 -92.5q0 -86 60.5 -145.5t164.5 -59.5q115 0 191 80t100 215l6 29h190z" />
    <glyph glyph-name="periodcentered.case" horiz-adv-x="514" 
d="M289 850q54 0 92.5 -38.5t38.5 -92.5q0 -50 -39.5 -90.5t-89.5 -40.5q-54 0 -93.5 38.5t-39.5 92.5t38.5 92.5t92.5 38.5z" />
    <glyph glyph-name="parenleft.case" horiz-adv-x="628" 
d="M287 -55q-116 226 -147.5 396t3.5 396q37 203 135 391t285 390h182q-163 -193 -261 -392.5t-132 -388.5q-18 -103 -19.5 -192.5t15.5 -185.5t45.5 -189t77.5 -225h-184z" />
    <glyph glyph-name="parenright.case" horiz-adv-x="626" 
d="M135 -55h-182q190 264 276 430t119 362q37 175 7.5 381.5t-128.5 399.5h185q116 -203 150 -397.5t-5 -383.5q-38 -219 -131.5 -392t-290.5 -400z" />
    <glyph glyph-name="braceleft.case" horiz-adv-x="714" 
d="M809 1399h-98q-100 0 -127 -166l-39 -227q-12 -66 -42.5 -120t-66 -84.5t-65.5 -47.5t-52 -21l-2 -6q16 -2 35 -11t41.5 -28.5t36.5 -50t21 -76t-5 -106.5l-38 -228q-28 -166 65 -166h98l-22 -139h-156q-83 0 -138.5 73t-33.5 195l41 232q19 106 -19 169.5t-106 63.5
l25 148q68 0 129.5 66.5t79.5 170.5l41 230q22 121 102 193.5t164 72.5h156z" />
    <glyph glyph-name="braceright.case" horiz-adv-x="718" 
d="M213 1399l25 137h153q84 0 140 -72.5t34 -193.5l-41 -230q-18 -104 20.5 -170.5t106.5 -66.5l-24 -148q-69 0 -130.5 -63.5t-80.5 -169.5l-41 -232q-22 -122 -102.5 -195t-163.5 -73h-156l24 139h99q99 0 127 166l41 228q11 58 33.5 106t47.5 77t54 49.5t50.5 29
t37.5 10.5l2 6q-20 5 -43.5 20.5t-50 49t-35 83t1.5 120.5l39 227q27 166 -68 166h-100z" />
    <glyph glyph-name="bracketleft.case" horiz-adv-x="595" 
d="M471 127l-27 -152h-387l269 1522h387l-27 -151h-211l-215 -1219h211z" />
    <glyph glyph-name="bracketright.case" horiz-adv-x="595" 
d="M-20 127h210l216 1219h-209l26 151h389l-268 -1522h-389z" />
    <glyph glyph-name="hyphen.case" horiz-adv-x="1017" 
d="M201 709h680l-29 -168h-682z" />
    <glyph glyph-name="endash.case" horiz-adv-x="1363" 
d="M201 709h1026l-31 -168h-1026z" />
    <glyph glyph-name="emdash.case" horiz-adv-x="1861" 
d="M201 709h1523l-30 -168h-1524z" />
    <glyph glyph-name="guillemotleft.case" horiz-adv-x="929" 
d="M109 709l340 440h169l-309 -440l154 -441h-170zM451 709l340 440h170l-310 -440l152 -441h-168z" />
    <glyph glyph-name="guillemotright.case" horiz-adv-x="931" 
d="M543 709l-340 -441h-170l309 441l-154 440h170zM885 709l-340 -441h-170l309 441l-154 440h170z" />
    <glyph glyph-name="guilsinglleft.case" horiz-adv-x="587" 
d="M109 709l340 440h169l-309 -440l154 -441h-170z" />
    <glyph glyph-name="guilsinglright.case" horiz-adv-x="589" 
d="M543 709l-340 -441h-170l309 441l-154 440h170z" />
    <glyph glyph-name="plus.case" horiz-adv-x="1261" 
d="M750 805h434v-162h-434v-440h-170v440h-435v162h435v438h170v-438z" />
    <glyph glyph-name="minus.case" horiz-adv-x="1263" 
d="M145 797h1037v-170h-1037v170z" />
    <glyph glyph-name="multiply.case" horiz-adv-x="1290" 
d="M188 1040l129 129l357 -356l354 356l131 -129l-356 -356l356 -354l-131 -131l-354 356l-357 -356l-129 129l355 356z" />
    <glyph glyph-name="divide.case" horiz-adv-x="1261" 
d="M543 1200h229v-233h-229v233zM139 764h1037v-160h-1037v160zM543 401h229v-233h-229v233z" />
    <glyph glyph-name="equal.case" horiz-adv-x="1331" 
d="M1210 807h-1036v154h1036v-154zM174 557h1036v-154h-1036v154z" />
    <glyph glyph-name="notequal.case" horiz-adv-x="1337" 
d="M174 958h582l157 304l129 -68l-122 -236h297v-149h-377l-133 -256h510v-152h-590l-156 -299l-129 68l119 231h-287v152h367l135 256h-502v149z" />
    <glyph glyph-name="greater.case" horiz-adv-x="1216" 
d="M195 1034v185l960 -451v-170l-960 -453v185l761 352z" />
    <glyph glyph-name="less.case" horiz-adv-x="1216" 
d="M1075 1034l-762 -352l762 -352v-185l-960 453v170l960 451v-185z" />
    <glyph glyph-name="greaterequal.case" horiz-adv-x="1386" 
d="M1247 774l-1034 -379v164l825 295l-825 295v166l1034 -383v-158zM1247 164h-1034v151h1034v-151z" />
    <glyph glyph-name="lessequal.case" horiz-adv-x="1316" 
d="M145 774v158l1035 383v-166l-826 -295l826 -295v-164zM145 164v151h1035v-151h-1035z" />
    <glyph glyph-name="plusminus.case" horiz-adv-x="1357" 
d="M158 868h442v334h152v-334h442v-153h-442v-336h-152v336h-442v153zM158 307h1036v-147h-1036v147z" />
    <glyph glyph-name="approxequal.case" horiz-adv-x="1282" 
d="M1200 1016q-9 -137 -91.5 -221t-215.5 -84q-55 0 -121 21.5t-116.5 48t-110 48t-103.5 21.5q-56 0 -94 -37.5t-41 -101.5h-174q8 136 90 220.5t217 84.5q63 0 133 -21.5t119.5 -48t105 -48t93.5 -21.5q54 0 91.5 37t43.5 102h174zM1200 639q-9 -137 -91.5 -221
t-215.5 -84q-55 0 -121 21.5t-116.5 48t-110 48t-103.5 21.5q-56 0 -94 -37.5t-41 -101.5h-174q8 136 90 220.5t217 84.5q63 0 133 -21.5t119.5 -48t105 -48t93.5 -21.5q54 0 91.5 37t43.5 102h174z" />
    <glyph glyph-name="asciitilde.case" horiz-adv-x="1214" 
d="M1165 829q-8 -137 -90.5 -221t-214.5 -84q-56 0 -121.5 22t-116 48t-109.5 48t-103 22q-57 0 -95 -37.5t-41 -102.5h-174q8 136 90.5 220.5t217.5 84.5q63 0 132.5 -21.5t119 -48t105 -48t93.5 -21.5q54 0 90.5 36.5t42.5 102.5h174z" />
    <glyph glyph-name="ampersand.alt" horiz-adv-x="1243" 
d="M1223 557l-29 -151h-141l-2 -7q-59 -203 -207 -313.5t-367 -110.5q-227 0 -339.5 123.5t-78.5 321.5q25 144 102.5 231t207.5 137q-78 52 -106.5 127t-8.5 191q30 164 159.5 264t321.5 100q200 0 298 -107t73 -284h-188v29q3 91 -47 145t-158 54q-109 0 -181 -59
t-92 -165q-28 -160 135 -200l-36 -203q-113 -19 -191 -81t-98 -173q-21 -126 44.5 -208.5t207.5 -82.5q132 0 223.5 69.5t126.5 201.5h-176l26 151h521z" />
    <glyph glyph-name="uni030C.alt" 
d="M-61 1462h200l-149 -354h-125z" />
    <glyph glyph-name="uni0328.alt" 
d="M-193 0q-98 -64 -159 -117.5t-66 -99.5q-6 -52 19 -72t92 -20l-23 -121q-134 0 -203.5 47t-52.5 143q5 36 21 67.5t48 64t54.5 52t69.5 56.5h200z" />
    <glyph glyph-name="uni0308.case" 
d="M-414 1800h187l-37 -215h-187zM-29 1800h187l-37 -215h-187z" />
    <glyph glyph-name="uni0307.case" 
d="M-29 1792h189l-37 -207h-189z" />
    <glyph glyph-name="gravecomb.case" 
d="M-188 1808l215 -231h-201l-285 231h271z" />
    <glyph glyph-name="acutecomb.case" 
d="M74 1808h282l-364 -231h-215z" />
    <glyph glyph-name="uni030B.case" 
d="M-358 1808h229l-297 -231h-158zM-37 1808h230l-299 -231h-158z" />
    <glyph glyph-name="uni030C.alt.case" 
d="M-113 1462h207l-207 -415h-125z" />
    <glyph glyph-name="uni0302.case" 
d="M-594 1577l250 231h213l207 -231h-209l-105 129l-147 -129h-209z" />
    <glyph glyph-name="uni030C.case" 
d="M-350 1577l-203 231h209l102 -131l150 131h209l-254 -231h-213z" />
    <glyph glyph-name="uni0306.case" 
d="M150 1810q-20 -76 -71.5 -134t-115.5 -86.5t-131 -28.5q-130 0 -210.5 69t-82.5 180h148q1 -52 40 -85t97 -33q59 0 108 33t66 85h152z" />
    <glyph glyph-name="uni030A.case" 
d="M-297 1790q19 98 89.5 160.5t164.5 62.5q97 0 152 -65.5t38 -157.5q-17 -93 -90 -157t-166 -64q-95 0 -150 64.5t-38 156.5zM-172 1788q-8 -43 14 -70.5t66 -27.5q43 0 75 27.5t40 70.5q7 44 -15 72t-65 28q-44 0 -75.5 -28t-39.5 -72z" />
    <glyph glyph-name="tildecomb.case" 
d="M-586 1575q25 100 91 162.5t165 62.5q57 0 143 -41t126 -41q35 0 56.5 22.5t37.5 67.5h135q-26 -100 -93 -164.5t-157 -64.5q-51 0 -103.5 20t-98 40t-78.5 20q-76 0 -97 -84h-127z" />
    <glyph glyph-name="uni0304.case" 
d="M-510 1753h621l-21 -123h-620z" />
    <glyph glyph-name="uni0327.case" 
d="M-479 -430q-101 0 -183 39l58 106q23 -17 60.5 -28t70.5 -11q47 0 82 15.5t41 48.5q4 28 -19.5 43.5t-64.5 15.5q-33 0 -86 -16l-41 80l129 137h129l-111 -104l2 -5q37 11 74 11q72 0 116.5 -39.5t31.5 -110.5q-9 -49 -39 -86t-72.5 -57t-87 -29.5t-90.5 -9.5z" />
    <glyph glyph-name="uni0335.case" 
d="M-952 850l26 143h809l-24 -143h-811z" />
    <glyph glyph-name="uni0336.case" 
d="M59 1202l-20 -112h-1305l21 112h1304z" />
    <glyph glyph-name="uni0337.case" 
d="M-1180 397l25 135l926 582l-25 -135z" />
    <glyph glyph-name="uni0338.case" 
d="M-18 1479l77 -93l-1665 -1396l-71 94z" />
    <glyph glyph-name="VICE" horiz-adv-x="5543" 
d="M5536 1343q1 -9 1 -14t-5.5 -13.5t-8.5 -12.5t-10 -11l-10 -10q-20 -25 -66.5 -83t-76 -93t-71.5 -82t-83.5 -84.5t-83.5 -67.5q6 -42 2.5 -92t-16.5 -78q5 -6 23 -28t25 -31.5t20 -28.5t21 -36.5t15 -36.5q-50 -257 -221 -383q-24 -18 -50 -32.5t-61.5 -28.5
t-56.5 -22.5t-68.5 -21.5t-63 -17t-75 -18.5t-71.5 -17.5q-115 -25 -225.5 -43t-250.5 -29t-257 -5t-229.5 37.5t-184.5 90.5q-100 -60 -246.5 -94t-296.5 -36.5t-296 33.5t-239 107q-33 -42 -90 -74.5t-124 -49t-142.5 -21t-145 8.5t-131 41t-102 75.5t-56.5 112t5 151.5
q-271 -211 -516 -315q-66 -28 -147.5 -42t-164 -6.5t-148.5 34.5t-102 88.5t-24 148.5q2 17 7.5 31.5t16 32t15.5 28.5q-92 159 -141 281q-5 13 -29 69t-35 84.5t-23.5 79.5t-15.5 96q-4 98 29.5 184.5t95 151.5t133 113t154.5 82q45 16 145.5 64t157.5 65q121 34 211 -22.5
t96 -166.5q177 54 334.5 79t321.5 1q56 44 139.5 63.5t162.5 19t185 -18t175 -34.5t165 -44q20 -5 86 -31.5t90 -25.5q19 1 70.5 31.5t64.5 35.5q50 22 93 38.5t99 35t109.5 30t112.5 19t121 6t123 -11.5q21 -5 68.5 -20t72.5 -19q20 -1 60 5t55 7q204 9 428 -12t386 -52
t392.5 -77t372.5 -68zM5167 1171q2 2 8.5 6.5t10 7.5t8.5 8.5t5 9.5t-1 11q-68 10 -162 28t-178.5 35t-183.5 35.5t-195 31.5t-194.5 22t-199 8t-192.5 -12q-25 -4 -49.5 -21t-49.5 -41.5t-40 -33.5q3 3 0 6q2 8 9 29.5t10 35t4 29.5q-65 23 -134 31.5t-129 5.5t-130 -20
t-121 -34.5t-118.5 -49t-108 -52.5t-101.5 -55q-284 -158 -453 -330q75 125 133 205q26 37 78 97.5t70 84.5q-18 4 -123 30.5t-162 37.5q-71 17 -113 25.5t-109.5 17.5t-120.5 2t-93 -29q-9 -6 -39 -36t-49 -33q-14 -1 -50 10t-53 12q-160 17 -323 -22q-44 -7 -70.5 -12
t-78.5 -18.5t-83.5 -27t-61 -36.5t-36.5 -50q-10 -31 3.5 -90.5t10.5 -85.5q-7 -37 -34.5 -87t-57.5 -89q-29 -51 -57.5 -83.5t-67.5 -49.5q-6 29 -10 57t-4.5 59t-1.5 53t3.5 57t6 50.5t9 54t9 48.5t11 52.5t10.5 47.5q4 24 15 69.5t16.5 74t4.5 67.5t-13 70
q-41 6 -81.5 -8t-93 -45t-79.5 -42q-13 -5 -49 -19.5t-51.5 -20.5t-48.5 -21t-49.5 -24t-43.5 -26t-41.5 -31t-33.5 -35t-29.5 -41.5t-19 -47t-11.5 -55.5q-3 -22 -3.5 -43t3 -41.5t6.5 -35.5t10.5 -36.5t11.5 -32.5t13.5 -34.5t13.5 -32.5q87 -232 230 -430
q-9 -15 -24 -30.5t-27 -26t-23.5 -29t-14.5 -41.5q29 -41 136 -41q57 0 111 11.5t112 37.5t90.5 43t93.5 53q62 34 123.5 80t105.5 84t105 102t90.5 97t95.5 110t88 103q7 8 23 28.5t25 30.5t24 23t29 20q10 -44 11 -85.5t-4.5 -74t-18 -70.5t-24.5 -65.5t-29.5 -68.5
t-28.5 -72q-93 -238 -56 -330q15 -44 104 -64.5t185.5 -12.5t138.5 36q19 14 33 40t27.5 61.5t21.5 50.5q16 30 76 153q0 -60 18 -107.5t45.5 -78.5t72.5 -56t85 -39t98 -30q101 -26 211.5 -26t203.5 18.5t189 53.5t164.5 69t135.5 74q-5 -33 -5 -58t3 -43t15 -32t21.5 -22
t32 -16t38.5 -11.5l48 -10.5q110 -22 228 -25t236.5 13.5t209.5 35t205 48.5q184 44 250 71q138 58 184 168q16 37 23 82q-49 42 -197 23q-62 -10 -176 -43t-223 -53t-220 -13q-145 20 -151 49q-7 30 35.5 54.5t97.5 31.5q74 14 299 20.5t309 39.5q59 19 108.5 74t45.5 116
q-6 40 -53 67t-105 32q-67 3 -146 -13t-136 -34t-137.5 -27.5t-151.5 6.5q14 16 31.5 59t33.5 58q75 1 230 -12.5t237 -10.5q145 11 243.5 67.5t176.5 155.5zM3754 1266l-4 -2q1 0 2 1t2 1zM3725 1176q24 -30 100 -52.5t97 -36.5q-7 -1 -105.5 -15t-140.5 -32q9 22 24.5 68
t24.5 68zM3539 692q20 25 45 103q16 -25 26 -55t12 -66.5t-15 -65.5q-65 1 -133 -18.5t-127 -47.5t-117.5 -56t-125.5 -48t-130 -20q-86 0 -131 46t-11 128q23 57 68 116t88.5 100.5t99 96t86.5 92.5q-11 -51 -47.5 -167t-50.5 -177q90 0 266 18.5t197 20.5z" />
    <glyph glyph-name="TV" horiz-adv-x="2367" 
d="M2292 1462h221l-787 -1460l-251 -2l-234 1292h-424l-227 -1292h-201l227 1292h-446l31 170h1229l204 -1259h4z" />
    </font>
</defs>
</svg>
