<?xml version="1.0" standalone="no"?>
<!DOCTYPE svg PUBLIC "-//W3C//DTD SVG 1.1//EN" "http://www.w3.org/Graphics/SVG/1.1/DTD/svg11.dtd" >
<svg xmlns="http://www.w3.org/2000/svg" xmlns:xlink="http://www.w3.org/1999/xlink" version="1.1">
<metadata>
Created by FontForge 20170731 at Mon Dec 14 20:22:10 2020
 By Aleksey,,,
Copyright (c) 2020 by Nizar Kazan. All rights reserved.
</metadata>
<defs>
<font id="VICEGrotesk-Black" horiz-adv-x="0" >
  <font-face 
    font-family="VICE Grotesk Black"
    font-weight="900"
    font-stretch="normal"
    units-per-em="2048"
    panose-1="2 0 5 3 4 0 0 2 0 4"
    ascent="1638"
    descent="-410"
    x-height="1059"
    cap-height="1462"
    bbox="-1581 -451 5457 2120"
    underline-thickness="208"
    underline-position="-771"
    unicode-range="U+000D-FEFF"
  />
<missing-glyph horiz-adv-x="1955" 
d="M1911 551v-41h-914v-913h-41v913h-911v41h911v911h41v-911h914z" />
    <glyph glyph-name="f_f" unicode="ff" horiz-adv-x="1357" 
d="M1346 1059v-266h-185v-793h-368v793h-269v-793h-368v793h-152v266h152q2 84 13 144t37.5 111.5t70.5 82.5t112.5 48t163.5 17h137v-260h-33q-83 0 -107 -27.5t-26 -115.5h269q2 84 13 144t37.5 111.5t70.5 82.5t112.5 48t163.5 17h137v-260h-33q-83 0 -107 -27.5
t-26 -115.5h185z" />
    <glyph glyph-name="f_i" unicode="fi" horiz-adv-x="1327" 
d="M657 1202q-83 0 -107 -27.5t-26 -115.5h185v-266h-185v-793h-368v793h-152v266h152q2 84 13 144t37.5 111.5t70.5 82.5t112.5 48t163.5 17h137v-260h-33zM836 1462h376v-303h-376v303zM836 0v1059h368v-1059h-368z" />
    <glyph glyph-name="f_l" unicode="fl" horiz-adv-x="1318" 
d="M657 1202q-83 0 -107 -27.5t-26 -115.5h185v-266h-185v-793h-368v793h-152v266h152q2 84 13 144t37.5 111.5t70.5 82.5t112.5 48t163.5 17h137v-260h-33zM836 1462h368v-1462h-368v1462z" />
    <glyph glyph-name=".notdef" horiz-adv-x="1955" 
d="M1911 551v-41h-914v-913h-41v913h-911v41h911v911h41v-911h914z" />
    <glyph glyph-name=".null" horiz-adv-x="1028" 
 />
    <glyph glyph-name="nonmarkingreturn" horiz-adv-x="682" 
 />
    <glyph glyph-name="CR" unicode="&#xd;" horiz-adv-x="473" 
 />
    <glyph glyph-name="space" unicode=" " horiz-adv-x="473" 
 />
    <glyph glyph-name="exclam" unicode="!" horiz-adv-x="659" 
d="M520 1057l-61 -625h-260l-60 625v405h381v-405zM156 328h348v-328h-348v328z" />
    <glyph glyph-name="quotedbl" unicode="&#x22;" horiz-adv-x="1050" 
d="M123 1462h340l-17 -544h-278zM928 1462l-45 -544h-281l-16 544h342z" />
    <glyph glyph-name="numbersign" unicode="#" horiz-adv-x="1247" 
d="M1198 836h-205l-35 -244h179v-213h-207l-53 -379h-238l53 379h-231l-53 -379h-238l53 379h-174v213h203l35 244h-172v213h202l58 413h237l-57 -413h231l58 413h237l-57 -413h174v-213zM721 592l35 244h-232l-35 -244h232z" />
    <glyph glyph-name="dollar" unicode="$" horiz-adv-x="1310" 
d="M762 881q50 -15 84.5 -26.5t79.5 -29t76.5 -33.5t68.5 -39t61.5 -47.5t49 -57t39 -68.5t23.5 -81t9 -96q0 -177 -119.5 -285.5t-304.5 -140.5v-256h-315v263q-187 40 -309.5 169t-155.5 343h397q10 -95 78.5 -156t163.5 -61q103 0 147 33.5t44 99.5q0 32 -13 58t-33 44.5
t-59.5 37t-77.5 31.5t-102 33q-59 18 -103 33.5t-96.5 40t-90 49.5t-75 62t-60 78.5t-36.5 97.5t-14 121q1 80 32.5 146t87 112.5t124.5 77.5t151 47v258h315v-254q380 -63 428 -477h-380q-20 94 -70 136t-137 42q-79 0 -126.5 -30t-47.5 -87q0 -62 61.5 -103.5t204.5 -84.5
z" />
    <glyph glyph-name="percent" unicode="%" horiz-adv-x="2054" 
d="M1464 1481l-563 -1497h-307l563 1497h307zM455 1477q96 0 173 -34.5t125 -94.5t73.5 -137.5t25.5 -166.5q0 -90 -25 -168t-72.5 -138.5t-124.5 -95t-175 -34.5q-97 0 -174 35t-125 95.5t-73.5 138.5t-25.5 167q0 120 43 216t135 156.5t220 60.5zM455 827q62 0 93.5 61.5
t31.5 158.5q0 95 -31.5 155t-93.5 60q-64 0 -101 -61t-37 -154q0 -94 37 -157t101 -63zM1599 834q128 0 220 -60.5t135 -156.5t43 -216q0 -121 -42.5 -218t-134.5 -157.5t-221 -60.5q-96 0 -173 35t-125 95.5t-73.5 138.5t-25.5 167t25.5 166.5t73.5 137.5t125 94.5
t173 34.5zM1599 184q63 0 95 61t32 158q0 95 -32 155t-95 60t-93.5 -59.5t-30.5 -155.5q0 -97 30.5 -158t93.5 -61z" />
    <glyph glyph-name="ampersand" unicode="&#x26;" horiz-adv-x="1480" 
d="M977 104q-102 -73 -187 -106t-204 -33q-72 0 -142.5 13t-141 44.5t-123 79t-85.5 121.5t-33 166q0 140 73.5 239t215.5 175q-145 164 -145 332q0 141 121 246.5t301 105.5q189 0 309.5 -91.5t120.5 -248.5q0 -227 -238 -383l164 -180q17 35 53 153h279
q-11 -109 -47 -215.5t-94 -187.5l307 -334h-414zM627 932q70 56 96 98t25 105q-1 58 -37 87t-84 29q-47 0 -80 -32.5t-33 -83.5q0 -34 15.5 -68t32.5 -56t65 -79zM551 575q-69 -34 -101 -78t-32 -108q0 -67 48 -105t122 -38q50 0 104.5 17.5t95.5 51.5z" />
    <glyph glyph-name="quotesingle" unicode="'" horiz-adv-x="585" 
d="M123 1462h340l-45 -544h-250z" />
    <glyph glyph-name="parenleft" unicode="(" horiz-adv-x="729" 
d="M414 -406q-164 254 -250 481t-86 478q0 240 88 486t248 458h309q-145 -219 -202.5 -446t-57.5 -498q0 -277 57.5 -506.5t202.5 -452.5h-309z" />
    <glyph glyph-name="parenright" unicode=")" horiz-adv-x="727" 
d="M313 -406h-307q144 222 201 451.5t57 507.5q0 273 -56.5 499.5t-201.5 444.5h307q160 -212 248 -458t88 -486q0 -251 -86 -478t-250 -481z" />
    <glyph glyph-name="asterisk" unicode="*" horiz-adv-x="774" 
d="M57 1182v184l181 -4l-93 156l160 92l86 -160l88 160l160 -92l-92 -156l180 4v-184l-180 4l92 -156l-160 -92l-86 160l-88 -160l-160 92l93 156z" />
    <glyph glyph-name="plus" unicode="+" horiz-adv-x="1325" 
d="M811 723h436v-305h-436v-434h-297v434h-436v305h436v434h297v-434z" />
    <glyph glyph-name="comma" unicode="," horiz-adv-x="622" 
d="M133 369h356v-369l-143 -285h-205l127 285h-135v369z" />
    <glyph glyph-name="hyphen" unicode="-" horiz-adv-x="1097" 
d="M164 727h770v-303h-770v303z" />
    <glyph glyph-name="period" unicode="." horiz-adv-x="630" 
d="M133 369h365v-369h-365v369z" />
    <glyph glyph-name="slash" unicode="/" horiz-adv-x="747" 
d="M463 1599h305l-508 -1818h-305z" />
    <glyph glyph-name="zero" unicode="0" horiz-adv-x="1384" 
d="M692 1483q135 0 240.5 -42t172 -111.5t109.5 -168t60.5 -204t17.5 -226.5q0 -122 -17.5 -228.5t-60.5 -207.5t-109.5 -173t-172 -115.5t-240.5 -43.5t-240.5 43.5t-172 116t-109.5 173.5t-60.5 207.5t-17.5 227.5t17.5 226.5t60.5 204t109.5 168t172 111.5t240.5 42z
M692 260q125 0 184.5 129t59.5 344q0 212 -59 332.5t-185 120.5q-243 0 -243 -453q0 -104 13.5 -187.5t41.5 -149t76 -101t112 -35.5z" />
    <glyph glyph-name="one" unicode="1" horiz-adv-x="915" 
d="M463 1462h313v-1462h-356v952h-383v205q97 0 173 26t144 95.5t109 183.5z" />
    <glyph glyph-name="two" unicode="2" horiz-adv-x="1251" 
d="M563 311h627v-311h-1120q-2 85 4.5 148.5t28 119t48.5 97t79 88.5t105.5 86t141.5 96q29 19 75 49t65 43t52 35.5t45 33.5t33 30t28 32t18 32t13.5 38t5.5 42.5t3 51.5q0 72 -48 122t-128 50q-78 0 -135.5 -54.5t-57.5 -170.5h-356q0 109 47 206.5t123.5 165t175 107
t199.5 39.5q147 0 270.5 -59t194.5 -160.5t71 -220.5q0 -167 -74 -290t-249 -255q-62 -47 -158 -107t-127 -84z" />
    <glyph glyph-name="three" unicode="3" horiz-adv-x="1243" 
d="M72 1026q22 211 160.5 336t369.5 125q245 0 388 -108.5t143 -313.5q0 -198 -201 -301q123 -49 182.5 -143t61.5 -215q1 -56 -18 -115.5t-61.5 -118.5t-102.5 -105t-149.5 -75t-195.5 -29q-265 0 -429 114t-181 324l-2 27h350l4 -27q10 -64 80 -103.5t154 -39.5
q82 0 143 45.5t61 134.5q0 30 -8 57t-27.5 54.5t-61 44t-101.5 16.5q-127 0 -170 -2v264q55 -2 141 -2q81 0 129.5 42.5t48.5 127.5q0 73 -50 114.5t-126 41.5q-149 0 -172 -135l-6 -35h-354z" />
    <glyph glyph-name="four" unicode="4" horiz-adv-x="1277" 
d="M1212 612v-293h-186v-319h-356v319h-629v381l586 762h399v-850h186zM330 612h340v432h-23z" />
    <glyph glyph-name="five" unicode="5" horiz-adv-x="1243" 
d="M700 989q226 0 362 -137t136 -365q0 -112 -44.5 -210.5t-119.5 -167t-176 -107.5t-211 -39q-91 0 -167.5 14.5t-129.5 37t-96.5 58.5t-70.5 69.5t-50 79t-35 78t-26 76.5q0 2 -0.5 3.5t-1.5 3.5l356 8q59 -125 215 -125q88 0 144.5 70.5t56.5 155.5q0 86 -57.5 148
t-139.5 62q-55 0 -98.5 -17t-65.5 -36t-53 -53l-334 16l117 856l879 -6v-293h-574l-37 -247h2q90 67 219 67z" />
    <glyph glyph-name="six" unicode="6" horiz-adv-x="1345" 
d="M92 686q0 130 21.5 246t69.5 219t119 177.5t175.5 117.5t233.5 43q239 0 374 -110t156 -287h-356q-13 28 -28.5 48t-56.5 38t-100 18q-50 0 -88.5 -17.5t-63 -44.5t-42.5 -70t-27.5 -83.5t-17.5 -95.5q3 2 19 14t30.5 22t41.5 24.5t54 24t65 16.5t77 7q230 0 375 -133
t145 -338q0 -120 -38 -222t-109.5 -178t-182 -118.5t-248.5 -42.5q-292 0 -454 225q-144 201 -144 500zM473 479q0 -101 61.5 -160t157.5 -59q97 0 158 59t61 160t-62 162t-157 61q-100 0 -159.5 -69t-59.5 -154z" />
    <glyph glyph-name="seven" unicode="7" horiz-adv-x="1132" 
d="M12 1462h1067v-221q-221 -218 -370.5 -560.5t-169.5 -680.5h-357q23 263 92.5 495.5t161.5 392.5t201 263h-625v311z" />
    <glyph glyph-name="eight" unicode="8" horiz-adv-x="1288" 
d="M934 776q106 -30 184 -129.5t78 -236.5q0 -206 -139 -326.5t-408 -120.5q-276 0 -417.5 120.5t-139.5 326.5q1 136 80 235t186 131q-96 35 -152 116t-56 204q0 75 30 145t88.5 127.5t156.5 92t222 34.5t222 -34.5t156 -92.5t88 -127t30 -145q0 -236 -209 -320zM647 1233
q-82 0 -124 -45.5t-42 -114.5t42 -114.5t124 -45.5t122 44.5t40 115.5q0 70 -40.5 115t-121.5 45zM647 221q101 0 152 60t51 141q0 79 -51.5 141t-151.5 62q-71 0 -120 -32t-69 -76t-20 -95q0 -79 52.5 -140t156.5 -61z" />
    <glyph glyph-name="nine" unicode="9" horiz-adv-x="1345" 
d="M78 932q0 120 37.5 221.5t109 177t182 118t248.5 42.5q241 0 402 -164q96 -99 146 -244.5t50 -316.5q0 -104 -15 -201t-45.5 -188t-81 -166t-117.5 -131.5t-160 -87.5t-203 -31q-125 0 -221 30t-157.5 85t-96.5 125t-47 157h356q25 -48 42 -65q43 -39 132 -39
q60 0 106 28.5t73 78t42 103.5t21 116q-2 -1 -21 -18t-41 -32t-55 -32.5t-78.5 -28t-95.5 -10.5q-228 0 -370 134t-142 339zM434 975q0 -102 62.5 -163.5t156.5 -61.5q99 0 156 66t57 159q0 99 -58.5 158t-154.5 59q-97 0 -158 -58t-61 -159z" />
    <glyph glyph-name="colon" unicode=":" horiz-adv-x="622" 
d="M133 1010h356v-361h-356v361zM133 360h356v-360h-356v360z" />
    <glyph glyph-name="semicolon" unicode=";" horiz-adv-x="622" 
d="M133 637v360h356v-360h-356zM141 -285l127 285h-135v369h356v-369l-143 -285h-205z" />
    <glyph glyph-name="less" unicode="&#x3c;" horiz-adv-x="1171" 
d="M1094 799l-596 -279l596 -282v-324l-1016 492v225l1016 491v-323z" />
    <glyph glyph-name="equal" unicode="=" horiz-adv-x="1302" 
d="M1225 567h-1147v279h1147v-279zM78 455h1147v-279h-1147v279z" />
    <glyph glyph-name="greater" unicode="&#x3e;" horiz-adv-x="1171" 
d="M78 799v323l1016 -491v-225l-1016 -492v324l596 282z" />
    <glyph glyph-name="question" unicode="?" horiz-adv-x="1148" 
d="M68 985l4 53q7 92 39.5 172t91.5 145.5t156 103.5t221 38q126 0 223 -32.5t157 -90.5t90.5 -134t30.5 -167q0 -59 -13 -107.5t-40.5 -90t-51 -67.5t-63.5 -65q-41 -39 -53.5 -51t-43 -46.5t-41 -55.5t-21.5 -54t-11 -67v-16h-360v41q0 217 190 370q44 35 61 49t46 43.5
t40 55.5t11 55q0 65 -37.5 101t-113.5 36q-75 0 -118.5 -46.5t-51.5 -119.5l-7 -53h-335zM381 328h364v-328h-364v328z" />
    <glyph glyph-name="at" unicode="@" horiz-adv-x="1816" 
d="M1389 -180h-428q-199 0 -366.5 62t-283.5 171.5t-180.5 264t-64.5 335.5q0 185 75 345.5t199.5 269t287 170t337.5 61.5q354 0 570 -204t216 -531q0 -75 -16 -150t-51 -144.5t-84.5 -123t-121.5 -85.5t-157 -32h-236l9 113q-75 -121 -230 -121q-172 0 -278.5 116.5
t-106.5 301.5q0 198 120 328.5t288 130.5q91 0 154.5 -42t70.5 -83l6 74h223l-34 -611h24q73 0 117.5 92t44.5 236q0 231 -133 367.5t-395 136.5q-175 0 -316.5 -77.5t-223 -218.5t-81.5 -319q0 -166 68 -297.5t205 -210.5t323 -79h449v-246zM1067 698q0 69 -41 119.5
t-106 50.5q-68 0 -117 -65t-49 -158q0 -95 37 -144.5t98 -49.5q73 0 125.5 72t52.5 175z" />
    <glyph glyph-name="A" unicode="A" horiz-adv-x="1515" 
d="M1100 0l-101 322h-491l-100 -322h-400l514 1462h477l508 -1462h-407zM756 1108h-4l-152 -490h307z" />
    <glyph glyph-name="B" unicode="B" horiz-adv-x="1325" 
d="M139 0v1462h498q139 0 244 -20.5t183 -64.5t118.5 -117.5t40.5 -176.5q0 -66 -9.5 -113t-34.5 -84t-53 -62t-79 -62v-2q10 -7 35 -23.5t37.5 -25.5t35 -28t35 -34.5t29 -40.5t25 -51t14.5 -61.5t6 -75.5q0 -101 -30.5 -175.5t-83.5 -121t-135 -74.5t-173 -38.5
t-211 -10.5h-492zM520 887h60q61 0 99 2.5t74 10.5t54.5 23.5t29.5 41t11 63.5q0 24 -3.5 42.5t-13 32t-18 23t-28 15.5t-32.5 9.5t-41 4.5t-45 1.5t-53 0.5h-94v-270zM520 307h29h29h62t54 1.5t50 4t41 7.5t36.5 12.5t26.5 18.5t21 26t11 35t5 45t-4.5 44t-14.5 33.5
t-21 24.5t-31 16.5t-36.5 10.5t-45 5.5t-49.5 2t-56 0.5h-107v-287z" />
    <glyph glyph-name="C" unicode="C" horiz-adv-x="1583" 
d="M1530 492q-69 -260 -256.5 -389.5t-460.5 -129.5q-150 0 -283 50t-235 143.5t-161.5 239t-59.5 323.5q0 174 60.5 319t163.5 240.5t238 148t285 52.5q277 0 461 -132t252 -390h-373q-91 198 -340 198q-68 0 -132.5 -30t-117 -84t-84.5 -138t-32 -184q0 -98 32.5 -181
t85 -137t117 -84t131.5 -30q136 0 212.5 46t121.5 149h375z" />
    <glyph glyph-name="D" unicode="D" horiz-adv-x="1499" 
d="M610 1462q396 0 605.5 -188t209.5 -533q0 -364 -208 -552.5t-611 -188.5h-467v1462h471zM598 324q219 0 327.5 103t108.5 314q0 196 -108 297t-320 101h-86v-815h78z" />
    <glyph glyph-name="E" unicode="E" horiz-adv-x="1234" 
d="M520 324h625v-324h-1006v1462h1000v-323h-619v-250h576v-314h-576v-251z" />
    <glyph glyph-name="F" unicode="F" horiz-adv-x="1181" 
d="M1112 1139h-592v-250h553v-314h-553v-575h-381v1462h973v-323z" />
    <glyph glyph-name="G" unicode="G" horiz-adv-x="1622" 
d="M827 526v279h678l-18 -805h-232l-12 129q-139 -164 -438 -164q-152 0 -288.5 62t-233 166t-153 245t-56.5 293q0 124 32.5 238t98.5 210t158 167t218 111t273 40q138 0 252 -38.5t195 -109t136 -162t87 -204.5h-389q-35 93 -100 142t-181 49q-188 0 -293.5 -118
t-105.5 -325q0 -206 108.5 -324t300.5 -118q152 0 231.5 57t104.5 178z" />
    <glyph glyph-name="H" unicode="H" horiz-adv-x="1538" 
d="M1018 1462h381v-1462h-381v571h-498v-571h-381v1462h381v-567h498v567z" />
    <glyph glyph-name="I" unicode="I" horiz-adv-x="659" 
d="M139 1462h381v-1462h-381v1462z" />
    <glyph glyph-name="J" unicode="J" horiz-adv-x="1214" 
d="M422 571v-84q0 -30 1.5 -51t9.5 -52t22.5 -50.5t43 -34t68.5 -14.5q33 0 57.5 7t38.5 22t22.5 28t12 35t4 33.5t0.5 32.5v8v1011h381v-964q0 -274 -124 -397.5t-392 -123.5q-244 0 -382.5 121t-135.5 330l2 143h371z" />
    <glyph glyph-name="K" unicode="K" horiz-adv-x="1447" 
d="M1448 1462l-545 -616l541 -846h-432l-348 578l-144 -158v-420h-381v1462h381v-565l484 565h444z" />
    <glyph glyph-name="L" unicode="L" horiz-adv-x="1204" 
d="M520 324h633v-324h-1014v1462h381v-1138z" />
    <glyph glyph-name="M" unicode="M" horiz-adv-x="1910" 
d="M1249 1462h523v-1462h-351v913l2 56h-6l-284 -969h-353l-286 969h-5l3 -60v-909h-353v1462h527l303 -1003z" />
    <glyph glyph-name="N" unicode="N" horiz-adv-x="1597" 
d="M139 1462h531l278 -657q118 -275 150 -363q-6 98 -6 478v542h366v-1462h-518l-205 494q-49 119 -134 298t-99 226q3 -44 4 -115.5t1 -130.5t-0.5 -151.5t-0.5 -133.5v-487h-367v1462z" />
    <glyph glyph-name="O" unicode="O" horiz-adv-x="1703" 
d="M852 1497q183 0 332.5 -62.5t245.5 -168.5t148 -243.5t52 -291.5t-52 -291.5t-148 -243.5t-245.5 -168.5t-332.5 -62.5t-332.5 62.5t-245.5 168.5t-148 243.5t-52 291.5t52 291.5t148 243.5t245.5 168.5t332.5 62.5zM852 289q178 0 287.5 122.5t109.5 319.5t-109.5 320
t-287.5 123q-179 0 -288 -122.5t-109 -320.5q0 -197 109 -319.5t288 -122.5z" />
    <glyph glyph-name="P" unicode="P" horiz-adv-x="1359" 
d="M723 1462q278 0 433 -134t155 -343q0 -142 -77.5 -261t-211.5 -187t-295 -68h-207v-469h-381v1462h584zM707 782q60 0 109.5 18t83.5 63.5t34 113.5q0 172 -232 172h-182v-367h187z" />
    <glyph glyph-name="Q" unicode="Q" horiz-adv-x="1703" 
d="M1630 729q0 -146 -46 -278t-134 -234l125 -115l-199 -208l-151 149q-163 -80 -373 -80q-183 0 -332.5 62.5t-245.5 168.5t-148 243.5t-52 291.5t52 291.5t148 243.5t245.5 168.5t332.5 62.5t332.5 -62.5t245.5 -168.5t148 -243.5t52 -291.5zM455 729q0 -197 109 -319.5
t288 -122.5q52 0 102 12l-157 141l200 211l185 -184q67 112 67 262q0 197 -109.5 319.5t-287.5 122.5q-179 0 -288 -122.5t-109 -319.5z" />
    <glyph glyph-name="R" unicode="R" horiz-adv-x="1409" 
d="M139 2v1460h609q256 0 410.5 -110t154.5 -305q0 -169 -83.5 -270t-201.5 -124q96 -24 149.5 -97t92.5 -191q14 -42 37 -123t42.5 -140t39.5 -98v-4h-377q-15 25 -32 65t-26.5 66.5t-32 95.5t-30.5 92q-35 102 -103 148.5t-200 46.5h-68v-512h-381zM520 817h203
q98 0 159.5 45t61.5 121q0 86 -63 132t-154 46h-207v-344z" />
    <glyph glyph-name="S" unicode="S" horiz-adv-x="1310" 
d="M446 496q10 -95 78.5 -156t163.5 -61q103 0 147 33.5t44 99.5q0 32 -13 58t-33 44.5t-59.5 37t-77.5 31.5t-102 33q-59 18 -103 33.5t-96.5 40t-90 49.5t-75 62t-60 78.5t-36.5 97.5t-14 121q1 80 34 147t88 113t128 78t152.5 46.5t162.5 14.5q90 0 167.5 -15.5
t147.5 -51.5t122 -91t87.5 -139t48.5 -192h-380q-20 94 -70 136t-137 42q-79 0 -126.5 -30t-47.5 -87q0 -62 61.5 -103.5t204.5 -84.5q50 -15 84.5 -26.5t79.5 -29t76.5 -33.5t68.5 -39t61.5 -47.5t49 -57t39 -68.5t23.5 -81t9 -96q0 -87 -31.5 -160t-85.5 -123.5
t-126.5 -86t-153.5 -52t-168 -16.5q-123 0 -228.5 32.5t-190.5 96.5t-142.5 166.5t-77.5 235.5h397z" />
    <glyph glyph-name="T" unicode="T" horiz-adv-x="1208" 
d="M1192 1462v-323h-397v-1139h-381v1139h-398v323h1176z" />
    <glyph glyph-name="U" unicode="U" horiz-adv-x="1515" 
d="M1384 657q0 -692 -610 -692q-175 0 -300.5 48t-199.5 140.5t-108.5 216.5t-34.5 287v805h381v-805q0 -175 61.5 -268.5t200.5 -93.5q124 0 177 93t53 269v805h380v-805z" />
    <glyph glyph-name="V" unicode="V" horiz-adv-x="1421" 
d="M1016 1462h401l-493 -1460l-424 -2l-496 1462h404l305 -989z" />
    <glyph glyph-name="W" unicode="W" horiz-adv-x="1988" 
d="M4 1462h406l102 -862l25 -199h8l39 199l176 862h471l158 -862l36 -201h13l28 201l113 862h406l-173 -862l-124 -600h-510l-105 600l-78 483h-8l-86 -483l-115 -600h-510l-114 600z" />
    <glyph glyph-name="X" unicode="X" horiz-adv-x="1464" 
d="M16 0l494 731l-506 731h430l299 -450l291 450l436 -2l-502 -729l490 -731h-440l-275 436l-270 -436h-447z" />
    <glyph glyph-name="Y" unicode="Y" horiz-adv-x="1347" 
d="M14 1462h428q27 -64 79.5 -184.5t92 -213t70.5 -171.5q35 78 101.5 242.5t138.5 326.5h409l-473 -934v-528h-381v528z" />
    <glyph glyph-name="Z" unicode="Z" horiz-adv-x="1271" 
d="M537 307h688v-307h-1141v293l627 860h-611v309h1106v-207z" />
    <glyph glyph-name="bracketleft" unicode="[" horiz-adv-x="706" 
d="M666 1208h-191v-1325h191v-289h-527v1903h527v-289z" />
    <glyph glyph-name="backslash" unicode="\" horiz-adv-x="747" 
d="M281 1579l499 -1778h-288l-500 1778h289z" />
    <glyph glyph-name="bracketright" unicode="]" horiz-adv-x="706" 
d="M41 -117h190v1325h-190v289h526v-1903h-526v289z" />
    <glyph glyph-name="asciicircum" unicode="^" horiz-adv-x="1296" 
d="M506 1427h280l433 -895h-334l-238 504l-237 -504h-332z" />
    <glyph glyph-name="underscore" unicode="_" horiz-adv-x="1425" 
d="M-4 -70h1434v-123h-1434v123z" />
    <glyph glyph-name="grave" unicode="`" horiz-adv-x="548" 
d="M260 1462l182 -258h-272l-281 258h371z" />
    <glyph glyph-name="a" unicode="a" horiz-adv-x="1175" 
d="M1081 315q0 -236 21 -315h-357q-8 28 -8 55v35h-2q-89 -123 -313 -123q-158 0 -263.5 85t-105.5 237q0 58 18.5 107t45 82.5t70.5 61.5t78 43.5t86.5 30t77 19.5t67.5 12q22 4 54 8.5t50 7.5t41 7.5t36 10t25.5 14t17.5 20.5t5 28q0 53 -42 79t-99 26q-59 0 -104 -28
t-58 -91h-334q27 165 161 269t337 104q80 0 149 -14t134 -49.5t111 -90.5t73.5 -142.5t27.5 -199.5v-289zM551 219q74 0 125.5 67.5t54.5 192.5q-72 -26 -160 -47q-87 -20 -118 -48t-31 -67q0 -98 129 -98z" />
    <glyph glyph-name="b" unicode="b" horiz-adv-x="1341" 
d="M782 1092q101 0 192.5 -38t162.5 -108t113 -178t42 -238q0 -131 -43 -239t-115 -177t-164 -107t-192 -38q-55 0 -103.5 15.5t-70.5 30t-56 43.5t-38 32h-2v-90h-393v1462h385v-493q26 25 45.5 40.5t55.5 37.5t81.5 33.5t99.5 11.5zM694 242q106 0 170 81.5t64 204.5
q0 122 -64 203.5t-170 81.5t-170.5 -81.5t-64.5 -203.5q0 -123 64.5 -204.5t170.5 -81.5z" />
    <glyph glyph-name="c" unicode="c" horiz-adv-x="1234" 
d="M1174 395q-10 -103 -59 -187.5t-123 -137t-164 -81t-185 -28.5q-111 0 -215 36.5t-189.5 105t-137.5 179.5t-52 248q0 112 34 207t91.5 160t134.5 110.5t161.5 67t172.5 21.5q74 0 145.5 -16.5t137 -51t117.5 -83.5t87 -118.5t44 -150.5h-334q-40 137 -195 137
q-106 0 -170.5 -81.5t-64.5 -203.5q0 -123 64.5 -204.5t170.5 -81.5q29 0 59.5 8t60.5 24.5t51.5 47.5t27.5 73h330z" />
    <glyph glyph-name="d" unicode="d" horiz-adv-x="1341" 
d="M842 1462h385v-1462h-393v90h-3q-4 -3 -38 -32t-56 -43.5t-70.5 -30t-103.5 -15.5q-100 0 -192 38t-164 107t-115 177t-43 239q0 130 42 238t113 178t162.5 108t192.5 38q54 0 100 -11.5t82 -33.5t56 -38t45 -40v493zM647 242q106 0 171 81.5t65 204.5q0 122 -65 203.5
t-171 81.5t-169.5 -81.5t-63.5 -203.5q0 -123 63.5 -204.5t169.5 -81.5z" />
    <glyph glyph-name="e" unicode="e" horiz-adv-x="1239" 
d="M1182 502q0 -45 -2 -76h-779q20 -80 80.5 -130t141.5 -50q109 0 170 61h372q-56 -152 -199 -250t-348 -98q-163 0 -292.5 70.5t-203 200.5t-73.5 298q0 162 74.5 292.5t207 204t298.5 73.5q251 0 402 -160.5t151 -435.5zM399 641h435q-5 31 -18 61.5t-37 61t-64.5 49
t-91.5 18.5q-85 0 -145 -51.5t-79 -138.5z" />
    <glyph glyph-name="f" unicode="f" horiz-adv-x="720" 
d="M709 1059v-266h-185v-793h-368v793h-152v266h152q2 84 13 144t37.5 111.5t70.5 82.5t112.5 48t163.5 17h137v-260h-33q-83 0 -107 -27.5t-26 -115.5h185z" />
    <glyph glyph-name="g" unicode="g" horiz-adv-x="1325" 
d="M813 1059h397v-907q0 -125 -32 -219t-84.5 -152t-129.5 -94.5t-158 -50t-179 -13.5q-123 0 -224 32t-167.5 86t-107.5 118.5t-56 136.5h358q43 -111 191 -111q112 0 152 46t40 130v115h-2q-34 -50 -100 -85.5t-168 -35.5q-101 0 -189 31.5t-157 93t-108.5 163
t-39.5 232.5q0 130 39 231t107 162.5t155 92.5t189 31q48 0 89.5 -9t78 -28.5t55 -31.5t49.5 -36h2v72zM416 573q0 -101 61.5 -171t161.5 -70t160.5 69.5t60.5 171.5q0 100 -60.5 170t-160.5 70t-161.5 -70t-61.5 -170z" />
    <glyph glyph-name="h" unicode="h" horiz-adv-x="1271" 
d="M786 1100q379 0 379 -502v-598h-366v473v18q0 38 -0.5 59.5t-4.5 60t-13.5 61.5t-25.5 47.5t-43.5 36.5t-64.5 12q-90 0 -127 -85.5t-37 -266.5v-416h-368v1462h356v-501q135 139 315 139z" />
    <glyph glyph-name="i" unicode="i" horiz-adv-x="606" 
d="M492 1159h-377v303h377v-303zM115 0v1059h368v-1059h-368z" />
    <glyph glyph-name="j" unicode="j" horiz-adv-x="600" 
d="M485 1159h-372v303h372v-303zM477 1059v-1020q0 -91 -9.5 -156t-35 -122t-69.5 -91t-114.5 -53.5t-168.5 -19.5h-133v268h28q90 0 117 40.5t27 160.5v993h358z" />
    <glyph glyph-name="k" unicode="k" horiz-adv-x="1239" 
d="M1241 1059l-444 -469l434 -590h-420l-252 352l-76 -73v-279h-368v1462h368v-786l320 383h438z" />
    <glyph glyph-name="l" unicode="l" horiz-adv-x="598" 
d="M115 1462h368v-1462h-368v1462z" />
    <glyph glyph-name="m" unicode="m" horiz-adv-x="1878" 
d="M1321 1094q211 0 331 -130t120 -366v-598h-363v473q0 139 -18 197q-31 98 -119 98q-51 0 -85 -41t-48.5 -103t-14.5 -139v-485h-348v473q0 126 -11 175q-27 120 -130 120q-82 0 -117 -86t-35 -266v-416h-368v1059h356v-101h2q57 64 124.5 100t178.5 36q152 0 244 -152
q27 30 38 41.5t43 38t58 38.5t69.5 23t92.5 11z" />
    <glyph glyph-name="n" unicode="n" horiz-adv-x="1271" 
d="M115 0v1059h356v-96q125 133 315 133q196 0 287.5 -126.5t91.5 -371.5v-598h-366v473v18q0 38 -0.5 59.5t-4.5 60t-13.5 61.5t-25.5 47.5t-43.5 36.5t-64.5 12q-90 0 -127 -85.5t-37 -266.5v-416h-368z" />
    <glyph glyph-name="o" unicode="o" horiz-adv-x="1267" 
d="M635 -39q-89 0 -173.5 22t-159.5 68.5t-131 112.5t-89 160.5t-33 205.5t33 205t89 159.5t131 111.5t159.5 68t173.5 22t172.5 -22t158.5 -68t131 -111.5t89 -159.5t33 -205q0 -138 -50 -249.5t-133.5 -179.5t-186 -104t-214.5 -36zM635 244q106 0 168.5 81t62.5 205
q0 122 -62.5 203.5t-168.5 81.5t-170 -81.5t-64 -203.5q0 -123 64 -204.5t170 -81.5z" />
    <glyph glyph-name="p" unicode="p" horiz-adv-x="1341" 
d="M782 1092q101 0 192.5 -38t162.5 -108t113 -178t42 -238q0 -131 -43 -239t-115 -177t-164 -107t-192 -38q-55 0 -103.5 15.5t-70.5 30t-56 43.5t-38 32h-2v-500h-393v1469h385v-90q26 25 45.5 40.5t55.5 37.5t81.5 33.5t99.5 11.5zM694 242q106 0 170 81.5t64 204.5
q0 122 -64 203.5t-170 81.5t-170.5 -81.5t-64.5 -203.5q0 -123 64.5 -204.5t170.5 -81.5z" />
    <glyph glyph-name="q" unicode="q" horiz-adv-x="1341" 
d="M842 1059h385v-1469h-393v500h-3q-4 -3 -38 -32t-56 -43.5t-70.5 -30t-103.5 -15.5q-100 0 -192 38t-164 107t-115 177t-43 239q0 130 42 238t113 178t162.5 108t192.5 38q54 0 100 -11.5t82 -33.5t56 -38t45 -40v90zM647 242q106 0 171 81.5t65 204.5q0 122 -65 203.5
t-171 81.5t-169.5 -81.5t-63.5 -203.5q0 -123 63.5 -204.5t169.5 -81.5z" />
    <glyph glyph-name="r" unicode="r" horiz-adv-x="813" 
d="M473 942q58 63 145 100.5t179 40.5v-346q-165 0 -207 -22q-25 -13 -40.5 -26.5t-33 -42t-25.5 -79t-8 -123.5v-444h-368v1059h356v-117h2z" />
    <glyph glyph-name="s" unicode="s" horiz-adv-x="1056" 
d="M649 748q-28 106 -131 106q-52 0 -80 -23t-28 -55q0 -40 35.5 -64.5t144.5 -54.5q24 -7 73 -20.5t74 -20.5q149 -41 210 -117t61 -196q0 -68 -27.5 -127.5t-82.5 -109t-148.5 -78.5t-214.5 -29q-424 0 -486 377h354q8 -56 41.5 -90.5t87.5 -34.5q62 0 90.5 24.5
t28.5 57.5q0 22 -8.5 40t-18.5 28.5t-31 20.5t-31 13.5t-34 10.5l-163 47q-148 43 -219.5 121.5t-71.5 201.5q0 138 116 231t326 93q208 0 324 -92t143 -260h-334z" />
    <glyph glyph-name="t" unicode="t" horiz-adv-x="829" 
d="M555 793v-261q0 -129 5 -157q11 -69 65 -87q28 -9 69 -9h60v-287l-170 -4q-72 -2 -129.5 9.5t-98 32t-70 54.5t-47.5 72t-28.5 90t-14 102t-3.5 115v330h-185v266h185v317h362v-317h221v-266h-221z" />
    <glyph glyph-name="u" unicode="u" horiz-adv-x="1271" 
d="M106 461v598h367v-473v-18q0 -38 0.5 -59t4.5 -58.5t13.5 -59.5t25.5 -45.5t43.5 -35t64.5 -11.5q90 0 126.5 82t36.5 262v416h369v-1059h-356v96q-111 -125 -316 -125q-197 0 -288 123.5t-91 366.5z" />
    <glyph glyph-name="v" unicode="v" horiz-adv-x="1140" 
d="M6 1059h385q20 -81 85.5 -317.5t94.5 -376.5h9q9 62 30 149.5t40 157t54 194t54 193.5h377q-32 -94 -161 -472.5t-198 -586.5h-414q-179 526 -356 1059z" />
    <glyph glyph-name="w" unicode="w" horiz-adv-x="1759" 
d="M311 0l-305 1059h373l63 -287q16 -65 29 -129.5t20.5 -105t21 -122t22.5 -130.5h4q20 88 49.5 247.5t56.5 274.5l45 252h381l51 -264q19 -83 53.5 -264t49.5 -250h4q12 56 47.5 237t56.5 277l47 264h373l-309 -1059h-436l-33 172q-80 316 -92 459h-13q-45 -257 -90 -453
l-32 -178h-437z" />
    <glyph glyph-name="x" unicode="x" horiz-adv-x="1124" 
d="M1118 1059l-381 -527l373 -532h-381l-174 256l-160 -256h-385l365 520l-369 539h381l172 -262l172 262h387z" />
    <glyph glyph-name="y" unicode="y" horiz-adv-x="1128" 
d="M6 1059h385q30 -125 89.5 -330.5t88.5 -322.5h6q12 79 34.5 171t66.5 247t65 235h381q-222 -638 -217 -638q1 0 15 35l10 23q-8 -30 -244 -696q-71 -193 -278 -193h-275v269h111h8q22 0 33.5 1t28.5 6.5t27 19t15 36.5l15 66q-60 176 -140 404.5t-130.5 378t-94.5 288.5z
" />
    <glyph glyph-name="z" unicode="z" horiz-adv-x="1077" 
d="M61 274l488 523q-46 -4 -90 -4.5t-107.5 1t-101.5 1.5h-180v264h909v-281l-485 -516q36 1 146 4.5t185 3.5h191v-270h-955v274z" />
    <glyph glyph-name="braceleft" unicode="{" horiz-adv-x="704" 
d="M678 1202h-16q-99 0 -99 -176v-203q0 -66 -20.5 -120.5t-51.5 -85t-58 -47t-48 -21.5v-6q16 -2 36.5 -10.5t46 -29.5t46.5 -50t35 -77.5t14 -107.5v-202q0 -177 99 -177h16v-295h-229q-84 0 -153 73.5t-69 195.5v332q0 103 -46.5 142.5t-123.5 39.5v336q75 0 122.5 42.5
t47.5 141.5v332q0 122 69 195t153 73h229v-295z" />
    <glyph glyph-name="bar" unicode="|" horiz-adv-x="487" 
d="M115 1774h258v-2212h-258v2212z" />
    <glyph glyph-name="braceright" unicode="}" horiz-adv-x="704" 
d="M27 -111h16q98 0 98 177v202q0 75 20.5 131.5t51.5 85.5t57.5 42.5t48.5 15.5v6q-21 5 -48 22.5t-58 49t-51.5 85t-20.5 117.5v205q0 174 -98 174h-16v295h229q84 0 152.5 -73t68.5 -195v-332q0 -98 47.5 -141t122.5 -43v-336q-78 0 -124 -38.5t-46 -143.5v-332
q0 -122 -68.5 -195.5t-152.5 -73.5h-229v295z" />
    <glyph glyph-name="asciitilde" unicode="~" horiz-adv-x="1386" 
d="M1208 750q0 -221 -69 -338t-228 -117q-60 0 -130 20t-121 43.5t-103 43.5t-80 20q-37 0 -53.5 -28t-17.5 -99h-295q0 220 72 337.5t233 117.5q63 0 136 -19t125.5 -41.5t102 -41.5t70.5 -19q33 0 47.5 26t15.5 95h295z" />
    <glyph glyph-name="uni00A0" unicode="&#xa0;" horiz-adv-x="473" 
 />
    <glyph glyph-name="exclamdown" unicode="&#xa1;" horiz-adv-x="659" 
d="M156 727v328h348v-328h-348zM520 -2v-406h-381v406l60 625h260z" />
    <glyph glyph-name="cent" unicode="&#xa2;" horiz-adv-x="1222" 
d="M762 266q80 46 90 123h317q-16 -171 -129.5 -279t-277.5 -139v-180h-254v184q-93 19 -174 63.5t-145.5 112t-102 165.5t-37.5 214q0 119 37 217t102 165t145.5 109.5t174.5 61.5v181h254v-181q161 -30 277 -135.5t135 -271.5h-322q-24 83 -90 119v-529zM389 530
q0 -182 119 -256v508q-119 -70 -119 -252z" />
    <glyph glyph-name="sterling" unicode="&#xa3;" horiz-adv-x="1380" 
d="M57 580v229h158q-35 96 -35 260q1 89 35.5 162.5t90 122t130 81.5t153 47.5t161.5 14.5q90 0 168.5 -15.5t151 -52t125.5 -92.5t86.5 -142.5t39.5 -195.5h-381q-5 183 -205 183q-176 0 -176 -142q0 -102 39 -231h324v-229h-269q-2 -18 -2 -64q0 -132 -98 -233
q59 46 121 57q65 14 151 -8q120 -35 193 -35q89 0 162 45l143 -279q-115 -104 -315 -104q-141 0 -263 39q-109 37 -208 37q-61 0 -157 -27t-142 -59l-148 215q99 82 127 112q74 79 84 191q2 23 2 49q0 51 -4 64h-242z" />
    <glyph glyph-name="currency" unicode="&#xa4;" horiz-adv-x="1118" 
d="M1071 719q0 -141 -80 -268l135 -134l-161 -161l-136 133q-129 -82 -266 -82q-145 0 -270 80l-133 -131l-162 161l133 129q-84 127 -84 269q0 144 84 274l-133 133l160 160l135 -133q124 78 272 78q135 0 266 -80l136 135l159 -160l-137 -135q82 -125 82 -268zM563 492
q87 0 147 67t60 160q0 90 -60 156.5t-147 66.5q-92 0 -153.5 -65t-61.5 -162q0 -94 62 -158.5t153 -64.5z" />
    <glyph glyph-name="yen" unicode="&#xa5;" horiz-adv-x="1376" 
d="M1348 1462l-316 -622h148v-230h-265l-41 -82v-28h306v-230h-306v-270h-380v270h-306v230h306v28l-41 82h-265v230h150l-309 622h428q161 -376 241 -622q19 50 58 162t80.5 219t101.5 241h410z" />
    <glyph glyph-name="brokenbar" unicode="&#xa6;" horiz-adv-x="579" 
d="M428 829h-276v537h276v-537zM152 383h276v-537h-276v537z" />
    <glyph glyph-name="section" unicode="&#xa7;" horiz-adv-x="1249" 
d="M1159 625q0 -38 -10.5 -69.5t-24.5 -53t-41.5 -42.5t-48.5 -33.5t-57 -31.5q108 -79 108 -215q0 -55 -14.5 -104t-49 -95.5t-87.5 -80t-135 -54t-185 -20.5q-156 0 -259 46t-155.5 127t-72.5 206h362q8 -58 38.5 -91.5t84.5 -33.5q105 0 105 80q0 59 -51 94.5t-234 107.5
q-174 69 -258 157t-84 204q0 161 154 242q-37 33 -52.5 75t-15.5 105q0 69 28.5 132t82 112.5t139.5 78.5t192 29q207 0 323.5 -92.5t143.5 -259.5h-333q-39 104 -131 104q-51 0 -77 -25.5t-26 -58.5q0 -38 39.5 -61t235.5 -100q366 -143 366 -379zM655 547q52 -20 107 -43
q29 45 29 102q0 45 -12.5 74.5t-49 56.5t-86 48.5t-141.5 54.5q-4 1 -11.5 4t-11.5 4q-23 -23 -35 -53t-12 -52q0 -47 13 -72t59 -53t151 -71z" />
    <glyph glyph-name="dieresis" unicode="&#xa8;" horiz-adv-x="661" 
d="M-14 1462h280v-258h-280v258zM393 1462h283v-258h-283v258z" />
    <glyph glyph-name="copyright" unicode="&#xa9;" horiz-adv-x="1671" 
d="M838 -49q-159 0 -303.5 60t-251.5 163t-170.5 249.5t-63.5 311.5q0 162 63.5 306.5t170 247t252 162.5t303.5 60t302 -60t250 -162.5t169 -247t63 -306.5q0 -165 -63 -311.5t-169 -249.5t-250 -163t-302 -60zM838 127q160 0 294 78.5t212.5 218.5t78.5 311q0 166 -78 304
t-212.5 217t-294.5 79q-161 0 -296.5 -79t-214.5 -217t-79 -304q0 -128 46.5 -241.5t126 -193.5t188 -126.5t229.5 -46.5zM1200 623q-37 -137 -132 -202t-232 -65q-156 0 -263.5 99t-107.5 280q0 89 31.5 162t84 119.5t119.5 72t140 25.5q138 0 233 -67t129 -199h-205
q-43 88 -157 88q-61 0 -113.5 -54.5t-52.5 -146.5q0 -91 52.5 -145.5t113.5 -54.5q60 0 95.5 20.5t57.5 67.5h207z" />
    <glyph glyph-name="ordfeminine" unicode="&#xaa;" horiz-adv-x="854" 
d="M317 668q-111 0 -185.5 59.5t-74.5 165.5q0 41 13 76t32 58.5t50 43.5t55.5 31t61 21t54.5 13.5t48 8.5q15 3 37 6t35 5t29 5.5t25 7t17.5 9.5t12 14.5t3.5 19.5q0 37 -29.5 55.5t-68.5 18.5q-41 0 -73 -20t-42 -64h-235q19 116 114 189t238 73q71 0 129.5 -17
t109.5 -54.5t80 -108t29 -168.5v-205q0 -164 15 -221h-250q-6 14 -6 64h-2q-63 -86 -222 -86zM410 844q51 0 87.5 47.5t39.5 136.5q-61 -21 -113 -33q-61 -14 -84 -34t-23 -48q0 -69 93 -69z" />
    <glyph glyph-name="guillemotleft" unicode="&#xab;" horiz-adv-x="1206" 
d="M41 528l299 502h319l-274 -502l274 -499h-319zM547 528l299 502h319l-274 -502l274 -499h-319z" />
    <glyph glyph-name="logicalnot" unicode="&#xac;" horiz-adv-x="1255" 
d="M1178 866v-651h-263v369h-837v282h1100z" />
    <glyph glyph-name="uni00AD" unicode="&#xad;" horiz-adv-x="1097" 
d="M164 727h770v-303h-770v303z" />
    <glyph glyph-name="registered" unicode="&#xae;" horiz-adv-x="1671" 
d="M838 -49q158 0 302 60t250 163t169 249.5t63 311.5q0 161 -63 305.5t-169 247.5t-250 163t-302 60t-303.5 -60t-252 -162.5t-170 -247t-63.5 -306.5q0 -165 63.5 -311.5t170.5 -249.5t251.5 -163t303.5 -60zM838 127q-121 0 -229.5 46.5t-188 126.5t-126 193.5
t-46.5 241.5q0 166 79 304t214.5 217t296.5 79q160 0 294 -78.5t212.5 -216.5t78.5 -305q0 -171 -78.5 -311t-212.5 -218.5t-294 -78.5zM1114 563q55 -135 82 -178v-8h-199q-47 32 -79 155q-11 41 -34.5 63t-70.5 26h-55v-244h-209v731h317q130 0 208.5 -54.5t78.5 -154.5
q0 -89 -38.5 -141.5t-94.5 -65.5q24 -10 40.5 -26t22 -26.5t16 -38.5t15.5 -38zM850 782q42 0 71 23.5t29 56.5q0 72 -94 72h-98v-152h92z" />
    <glyph glyph-name="macron" unicode="&#xaf;" horiz-adv-x="811" 
d="M29 1405h753v-141h-753v141z" />
    <glyph glyph-name="degree" unicode="&#xb0;" horiz-adv-x="823" 
d="M418 1452q122 0 208.5 -87t86.5 -208q0 -124 -86.5 -209.5t-208.5 -85.5q-124 0 -209.5 85t-85.5 210q0 122 85.5 208.5t209.5 86.5zM418 1051q48 0 77 31.5t29 74.5q0 41 -29.5 74t-76.5 33q-48 0 -77.5 -32t-29.5 -75t29.5 -74.5t77.5 -31.5z" />
    <glyph glyph-name="plusminus" unicode="&#xb1;" horiz-adv-x="1267" 
d="M78 868h405v265h301v-265h406v-309h-406v-262h-301v262h-405v309zM78 166h1112v-281h-1112v281z" />
    <glyph glyph-name="acute" unicode="&#xb4;" horiz-adv-x="565" 
d="M285 1462h370l-280 -258h-273z" />
    <glyph glyph-name="uni00B5" unicode="&#xb5;" horiz-adv-x="1271" 
d="M106 -403v1462h367v-533q1 -37 3.5 -64.5t12 -60t25 -53.5t44 -35t67.5 -14q90 0 126.5 82t36.5 262v416h369v-1059h-356v96q-111 -125 -316 -125h-12v-374h-367z" />
    <glyph glyph-name="paragraph" unicode="&#xb6;" horiz-adv-x="1163" 
d="M1049 -236h-211v1512h-142v-1512h-209v771q-89 0 -176 40t-151.5 103.5t-104 146.5t-39.5 166q0 130 66.5 239.5t171.5 170.5t219 61h576v-1698z" />
    <glyph glyph-name="periodcentered" unicode="&#xb7;" horiz-adv-x="528" 
d="M264 768q54 0 92.5 -38.5t38.5 -92.5q0 -50 -39.5 -90.5t-89.5 -40.5q-54 0 -93.5 38.5t-39.5 92.5t38.5 92.5t92.5 38.5z" />
    <glyph glyph-name="cedilla" unicode="&#xb8;" horiz-adv-x="559" 
d="M250 -446q-92 0 -182 22l24 139q52 -18 109 -18q38 0 56.5 13.5t18.5 33.5t-15.5 31.5t-41.5 11.5q-22 0 -49 -10l-84 94l137 156l172 -13l-145 -123l2 -2q25 5 53 5q104 -3 161.5 -42t57.5 -110q0 -49 -27.5 -87t-71 -59t-88.5 -31.5t-87 -10.5z" />
    <glyph glyph-name="ordmasculine" unicode="&#xba;" horiz-adv-x="933" 
d="M467 670q-79 0 -151 25t-130.5 72.5t-93.5 125t-35 174.5t35 174.5t93.5 125t130.5 72.5t151 25t151 -25t130.5 -72.5t93.5 -125t35 -174.5t-35 -174.5t-93.5 -125t-130.5 -72.5t-151 -25zM467 866q74 0 118 57.5t44 143.5t-44 143.5t-118 57.5q-73 0 -118.5 -58
t-45.5 -143t45.5 -143t118.5 -58z" />
    <glyph glyph-name="guillemotright" unicode="&#xbb;" horiz-adv-x="1206" 
d="M659 528l-299 -499h-319l274 499l-274 502h319zM1165 528l-299 -499h-319l274 499l-274 502h319z" />
    <glyph glyph-name="onequarter" unicode="&#xbc;" horiz-adv-x="1871" 
d="M1014 1481h307l-563 -1497h-307zM532 584h-249v540h-238v140q184 0 266 198h221v-878zM1827 387v-205h-117v-182h-250v182h-377v279l338 418h289v-492h117zM1278 387h182v242h-2z" />
    <glyph glyph-name="onehalf" unicode="&#xbd;" horiz-adv-x="1888" 
d="M1014 1481h307l-563 -1497h-307zM532 584h-249v540h-238v140q184 0 266 198h221v-878zM1493 213h344v-213h-698q-4 81 1.5 126.5t35 90t71.5 77.5t131 91q11 7 32 21q53 34 74 49t46 35.5t32 35.5t12 35t5 49q0 34 -22.5 58t-59.5 24q-36 0 -63.5 -26t-30.5 -91h-252
q0 132 102 227t238 95q159 0 249.5 -78.5t90.5 -189.5q0 -101 -37 -170.5t-147 -151.5q-25 -18 -51.5 -34.5t-58 -34t-44.5 -25.5z" />
    <glyph glyph-name="threequarters" unicode="&#xbe;" horiz-adv-x="1955" 
d="M760 811q0 -100 -92.5 -176t-239.5 -76q-164 0 -255.5 64t-121.5 194l-6 27h242l4 -15q19 -67 125 -67q46 0 74 24t28 64q0 38 -26.5 60t-73.5 22q-78 0 -115 -4v182h92q41 0 69 22.5t28 65.5q0 37 -27 58.5t-64 21.5q-74 0 -88 -68l-4 -20h-250q18 133 105.5 212
t232.5 79q159 0 251.5 -68t92.5 -199q0 -74 -39 -117t-96 -61q154 -46 154 -225zM1130 1481h308l-564 -1497h-307zM1911 387v-205h-117v-182h-250v182h-377v279l338 418h289v-492h117zM1362 387h182v242h-2z" />
    <glyph glyph-name="questiondown" unicode="&#xbf;" horiz-adv-x="1093" 
d="M758 741h-365v328h365v-328zM1071 84l-4 -53q-7 -92 -39.5 -172t-91.5 -145.5t-156 -103.5t-221 -38q-247 0 -374.5 118t-127.5 306q0 59 13 107.5t40.5 90t51 67.5t63.5 65q41 39 53.5 51t43 46.5t41 55.5t21.5 54t11 67v16h361v-41q0 -216 -191 -370
q-35 -28 -48.5 -38.5t-40 -35.5t-37.5 -41.5t-21 -40t-10 -47.5q0 -65 37.5 -101t113.5 -36q75 0 118.5 46.5t51.5 119.5l6 53h336z" />
    <glyph glyph-name="Agrave" unicode="&#xc0;" horiz-adv-x="1515" 
d="M936 1548h-320l-241 244h360zM1100 0l-101 322h-491l-100 -322h-400l514 1462h477l508 -1462h-407zM756 1108h-4l-152 -490h307z" />
    <glyph glyph-name="Aacute" unicode="&#xc1;" horiz-adv-x="1515" 
d="M1120 1792l-241 -244h-320l201 244h360zM1100 0l-101 322h-491l-100 -322h-400l514 1462h477l508 -1462h-407zM756 1108h-4l-152 -490h307z" />
    <glyph glyph-name="Acircumflex" unicode="&#xc2;" horiz-adv-x="1515" 
d="M754 1659l-56 -111h-305l160 244h412l157 -244h-305zM1100 0l-101 322h-491l-100 -322h-400l514 1462h477l508 -1462h-407zM756 1108h-4l-152 -490h307z" />
    <glyph glyph-name="Atilde" unicode="&#xc3;" horiz-adv-x="1515" 
d="M670 1618q-46 0 -52 -70h-194q0 105 58 176.5t153 71.5q46 0 87.5 -18.5t72 -37t49.5 -18.5q11 0 18.5 3.5t11.5 7.5t7.5 16t4 18t3.5 25h203q0 -116 -54 -182t-147 -66q-42 0 -79 11.5t-58 25.5t-43.5 25.5t-40.5 11.5zM1100 0l-101 322h-491l-100 -322h-400l514 1462
h477l508 -1462h-407zM756 1108h-4l-152 -490h307z" />
    <glyph glyph-name="Adieresis" unicode="&#xc4;" horiz-adv-x="1515" 
d="M698 1792v-244h-254v244h254zM1071 1792v-244h-252v244h252zM1100 0l-101 322h-491l-100 -322h-400l514 1462h477l508 -1462h-407zM756 1108h-4l-152 -490h307z" />
    <glyph glyph-name="Aring" unicode="&#xc5;" horiz-adv-x="1515" 
d="M758 1520q-96 0 -166 68t-70 163q0 96 70 165t166 69t165.5 -69t69.5 -165q0 -95 -69.5 -163t-165.5 -68zM758 1827q-34 0 -55 -22t-21 -56q0 -33 21.5 -54.5t54.5 -21.5q34 0 56 22t22 54q0 34 -22 56t-56 22zM1100 0l-101 322h-491l-100 -322h-400l514 1462h477
l508 -1462h-407zM756 1108h-4l-152 -490h307z" />
    <glyph glyph-name="AE" unicode="&#xc6;" horiz-adv-x="1990" 
d="M8 0l752 1462h1134v-307h-534v-252h491v-297h-491v-299h541v-307h-922v332h-399l-152 -332h-420zM709 600h270v555h-16z" />
    <glyph glyph-name="Ccedilla" unicode="&#xc7;" horiz-adv-x="1583" 
d="M821 297q136 0 212.5 46t121.5 149h375q-64 -244 -234 -373.5t-419 -143.5l-99 -84l2 -2q25 5 54 5q104 -3 161.5 -42t57.5 -110q0 -49 -28 -87t-71 -59t-88.5 -31.5t-87.5 -10.5q-92 0 -182 22l25 139q53 -18 108 -18q38 0 57 14t19 33q0 20 -15.5 31.5t-41.5 11.5
q-23 0 -50 -10l-84 94l97 109q-134 16 -248.5 73t-201.5 149.5t-137 228t-50 298.5q0 174 60.5 319t163.5 240.5t238 148t285 52.5q277 0 461 -132t252 -390h-373q-91 198 -340 198q-68 0 -132.5 -30t-117 -84t-84.5 -138t-32 -184q0 -98 32.5 -181t85 -137t117 -84
t131.5 -30z" />
    <glyph glyph-name="Egrave" unicode="&#xc8;" horiz-adv-x="1234" 
d="M797 1548h-320l-241 244h360zM520 324h625v-324h-1006v1462h1000v-323h-619v-250h576v-314h-576v-251z" />
    <glyph glyph-name="Eacute" unicode="&#xc9;" horiz-adv-x="1234" 
d="M981 1792l-242 -244h-319l201 244h360zM520 324h625v-324h-1006v1462h1000v-323h-619v-250h576v-314h-576v-251z" />
    <glyph glyph-name="Ecircumflex" unicode="&#xca;" horiz-adv-x="1234" 
d="M614 1659l-55 -111h-305l160 244h411l158 -244h-305zM520 324h625v-324h-1006v1462h1000v-323h-619v-250h576v-314h-576v-251z" />
    <glyph glyph-name="Edieresis" unicode="&#xcb;" horiz-adv-x="1234" 
d="M559 1792v-244h-254v244h254zM932 1792v-244h-252v244h252zM520 324h625v-324h-1006v1462h1000v-323h-619v-250h576v-314h-576v-251z" />
    <glyph glyph-name="Igrave" unicode="&#xcc;" horiz-adv-x="659" 
d="M307 1792l201 -244h-320l-241 244h360zM139 1462h381v-1462h-381v1462z" />
    <glyph glyph-name="Iacute" unicode="&#xcd;" horiz-adv-x="659" 
d="M332 1792h360l-241 -244h-320zM139 1462h381v-1462h-381v1462z" />
    <glyph glyph-name="Icircumflex" unicode="&#xce;" horiz-adv-x="659" 
d="M-35 1548l160 244h412l157 -244h-305l-63 111l-56 -111h-305zM139 1462h381v-1462h-381v1462z" />
    <glyph glyph-name="Idieresis" unicode="&#xcf;" horiz-adv-x="659" 
d="M16 1792h254v-244h-254v244zM391 1792h252v-244h-252v244zM139 1462h381v-1462h-381v1462z" />
    <glyph glyph-name="Eth" unicode="&#xd0;" horiz-adv-x="1499" 
d="M610 1462q396 0 605.5 -188t209.5 -533q0 -364 -208 -552.5t-611 -188.5h-467v563h-127v234h127v665h471zM598 324q219 0 327.5 103t108.5 314q0 196 -108 297t-320 101h-86v-342h156v-234h-156v-239h78z" />
    <glyph glyph-name="Ntilde" unicode="&#xd1;" horiz-adv-x="1597" 
d="M465 1548q0 105 58 176.5t153 71.5q46 0 87.5 -18.5t72 -37t49.5 -18.5q11 0 18.5 3.5t11.5 7.5t7.5 16t4 18t3.5 25h203q0 -116 -54 -182t-147 -66q-42 0 -79 11.5t-58 25.5t-43.5 25.5t-40.5 11.5q-46 0 -52 -70h-194zM139 1462h531l278 -657q118 -275 150 -363
q-6 98 -6 478v542h366v-1462h-518l-205 494q-49 119 -134 298t-99 226q3 -44 4 -115.5t1 -130.5t-0.5 -151.5t-0.5 -133.5v-487h-367v1462z" />
    <glyph glyph-name="Ograve" unicode="&#xd2;" horiz-adv-x="1703" 
d="M829 1792l201 -244h-319l-242 244h360zM852 1497q183 0 332.5 -62.5t245.5 -168.5t148 -243.5t52 -291.5t-52 -291.5t-148 -243.5t-245.5 -168.5t-332.5 -62.5t-332.5 62.5t-245.5 168.5t-148 243.5t-52 291.5t52 291.5t148 243.5t245.5 168.5t332.5 62.5zM852 289
q178 0 287.5 122.5t109.5 319.5t-109.5 320t-287.5 123q-179 0 -288 -122.5t-109 -320.5q0 -197 109 -319.5t288 -122.5z" />
    <glyph glyph-name="Oacute" unicode="&#xd3;" horiz-adv-x="1703" 
d="M854 1792h360l-241 -244h-320zM852 1497q183 0 332.5 -62.5t245.5 -168.5t148 -243.5t52 -291.5t-52 -291.5t-148 -243.5t-245.5 -168.5t-332.5 -62.5t-332.5 62.5t-245.5 168.5t-148 243.5t-52 291.5t52 291.5t148 243.5t245.5 168.5t332.5 62.5zM852 289
q178 0 287.5 122.5t109.5 319.5t-109.5 320t-287.5 123q-179 0 -288 -122.5t-109 -320.5q0 -197 109 -319.5t288 -122.5z" />
    <glyph glyph-name="Ocircumflex" unicode="&#xd4;" horiz-adv-x="1703" 
d="M487 1548l160 244h412l158 -244h-306l-63 111l-55 -111h-306zM852 1497q183 0 332.5 -62.5t245.5 -168.5t148 -243.5t52 -291.5t-52 -291.5t-148 -243.5t-245.5 -168.5t-332.5 -62.5t-332.5 62.5t-245.5 168.5t-148 243.5t-52 291.5t52 291.5t148 243.5t245.5 168.5
t332.5 62.5zM852 289q178 0 287.5 122.5t109.5 319.5t-109.5 320t-287.5 123q-179 0 -288 -122.5t-109 -320.5q0 -197 109 -319.5t288 -122.5z" />
    <glyph glyph-name="Otilde" unicode="&#xd5;" horiz-adv-x="1703" 
d="M518 1548q0 105 58 176.5t153 71.5q46 0 87.5 -18.5t72 -37t49.5 -18.5q11 0 18.5 3.5t11.5 7.5t7.5 16t4 18t3.5 25h203q0 -116 -54 -182t-147 -66q-42 0 -79 11.5t-58 25.5t-43.5 25.5t-40.5 11.5q-25 0 -36.5 -17t-14.5 -53h-195zM852 1497q183 0 332.5 -62.5
t245.5 -168.5t148 -243.5t52 -291.5t-52 -291.5t-148 -243.5t-245.5 -168.5t-332.5 -62.5t-332.5 62.5t-245.5 168.5t-148 243.5t-52 291.5t52 291.5t148 243.5t245.5 168.5t332.5 62.5zM852 289q178 0 287.5 122.5t109.5 319.5t-109.5 320t-287.5 123q-179 0 -288 -122.5
t-109 -320.5q0 -197 109 -319.5t288 -122.5z" />
    <glyph glyph-name="Odieresis" unicode="&#xd6;" horiz-adv-x="1703" 
d="M539 1792h254v-244h-254v244zM913 1792h252v-244h-252v244zM852 1497q183 0 332.5 -62.5t245.5 -168.5t148 -243.5t52 -291.5t-52 -291.5t-148 -243.5t-245.5 -168.5t-332.5 -62.5t-332.5 62.5t-245.5 168.5t-148 243.5t-52 291.5t52 291.5t148 243.5t245.5 168.5
t332.5 62.5zM852 289q178 0 287.5 122.5t109.5 319.5t-109.5 320t-287.5 123q-179 0 -288 -122.5t-109 -320.5q0 -197 109 -319.5t288 -122.5z" />
    <glyph glyph-name="multiply" unicode="&#xd7;" horiz-adv-x="1230" 
d="M78 848l211 211l329 -332l328 332l207 -209l-330 -328l330 -329l-209 -211l-332 331l-327 -331l-207 208l330 328z" />
    <glyph glyph-name="Oslash" unicode="&#xd8;" horiz-adv-x="1703" 
d="M1421 1274q102 -105 155.5 -245.5t53.5 -297.5q0 -154 -52 -291.5t-148 -243.5t-245.5 -168.5t-332.5 -62.5q-263 0 -455 127l-137 -158l-123 103l137 158q-97 105 -148.5 243.5t-51.5 292.5t52 291.5t148 243.5t245.5 168.5t332.5 62.5q260 0 448 -123l144 164l123 -96z
M455 731q0 -148 63 -256l553 635q-95 64 -219 64q-179 0 -288 -122.5t-109 -320.5zM852 289q178 0 287.5 122.5t109.5 319.5q0 154 -69 264l-553 -639q95 -67 225 -67z" />
    <glyph glyph-name="Ugrave" unicode="&#xd9;" horiz-adv-x="1515" 
d="M735 1792l201 -244h-320l-241 244h360zM1384 657q0 -692 -610 -692q-175 0 -300.5 48t-199.5 140.5t-108.5 216.5t-34.5 287v805h381v-805q0 -175 61.5 -268.5t200.5 -93.5q124 0 177 93t53 269v805h380v-805z" />
    <glyph glyph-name="Uacute" unicode="&#xda;" horiz-adv-x="1515" 
d="M760 1792h360l-241 -244h-320zM1384 657q0 -692 -610 -692q-175 0 -300.5 48t-199.5 140.5t-108.5 216.5t-34.5 287v805h381v-805q0 -175 61.5 -268.5t200.5 -93.5q124 0 177 93t53 269v805h380v-805z" />
    <glyph glyph-name="Ucircumflex" unicode="&#xdb;" horiz-adv-x="1515" 
d="M393 1548l160 244h412l157 -244h-305l-63 111l-56 -111h-305zM1384 657q0 -692 -610 -692q-175 0 -300.5 48t-199.5 140.5t-108.5 216.5t-34.5 287v805h381v-805q0 -175 61.5 -268.5t200.5 -93.5q124 0 177 93t53 269v805h380v-805z" />
    <glyph glyph-name="Udieresis" unicode="&#xdc;" horiz-adv-x="1515" 
d="M444 1792h254v-244h-254v244zM819 1792h252v-244h-252v244zM1384 657q0 -692 -610 -692q-175 0 -300.5 48t-199.5 140.5t-108.5 216.5t-34.5 287v805h381v-805q0 -175 61.5 -268.5t200.5 -93.5q124 0 177 93t53 269v805h380v-805z" />
    <glyph glyph-name="Yacute" unicode="&#xdd;" horiz-adv-x="1347" 
d="M676 1792h360l-241 -244h-320zM14 1462h428q27 -64 79.5 -184.5t92 -213t70.5 -171.5q35 78 101.5 242.5t138.5 326.5h409l-473 -934v-528h-381v528z" />
    <glyph glyph-name="Thorn" unicode="&#xde;" horiz-adv-x="1361" 
d="M748 1223q277 0 421 -128.5t144 -338.5q0 -143 -73 -258.5t-202 -181t-290 -66.5h-228v-250h-381v1462h381v-239h228zM727 563q211 0 211 182q0 42 -11.5 72t-30 47.5t-47 28t-56.5 13.5t-66 3h-207v-346h207z" />
    <glyph glyph-name="germandbls" unicode="&#xdf;" horiz-adv-x="1200" 
d="M104 0v956q0 265 122.5 403t371.5 138q220 0 341.5 -98.5t121.5 -272.5q0 -120 -52.5 -201t-134.5 -118q109 -36 182.5 -128.5t73.5 -240.5q0 -145 -63.5 -249t-165 -152.5t-227.5 -48.5q-64 0 -129 10l-2 301q32 -4 47 -4q74 0 124 47t50 147q0 89 -41.5 133t-132.5 44
h-31v254q85 0 113 41.5t28 115.5q0 58 -28 92.5t-80 34.5t-80.5 -34.5t-28.5 -92.5v-1077h-379z" />
    <glyph glyph-name="agrave" unicode="&#xe0;" horiz-adv-x="1175" 
d="M770 1204h-272l-281 258h371zM1081 315q0 -236 21 -315h-357q-8 28 -8 55v35h-2q-89 -123 -313 -123q-158 0 -263.5 85t-105.5 237q0 58 18.5 107t45 82.5t70.5 61.5t78 43.5t86.5 30t77 19.5t67.5 12q22 4 54 8.5t50 7.5t41 7.5t36 10t25.5 14t17.5 20.5t5 28
q0 53 -42 79t-99 26q-59 0 -104 -28t-58 -91h-334q27 165 161 269t337 104q80 0 149 -14t134 -49.5t111 -90.5t73.5 -142.5t27.5 -199.5v-289zM551 219q74 0 125.5 67.5t54.5 192.5q-72 -26 -160 -47q-87 -20 -118 -48t-31 -67q0 -98 129 -98z" />
    <glyph glyph-name="aacute" unicode="&#xe1;" horiz-adv-x="1175" 
d="M975 1462l-281 -258h-272l182 258h371zM1081 315q0 -236 21 -315h-357q-8 28 -8 55v35h-2q-89 -123 -313 -123q-158 0 -263.5 85t-105.5 237q0 58 18.5 107t45 82.5t70.5 61.5t78 43.5t86.5 30t77 19.5t67.5 12q22 4 54 8.5t50 7.5t41 7.5t36 10t25.5 14t17.5 20.5t5 28
q0 53 -42 79t-99 26q-59 0 -104 -28t-58 -91h-334q27 165 161 269t337 104q80 0 149 -14t134 -49.5t111 -90.5t73.5 -142.5t27.5 -199.5v-289zM551 219q74 0 125.5 67.5t54.5 192.5q-72 -26 -160 -47q-87 -20 -118 -48t-31 -67q0 -98 129 -98z" />
    <glyph glyph-name="acircumflex" unicode="&#xe2;" horiz-adv-x="1175" 
d="M596 1311l-98 -107h-265l226 258h270l229 -258h-268zM1081 315q0 -236 21 -315h-357q-8 28 -8 55v35h-2q-89 -123 -313 -123q-158 0 -263.5 85t-105.5 237q0 58 18.5 107t45 82.5t70.5 61.5t78 43.5t86.5 30t77 19.5t67.5 12q22 4 54 8.5t50 7.5t41 7.5t36 10t25.5 14
t17.5 20.5t5 28q0 53 -42 79t-99 26q-59 0 -104 -28t-58 -91h-334q27 165 161 269t337 104q80 0 149 -14t134 -49.5t111 -90.5t73.5 -142.5t27.5 -199.5v-289zM551 219q74 0 125.5 67.5t54.5 192.5q-72 -26 -160 -47q-87 -20 -118 -48t-31 -67q0 -98 129 -98z" />
    <glyph glyph-name="atilde" unicode="&#xe3;" horiz-adv-x="1175" 
d="M508 1274q-25 0 -36.5 -17t-14.5 -53h-195q0 109 58.5 185.5t152.5 76.5q46 0 87.5 -18t72 -36.5t49.5 -18.5q18 0 27 9.5t11.5 20t6.5 39.5h203q0 -123 -54 -192.5t-147 -69.5q-42 0 -79 11.5t-58 25.5t-43.5 25.5t-40.5 11.5zM1081 315q0 -236 21 -315h-357
q-8 28 -8 55v35h-2q-89 -123 -313 -123q-158 0 -263.5 85t-105.5 237q0 58 18.5 107t45 82.5t70.5 61.5t78 43.5t86.5 30t77 19.5t67.5 12q22 4 54 8.5t50 7.5t41 7.5t36 10t25.5 14t17.5 20.5t5 28q0 53 -42 79t-99 26q-59 0 -104 -28t-58 -91h-334q27 165 161 269t337 104
q80 0 149 -14t134 -49.5t111 -90.5t73.5 -142.5t27.5 -199.5v-289zM551 219q74 0 125.5 67.5t54.5 192.5q-72 -26 -160 -47q-87 -20 -118 -48t-31 -67q0 -98 129 -98z" />
    <glyph glyph-name="adieresis" unicode="&#xe4;" horiz-adv-x="1175" 
d="M530 1462v-258h-280v258h280zM940 1462v-258h-283v258h283zM1081 315q0 -236 21 -315h-357q-8 28 -8 55v35h-2q-89 -123 -313 -123q-158 0 -263.5 85t-105.5 237q0 58 18.5 107t45 82.5t70.5 61.5t78 43.5t86.5 30t77 19.5t67.5 12q22 4 54 8.5t50 7.5t41 7.5t36 10
t25.5 14t17.5 20.5t5 28q0 53 -42 79t-99 26q-59 0 -104 -28t-58 -91h-334q27 165 161 269t337 104q80 0 149 -14t134 -49.5t111 -90.5t73.5 -142.5t27.5 -199.5v-289zM551 219q74 0 125.5 67.5t54.5 192.5q-72 -26 -160 -47q-87 -20 -118 -48t-31 -67q0 -98 129 -98z" />
    <glyph glyph-name="aring" unicode="&#xe5;" horiz-adv-x="1175" 
d="M596 1151q-94 0 -162.5 67t-68.5 162t68.5 162.5t162.5 67.5t162.5 -67.5t68.5 -162.5t-68.5 -162t-162.5 -67zM596 1458q-33 0 -56.5 -22.5t-23.5 -57.5t23.5 -57.5t56.5 -22.5q35 0 57.5 22.5t22.5 57.5t-22.5 57.5t-57.5 22.5zM1081 315q0 -236 21 -315h-357
q-8 28 -8 55v35h-2q-89 -123 -313 -123q-158 0 -263.5 85t-105.5 237q0 58 18.5 107t45 82.5t70.5 61.5t78 43.5t86.5 30t77 19.5t67.5 12q22 4 54 8.5t50 7.5t41 7.5t36 10t25.5 14t17.5 20.5t5 28q0 53 -42 79t-99 26q-59 0 -104 -28t-58 -91h-334q27 165 161 269t337 104
q80 0 149 -14t134 -49.5t111 -90.5t73.5 -142.5t27.5 -199.5v-289zM551 219q74 0 125.5 67.5t54.5 192.5q-72 -26 -160 -47q-87 -20 -118 -48t-31 -67q0 -98 129 -98z" />
    <glyph glyph-name="ae" unicode="&#xe6;" horiz-adv-x="1861" 
d="M53 289q0 45 11.5 85.5t28 70t46 56.5t53.5 44.5t63.5 34t63 25t64.5 18.5t55.5 13t48.5 9q23 4 53.5 9t48.5 8t39.5 7.5t33 10t23 13.5t16 20t4.5 28q0 53 -37.5 79t-92.5 26q-129 0 -153 -119h-334q27 166 157.5 269.5t332.5 103.5q235 0 344 -142q137 140 354 140
q246 0 387 -158.5t141 -435.5q0 -47 -2 -78h-729q15 -82 67 -131t130 -49q84 0 145 61h373q-57 -154 -190 -251t-332 -97q-263 0 -400 199q-65 -96 -167 -143.5t-261 -47.5q-172 0 -278.5 84t-106.5 238zM1073 641h383q-31 190 -186 190q-82 0 -133.5 -51t-63.5 -139z
M422 317q0 -98 117 -98q76 0 122.5 65.5t49.5 192.5v2q-48 -23 -148 -47q-141 -35 -141 -115z" />
    <glyph glyph-name="ccedilla" unicode="&#xe7;" horiz-adv-x="1234" 
d="M645 242q29 0 59.5 8t60.5 24.5t51.5 47.5t27.5 73h330q-10 -100 -56 -182t-116.5 -135t-156.5 -83t-179 -34l-82 -70l2 -2q25 5 53 5q104 -3 161.5 -42t57.5 -110q0 -49 -27.5 -87t-71 -59t-88.5 -31.5t-87 -10.5q-93 0 -183 22l25 139q52 -18 109 -18q38 0 56.5 13.5
t18.5 33.5t-15.5 31.5t-41.5 11.5q-22 0 -49 -10l-84 94l92 102q-94 19 -175.5 63t-147 112t-103 166.5t-37.5 215.5q0 112 34 207t91.5 160t134.5 110.5t161.5 67t172.5 21.5q74 0 145.5 -16.5t137 -51t117.5 -83.5t87 -118.5t44 -150.5h-334q-40 137 -195 137
q-106 0 -170.5 -81.5t-64.5 -203.5q0 -123 64.5 -204.5t170.5 -81.5z" />
    <glyph glyph-name="egrave" unicode="&#xe8;" horiz-adv-x="1239" 
d="M791 1204h-273l-280 258h370zM1182 502q0 -45 -2 -76h-779q20 -80 80.5 -130t141.5 -50q109 0 170 61h372q-56 -152 -199 -250t-348 -98q-163 0 -292.5 70.5t-203 200.5t-73.5 298q0 162 74.5 292.5t207 204t298.5 73.5q251 0 402 -160.5t151 -435.5zM399 641h435
q-5 31 -18 61.5t-37 61t-64.5 49t-91.5 18.5q-85 0 -145 -51.5t-79 -138.5z" />
    <glyph glyph-name="eacute" unicode="&#xe9;" horiz-adv-x="1239" 
d="M995 1462l-280 -258h-273l183 258h370zM1182 502q0 -45 -2 -76h-779q20 -80 80.5 -130t141.5 -50q109 0 170 61h372q-56 -152 -199 -250t-348 -98q-163 0 -292.5 70.5t-203 200.5t-73.5 298q0 162 74.5 292.5t207 204t298.5 73.5q251 0 402 -160.5t151 -435.5zM399 641
h435q-5 31 -18 61.5t-37 61t-64.5 49t-91.5 18.5q-85 0 -145 -51.5t-79 -138.5z" />
    <glyph glyph-name="ecircumflex" unicode="&#xea;" horiz-adv-x="1239" 
d="M616 1311l-98 -107h-264l225 258h271l229 -258h-268zM1182 502q0 -45 -2 -76h-779q20 -80 80.5 -130t141.5 -50q109 0 170 61h372q-56 -152 -199 -250t-348 -98q-163 0 -292.5 70.5t-203 200.5t-73.5 298q0 162 74.5 292.5t207 204t298.5 73.5q251 0 402 -160.5
t151 -435.5zM399 641h435q-5 31 -18 61.5t-37 61t-64.5 49t-91.5 18.5q-85 0 -145 -51.5t-79 -138.5z" />
    <glyph glyph-name="edieresis" unicode="&#xeb;" horiz-adv-x="1239" 
d="M551 1462v-258h-281v258h281zM961 1462v-258h-283v258h283zM1182 502q0 -45 -2 -76h-779q20 -80 80.5 -130t141.5 -50q109 0 170 61h372q-56 -152 -199 -250t-348 -98q-163 0 -292.5 70.5t-203 200.5t-73.5 298q0 162 74.5 292.5t207 204t298.5 73.5q251 0 402 -160.5
t151 -435.5zM399 641h435q-5 31 -18 61.5t-37 61t-64.5 49t-91.5 18.5q-85 0 -145 -51.5t-79 -138.5z" />
    <glyph glyph-name="igrave" unicode="&#xec;" horiz-adv-x="598" 
d="M291 1462l182 -258h-272l-281 258h371zM115 0v1059h368v-1059h-368z" />
    <glyph glyph-name="iacute" unicode="&#xed;" horiz-adv-x="598" 
d="M307 1462h371l-281 -258h-272zM115 0v1059h368v-1059h-368z" />
    <glyph glyph-name="icircumflex" unicode="&#xee;" horiz-adv-x="598" 
d="M-63 1204l225 258h270l230 -258h-269l-94 107l-98 -107h-264zM115 0v1059h368v-1059h-368z" />
    <glyph glyph-name="idieresis" unicode="&#xef;" horiz-adv-x="598" 
d="M-47 1462h280v-258h-280v258zM360 1462h283v-258h-283v258zM115 0v1059h368v-1059h-368z" />
    <glyph glyph-name="eth" unicode="&#xf0;" horiz-adv-x="1275" 
d="M49 528q0 129 43.5 238t114 179t156.5 108.5t174 38.5q22 0 40.5 -0.5t34 -2t26.5 -2.5t22.5 -3.5t17.5 -4t15.5 -5t12.5 -4.5t12 -5.5l11 -5.5q-46 69 -162 178l-215 -125l-94 166l156 90q-73 55 -127 90l315 191q68 -49 129 -99l205 119l94 -166l-149 -86
q171 -173 258.5 -373t87.5 -454q0 -128 -32 -233t-87 -176t-129.5 -120t-157.5 -71.5t-174 -22.5q-89 0 -174.5 21.5t-162.5 67.5t-135 111t-92 158t-34 203zM414 528q0 -122 63.5 -202t169.5 -80q107 0 171.5 80.5t64.5 201.5q0 122 -65 203.5t-171 81.5t-169.5 -81.5
t-63.5 -203.5z" />
    <glyph glyph-name="ntilde" unicode="&#xf1;" horiz-adv-x="1271" 
d="M301 1204q0 109 58.5 185.5t152.5 76.5q46 0 87.5 -18t72 -36.5t49.5 -18.5q18 0 27 9.5t11.5 20t6.5 39.5h203q0 -123 -54 -192.5t-147 -69.5q-42 0 -79 11.5t-58 25.5t-43.5 25.5t-40.5 11.5q-25 0 -36.5 -17t-14.5 -53h-195zM115 0v1059h356v-96q125 133 315 133
q196 0 287.5 -126.5t91.5 -371.5v-598h-366v473v18q0 38 -0.5 59.5t-4.5 60t-13.5 61.5t-25.5 47.5t-43.5 36.5t-64.5 12q-90 0 -127 -85.5t-37 -266.5v-416h-368z" />
    <glyph glyph-name="ograve" unicode="&#xf2;" horiz-adv-x="1267" 
d="M627 1462l182 -258h-272l-281 258h371zM635 -39q-89 0 -173.5 22t-159.5 68.5t-131 112.5t-89 160.5t-33 205.5t33 205t89 159.5t131 111.5t159.5 68t173.5 22t172.5 -22t158.5 -68t131 -111.5t89 -159.5t33 -205q0 -138 -50 -249.5t-133.5 -179.5t-186 -104t-214.5 -36z
M635 244q106 0 168.5 81t62.5 205q0 122 -62.5 203.5t-168.5 81.5t-170 -81.5t-64 -203.5q0 -123 64 -204.5t170 -81.5z" />
    <glyph glyph-name="oacute" unicode="&#xf3;" horiz-adv-x="1267" 
d="M643 1462h371l-281 -258h-272zM635 -39q-89 0 -173.5 22t-159.5 68.5t-131 112.5t-89 160.5t-33 205.5t33 205t89 159.5t131 111.5t159.5 68t173.5 22t172.5 -22t158.5 -68t131 -111.5t89 -159.5t33 -205q0 -138 -50 -249.5t-133.5 -179.5t-186 -104t-214.5 -36zM635 244
q106 0 168.5 81t62.5 205q0 122 -62.5 203.5t-168.5 81.5t-170 -81.5t-64 -203.5q0 -123 64 -204.5t170 -81.5z" />
    <glyph glyph-name="ocircumflex" unicode="&#xf4;" horiz-adv-x="1267" 
d="M272 1204l226 258h270l229 -258h-268l-94 107l-98 -107h-265zM635 -39q-89 0 -173.5 22t-159.5 68.5t-131 112.5t-89 160.5t-33 205.5t33 205t89 159.5t131 111.5t159.5 68t173.5 22t172.5 -22t158.5 -68t131 -111.5t89 -159.5t33 -205q0 -138 -50 -249.5t-133.5 -179.5
t-186 -104t-214.5 -36zM635 244q106 0 168.5 81t62.5 205q0 122 -62.5 203.5t-168.5 81.5t-170 -81.5t-64 -203.5q0 -123 64 -204.5t170 -81.5z" />
    <glyph glyph-name="otilde" unicode="&#xf5;" horiz-adv-x="1267" 
d="M301 1204q0 109 58.5 185.5t152.5 76.5q46 0 87.5 -18t72 -36.5t49.5 -18.5q18 0 27 9.5t11.5 20t6.5 39.5h203q0 -123 -54 -192.5t-147 -69.5q-42 0 -79 11.5t-58 25.5t-43.5 25.5t-40.5 11.5q-25 0 -36.5 -17t-14.5 -53h-195zM635 -39q-89 0 -173.5 22t-159.5 68.5
t-131 112.5t-89 160.5t-33 205.5t33 205t89 159.5t131 111.5t159.5 68t173.5 22t172.5 -22t158.5 -68t131 -111.5t89 -159.5t33 -205q0 -138 -50 -249.5t-133.5 -179.5t-186 -104t-214.5 -36zM635 244q106 0 168.5 81t62.5 205q0 122 -62.5 203.5t-168.5 81.5t-170 -81.5
t-64 -203.5q0 -123 64 -204.5t170 -81.5z" />
    <glyph glyph-name="odieresis" unicode="&#xf6;" horiz-adv-x="1267" 
d="M289 1462h280v-258h-280v258zM696 1462h283v-258h-283v258zM635 -39q-89 0 -173.5 22t-159.5 68.5t-131 112.5t-89 160.5t-33 205.5t33 205t89 159.5t131 111.5t159.5 68t173.5 22t172.5 -22t158.5 -68t131 -111.5t89 -159.5t33 -205q0 -138 -50 -249.5t-133.5 -179.5
t-186 -104t-214.5 -36zM635 244q106 0 168.5 81t62.5 205q0 122 -62.5 203.5t-168.5 81.5t-170 -81.5t-64 -203.5q0 -123 64 -204.5t170 -81.5z" />
    <glyph glyph-name="divide" unicode="&#xf7;" horiz-adv-x="1269" 
d="M424 1012q0 86 62.5 148.5t148.5 62.5t148.5 -62.5t62.5 -148.5q0 -79 -63.5 -144t-145.5 -65q-86 0 -149.5 62t-63.5 147zM78 731h1114v-305h-1114v305zM424 127q0 86 62.5 148.5t148.5 62.5t148.5 -62.5t62.5 -148.5q0 -79 -63.5 -145t-145.5 -66q-86 0 -149.5 62.5
t-63.5 148.5z" />
    <glyph glyph-name="oslash" unicode="&#xf8;" horiz-adv-x="1267" 
d="M1092 901q127 -150 127 -371q0 -138 -50 -249.5t-133.5 -179.5t-186 -104t-214.5 -36q-192 0 -344 96l-94 -98l-107 92l94 99q-135 148 -135 380q0 111 33 205t89 159.5t131 111.5t159.5 68t173.5 22q203 0 350 -103l92 97l101 -99zM401 530q0 -65 23 -129l346 367
q-57 47 -135 47q-106 0 -170 -81.5t-64 -203.5zM635 244q106 0 168.5 81t62.5 205q0 59 -16 115l-344 -360q53 -41 129 -41z" />
    <glyph glyph-name="ugrave" unicode="&#xf9;" horiz-adv-x="1271" 
d="M631 1462l182 -258h-272l-281 258h371zM106 461v598h367v-473v-18q0 -38 0.5 -59t4.5 -58.5t13.5 -59.5t25.5 -45.5t43.5 -35t64.5 -11.5q90 0 126.5 82t36.5 262v416h369v-1059h-356v96q-111 -125 -316 -125q-197 0 -288 123.5t-91 366.5z" />
    <glyph glyph-name="uacute" unicode="&#xfa;" horiz-adv-x="1271" 
d="M647 1462h371l-281 -258h-272zM106 461v598h367v-473v-18q0 -38 0.5 -59t4.5 -58.5t13.5 -59.5t25.5 -45.5t43.5 -35t64.5 -11.5q90 0 126.5 82t36.5 262v416h369v-1059h-356v96q-111 -125 -316 -125q-197 0 -288 123.5t-91 366.5z" />
    <glyph glyph-name="ucircumflex" unicode="&#xfb;" horiz-adv-x="1271" 
d="M276 1204l226 258h270l229 -258h-268l-94 107l-98 -107h-265zM106 461v598h367v-473v-18q0 -38 0.5 -59t4.5 -58.5t13.5 -59.5t25.5 -45.5t43.5 -35t64.5 -11.5q90 0 126.5 82t36.5 262v416h369v-1059h-356v96q-111 -125 -316 -125q-197 0 -288 123.5t-91 366.5z" />
    <glyph glyph-name="udieresis" unicode="&#xfc;" horiz-adv-x="1271" 
d="M293 1462h280v-258h-280v258zM700 1462h283v-258h-283v258zM106 461v598h367v-473v-18q0 -38 0.5 -59t4.5 -58.5t13.5 -59.5t25.5 -45.5t43.5 -35t64.5 -11.5q90 0 126.5 82t36.5 262v416h369v-1059h-356v96q-111 -125 -316 -125q-197 0 -288 123.5t-91 366.5z" />
    <glyph glyph-name="yacute" unicode="&#xfd;" horiz-adv-x="1128" 
d="M571 1462h371l-280 -258h-273zM6 1059h385q30 -125 89.5 -330.5t88.5 -322.5h6q12 79 34.5 171t66.5 247t65 235h381q-222 -638 -217 -638q1 0 15 35l10 23q-8 -30 -244 -696q-71 -193 -278 -193h-275v269h111h8q22 0 33.5 1t28.5 6.5t27 19t15 36.5l15 66
q-60 176 -140 404.5t-130.5 378t-94.5 288.5z" />
    <glyph glyph-name="thorn" unicode="&#xfe;" horiz-adv-x="1325" 
d="M821 1100q86 0 167 -39.5t145.5 -110.5t103.5 -180.5t39 -239.5t-39 -240.5t-103.5 -182.5t-145.5 -112t-167 -40q-100 0 -183.5 46.5t-127.5 145.5h-2v-548h-393v1863h397v-542q40 75 129.5 127.5t179.5 52.5zM686 252q34 0 70 17t69.5 49t54.5 87.5t21 124.5
q0 129 -69 202t-146 73q-73 0 -137 -53t-78 -164l-4 -58q0 -74 23 -131t58.5 -87t70.5 -45t67 -15z" />
    <glyph glyph-name="ydieresis" unicode="&#xff;" horiz-adv-x="1128" 
d="M217 1462h281v-258h-281v258zM625 1462h282v-258h-282v258zM6 1059h385q30 -125 89.5 -330.5t88.5 -322.5h6q12 79 34.5 171t66.5 247t65 235h381q-222 -638 -217 -638q1 0 15 35l10 23q-8 -30 -244 -696q-71 -193 -278 -193h-275v269h111h8q22 0 33.5 1t28.5 6.5t27 19
t15 36.5l15 66q-60 176 -140 404.5t-130.5 378t-94.5 288.5z" />
    <glyph glyph-name="Amacron" unicode="&#x100;" horiz-adv-x="1515" 
d="M1118 1737v-131h-721v131h721zM1100 0l-101 322h-491l-100 -322h-400l514 1462h477l508 -1462h-407zM756 1108h-4l-152 -490h307z" />
    <glyph glyph-name="amacron" unicode="&#x101;" horiz-adv-x="1175" 
d="M973 1405v-141h-754v141h754zM1081 315q0 -236 21 -315h-357q-8 28 -8 55v35h-2q-89 -123 -313 -123q-158 0 -263.5 85t-105.5 237q0 58 18.5 107t45 82.5t70.5 61.5t78 43.5t86.5 30t77 19.5t67.5 12q22 4 54 8.5t50 7.5t41 7.5t36 10t25.5 14t17.5 20.5t5 28
q0 53 -42 79t-99 26q-59 0 -104 -28t-58 -91h-334q27 165 161 269t337 104q80 0 149 -14t134 -49.5t111 -90.5t73.5 -142.5t27.5 -199.5v-289zM551 219q74 0 125.5 67.5t54.5 192.5q-72 -26 -160 -47q-87 -20 -118 -48t-31 -67q0 -98 129 -98z" />
    <glyph glyph-name="Abreve" unicode="&#x102;" horiz-adv-x="1515" 
d="M758 1538q-132 0 -218.5 70.5t-95.5 183.5h226q0 -33 23 -53.5t65 -20.5q40 0 63 20.5t25 53.5h225q-9 -113 -95.5 -183.5t-217.5 -70.5zM1100 0l-101 322h-491l-100 -322h-400l514 1462h477l508 -1462h-407zM756 1108h-4l-152 -490h307z" />
    <glyph glyph-name="abreve" unicode="&#x103;" horiz-adv-x="1175" 
d="M602 1190q-133 0 -218.5 73.5t-94.5 198.5h225q0 -92 88 -92q85 0 88 92h225q-9 -125 -94.5 -198.5t-218.5 -73.5zM1081 315q0 -236 21 -315h-357q-8 28 -8 55v35h-2q-89 -123 -313 -123q-158 0 -263.5 85t-105.5 237q0 58 18.5 107t45 82.5t70.5 61.5t78 43.5t86.5 30
t77 19.5t67.5 12q22 4 54 8.5t50 7.5t41 7.5t36 10t25.5 14t17.5 20.5t5 28q0 53 -42 79t-99 26q-59 0 -104 -28t-58 -91h-334q27 165 161 269t337 104q80 0 149 -14t134 -49.5t111 -90.5t73.5 -142.5t27.5 -199.5v-289zM551 219q74 0 125.5 67.5t54.5 192.5
q-72 -26 -160 -47q-87 -20 -118 -48t-31 -67q0 -98 129 -98z" />
    <glyph glyph-name="Aogonek" unicode="&#x104;" horiz-adv-x="1515" 
d="M1262 -176q-8 -48 21 -67t112 -19l-33 -182q-190 0 -282.5 43t-92.5 151q0 72 63.5 138t178.5 112h-129l-101 322h-491l-100 -322h-400l514 1462h477l508 -1462q-133 -46 -185.5 -89t-59.5 -87zM756 1108h-4l-152 -490h307z" />
    <glyph glyph-name="aogonek" unicode="&#x105;" horiz-adv-x="1175" 
d="M870 -176q-8 -48 27.5 -72t116.5 -24l-29 -172q-184 0 -271 43t-87 151q0 74 58.5 139.5t170.5 110.5h-111q-8 28 -8 55v35h-2q-89 -123 -313 -123q-158 0 -263.5 85t-105.5 237q0 58 18.5 107t45 82.5t70.5 61.5t78 43.5t86.5 30t77 19.5t67.5 12q22 4 54 8.5t50 7.5
t41 7.5t36 10t25.5 14t17.5 20.5t5 28q0 53 -42 79t-99 26q-59 0 -104 -28t-58 -91h-334q27 165 161 269t337 104q80 0 149 -14t134 -49.5t111 -90.5t73.5 -142.5t27.5 -199.5v-289q0 -236 21 -315q-129 -46 -177 -88.5t-55 -87.5zM551 219q74 0 125.5 67.5t54.5 192.5
q-72 -26 -160 -47q-87 -20 -118 -48t-31 -67q0 -98 129 -98z" />
    <glyph glyph-name="Cacute" unicode="&#x106;" horiz-adv-x="1583" 
d="M809 1792h360l-241 -244h-320zM1530 492q-69 -260 -256.5 -389.5t-460.5 -129.5q-150 0 -283 50t-235 143.5t-161.5 239t-59.5 323.5q0 174 60.5 319t163.5 240.5t238 148t285 52.5q277 0 461 -132t252 -390h-373q-91 198 -340 198q-68 0 -132.5 -30t-117 -84t-84.5 -138
t-32 -184q0 -98 32.5 -181t85 -137t117 -84t131.5 -30q136 0 212.5 46t121.5 149h375z" />
    <glyph glyph-name="cacute" unicode="&#x107;" horiz-adv-x="1234" 
d="M621 1462h370l-280 -258h-273zM1174 395q-10 -103 -59 -187.5t-123 -137t-164 -81t-185 -28.5q-111 0 -215 36.5t-189.5 105t-137.5 179.5t-52 248q0 112 34 207t91.5 160t134.5 110.5t161.5 67t172.5 21.5q74 0 145.5 -16.5t137 -51t117.5 -83.5t87 -118.5t44 -150.5
h-334q-40 137 -195 137q-106 0 -170.5 -81.5t-64.5 -203.5q0 -123 64.5 -204.5t170.5 -81.5q29 0 59.5 8t60.5 24.5t51.5 47.5t27.5 73h330z" />
    <glyph glyph-name="Ccircumflex" unicode="&#x108;" horiz-adv-x="1583" 
d="M442 1548l160 244h412l157 -244h-305l-63 111l-55 -111h-306zM1530 492q-69 -260 -256.5 -389.5t-460.5 -129.5q-150 0 -283 50t-235 143.5t-161.5 239t-59.5 323.5q0 174 60.5 319t163.5 240.5t238 148t285 52.5q277 0 461 -132t252 -390h-373q-91 198 -340 198
q-68 0 -132.5 -30t-117 -84t-84.5 -138t-32 -184q0 -98 32.5 -181t85 -137t117 -84t131.5 -30q136 0 212.5 46t121.5 149h375z" />
    <glyph glyph-name="ccircumflex" unicode="&#x109;" horiz-adv-x="1234" 
d="M250 1204l225 258h270l230 -258h-268l-95 107l-98 -107h-264zM1174 395q-10 -103 -59 -187.5t-123 -137t-164 -81t-185 -28.5q-111 0 -215 36.5t-189.5 105t-137.5 179.5t-52 248q0 112 34 207t91.5 160t134.5 110.5t161.5 67t172.5 21.5q74 0 145.5 -16.5t137 -51
t117.5 -83.5t87 -118.5t44 -150.5h-334q-40 137 -195 137q-106 0 -170.5 -81.5t-64.5 -203.5q0 -123 64.5 -204.5t170.5 -81.5q29 0 59.5 8t60.5 24.5t51.5 47.5t27.5 73h330z" />
    <glyph glyph-name="Cdotaccent" unicode="&#x10a;" horiz-adv-x="1583" 
d="M657 1792h299v-244h-299v244zM1530 492q-69 -260 -256.5 -389.5t-460.5 -129.5q-150 0 -283 50t-235 143.5t-161.5 239t-59.5 323.5q0 174 60.5 319t163.5 240.5t238 148t285 52.5q277 0 461 -132t252 -390h-373q-91 198 -340 198q-68 0 -132.5 -30t-117 -84t-84.5 -138
t-32 -184q0 -98 32.5 -181t85 -137t117 -84t131.5 -30q136 0 212.5 46t121.5 149h375z" />
    <glyph glyph-name="cdotaccent" unicode="&#x10b;" horiz-adv-x="1234" 
d="M739 1206h-254v260h254v-260zM1174 395q-10 -103 -59 -187.5t-123 -137t-164 -81t-185 -28.5q-111 0 -215 36.5t-189.5 105t-137.5 179.5t-52 248q0 112 34 207t91.5 160t134.5 110.5t161.5 67t172.5 21.5q74 0 145.5 -16.5t137 -51t117.5 -83.5t87 -118.5t44 -150.5
h-334q-40 137 -195 137q-106 0 -170.5 -81.5t-64.5 -203.5q0 -123 64.5 -204.5t170.5 -81.5q29 0 59.5 8t60.5 24.5t51.5 47.5t27.5 73h330z" />
    <glyph glyph-name="Ccaron" unicode="&#x10c;" horiz-adv-x="1583" 
d="M602 1548l-160 244h306l55 -111l63 111h305l-157 -244h-412zM1530 492q-69 -260 -256.5 -389.5t-460.5 -129.5q-150 0 -283 50t-235 143.5t-161.5 239t-59.5 323.5q0 174 60.5 319t163.5 240.5t238 148t285 52.5q277 0 461 -132t252 -390h-373q-91 198 -340 198
q-68 0 -132.5 -30t-117 -84t-84.5 -138t-32 -184q0 -98 32.5 -181t85 -137t117 -84t131.5 -30q136 0 212.5 46t121.5 149h375z" />
    <glyph glyph-name="ccaron" unicode="&#x10d;" horiz-adv-x="1234" 
d="M250 1462h264l98 -106l95 106h268l-230 -258h-270zM1174 395q-10 -103 -59 -187.5t-123 -137t-164 -81t-185 -28.5q-111 0 -215 36.5t-189.5 105t-137.5 179.5t-52 248q0 112 34 207t91.5 160t134.5 110.5t161.5 67t172.5 21.5q74 0 145.5 -16.5t137 -51t117.5 -83.5
t87 -118.5t44 -150.5h-334q-40 137 -195 137q-106 0 -170.5 -81.5t-64.5 -203.5q0 -123 64.5 -204.5t170.5 -81.5q29 0 59.5 8t60.5 24.5t51.5 47.5t27.5 73h330z" />
    <glyph glyph-name="Dcaron" unicode="&#x10e;" horiz-adv-x="1499" 
d="M911 1548h-411l-160 244h305l55 -111l64 111h305zM610 1462q396 0 605.5 -188t209.5 -533q0 -364 -208 -552.5t-611 -188.5h-467v1462h471zM598 324q219 0 327.5 103t108.5 314q0 196 -108 297t-320 101h-86v-815h78z" />
    <glyph glyph-name="dcaron" unicode="&#x10f;" horiz-adv-x="1341" 
d="M842 969v493h385v-1462h-393v90h-3q-4 -3 -38 -32t-56 -43.5t-70.5 -30t-103.5 -15.5q-100 0 -192 38t-164 107t-115 177t-43 239q0 130 42 238t113 178t162.5 108t192.5 38q54 0 100 -11.5t82 -33.5t56 -38t45 -40zM1337 1462h265l-72 -334h-205zM647 242
q106 0 171 81.5t65 204.5q0 122 -65 203.5t-171 81.5t-169.5 -81.5t-63.5 -203.5q0 -123 63.5 -204.5t169.5 -81.5z" />
    <glyph glyph-name="Dcroat" unicode="&#x110;" horiz-adv-x="1499" 
d="M610 1462q396 0 605.5 -188t209.5 -533q0 -364 -208 -552.5t-611 -188.5h-467v563h-127v234h127v665h471zM598 324q219 0 327.5 103t108.5 314q0 196 -108 297t-320 101h-86v-342h156v-234h-156v-239h78z" />
    <glyph glyph-name="dcroat" unicode="&#x111;" horiz-adv-x="1341" 
d="M1425 1309v-115h-198v-1194h-393v90h-3q-4 -3 -38 -32t-56 -43.5t-70.5 -30t-103.5 -15.5q-100 0 -192 38t-164 107t-115 177t-43 239q0 130 42 238t113 178t162.5 108t192.5 38q54 0 100 -11.5t82 -33.5t56 -38t45 -40v225h-232v115h232v153h385v-153h198zM647 242
q106 0 171 81.5t65 204.5q0 122 -65 203.5t-171 81.5t-169.5 -81.5t-63.5 -203.5q0 -123 63.5 -204.5t169.5 -81.5z" />
    <glyph glyph-name="Emacron" unicode="&#x112;" horiz-adv-x="1234" 
d="M979 1737v-131h-721v131h721zM520 324h625v-324h-1006v1462h1000v-323h-619v-250h576v-314h-576v-251z" />
    <glyph glyph-name="emacron" unicode="&#x113;" horiz-adv-x="1239" 
d="M993 1405v-141h-753v141h753zM1182 502q0 -45 -2 -76h-779q20 -80 80.5 -130t141.5 -50q109 0 170 61h372q-56 -152 -199 -250t-348 -98q-163 0 -292.5 70.5t-203 200.5t-73.5 298q0 162 74.5 292.5t207 204t298.5 73.5q251 0 402 -160.5t151 -435.5zM399 641h435
q-5 31 -18 61.5t-37 61t-64.5 49t-91.5 18.5q-85 0 -145 -51.5t-79 -138.5z" />
    <glyph glyph-name="Ebreve" unicode="&#x114;" horiz-adv-x="1234" 
d="M618 1538q-131 0 -217.5 70.5t-95.5 183.5h225q0 -33 23 -53.5t65 -20.5q40 0 63.5 20.5t25.5 53.5h225q-9 -113 -95.5 -183.5t-218.5 -70.5zM520 324h625v-324h-1006v1462h1000v-323h-619v-250h576v-314h-576v-251z" />
    <glyph glyph-name="ebreve" unicode="&#x115;" horiz-adv-x="1239" 
d="M623 1190q-133 0 -219 73.5t-95 198.5h226q0 -92 88 -92q85 0 88 92h225q-9 -125 -94.5 -198.5t-218.5 -73.5zM1182 502q0 -45 -2 -76h-779q20 -80 80.5 -130t141.5 -50q109 0 170 61h372q-56 -152 -199 -250t-348 -98q-163 0 -292.5 70.5t-203 200.5t-73.5 298
q0 162 74.5 292.5t207 204t298.5 73.5q251 0 402 -160.5t151 -435.5zM399 641h435q-5 31 -18 61.5t-37 61t-64.5 49t-91.5 18.5q-85 0 -145 -51.5t-79 -138.5z" />
    <glyph glyph-name="Edotaccent" unicode="&#x116;" horiz-adv-x="1234" 
d="M768 1792v-244h-299v244h299zM520 324h625v-324h-1006v1462h1000v-323h-619v-250h576v-314h-576v-251z" />
    <glyph glyph-name="edotaccent" unicode="&#x117;" horiz-adv-x="1239" 
d="M743 1466v-260h-254v260h254zM1182 502q0 -45 -2 -76h-779q20 -80 80.5 -130t141.5 -50q109 0 170 61h372q-56 -152 -199 -250t-348 -98q-163 0 -292.5 70.5t-203 200.5t-73.5 298q0 162 74.5 292.5t207 204t298.5 73.5q251 0 402 -160.5t151 -435.5zM399 641h435
q-5 31 -18 61.5t-37 61t-64.5 49t-91.5 18.5q-85 0 -145 -51.5t-79 -138.5z" />
    <glyph glyph-name="Eogonek" unicode="&#x118;" horiz-adv-x="1234" 
d="M1145 0q-133 -46 -186 -89t-60 -87q-8 -48 21 -67t112 -19l-33 -182q-190 0 -282 43t-92 151q0 73 63 139t178 111h-727v1462h1000v-323h-619v-250h576v-314h-576v-251h625v-324z" />
    <glyph glyph-name="eogonek" unicode="&#x119;" horiz-adv-x="1239" 
d="M1182 502q0 -45 -2 -76h-779q20 -80 80.5 -130t141.5 -50q109 0 170 61h372q-41 -114 -135.5 -201t-228.5 -124q-90 -37 -125.5 -74t-40.5 -76q-8 -48 27 -72t116 -24l-28 -172q-184 0 -271.5 43t-87.5 151q0 118 141 207q-215 27 -349 180t-134 383q0 162 74.5 292.5
t207 204t298.5 73.5q251 0 402 -160.5t151 -435.5zM399 641h435q-5 31 -18 61.5t-37 61t-64.5 49t-91.5 18.5q-85 0 -145 -51.5t-79 -138.5z" />
    <glyph glyph-name="Ecaron" unicode="&#x11a;" horiz-adv-x="1234" 
d="M825 1548h-411l-160 244h305l55 -111l64 111h305zM520 324h625v-324h-1006v1462h1000v-323h-619v-250h576v-314h-576v-251z" />
    <glyph glyph-name="ecaron" unicode="&#x11b;" horiz-adv-x="1239" 
d="M750 1204h-271l-225 258h264l98 -106l95 106h268zM1182 502q0 -45 -2 -76h-779q20 -80 80.5 -130t141.5 -50q109 0 170 61h372q-56 -152 -199 -250t-348 -98q-163 0 -292.5 70.5t-203 200.5t-73.5 298q0 162 74.5 292.5t207 204t298.5 73.5q251 0 402 -160.5t151 -435.5z
M399 641h435q-5 31 -18 61.5t-37 61t-64.5 49t-91.5 18.5q-85 0 -145 -51.5t-79 -138.5z" />
    <glyph glyph-name="Gcircumflex" unicode="&#x11c;" horiz-adv-x="1622" 
d="M809 1659l-55 -111h-305l159 244h412l158 -244h-306zM827 526v279h678l-18 -805h-232l-12 129q-139 -164 -438 -164q-152 0 -288.5 62t-233 166t-153 245t-56.5 293q0 124 32.5 238t98.5 210t158 167t218 111t273 40q138 0 252 -38.5t195 -109t136 -162t87 -204.5h-389
q-35 93 -100 142t-181 49q-188 0 -293.5 -118t-105.5 -325q0 -206 108.5 -324t300.5 -118q152 0 231.5 57t104.5 178z" />
    <glyph glyph-name="gcircumflex" unicode="&#x11d;" horiz-adv-x="1325" 
d="M299 1204l225 258h271l229 -258h-268l-94 107l-99 -107h-264zM813 1059h397v-907q0 -125 -32 -219t-84.5 -152t-129.5 -94.5t-158 -50t-179 -13.5q-123 0 -224 32t-167.5 86t-107.5 118.5t-56 136.5h358q43 -111 191 -111q112 0 152 46t40 130v115h-2q-34 -50 -100 -85.5
t-168 -35.5q-101 0 -189 31.5t-157 93t-108.5 163t-39.5 232.5q0 130 39 231t107 162.5t155 92.5t189 31q48 0 89.5 -9t78 -28.5t55 -31.5t49.5 -36h2v72zM416 573q0 -101 61.5 -171t161.5 -70t160.5 69.5t60.5 171.5q0 100 -60.5 170t-160.5 70t-161.5 -70t-61.5 -170z" />
    <glyph glyph-name="Gbreve" unicode="&#x11e;" horiz-adv-x="1622" 
d="M813 1538q-131 0 -217.5 70.5t-95.5 183.5h225q0 -33 23 -53.5t65 -20.5q40 0 63 20.5t25 53.5h225q-9 -113 -95.5 -183.5t-217.5 -70.5zM827 526v279h678l-18 -805h-232l-12 129q-139 -164 -438 -164q-152 0 -288.5 62t-233 166t-153 245t-56.5 293q0 124 32.5 238
t98.5 210t158 167t218 111t273 40q138 0 252 -38.5t195 -109t136 -162t87 -204.5h-389q-35 93 -100 142t-181 49q-188 0 -293.5 -118t-105.5 -325q0 -206 108.5 -324t300.5 -118q152 0 231.5 57t104.5 178z" />
    <glyph glyph-name="gbreve" unicode="&#x11f;" horiz-adv-x="1325" 
d="M668 1190q-133 0 -219 73.5t-95 198.5h226q0 -92 88 -92q85 0 88 92h225q-9 -125 -94.5 -198.5t-218.5 -73.5zM813 1059h397v-907q0 -125 -32 -219t-84.5 -152t-129.5 -94.5t-158 -50t-179 -13.5q-123 0 -224 32t-167.5 86t-107.5 118.5t-56 136.5h358q43 -111 191 -111
q112 0 152 46t40 130v115h-2q-34 -50 -100 -85.5t-168 -35.5q-101 0 -189 31.5t-157 93t-108.5 163t-39.5 232.5q0 130 39 231t107 162.5t155 92.5t189 31q48 0 89.5 -9t78 -28.5t55 -31.5t49.5 -36h2v72zM416 573q0 -101 61.5 -171t161.5 -70t160.5 69.5t60.5 171.5
q0 100 -60.5 170t-160.5 70t-161.5 -70t-61.5 -170z" />
    <glyph glyph-name="Gdotaccent" unicode="&#x120;" horiz-adv-x="1622" 
d="M963 1792v-244h-299v244h299zM827 526v279h678l-18 -805h-232l-12 129q-139 -164 -438 -164q-152 0 -288.5 62t-233 166t-153 245t-56.5 293q0 124 32.5 238t98.5 210t158 167t218 111t273 40q138 0 252 -38.5t195 -109t136 -162t87 -204.5h-389q-35 93 -100 142t-181 49
q-188 0 -293.5 -118t-105.5 -325q0 -206 108.5 -324t300.5 -118q152 0 231.5 57t104.5 178z" />
    <glyph glyph-name="gdotaccent" unicode="&#x121;" horiz-adv-x="1325" 
d="M788 1206h-253v260h253v-260zM813 1059h397v-907q0 -125 -32 -219t-84.5 -152t-129.5 -94.5t-158 -50t-179 -13.5q-123 0 -224 32t-167.5 86t-107.5 118.5t-56 136.5h358q43 -111 191 -111q112 0 152 46t40 130v115h-2q-34 -50 -100 -85.5t-168 -35.5q-101 0 -189 31.5
t-157 93t-108.5 163t-39.5 232.5q0 130 39 231t107 162.5t155 92.5t189 31q48 0 89.5 -9t78 -28.5t55 -31.5t49.5 -36h2v72zM416 573q0 -101 61.5 -171t161.5 -70t160.5 69.5t60.5 171.5q0 100 -60.5 170t-160.5 70t-161.5 -70t-61.5 -170z" />
    <glyph glyph-name="uni0122" unicode="&#x122;" horiz-adv-x="1622" 
d="M827 526v279h678l-18 -805h-232l-12 129q-139 -164 -438 -164q-152 0 -288.5 62t-233 166t-153 245t-56.5 293q0 124 32.5 238t98.5 210t158 167t218 111t273 40q138 0 252 -38.5t195 -109t136 -162t87 -204.5h-389q-35 93 -100 142t-181 49q-188 0 -293.5 -118
t-105.5 -325q0 -206 108.5 -324t300.5 -118q152 0 231.5 57t104.5 178zM678 -303v221h268v-199q0 -170 -244 -170v72q115 5 115 76h-139z" />
    <glyph glyph-name="uni0123" unicode="&#x123;" horiz-adv-x="1325" 
d="M795 1225h-269v198q0 170 244 170v-71q-115 -5 -115 -76h140v-221zM813 1059h397v-907q0 -125 -32 -219t-84.5 -152t-129.5 -94.5t-158 -50t-179 -13.5q-123 0 -224 32t-167.5 86t-107.5 118.5t-56 136.5h358q43 -111 191 -111q112 0 152 46t40 130v115h-2
q-34 -50 -100 -85.5t-168 -35.5q-101 0 -189 31.5t-157 93t-108.5 163t-39.5 232.5q0 130 39 231t107 162.5t155 92.5t189 31q48 0 89.5 -9t78 -28.5t55 -31.5t49.5 -36h2v72zM416 573q0 -101 61.5 -171t161.5 -70t160.5 69.5t60.5 171.5q0 100 -60.5 170t-160.5 70
t-161.5 -70t-61.5 -170z" />
    <glyph glyph-name="Hcircumflex" unicode="&#x124;" horiz-adv-x="1538" 
d="M766 1659l-55 -111h-305l159 244h412l158 -244h-306zM1018 1462h381v-1462h-381v571h-498v-571h-381v1462h381v-567h498v567z" />
    <glyph glyph-name="hcircumflex" unicode="&#x125;" horiz-adv-x="1271" 
d="M289 1659l-56 -111h-305l160 244h412l157 -244h-305zM786 1100q379 0 379 -502v-598h-366v473v18q0 38 -0.5 59.5t-4.5 60t-13.5 61.5t-25.5 47.5t-43.5 36.5t-64.5 12q-90 0 -127 -85.5t-37 -266.5v-416h-368v1462h356v-501q135 139 315 139z" />
    <glyph glyph-name="Hbar" unicode="&#x126;" horiz-adv-x="1538" 
d="M1501 1243v-131h-102v-1112h-381v571h-498v-571h-381v1112h-102v131h102v219h381v-219h498v219h381v-219h102zM1018 895v217h-498v-217h498z" />
    <glyph glyph-name="hbar" unicode="&#x127;" horiz-adv-x="1271" 
d="M786 1100q379 0 379 -502v-598h-366v473v18q0 38 -0.5 59.5t-4.5 60t-13.5 61.5t-25.5 47.5t-43.5 36.5t-64.5 12q-90 0 -127 -85.5t-37 -266.5v-416h-368v1194h-103v115h103v153h356v-153h240v-115h-240v-233q135 139 315 139z" />
    <glyph glyph-name="Itilde" unicode="&#x128;" horiz-adv-x="659" 
d="M-4 1548q0 105 58 176.5t153 71.5q46 0 87.5 -18.5t72 -37t49.5 -18.5q11 0 18.5 3.5t11.5 7.5t7.5 16t4 18t3.5 25h203q0 -116 -54 -182t-147 -66q-42 0 -79 11.5t-58 25.5t-43.5 25.5t-40.5 11.5q-46 0 -52 -70h-194zM139 1462h381v-1462h-381v1462z" />
    <glyph glyph-name="itilde" unicode="&#x129;" horiz-adv-x="598" 
d="M-35 1204q0 109 58.5 185.5t152.5 76.5q46 0 87.5 -18t72 -36.5t49.5 -18.5q18 0 27 9.5t11.5 20t6.5 39.5h203q0 -123 -54 -192.5t-147 -69.5q-42 0 -79 11.5t-58 25.5t-43.5 25.5t-40.5 11.5q-25 0 -36.5 -17t-14.5 -53h-195zM115 0v1059h368v-1059h-368z" />
    <glyph glyph-name="Imacron" unicode="&#x12a;" horiz-adv-x="659" 
d="M-31 1737h721v-131h-721v131zM139 1462h381v-1462h-381v1462z" />
    <glyph glyph-name="imacron" unicode="&#x12b;" horiz-adv-x="598" 
d="M-78 1405h754v-141h-754v141zM115 0v1059h368v-1059h-368z" />
    <glyph glyph-name="Ibreve" unicode="&#x12c;" horiz-adv-x="659" 
d="M643 1792q-9 -113 -95.5 -183.5t-217.5 -70.5q-132 0 -218.5 70.5t-95.5 183.5h226q0 -33 23 -53.5t65 -20.5q40 0 63 20.5t25 53.5h225zM139 1462h381v-1462h-381v1462z" />
    <glyph glyph-name="ibreve" unicode="&#x12d;" horiz-adv-x="598" 
d="M305 1190q-133 0 -218.5 73.5t-94.5 198.5h225q0 -92 88 -92q85 0 88 92h225q-9 -125 -94.5 -198.5t-218.5 -73.5zM115 0v1059h368v-1059h-368z" />
    <glyph glyph-name="Iogonek" unicode="&#x12e;" horiz-adv-x="659" 
d="M520 0q-133 -46 -186 -89t-60 -87q-8 -48 21.5 -67t112.5 -19l-33 -182q-190 0 -282.5 43t-92.5 151q0 72 63.5 138t178.5 112h-103v1462h381v-1462z" />
    <glyph glyph-name="iogonek" unicode="&#x12f;" horiz-adv-x="598" 
d="M426 1466v-260h-254v260h254zM483 0q-129 -46 -176.5 -88.5t-54.5 -87.5q-8 -48 27 -72t116 -24l-28 -172q-184 0 -271.5 43t-87.5 151q0 74 59 139.5t171 110.5h-123v1059h368v-1059z" />
    <glyph glyph-name="Idotaccent" unicode="&#x130;" horiz-adv-x="659" 
d="M180 1792h299v-244h-299v244zM139 1462h381v-1462h-381v1462z" />
    <glyph glyph-name="dotlessi" unicode="&#x131;" horiz-adv-x="598" 
d="M115 0v1059h368v-1059h-368z" />
    <glyph glyph-name="IJ" unicode="&#x132;" horiz-adv-x="1304" 
d="M512 571v-84q0 -30 1.5 -51t9.5 -52t22.5 -50.5t43 -34t68.5 -14.5q39 0 66.5 12t41 26.5t20.5 40.5t7.5 40.5t0.5 39.5v7v1011h381v-964q0 -274 -124 -397.5t-393 -123.5q-244 0 -382.5 121t-135.5 330l2 143h371zM139 1462h381v-800h-381v800z" />
    <glyph glyph-name="ij" unicode="&#x133;" horiz-adv-x="1206" 
d="M492 1159h-377v303h377v-303zM1092 1159h-373v303h373v-303zM115 0v1059h368v-1059h-368zM1083 1059v-1020q0 -91 -9.5 -156t-35 -122t-69.5 -91t-114.5 -53.5t-168.5 -19.5h-133v268h29q90 0 116.5 40t26.5 161v993h358z" />
    <glyph glyph-name="Jcircumflex" unicode="&#x134;" horiz-adv-x="1214" 
d="M528 1548l160 244h412l157 -244h-305l-63 111l-55 -111h-306zM422 571v-84q0 -30 1.5 -51t9.5 -52t22.5 -50.5t43 -34t68.5 -14.5q33 0 57.5 7t38.5 22t22.5 28t12 35t4 33.5t0.5 32.5v8v1011h381v-964q0 -274 -124 -397.5t-392 -123.5q-244 0 -382.5 121t-135.5 330
l2 143h371z" />
    <glyph glyph-name="jcircumflex" unicode="&#x135;" horiz-adv-x="598" 
d="M-59 1204l225 258h270l230 -258h-269l-94 107l-98 -107h-264zM483 1059v-1020q0 -91 -9.5 -156t-35 -122t-69.5 -91t-114.5 -53.5t-168.5 -19.5h-133v268h29q90 0 116.5 40t26.5 161v993h358z" />
    <glyph glyph-name="uni0136" unicode="&#x136;" horiz-adv-x="1447" 
d="M1448 1462l-545 -616l541 -846h-432l-348 578l-144 -158v-420h-381v1462h381v-565l484 565h444zM662 -303v221h268v-199q0 -170 -244 -170v72q115 5 115 76h-139z" />
    <glyph glyph-name="uni0137" unicode="&#x137;" horiz-adv-x="1239" 
d="M1241 1059l-444 -469l434 -590h-420l-252 352l-76 -73v-279h-368v1462h368v-786l320 383h438zM487 -303v221h269v-199q0 -170 -244 -170v72q115 5 115 76h-140z" />
    <glyph glyph-name="kgreenlandic" unicode="&#x138;" horiz-adv-x="1239" 
d="M1241 1059l-444 -469l434 -590h-420l-252 352l-76 -73v-279h-368v1059h368v-383l320 383h438z" />
    <glyph glyph-name="Lacute" unicode="&#x139;" horiz-adv-x="1204" 
d="M737 1792l-241 -244h-320l201 244h360zM520 324h633v-324h-1014v1462h381v-1138z" />
    <glyph glyph-name="lacute" unicode="&#x13a;" horiz-adv-x="598" 
d="M301 1792h361l-242 -244h-320zM115 1462h368v-1462h-368v1462z" />
    <glyph glyph-name="uni013B" unicode="&#x13b;" horiz-adv-x="1204" 
d="M520 324h633v-324h-1014v1462h381v-1138zM520 -303v221h268v-199q0 -87 -60.5 -128.5t-182.5 -41.5v72q114 4 114 76h-139z" />
    <glyph glyph-name="uni013C" unicode="&#x13c;" horiz-adv-x="598" 
d="M115 1462h368v-1462h-368v1462zM164 -82h268v-199q0 -170 -244 -170v72q115 5 115 76h-139v221z" />
    <glyph glyph-name="Lcaron" unicode="&#x13d;" horiz-adv-x="1204" 
d="M520 324h633v-324h-1014v1462h381v-1138zM940 1462l-133 -436h-184l32 436h285z" />
    <glyph glyph-name="lcaron" unicode="&#x13e;" horiz-adv-x="598" 
d="M115 1462h368v-1462h-368v1462zM594 1462h264l-72 -334h-204z" />
    <glyph glyph-name="Ldot" unicode="&#x13f;" horiz-adv-x="1204" 
d="M520 324h633v-324h-1014v1462h381v-1138zM1100 999v-243h-299v243h299z" />
    <glyph glyph-name="ldot" unicode="&#x140;" horiz-adv-x="811" 
d="M115 1462h368v-1462h-368v1462zM836 594h-254v260h254v-260z" />
    <glyph glyph-name="Lslash" unicode="&#x141;" horiz-adv-x="1204" 
d="M520 324h633v-324h-1014v481l-129 -92v164l129 92v817h381v-549l314 222v-164l-314 -221v-426z" />
    <glyph glyph-name="lslash" unicode="&#x142;" horiz-adv-x="583" 
d="M612 911l-127 -73v-840h-368v627l-137 -80v145l137 80v690h368v-475l125 74z" />
    <glyph glyph-name="Nacute" unicode="&#x143;" horiz-adv-x="1597" 
d="M801 1792h360l-241 -244h-320zM139 1462h531l278 -657q118 -275 150 -363q-6 98 -6 478v542h366v-1462h-518l-205 494q-49 119 -134 298t-99 226q3 -44 4 -115.5t1 -130.5t-0.5 -151.5t-0.5 -133.5v-487h-367v1462z" />
    <glyph glyph-name="nacute" unicode="&#x144;" horiz-adv-x="1271" 
d="M643 1462h371l-281 -258h-272zM115 0v1059h356v-96q125 133 315 133q196 0 287.5 -126.5t91.5 -371.5v-598h-366v473v18q0 38 -0.5 59.5t-4.5 60t-13.5 61.5t-25.5 47.5t-43.5 36.5t-64.5 12q-90 0 -127 -85.5t-37 -266.5v-416h-368z" />
    <glyph glyph-name="uni0145" unicode="&#x145;" horiz-adv-x="1597" 
d="M139 1462h531l278 -657q118 -275 150 -363q-6 98 -6 478v542h366v-1462h-518l-205 494q-49 119 -134 298t-99 226q3 -44 4 -115.5t1 -130.5t-0.5 -151.5t-0.5 -133.5v-487h-367v1462zM664 -82h268v-199q0 -170 -244 -170v72q115 5 115 76h-139v221z" />
    <glyph glyph-name="uni0146" unicode="&#x146;" horiz-adv-x="1271" 
d="M115 0v1059h356v-96q125 133 315 133q196 0 287.5 -126.5t91.5 -371.5v-598h-366v473v18q0 38 -0.5 59.5t-4.5 60t-13.5 61.5t-25.5 47.5t-43.5 36.5t-64.5 12q-90 0 -127 -85.5t-37 -266.5v-416h-368zM500 -82h268v-199q0 -170 -244 -170v72q115 5 115 76h-139v221z" />
    <glyph glyph-name="Ncaron" unicode="&#x147;" horiz-adv-x="1597" 
d="M594 1548l-160 244h305l56 -111l63 111h305l-157 -244h-412zM139 1462h531l278 -657q118 -275 150 -363q-6 98 -6 478v542h366v-1462h-518l-205 494q-49 119 -134 298t-99 226q3 -44 4 -115.5t1 -130.5t-0.5 -151.5t-0.5 -133.5v-487h-367v1462z" />
    <glyph glyph-name="ncaron" unicode="&#x148;" horiz-adv-x="1271" 
d="M272 1462h265l98 -106l94 106h268l-229 -258h-270zM115 0v1059h356v-96q125 133 315 133q196 0 287.5 -126.5t91.5 -371.5v-598h-366v473v18q0 38 -0.5 59.5t-4.5 60t-13.5 61.5t-25.5 47.5t-43.5 36.5t-64.5 12q-90 0 -127 -85.5t-37 -266.5v-416h-368z" />
    <glyph glyph-name="napostrophe" unicode="&#x149;" horiz-adv-x="1271" 
d="M-80 1462h221v-211l-84 -178h-133l80 178h-84v211zM115 0v1059h356v-96q125 133 315 133q196 0 287.5 -126.5t91.5 -371.5v-598h-366v473v18q0 38 -0.5 59.5t-4.5 60t-13.5 61.5t-25.5 47.5t-43.5 36.5t-64.5 12q-90 0 -127 -85.5t-37 -266.5v-416h-368z" />
    <glyph glyph-name="Eng" unicode="&#x14a;" horiz-adv-x="1597" 
d="M1092 1462h366v-1462q0 -192 -142.5 -311t-371.5 -119v276q85 0 124.5 39.5t47.5 114.5h-176l-205 494q-49 119 -134 298t-99 226q3 -44 4 -115.5t1 -130.5t-0.5 -151.5t-0.5 -133.5v-487h-367v1462h531l278 -657q118 -275 150 -363q-6 98 -6 478v542z" />
    <glyph glyph-name="eng" unicode="&#x14b;" horiz-adv-x="1271" 
d="M115 0v1059h356v-96q125 133 315 133q196 0 287.5 -126.5t91.5 -371.5v-559q0 -114 -17 -190.5t-60.5 -136t-124.5 -87.5t-203 -28h-133v268h28q90 0 117 40.5t27 160.5v407v18q0 38 -0.5 59.5t-4.5 60t-13.5 61.5t-25.5 47.5t-43.5 36.5t-64.5 12q-90 0 -127 -85.5
t-37 -266.5v-416h-368z" />
    <glyph glyph-name="Omacron" unicode="&#x14c;" horiz-adv-x="1703" 
d="M492 1737h720v-131h-720v131zM852 1497q183 0 332.5 -62.5t245.5 -168.5t148 -243.5t52 -291.5t-52 -291.5t-148 -243.5t-245.5 -168.5t-332.5 -62.5t-332.5 62.5t-245.5 168.5t-148 243.5t-52 291.5t52 291.5t148 243.5t245.5 168.5t332.5 62.5zM852 289
q178 0 287.5 122.5t109.5 319.5t-109.5 320t-287.5 123q-179 0 -288 -122.5t-109 -320.5q0 -197 109 -319.5t288 -122.5z" />
    <glyph glyph-name="omacron" unicode="&#x14d;" horiz-adv-x="1267" 
d="M258 1405h754v-141h-754v141zM635 -39q-89 0 -173.5 22t-159.5 68.5t-131 112.5t-89 160.5t-33 205.5t33 205t89 159.5t131 111.5t159.5 68t173.5 22t172.5 -22t158.5 -68t131 -111.5t89 -159.5t33 -205q0 -138 -50 -249.5t-133.5 -179.5t-186 -104t-214.5 -36zM635 244
q106 0 168.5 81t62.5 205q0 122 -62.5 203.5t-168.5 81.5t-170 -81.5t-64 -203.5q0 -123 64 -204.5t170 -81.5z" />
    <glyph glyph-name="Obreve" unicode="&#x14e;" horiz-adv-x="1703" 
d="M1165 1792q-9 -113 -95.5 -183.5t-217.5 -70.5t-217.5 70.5t-95.5 183.5h225q0 -33 23 -53.5t65 -20.5q40 0 63 20.5t25 53.5h225zM852 1497q183 0 332.5 -62.5t245.5 -168.5t148 -243.5t52 -291.5t-52 -291.5t-148 -243.5t-245.5 -168.5t-332.5 -62.5t-332.5 62.5
t-245.5 168.5t-148 243.5t-52 291.5t52 291.5t148 243.5t245.5 168.5t332.5 62.5zM852 289q178 0 287.5 122.5t109.5 319.5t-109.5 320t-287.5 123q-179 0 -288 -122.5t-109 -320.5q0 -197 109 -319.5t288 -122.5z" />
    <glyph glyph-name="obreve" unicode="&#x14f;" horiz-adv-x="1267" 
d="M641 1190q-133 0 -218.5 73.5t-94.5 198.5h225q0 -92 88 -92q85 0 88 92h225q-9 -125 -94.5 -198.5t-218.5 -73.5zM635 -39q-89 0 -173.5 22t-159.5 68.5t-131 112.5t-89 160.5t-33 205.5t33 205t89 159.5t131 111.5t159.5 68t173.5 22t172.5 -22t158.5 -68t131 -111.5
t89 -159.5t33 -205q0 -138 -50 -249.5t-133.5 -179.5t-186 -104t-214.5 -36zM635 244q106 0 168.5 81t62.5 205q0 122 -62.5 203.5t-168.5 81.5t-170 -81.5t-64 -203.5q0 -123 64 -204.5t170 -81.5z" />
    <glyph glyph-name="Ohungarumlaut" unicode="&#x150;" horiz-adv-x="1703" 
d="M686 1792h293l-221 -244h-230zM1026 1792h293l-221 -244h-230zM852 1497q183 0 332.5 -62.5t245.5 -168.5t148 -243.5t52 -291.5t-52 -291.5t-148 -243.5t-245.5 -168.5t-332.5 -62.5t-332.5 62.5t-245.5 168.5t-148 243.5t-52 291.5t52 291.5t148 243.5t245.5 168.5
t332.5 62.5zM852 289q178 0 287.5 122.5t109.5 319.5t-109.5 320t-287.5 123q-179 0 -288 -122.5t-109 -320.5q0 -197 109 -319.5t288 -122.5z" />
    <glyph glyph-name="ohungarumlaut" unicode="&#x151;" horiz-adv-x="1267" 
d="M444 1462h293l-221 -258h-229zM784 1462h293l-221 -258h-229zM635 -39q-89 0 -173.5 22t-159.5 68.5t-131 112.5t-89 160.5t-33 205.5t33 205t89 159.5t131 111.5t159.5 68t173.5 22t172.5 -22t158.5 -68t131 -111.5t89 -159.5t33 -205q0 -138 -50 -249.5t-133.5 -179.5
t-186 -104t-214.5 -36zM635 244q106 0 168.5 81t62.5 205q0 122 -62.5 203.5t-168.5 81.5t-170 -81.5t-64 -203.5q0 -123 64 -204.5t170 -81.5z" />
    <glyph glyph-name="OE" unicode="&#x152;" horiz-adv-x="2318" 
d="M74 731q0 154 53.5 291.5t151.5 243.5t250.5 168.5t338.5 62.5q227 0 383 -106v71h971v-323h-590v-250h547v-314h-547v-251h596v-324h-977v72q-157 -107 -383 -107q-186 0 -338.5 62.5t-250.5 168.5t-151.5 243.5t-53.5 291.5zM455 731q0 -197 114 -319.5t299 -122.5
q184 0 299 122.5t115 319.5q0 193 -117 318t-297 125q-185 0 -299 -123t-114 -320z" />
    <glyph glyph-name="oe" unicode="&#x153;" horiz-adv-x="1921" 
d="M1335 1081q250 0 389.5 -151t139.5 -426v-2v-8.5t-0.5 -13t-1.5 -15t-2 -16.5h-721q6 -99 58 -153t142 -54q53 0 81 17t61 58h370q-53 -157 -184.5 -249.5t-341.5 -92.5q-233 0 -352 131q-133 -133 -352 -133q-112 0 -213.5 35.5t-182 103t-128.5 176t-48 242.5t48 241.5
t128.5 174t182 102t213.5 35.5q225 0 358 -139q125 137 356 137zM1145 655h366q-12 87 -58 133t-122 46q-81 0 -130 -45.5t-56 -133.5zM621 238q86 0 141 69t55 223t-56.5 221.5t-139.5 67.5q-38 0 -71.5 -14.5t-63 -46t-47 -90t-17.5 -138.5q0 -153 57 -222.5t142 -69.5z
M1864 504z" />
    <glyph glyph-name="Racute" unicode="&#x154;" horiz-adv-x="1409" 
d="M684 1792h360l-241 -244h-320zM139 2v1460h609q256 0 410.5 -110t154.5 -305q0 -169 -83.5 -270t-201.5 -124q96 -24 149.5 -97t92.5 -191q14 -42 37 -123t42.5 -140t39.5 -98v-4h-377q-15 25 -32 65t-26.5 66.5t-32 95.5t-30.5 92q-35 102 -103 148.5t-200 46.5h-68
v-512h-381zM520 817h203q98 0 159.5 45t61.5 121q0 86 -63 132t-154 46h-207v-344z" />
    <glyph glyph-name="racute" unicode="&#x155;" horiz-adv-x="813" 
d="M805 1462l-281 -258h-272l182 258h371zM473 942q58 63 145 100.5t179 40.5v-346q-165 0 -207 -22q-25 -13 -40.5 -26.5t-33 -42t-25.5 -79t-8 -123.5v-444h-368v1059h356v-117h2z" />
    <glyph glyph-name="uni0156" unicode="&#x156;" horiz-adv-x="1409" 
d="M139 2v1460h609q256 0 410.5 -110t154.5 -305q0 -169 -83.5 -270t-201.5 -124q96 -24 149.5 -97t92.5 -191q14 -42 37 -123t42.5 -140t39.5 -98v-4h-377q-15 25 -32 65t-26.5 66.5t-32 95.5t-30.5 92q-35 102 -103 148.5t-200 46.5h-68v-512h-381zM520 817h203
q98 0 159.5 45t61.5 121q0 86 -63 132t-154 46h-207v-344zM567 -82h269v-199q0 -170 -244 -170v72q115 5 115 76h-140v221z" />
    <glyph glyph-name="uni0157" unicode="&#x157;" horiz-adv-x="813" 
d="M473 942q58 63 145 100.5t179 40.5v-346q-165 0 -207 -22q-25 -13 -40.5 -26.5t-33 -42t-25.5 -79t-8 -123.5v-444h-368v1059h356v-117h2zM168 -303v221h268v-199q0 -87 -60.5 -128.5t-182.5 -41.5v72q114 4 114 76h-139z" />
    <glyph glyph-name="Rcaron" unicode="&#x158;" horiz-adv-x="1409" 
d="M477 1548l-160 244h306l55 -111l63 111h306l-158 -244h-412zM139 2v1460h609q256 0 410.5 -110t154.5 -305q0 -169 -83.5 -270t-201.5 -124q96 -24 149.5 -97t92.5 -191q14 -42 37 -123t42.5 -140t39.5 -98v-4h-377q-15 25 -32 65t-26.5 66.5t-32 95.5t-30.5 92
q-35 102 -103 148.5t-200 46.5h-68v-512h-381zM520 817h203q98 0 159.5 45t61.5 121q0 86 -63 132t-154 46h-207v-344z" />
    <glyph glyph-name="rcaron" unicode="&#x159;" horiz-adv-x="813" 
d="M559 1204h-270l-226 258h265l98 -106l94 106h268zM473 942q58 63 145 100.5t179 40.5v-346q-165 0 -207 -22q-25 -13 -40.5 -26.5t-33 -42t-25.5 -79t-8 -123.5v-444h-368v1059h356v-117h2z" />
    <glyph glyph-name="Sacute" unicode="&#x15a;" horiz-adv-x="1310" 
d="M692 1792h361l-242 -244h-319zM446 496q10 -95 78.5 -156t163.5 -61q103 0 147 33.5t44 99.5q0 32 -13 58t-33 44.5t-59.5 37t-77.5 31.5t-102 33q-59 18 -103 33.5t-96.5 40t-90 49.5t-75 62t-60 78.5t-36.5 97.5t-14 121q1 80 34 147t88 113t128 78t152.5 46.5
t162.5 14.5q90 0 167.5 -15.5t147.5 -51.5t122 -91t87.5 -139t48.5 -192h-380q-20 94 -70 136t-137 42q-79 0 -126.5 -30t-47.5 -87q0 -62 61.5 -103.5t204.5 -84.5q50 -15 84.5 -26.5t79.5 -29t76.5 -33.5t68.5 -39t61.5 -47.5t49 -57t39 -68.5t23.5 -81t9 -96
q0 -87 -31.5 -160t-85.5 -123.5t-126.5 -86t-153.5 -52t-168 -16.5q-123 0 -228.5 32.5t-190.5 96.5t-142.5 166.5t-77.5 235.5h397z" />
    <glyph glyph-name="sacute" unicode="&#x15b;" horiz-adv-x="1056" 
d="M535 1462h370l-280 -258h-273zM649 748q-28 106 -131 106q-52 0 -80 -23t-28 -55q0 -40 35.5 -64.5t144.5 -54.5q24 -7 73 -20.5t74 -20.5q149 -41 210 -117t61 -196q0 -68 -27.5 -127.5t-82.5 -109t-148.5 -78.5t-214.5 -29q-424 0 -486 377h354q8 -56 41.5 -90.5
t87.5 -34.5q62 0 90.5 24.5t28.5 57.5q0 22 -8.5 40t-18.5 28.5t-31 20.5t-31 13.5t-34 10.5l-163 47q-148 43 -219.5 121.5t-71.5 201.5q0 138 116 231t326 93q208 0 324 -92t143 -260h-334z" />
    <glyph glyph-name="Scircumflex" unicode="&#x15c;" horiz-adv-x="1310" 
d="M326 1548l159 244h412l158 -244h-305l-64 111l-55 -111h-305zM446 496q10 -95 78.5 -156t163.5 -61q103 0 147 33.5t44 99.5q0 32 -13 58t-33 44.5t-59.5 37t-77.5 31.5t-102 33q-59 18 -103 33.5t-96.5 40t-90 49.5t-75 62t-60 78.5t-36.5 97.5t-14 121q1 80 34 147
t88 113t128 78t152.5 46.5t162.5 14.5q90 0 167.5 -15.5t147.5 -51.5t122 -91t87.5 -139t48.5 -192h-380q-20 94 -70 136t-137 42q-79 0 -126.5 -30t-47.5 -87q0 -62 61.5 -103.5t204.5 -84.5q50 -15 84.5 -26.5t79.5 -29t76.5 -33.5t68.5 -39t61.5 -47.5t49 -57t39 -68.5
t23.5 -81t9 -96q0 -87 -31.5 -160t-85.5 -123.5t-126.5 -86t-153.5 -52t-168 -16.5q-123 0 -228.5 32.5t-190.5 96.5t-142.5 166.5t-77.5 235.5h397z" />
    <glyph glyph-name="scircumflex" unicode="&#x15d;" horiz-adv-x="1056" 
d="M164 1204l225 258h270l230 -258h-268l-95 107l-98 -107h-264zM649 748q-28 106 -131 106q-52 0 -80 -23t-28 -55q0 -40 35.5 -64.5t144.5 -54.5q24 -7 73 -20.5t74 -20.5q149 -41 210 -117t61 -196q0 -68 -27.5 -127.5t-82.5 -109t-148.5 -78.5t-214.5 -29
q-424 0 -486 377h354q8 -56 41.5 -90.5t87.5 -34.5q62 0 90.5 24.5t28.5 57.5q0 22 -8.5 40t-18.5 28.5t-31 20.5t-31 13.5t-34 10.5l-163 47q-148 43 -219.5 121.5t-71.5 201.5q0 138 116 231t326 93q208 0 324 -92t143 -260h-334z" />
    <glyph glyph-name="Scedilla" unicode="&#x15e;" horiz-adv-x="1310" 
d="M762 881q50 -15 84.5 -26.5t79.5 -29t76.5 -33.5t68.5 -39t61.5 -47.5t49 -57t39 -68.5t23.5 -81t9 -96q0 -85 -29.5 -156.5t-81 -121.5t-120.5 -86t-147 -54t-162 -20l-88 -74l2 -2q25 5 53 5q104 -3 161.5 -42t57.5 -110q0 -49 -27.5 -87t-71 -59t-88.5 -31.5
t-87 -10.5q-93 0 -183 22l25 139q53 -18 108 -18q38 0 57 14t19 33q0 20 -15.5 31.5t-41.5 11.5q-22 0 -49 -10l-84 94l92 104q-202 34 -336 165.5t-168 355.5h397q10 -95 78.5 -156t163.5 -61q103 0 147 33.5t44 99.5q0 32 -13 58t-33 44.5t-59.5 37t-77.5 31.5t-102 33
q-59 18 -103 33.5t-96.5 40t-90 49.5t-75 62t-60 78.5t-36.5 97.5t-14 121q1 80 34 147t88 113t128 78t152.5 46.5t162.5 14.5q90 0 167.5 -15.5t147.5 -51.5t122 -91t87.5 -139t48.5 -192h-380q-20 94 -70 136t-137 42q-79 0 -126.5 -30t-47.5 -87q0 -62 61.5 -103.5
t204.5 -84.5z" />
    <glyph glyph-name="scedilla" unicode="&#x15f;" horiz-adv-x="1056" 
d="M1008 303q0 -64 -25 -121.5t-75 -106t-134 -79t-194 -35.5l-82 -70l2 -2q25 5 53 5q104 -3 161.5 -42t57.5 -110q0 -49 -27.5 -87t-71 -59t-88.5 -31.5t-87 -10.5q-93 0 -183 22l25 139q52 -18 109 -18q38 0 56.5 13.5t18.5 33.5t-15.5 31.5t-41.5 11.5q-22 0 -49 -10
l-84 94l84 96q-317 48 -369 369h354q8 -56 41.5 -90.5t87.5 -34.5q62 0 90.5 24.5t28.5 57.5q0 22 -8.5 40t-18.5 28.5t-31 20.5t-31 13.5t-34 10.5l-163 47q-148 43 -219.5 121.5t-71.5 201.5q0 138 116 231t326 93q208 0 324 -92t143 -260h-334q-28 106 -131 106
q-52 0 -80 -23t-28 -55q0 -40 35.5 -64.5t144.5 -54.5q24 -7 73 -20.5t74 -20.5q149 -41 210 -117t61 -196z" />
    <glyph glyph-name="Scaron" unicode="&#x160;" horiz-adv-x="1310" 
d="M485 1548l-159 244h305l55 -111l64 111h305l-158 -244h-412zM446 496q10 -95 78.5 -156t163.5 -61q103 0 147 33.5t44 99.5q0 32 -13 58t-33 44.5t-59.5 37t-77.5 31.5t-102 33q-59 18 -103 33.5t-96.5 40t-90 49.5t-75 62t-60 78.5t-36.5 97.5t-14 121q1 80 34 147
t88 113t128 78t152.5 46.5t162.5 14.5q90 0 167.5 -15.5t147.5 -51.5t122 -91t87.5 -139t48.5 -192h-380q-20 94 -70 136t-137 42q-79 0 -126.5 -30t-47.5 -87q0 -62 61.5 -103.5t204.5 -84.5q50 -15 84.5 -26.5t79.5 -29t76.5 -33.5t68.5 -39t61.5 -47.5t49 -57t39 -68.5
t23.5 -81t9 -96q0 -87 -31.5 -160t-85.5 -123.5t-126.5 -86t-153.5 -52t-168 -16.5q-123 0 -228.5 32.5t-190.5 96.5t-142.5 166.5t-77.5 235.5h397z" />
    <glyph glyph-name="scaron" unicode="&#x161;" horiz-adv-x="1056" 
d="M164 1462h264l98 -106l95 106h268l-230 -258h-270zM649 748q-28 106 -131 106q-52 0 -80 -23t-28 -55q0 -40 35.5 -64.5t144.5 -54.5q24 -7 73 -20.5t74 -20.5q149 -41 210 -117t61 -196q0 -68 -27.5 -127.5t-82.5 -109t-148.5 -78.5t-214.5 -29q-424 0 -486 377h354
q8 -56 41.5 -90.5t87.5 -34.5q62 0 90.5 24.5t28.5 57.5q0 22 -8.5 40t-18.5 28.5t-31 20.5t-31 13.5t-34 10.5l-163 47q-148 43 -219.5 121.5t-71.5 201.5q0 138 116 231t326 93q208 0 324 -92t143 -260h-334z" />
    <glyph glyph-name="uni0162" unicode="&#x162;" horiz-adv-x="1208" 
d="M1192 1462v-323h-397v-1139h-381v1139h-398v323h1176zM469 -303v221h268v-199q0 -87 -60.5 -128.5t-182.5 -41.5v72q114 4 114 76h-139z" />
    <glyph glyph-name="uni0163" unicode="&#x163;" horiz-adv-x="829" 
d="M555 793v-261q0 -129 5 -157q11 -69 65 -87q28 -9 69 -9h60v-287l-170 -4q-72 -2 -129.5 9.5t-98 32t-70 54.5t-47.5 72t-28.5 90t-14 102t-3.5 115v330h-185v266h185v317h362v-317h221v-266h-221zM354 -303v221h269v-199q0 -170 -244 -170v72q115 5 115 76h-140z" />
    <glyph glyph-name="Tcaron" unicode="&#x164;" horiz-adv-x="1208" 
d="M811 1548h-412l-159 244h305l55 -111l64 111h305zM1192 1462v-323h-397v-1139h-381v1139h-398v323h1176z" />
    <glyph glyph-name="tcaron" unicode="&#x165;" horiz-adv-x="829" 
d="M668 1462h264l-72 -334h-205zM555 1376v-317h221v-266h-221v-261q0 -129 5 -157q11 -69 65 -87q28 -9 69 -9h60v-287l-170 -4q-72 -2 -129.5 9.5t-98 32t-70 54.5t-47.5 72t-28.5 90t-14 102t-3.5 115v330h-185v266h185v317h362z" />
    <glyph glyph-name="Tbar" unicode="&#x166;" horiz-adv-x="1208" 
d="M1192 1139h-397v-230h225v-233h-225v-676h-381v676h-226v233h226v230h-398v323h1176v-323z" />
    <glyph glyph-name="tbar" unicode="&#x167;" horiz-adv-x="829" 
d="M776 793h-221v-88h205v-191h-205v-17v-51t2 -42.5t5.5 -38.5t10 -29.5t16.5 -25.5t24.5 -16.5t34.5 -11.5t46 -3h60v-287l-170 -4q-72 -2 -129.5 9.5t-98 32t-70 54.5t-47.5 72t-28.5 90t-14 102t-3.5 115v51h-162v191h162v88h-185v266h185v317h362v-317h221v-266z" />
    <glyph glyph-name="Utilde" unicode="&#x168;" horiz-adv-x="1515" 
d="M424 1548q0 105 58 176.5t153 71.5q46 0 87.5 -18.5t72 -37t49.5 -18.5q11 0 18.5 3.5t11.5 7.5t7.5 16t4 18t3.5 25h203q0 -116 -54 -182t-147 -66q-42 0 -79 11.5t-58 25.5t-43.5 25.5t-40.5 11.5q-46 0 -52 -70h-194zM1384 657q0 -692 -610 -692q-175 0 -300.5 48
t-199.5 140.5t-108.5 216.5t-34.5 287v805h381v-805q0 -175 61.5 -268.5t200.5 -93.5q124 0 177 93t53 269v805h380v-805z" />
    <glyph glyph-name="utilde" unicode="&#x169;" horiz-adv-x="1271" 
d="M305 1204q0 109 58.5 185.5t152.5 76.5q46 0 87.5 -18t72 -36.5t49.5 -18.5q18 0 27 9.5t11.5 20t6.5 39.5h203q0 -123 -54 -192.5t-147 -69.5q-42 0 -79 11.5t-58 25.5t-43.5 25.5t-40.5 11.5q-25 0 -36.5 -17t-14.5 -53h-195zM106 461v598h367v-473v-18q0 -38 0.5 -59
t4.5 -58.5t13.5 -59.5t25.5 -45.5t43.5 -35t64.5 -11.5q90 0 126.5 82t36.5 262v416h369v-1059h-356v96q-111 -125 -316 -125q-197 0 -288 123.5t-91 366.5z" />
    <glyph glyph-name="Umacron" unicode="&#x16a;" horiz-adv-x="1515" 
d="M397 1737h721v-131h-721v131zM1384 657q0 -692 -610 -692q-175 0 -300.5 48t-199.5 140.5t-108.5 216.5t-34.5 287v805h381v-805q0 -175 61.5 -268.5t200.5 -93.5q124 0 177 93t53 269v805h380v-805z" />
    <glyph glyph-name="umacron" unicode="&#x16b;" horiz-adv-x="1271" 
d="M262 1405h754v-141h-754v141zM106 461v598h367v-473v-18q0 -38 0.5 -59t4.5 -58.5t13.5 -59.5t25.5 -45.5t43.5 -35t64.5 -11.5q90 0 126.5 82t36.5 262v416h369v-1059h-356v96q-111 -125 -316 -125q-197 0 -288 123.5t-91 366.5z" />
    <glyph glyph-name="Ubreve" unicode="&#x16c;" horiz-adv-x="1515" 
d="M1071 1792q-9 -113 -95.5 -183.5t-217.5 -70.5q-132 0 -218.5 70.5t-95.5 183.5h226q0 -33 23 -53.5t65 -20.5q40 0 63 20.5t25 53.5h225zM1384 657q0 -692 -610 -692q-175 0 -300.5 48t-199.5 140.5t-108.5 216.5t-34.5 287v805h381v-805q0 -175 61.5 -268.5
t200.5 -93.5q124 0 177 93t53 269v805h380v-805z" />
    <glyph glyph-name="ubreve" unicode="&#x16d;" horiz-adv-x="1271" 
d="M645 1190q-133 0 -218.5 73.5t-94.5 198.5h225q0 -92 88 -92q85 0 88 92h225q-9 -125 -94.5 -198.5t-218.5 -73.5zM106 461v598h367v-473v-18q0 -38 0.5 -59t4.5 -58.5t13.5 -59.5t25.5 -45.5t43.5 -35t64.5 -11.5q90 0 126.5 82t36.5 262v416h369v-1059h-356v96
q-111 -125 -316 -125q-197 0 -288 123.5t-91 366.5z" />
    <glyph glyph-name="Uring" unicode="&#x16e;" horiz-adv-x="1515" 
d="M522 1751q0 96 70 165t166 69t165.5 -69t69.5 -165q0 -95 -69.5 -163t-165.5 -68t-166 68t-70 163zM682 1749q0 -33 21.5 -54.5t54.5 -21.5q34 0 56 22t22 54q0 34 -22 56t-56 22t-55 -22t-21 -56zM1384 657q0 -692 -610 -692q-175 0 -300.5 48t-199.5 140.5
t-108.5 216.5t-34.5 287v805h381v-805q0 -175 61.5 -268.5t200.5 -93.5q124 0 177 93t53 269v805h380v-805z" />
    <glyph glyph-name="uring" unicode="&#x16f;" horiz-adv-x="1271" 
d="M408 1380q0 95 68.5 162.5t162.5 67.5t162.5 -67.5t68.5 -162.5t-68.5 -162t-162.5 -67t-162.5 67t-68.5 162zM559 1378q0 -35 23.5 -57.5t56.5 -22.5q35 0 57.5 22.5t22.5 57.5t-22.5 57.5t-57.5 22.5q-33 0 -56.5 -22.5t-23.5 -57.5zM106 461v598h367v-473v-18
q0 -38 0.5 -59t4.5 -58.5t13.5 -59.5t25.5 -45.5t43.5 -35t64.5 -11.5q90 0 126.5 82t36.5 262v416h369v-1059h-356v96q-111 -125 -316 -125q-197 0 -288 123.5t-91 366.5z" />
    <glyph glyph-name="Uhungarumlaut" unicode="&#x170;" horiz-adv-x="1515" 
d="M633 1792h293l-221 -244h-230zM973 1792h293l-222 -244h-229zM1384 657q0 -692 -610 -692q-175 0 -300.5 48t-199.5 140.5t-108.5 216.5t-34.5 287v805h381v-805q0 -175 61.5 -268.5t200.5 -93.5q124 0 177 93t53 269v805h380v-805z" />
    <glyph glyph-name="uhungarumlaut" unicode="&#x171;" horiz-adv-x="1271" 
d="M449 1462h292l-221 -258h-229zM788 1462h293l-221 -258h-229zM106 461v598h367v-473v-18q0 -38 0.5 -59t4.5 -58.5t13.5 -59.5t25.5 -45.5t43.5 -35t64.5 -11.5q90 0 126.5 82t36.5 262v416h369v-1059h-356v96q-111 -125 -316 -125q-197 0 -288 123.5t-91 366.5z" />
    <glyph glyph-name="Uogonek" unicode="&#x172;" horiz-adv-x="1515" 
d="M1004 1462h380v-805q0 -595 -450 -677q-161 -70 -172 -150q-8 -48 21 -67t110 -19l-33 -182q-185 0 -275.5 43t-90.5 151q0 60 42.5 115t120.5 100q-114 12 -203 50.5t-149.5 97.5t-99.5 142t-56.5 180.5t-17.5 215.5v805h381v-805q0 -175 61.5 -268.5t200.5 -93.5
q124 0 177 93t53 269v805z" />
    <glyph glyph-name="uogonek" unicode="&#x173;" horiz-adv-x="1271" 
d="M1157 0q-129 -46 -176.5 -88.5t-54.5 -87.5q-8 -48 27 -72t116 -24l-29 -172q-184 0 -271 43t-87 151q0 74 58.5 139.5t170.5 110.5h-110v96q-111 -125 -316 -125q-197 0 -288 123.5t-91 366.5v598h367v-473v-18q0 -38 0.5 -59t4.5 -58.5t13.5 -59.5t25.5 -45.5t43.5 -35
t64.5 -11.5q90 0 126.5 82t36.5 262v416h369v-1059z" />
    <glyph glyph-name="Wcircumflex" unicode="&#x174;" horiz-adv-x="1988" 
d="M631 1548l160 244h411l158 -244h-305l-64 111l-55 -111h-305zM4 1462h406l102 -862l25 -199h8l39 199l176 862h471l158 -862l36 -201h13l28 201l113 862h406l-173 -862l-124 -600h-510l-105 600l-78 483h-8l-86 -483l-115 -600h-510l-114 600z" />
    <glyph glyph-name="wcircumflex" unicode="&#x175;" horiz-adv-x="1759" 
d="M518 1204l225 258h271l229 -258h-268l-94 107l-99 -107h-264zM311 0l-305 1059h373l63 -287q16 -65 29 -129.5t20.5 -105t21 -122t22.5 -130.5h4q20 88 49.5 247.5t56.5 274.5l45 252h381l51 -264q19 -83 53.5 -264t49.5 -250h4q12 56 47.5 237t56.5 277l47 264h373
l-309 -1059h-436l-33 172q-80 316 -92 459h-13q-45 -257 -90 -453l-32 -178h-437z" />
    <glyph glyph-name="Ycircumflex" unicode="&#x176;" horiz-adv-x="1347" 
d="M309 1548l160 244h412l157 -244h-305l-63 111l-56 -111h-305zM14 1462h428q27 -64 79.5 -184.5t92 -213t70.5 -171.5q35 78 101.5 242.5t138.5 326.5h409l-473 -934v-528h-381v528z" />
    <glyph glyph-name="ycircumflex" unicode="&#x177;" horiz-adv-x="1128" 
d="M201 1204l225 258h270l230 -258h-269l-94 107l-98 -107h-264zM6 1059h385q30 -125 89.5 -330.5t88.5 -322.5h6q12 79 34.5 171t66.5 247t65 235h381q-222 -638 -217 -638q1 0 15 35l10 23q-8 -30 -244 -696q-71 -193 -278 -193h-275v269h111h8q22 0 33.5 1t28.5 6.5
t27 19t15 36.5l15 66q-60 176 -140 404.5t-130.5 378t-94.5 288.5z" />
    <glyph glyph-name="Ydieresis" unicode="&#x178;" horiz-adv-x="1347" 
d="M360 1792h254v-244h-254v244zM735 1792h252v-244h-252v244zM14 1462h428q27 -64 79.5 -184.5t92 -213t70.5 -171.5q35 78 101.5 242.5t138.5 326.5h409l-473 -934v-528h-381v528z" />
    <glyph glyph-name="Zacute" unicode="&#x179;" horiz-adv-x="1271" 
d="M999 1792l-241 -244h-320l201 244h360zM537 307h688v-307h-1141v293l627 860h-611v309h1106v-207z" />
    <glyph glyph-name="zacute" unicode="&#x17a;" horiz-adv-x="1077" 
d="M539 1462h370l-280 -258h-273zM61 274l488 523q-46 -4 -90 -4.5t-107.5 1t-101.5 1.5h-180v264h909v-281l-485 -516q36 1 146 4.5t185 3.5h191v-270h-955v274z" />
    <glyph glyph-name="Zdotaccent" unicode="&#x17b;" horiz-adv-x="1271" 
d="M786 1792v-244h-299v244h299zM537 307h688v-307h-1141v293l627 860h-611v309h1106v-207z" />
    <glyph glyph-name="zdotaccent" unicode="&#x17c;" horiz-adv-x="1077" 
d="M657 1206h-254v260h254v-260zM61 274l488 523q-46 -4 -90 -4.5t-107.5 1t-101.5 1.5h-180v264h909v-281l-485 -516q36 1 146 4.5t185 3.5h191v-270h-955v274z" />
    <glyph glyph-name="Zcaron" unicode="&#x17d;" horiz-adv-x="1271" 
d="M844 1548h-412l-160 244h306l55 -111l63 111h305zM537 307h688v-307h-1141v293l627 860h-611v309h1106v-207z" />
    <glyph glyph-name="zcaron" unicode="&#x17e;" horiz-adv-x="1077" 
d="M168 1462h264l98 -106l95 106h268l-229 -258h-271zM61 274l488 523q-46 -4 -90 -4.5t-107.5 1t-101.5 1.5h-180v264h909v-281l-485 -516q36 1 146 4.5t185 3.5h191v-270h-955v274z" />
    <glyph glyph-name="florin" unicode="&#x192;" horiz-adv-x="935" 
d="M725 1006l-8 -48h221l-41 -229h-221l-107 -608q-17 -95 -35.5 -159t-52.5 -126t-81.5 -98t-122 -58t-175.5 -22h-184l47 268h60q38 0 66.5 12.5t47 33t33 56.5t23 71.5t18.5 90.5l94 539h-203l41 229h203l10 62q20 114 50 190.5t84 136t139 87.5t207 28h139l-47 -264h-33
q-91 0 -120.5 -34.5t-51.5 -157.5z" />
    <glyph glyph-name="Aringacute" unicode="&#x1fa;" horiz-adv-x="1515" 
d="M758 1520q-96 0 -166 68t-70 163q0 65 37 125l2 2q12 21 31 37l168 205h360l-198 -201q71 -71 71 -168q0 -95 -69.5 -163t-165.5 -68zM758 1673q34 0 56 22t22 54q0 34 -22 56t-56 22t-55 -22t-21 -56q0 -33 21.5 -54.5t54.5 -21.5zM1100 0l-101 322h-491l-100 -322h-400
l514 1462h477l508 -1462h-407zM756 1108h-4l-152 -490h307z" />
    <glyph glyph-name="aringacute" unicode="&#x1fb;" horiz-adv-x="1175" 
d="M596 1151q-94 0 -162.5 67t-68.5 162q0 64 31.5 116.5t84.5 82.5l144 203h370l-247 -230q79 -66 79 -172q0 -95 -68.5 -162t-162.5 -67zM596 1298q35 0 57.5 22.5t22.5 57.5t-22.5 57.5t-57.5 22.5q-33 0 -56.5 -22.5t-23.5 -57.5t23.5 -57.5t56.5 -22.5zM1081 315
q0 -236 21 -315h-357q-8 28 -8 55v35h-2q-89 -123 -313 -123q-158 0 -263.5 85t-105.5 237q0 58 18.5 107t45 82.5t70.5 61.5t78 43.5t86.5 30t77 19.5t67.5 12q22 4 54 8.5t50 7.5t41 7.5t36 10t25.5 14t17.5 20.5t5 28q0 53 -42 79t-99 26q-59 0 -104 -28t-58 -91h-334
q27 165 161 269t337 104q80 0 149 -14t134 -49.5t111 -90.5t73.5 -142.5t27.5 -199.5v-289zM551 219q74 0 125.5 67.5t54.5 192.5q-72 -26 -160 -47q-87 -20 -118 -48t-31 -67q0 -98 129 -98z" />
    <glyph glyph-name="AEacute" unicode="&#x1fc;" horiz-adv-x="1990" 
d="M1407 1792h360l-241 -244h-320zM8 0l752 1462h1134v-307h-534v-252h491v-297h-491v-299h541v-307h-922v332h-399l-152 -332h-420zM709 600h270v555h-16z" />
    <glyph glyph-name="aeacute" unicode="&#x1fd;" horiz-adv-x="1861" 
d="M965 1462h370l-280 -258h-273zM53 289q0 45 11.5 85.5t28 70t46 56.5t53.5 44.5t63.5 34t63 25t64.5 18.5t55.5 13t48.5 9q23 4 53.5 9t48.5 8t39.5 7.5t33 10t23 13.5t16 20t4.5 28q0 53 -37.5 79t-92.5 26q-129 0 -153 -119h-334q27 166 157.5 269.5t332.5 103.5
q235 0 344 -142q137 140 354 140q246 0 387 -158.5t141 -435.5q0 -47 -2 -78h-729q15 -82 67 -131t130 -49q84 0 145 61h373q-57 -154 -190 -251t-332 -97q-263 0 -400 199q-65 -96 -167 -143.5t-261 -47.5q-172 0 -278.5 84t-106.5 238zM1073 641h383q-31 190 -186 190
q-82 0 -133.5 -51t-63.5 -139zM422 317q0 -98 117 -98q76 0 122.5 65.5t49.5 192.5v2q-48 -23 -148 -47q-141 -35 -141 -115z" />
    <glyph glyph-name="Oslashacute" unicode="&#x1fe;" horiz-adv-x="1703" 
d="M1214 1792l-241 -244h-320l201 244h360zM1421 1274q102 -105 155.5 -245.5t53.5 -297.5q0 -154 -52 -291.5t-148 -243.5t-245.5 -168.5t-332.5 -62.5q-263 0 -455 127l-137 -158l-123 103l137 158q-97 105 -148.5 243.5t-51.5 292.5t52 291.5t148 243.5t245.5 168.5
t332.5 62.5q260 0 448 -123l144 164l123 -96zM455 731q0 -148 63 -256l553 635q-95 64 -219 64q-179 0 -288 -122.5t-109 -320.5zM852 289q178 0 287.5 122.5t109.5 319.5q0 154 -69 264l-553 -639q95 -67 225 -67z" />
    <glyph glyph-name="oslashacute" unicode="&#x1ff;" horiz-adv-x="1267" 
d="M1014 1462l-281 -258h-272l182 258h371zM1092 901q127 -150 127 -371q0 -138 -50 -249.5t-133.5 -179.5t-186 -104t-214.5 -36q-192 0 -344 96l-94 -98l-107 92l94 99q-135 148 -135 380q0 111 33 205t89 159.5t131 111.5t159.5 68t173.5 22q203 0 350 -103l92 97
l101 -99zM401 530q0 -65 23 -129l346 367q-57 47 -135 47q-106 0 -170 -81.5t-64 -203.5zM635 244q106 0 168.5 81t62.5 205q0 59 -16 115l-344 -360q53 -41 129 -41z" />
    <glyph glyph-name="uni0218" unicode="&#x218;" horiz-adv-x="1310" 
d="M446 496q10 -95 78.5 -156t163.5 -61q103 0 147 33.5t44 99.5q0 32 -13 58t-33 44.5t-59.5 37t-77.5 31.5t-102 33q-59 18 -103 33.5t-96.5 40t-90 49.5t-75 62t-60 78.5t-36.5 97.5t-14 121q1 80 34 147t88 113t128 78t152.5 46.5t162.5 14.5q90 0 167.5 -15.5
t147.5 -51.5t122 -91t87.5 -139t48.5 -192h-380q-20 94 -70 136t-137 42q-79 0 -126.5 -30t-47.5 -87q0 -62 61.5 -103.5t204.5 -84.5q50 -15 84.5 -26.5t79.5 -29t76.5 -33.5t68.5 -39t61.5 -47.5t49 -57t39 -68.5t23.5 -81t9 -96q0 -87 -31.5 -160t-85.5 -123.5
t-126.5 -86t-153.5 -52t-168 -16.5q-123 0 -228.5 32.5t-190.5 96.5t-142.5 166.5t-77.5 235.5h397zM518 -82h268v-199q0 -87 -60.5 -128.5t-182.5 -41.5v72q114 4 114 76h-139v221z" />
    <glyph glyph-name="uni0219" unicode="&#x219;" horiz-adv-x="1056" 
d="M649 748q-28 106 -131 106q-52 0 -80 -23t-28 -55q0 -40 35.5 -64.5t144.5 -54.5q24 -7 73 -20.5t74 -20.5q149 -41 210 -117t61 -196q0 -68 -27.5 -127.5t-82.5 -109t-148.5 -78.5t-214.5 -29q-424 0 -486 377h354q8 -56 41.5 -90.5t87.5 -34.5q62 0 90.5 24.5
t28.5 57.5q0 22 -8.5 40t-18.5 28.5t-31 20.5t-31 13.5t-34 10.5l-163 47q-148 43 -219.5 121.5t-71.5 201.5q0 138 116 231t326 93q208 0 324 -92t143 -260h-334zM391 -82h268v-199q0 -87 -60.5 -128.5t-182.5 -41.5v72q114 4 114 76h-139v221z" />
    <glyph glyph-name="uni021A" unicode="&#x21a;" horiz-adv-x="1208" 
d="M1192 1462v-323h-397v-1139h-381v1139h-398v323h1176zM469 -303v221h268v-199q0 -87 -60.5 -128.5t-182.5 -41.5v72q114 4 114 76h-139z" />
    <glyph glyph-name="uni021B" unicode="&#x21b;" horiz-adv-x="829" 
d="M555 793v-261q0 -129 5 -157q11 -69 65 -87q28 -9 69 -9h60v-287l-170 -4q-72 -2 -129.5 9.5t-98 32t-70 54.5t-47.5 72t-28.5 90t-14 102t-3.5 115v330h-185v266h185v317h362v-317h221v-266h-221zM354 -303v221h269v-199q0 -170 -244 -170v72q115 5 115 76h-140z" />
    <glyph glyph-name="uni0237" unicode="&#x237;" horiz-adv-x="598" 
d="M483 1059v-1020q0 -91 -9.5 -156t-35 -122t-69.5 -91t-114.5 -53.5t-168.5 -19.5h-133v268h29q90 0 116.5 40t26.5 161v993h358z" />
    <glyph glyph-name="circumflex" unicode="&#x2c6;" horiz-adv-x="684" 
d="M-14 1204l225 258h270l230 -258h-269l-94 107l-98 -107h-264z" />
    <glyph glyph-name="caron" unicode="&#x2c7;" horiz-adv-x="684" 
d="M-14 1462h264l98 -106l94 106h269l-230 -258h-270z" />
    <glyph glyph-name="breve" unicode="&#x2d8;" horiz-adv-x="741" 
d="M379 1190q-133 0 -218.5 73.5t-94.5 198.5h225q0 -92 88 -92q85 0 88 92h225q-9 -125 -94.5 -198.5t-218.5 -73.5z" />
    <glyph glyph-name="dotaccent" unicode="&#x2d9;" horiz-adv-x="540" 
d="M397 1206h-254v260h254v-260z" />
    <glyph glyph-name="ring" unicode="&#x2da;" horiz-adv-x="565" 
d="M51 1380q0 95 69 162.5t163 67.5t162.5 -67.5t68.5 -162.5t-68.5 -162t-162.5 -67t-163 67t-69 162zM203 1378q0 -35 23.5 -57.5t56.5 -22.5q35 0 57 22.5t22 57.5t-22 57.5t-57 22.5q-33 0 -56.5 -22.5t-23.5 -57.5z" />
    <glyph glyph-name="ogonek" unicode="&#x2db;" horiz-adv-x="512" 
d="M498 0q-129 -46 -177 -88.5t-55 -87.5q-8 -48 27.5 -72t116.5 -24l-29 -172q-184 0 -271 43t-87 151q0 74 58.5 139.5t170.5 110.5h246z" />
    <glyph glyph-name="tilde" unicode="&#x2dc;" horiz-adv-x="1232" 
d="M272 1204q0 109 58.5 185.5t152.5 76.5q46 0 87.5 -18t72 -36.5t49.5 -18.5q18 0 27 9.5t11.5 20t6.5 39.5h203q0 -123 -54 -192.5t-147 -69.5q-42 0 -79 11.5t-58 25.5t-43.5 25.5t-40.5 11.5q-25 0 -36.5 -17t-14.5 -53h-195z" />
    <glyph glyph-name="hungarumlaut" unicode="&#x2dd;" horiz-adv-x="802" 
d="M211 1462h293l-221 -258h-230zM551 1462h293l-221 -258h-230z" />
    <glyph glyph-name="gravecomb" unicode="&#x300;" 
d="M-289 1462l183 -258h-273l-280 258h370z" />
    <glyph glyph-name="acutecomb" unicode="&#x301;" 
d="M-281 1462h371l-280 -258h-273z" />
    <glyph glyph-name="uni0302" unicode="&#x302;" 
d="M-698 1204l225 258h270l230 -258h-269l-94 107l-98 -107h-264z" />
    <glyph glyph-name="tildecomb" unicode="&#x303;" 
d="M-961 1204q0 109 58.5 185.5t152.5 76.5q46 0 87.5 -18t72 -36.5t49.5 -18.5q18 0 27 9.5t11.5 20t6.5 39.5h203q0 -123 -54 -192.5t-147 -69.5q-42 0 -79 11.5t-58 25.5t-43.5 25.5t-40.5 11.5q-25 0 -36.5 -17t-14.5 -53h-195z" />
    <glyph glyph-name="uni0304" unicode="&#x304;" 
d="M-782 1405h753v-141h-753v141z" />
    <glyph glyph-name="uni0306" unicode="&#x306;" 
d="M-362 1190q-133 0 -219 73.5t-95 198.5h225q0 -92 89 -92q85 0 88 92h225q-9 -125 -94.5 -198.5t-218.5 -73.5z" />
    <glyph glyph-name="uni0307" unicode="&#x307;" 
d="M-143 1206h-254v260h254v-260z" />
    <glyph glyph-name="uni0308" unicode="&#x308;" 
d="M-676 1462h281v-258h-281v258zM-268 1462h282v-258h-282v258z" />
    <glyph glyph-name="uni030A" unicode="&#x30a;" 
d="M-514 1380q0 95 68.5 162.5t162.5 67.5t163 -67.5t69 -162.5t-69 -162t-163 -67t-162.5 67t-68.5 162zM-362 1378q0 -35 23 -57.5t56 -22.5q35 0 57.5 22.5t22.5 57.5t-22.5 57.5t-57.5 22.5q-33 0 -56 -22.5t-23 -57.5z" />
    <glyph glyph-name="uni030B" unicode="&#x30b;" 
d="M-592 1462h293l-221 -258h-230zM-252 1462h293l-221 -258h-230z" />
    <glyph glyph-name="uni030C" unicode="&#x30c;" 
d="M-698 1462h264l98 -106l94 106h269l-230 -258h-270z" />
    <glyph glyph-name="uni0312" unicode="&#x312;" 
d="M-31 1225h-268v198q0 170 244 170v-71q-115 -5 -115 -76h139v-221z" />
    <glyph glyph-name="uni0326" unicode="&#x326;" 
d="M-299 -82h268v-199q0 -87 -60.5 -128.5t-182.5 -41.5v72q114 4 114 76h-139v221z" />
    <glyph glyph-name="uni0327" unicode="&#x327;" 
d="M-309 -446q-93 0 -183 22l25 139q52 -18 109 -18q38 0 56.5 13.5t18.5 33.5t-15.5 31.5t-41.5 11.5q-22 0 -49 -10l-84 94l137 156l172 -13l-145 -123l2 -2q25 5 53 5q104 -3 161.5 -42t57.5 -110q0 -49 -27.5 -87t-71 -59t-88.5 -31.5t-87 -10.5z" />
    <glyph glyph-name="uni0328" unicode="&#x328;" 
d="M-14 0q-129 -46 -177 -88.5t-55 -87.5q-8 -48 27.5 -72t116.5 -24l-29 -172q-184 0 -271 43t-87 151q0 74 58.5 139.5t170.5 110.5h246z" />
    <glyph glyph-name="uni0335" unicode="&#x335;" 
d="M55 1194h-698v115h698v-115z" />
    <glyph glyph-name="uni0338" unicode="&#x338;" 
d="M23 991l-981 -1032l-107 92l987 1039z" />
    <glyph glyph-name="uni0394" unicode="&#x394;" horiz-adv-x="1501" 
d="M45 0l612 1458h170l629 -1458h-1411zM494 291h503l-256 594z" />
    <glyph glyph-name="uni03A9" unicode="&#x3a9;" horiz-adv-x="1564" 
d="M78 0v254h295v102q-273 190 -273 510q0 183 88.5 325.5t245.5 221t357 78.5t357 -78.5t245 -221t88 -325.5q0 -320 -273 -510v-102h295v-254h-606v496q242 78 242 356q0 154 -98 247t-250 93t-250.5 -93t-98.5 -247q0 -278 242 -356v-496h-606z" />
    <glyph glyph-name="uni03BC" unicode="&#x3bc;" horiz-adv-x="1280" 
d="M115 -403v1462h366v-533q1 -37 3.5 -64.5t12 -60t25 -53.5t44 -35t67.5 -14q90 0 127 82t37 262v416h368v-1059h-356v96q-111 -125 -315 -125h-13v-374h-366z" />
    <glyph glyph-name="pi" unicode="&#x3c0;" horiz-adv-x="1406" 
d="M1145 768v-236q0 -144 7 -181q14 -71 69 -84q28 -7 69 -3l39 4v-266l-149 -14q-66 -5 -123.5 -2t-105.5 23.5t-83 55t-54 94.5t-19 142v467h-242v-768h-350v768h-176v256h1302v-256h-184z" />
    <glyph glyph-name="Wgrave" unicode="&#x1e80;" horiz-adv-x="1988" 
d="M973 1792l201 -244h-320l-242 244h361zM4 1462h406l102 -862l25 -199h8l39 199l176 862h471l158 -862l36 -201h13l28 201l113 862h406l-173 -862l-124 -600h-510l-105 600l-78 483h-8l-86 -483l-115 -600h-510l-114 600z" />
    <glyph glyph-name="wgrave" unicode="&#x1e81;" horiz-adv-x="1759" 
d="M872 1462l183 -258h-273l-280 258h370zM311 0l-305 1059h373l63 -287q16 -65 29 -129.5t20.5 -105t21 -122t22.5 -130.5h4q20 88 49.5 247.5t56.5 274.5l45 252h381l51 -264q19 -83 53.5 -264t49.5 -250h4q12 56 47.5 237t56.5 277l47 264h373l-309 -1059h-436l-33 172
q-80 316 -92 459h-13q-45 -257 -90 -453l-32 -178h-437z" />
    <glyph glyph-name="Wacute" unicode="&#x1e82;" horiz-adv-x="1988" 
d="M997 1792h361l-242 -244h-319zM4 1462h406l102 -862l25 -199h8l39 199l176 862h471l158 -862l36 -201h13l28 201l113 862h406l-173 -862l-124 -600h-510l-105 600l-78 483h-8l-86 -483l-115 -600h-510l-114 600z" />
    <glyph glyph-name="wacute" unicode="&#x1e83;" horiz-adv-x="1759" 
d="M889 1462h371l-281 -258h-272zM311 0l-305 1059h373l63 -287q16 -65 29 -129.5t20.5 -105t21 -122t22.5 -130.5h4q20 88 49.5 247.5t56.5 274.5l45 252h381l51 -264q19 -83 53.5 -264t49.5 -250h4q12 56 47.5 237t56.5 277l47 264h373l-309 -1059h-436l-33 172
q-80 316 -92 459h-13q-45 -257 -90 -453l-32 -178h-437z" />
    <glyph glyph-name="Wdieresis" unicode="&#x1e84;" horiz-adv-x="1988" 
d="M682 1792h254v-244h-254v244zM1057 1792h252v-244h-252v244zM4 1462h406l102 -862l25 -199h8l39 199l176 862h471l158 -862l36 -201h13l28 201l113 862h406l-173 -862l-124 -600h-510l-105 600l-78 483h-8l-86 -483l-115 -600h-510l-114 600z" />
    <glyph glyph-name="wdieresis" unicode="&#x1e85;" horiz-adv-x="1759" 
d="M535 1462h280v-258h-280v258zM942 1462h283v-258h-283v258zM311 0l-305 1059h373l63 -287q16 -65 29 -129.5t20.5 -105t21 -122t22.5 -130.5h4q20 88 49.5 247.5t56.5 274.5l45 252h381l51 -264q19 -83 53.5 -264t49.5 -250h4q12 56 47.5 237t56.5 277l47 264h373
l-309 -1059h-436l-33 172q-80 316 -92 459h-13q-45 -257 -90 -453l-32 -178h-437z" />
    <glyph glyph-name="uni1E9E" unicode="&#x1e9e;" horiz-adv-x="1406" 
d="M139 0v956q0 260 156 400.5t440 140.5q182 0 336 -50.5t250 -133.5l-315 -445q178 -45 250.5 -152t72.5 -278q0 -207 -134.5 -328.5t-363.5 -121.5q-73 0 -210 10l-3 301q37 -4 130 -4q95 0 155 54t60 140q0 87 -66 132t-190 45h-31v254l203 278q-75 21 -129 21
q-102 0 -167 -52t-65 -151v-1016h-379z" />
    <glyph glyph-name="Ygrave" unicode="&#x1ef2;" horiz-adv-x="1347" 
d="M651 1792l201 -244h-320l-241 244h360zM14 1462h428q27 -64 79.5 -184.5t92 -213t70.5 -171.5q35 78 101.5 242.5t138.5 326.5h409l-473 -934v-528h-381v528z" />
    <glyph glyph-name="ygrave" unicode="&#x1ef3;" horiz-adv-x="1128" 
d="M555 1462l182 -258h-272l-281 258h371zM6 1059h385q30 -125 89.5 -330.5t88.5 -322.5h6q12 79 34.5 171t66.5 247t65 235h381q-222 -638 -217 -638q1 0 15 35l10 23q-8 -30 -244 -696q-71 -193 -278 -193h-275v269h111h8q22 0 33.5 1t28.5 6.5t27 19t15 36.5l15 66
q-60 176 -140 404.5t-130.5 378t-94.5 288.5z" />
    <glyph glyph-name="uni2011" unicode="&#x2011;" horiz-adv-x="1097" 
d="M164 727h770v-303h-770v303z" />
    <glyph glyph-name="endash" unicode="&#x2013;" horiz-adv-x="1409" 
d="M164 731h1081v-307h-1081v307z" />
    <glyph glyph-name="emdash" unicode="&#x2014;" horiz-adv-x="2072" 
d="M164 737h1745v-307h-1745v307z" />
    <glyph glyph-name="quoteleft" unicode="&#x2018;" horiz-adv-x="565" 
d="M442 903h-319v303l121 256h192l-117 -256h123v-303z" />
    <glyph glyph-name="quoteright" unicode="&#x2019;" horiz-adv-x="565" 
d="M123 1462h319v-303l-120 -256h-193l117 256h-123v303z" />
    <glyph glyph-name="quotesinglbase" unicode="&#x201a;" horiz-adv-x="565" 
d="M123 303h319v-303l-120 -256h-193l117 256h-123v303z" />
    <glyph glyph-name="quotedblleft" unicode="&#x201c;" horiz-adv-x="980" 
d="M442 903h-319v303l121 256h192l-117 -256h123v-303zM858 903h-319v303l120 256h193l-117 -256h123v-303z" />
    <glyph glyph-name="quotedblright" unicode="&#x201d;" horiz-adv-x="980" 
d="M123 1462h319v-303l-120 -256h-193l117 256h-123v303zM539 1462h319v-303l-121 -256h-192l117 256h-123v303z" />
    <glyph glyph-name="quotedblbase" unicode="&#x201e;" horiz-adv-x="980" 
d="M123 303h319v-303l-120 -256h-193l117 256h-123v303zM539 303h319v-303l-121 -256h-192l117 256h-123v303z" />
    <glyph glyph-name="dagger" unicode="&#x2020;" horiz-adv-x="1218" 
d="M1161 1059v-318h-362v-1075h-375v1075h-367v318h367v403h375v-403h362z" />
    <glyph glyph-name="daggerdbl" unicode="&#x2021;" horiz-adv-x="1218" 
d="M1161 741h-362v-356h362v-315h-362v-404h-375v404h-367v315h367v356h-367v318h367v403h375v-403h362v-318z" />
    <glyph glyph-name="bullet" unicode="&#x2022;" horiz-adv-x="993" 
d="M498 932q158 0 267 -108.5t109 -266.5q0 -159 -109 -270t-267 -111t-268.5 111.5t-110.5 269.5t110 266.5t269 108.5z" />
    <glyph glyph-name="ellipsis" unicode="&#x2026;" horiz-adv-x="1851" 
d="M133 369h365v-369h-365v369zM743 369h365v-369h-365v369zM1354 369h364v-369h-364v369z" />
    <glyph glyph-name="perthousand" unicode="&#x2030;" horiz-adv-x="2981" 
d="M1491 1481l-563 -1497h-307l563 1497h307zM465 1477q131 0 225 -62t138 -161t44 -222q0 -92 -25.5 -172.5t-74.5 -143t-128 -98.5t-179 -36q-131 0 -225.5 63.5t-138.5 163.5t-44 223q0 91 26 171t75.5 141.5t128.5 97t178 35.5zM465 805q64 0 97.5 64.5t33.5 164.5
q0 98 -33.5 160.5t-97.5 62.5q-66 0 -104.5 -64t-38.5 -159q0 -97 39 -163t104 -66zM1640 860q99 0 178 -35.5t128.5 -97t75.5 -141t26 -170.5q0 -93 -25.5 -173.5t-74.5 -143t-128.5 -98.5t-179.5 -36q-131 0 -225 63t-138 163.5t-44 224.5q0 91 26 170.5t75 141t128 97
t178 35.5zM2517 860q132 0 226.5 -62t138 -160.5t43.5 -221.5q0 -93 -25.5 -173.5t-74.5 -143t-128.5 -98.5t-179.5 -36q-98 0 -177 36t-128.5 98.5t-76 143.5t-26.5 173q0 91 26.5 170.5t76 141t128.5 97t177 35.5zM1640 188q65 0 99.5 65t34.5 165q0 97 -34.5 159
t-99.5 62t-98 -61.5t-33 -159.5q0 -101 33.5 -165.5t97.5 -64.5zM2517 188q64 0 97.5 64.5t33.5 165.5q0 98 -33 159.5t-98 61.5t-98 -61.5t-33 -159.5q0 -101 33.5 -165.5t97.5 -64.5z" />
    <glyph glyph-name="guilsinglleft" unicode="&#x2039;" horiz-adv-x="700" 
d="M41 528l299 502h319l-274 -502l274 -499h-319z" />
    <glyph glyph-name="guilsinglright" unicode="&#x203a;" horiz-adv-x="700" 
d="M659 528l-299 -499h-319l274 499l-274 502h319z" />
    <glyph glyph-name="fraction" unicode="&#x2044;" horiz-adv-x="616" 
d="M743 1481l-563 -1497h-307l563 1497h307z" />
    <glyph glyph-name="Euro" unicode="&#x20ac;" horiz-adv-x="1525" 
d="M762 438q102 -151 319 -151q157 0 285 53v-334q-128 -43 -285 -43q-271 0 -459 130.5t-268 344.5h-317l96 230h172q-2 20 -2 61q0 33 2 49h-264l92 230h217q77 219 266.5 353t464.5 134q126 0 215 -27.5t172 -89.5l-127 -301q-46 45 -115 68.5t-145 23.5
q-241 0 -336 -161h564l-97 -230h-526q-2 -16 -2 -49q0 -41 2 -61h479l-98 -230h-305z" />
    <glyph glyph-name="uni2113" unicode="&#x2113;" horiz-adv-x="1052" 
d="M-68 387l271 209v520q0 105 63.5 192.5t158 134t193.5 46.5q108 0 197.5 -49t144 -141.5t54.5 -211.5q0 -49 -5 -91.5t-12.5 -77t-23.5 -68t-29.5 -57.5t-39.5 -52.5t-44.5 -46.5t-53.5 -45.5t-57.5 -44t-66.5 -48t-70 -50.5l-69 -51v-99q0 -47 21.5 -73.5t90.5 -26.5
q50 0 93.5 18t64.5 36t56 53l3.5 3.5l3 3l3.5 3.5l188 -240q-93 -90 -189.5 -128t-252.5 -38q-110 0 -215.5 39t-163.5 107q-28 54 -35 96l-98 -74zM543 1114v-258l22 23q76 76 105.5 121.5t29.5 91.5q0 114 -75 114q-39 0 -60.5 -25.5t-21.5 -66.5z" />
    <glyph glyph-name="trademark" unicode="&#x2122;" horiz-adv-x="999" 
d="M414 1364h-127v-309h-115v309h-127v98h369v-98zM920 1462v-407h-109v278h-2l-70 -278h-102l-70 280h-2v-280h-108v407h155l82 -293l72 293h154z" />
    <glyph glyph-name="uni2126" unicode="&#x2126;" horiz-adv-x="1581" 
d="M78 0v254h295v102q-273 190 -273 510q0 183 88.5 325.5t245.5 221t357 78.5t357 -78.5t245 -221t88 -325.5q0 -320 -273 -510v-102h295v-254h-606v496q242 78 242 356q0 154 -98 247t-250 93t-250.5 -93t-98.5 -247q0 -278 242 -356v-496h-606z" />
    <glyph glyph-name="estimated" unicode="&#x212e;" horiz-adv-x="1232" 
d="M350 530v-387q68 -57 129 -80.5t148 -23.5q128 0 223.5 59t171.5 187l72 -43q-95 -148 -201.5 -212.5t-265.5 -64.5q-118 0 -218 44t-167.5 120t-105.5 179.5t-38 221.5q0 158 64 286.5t186 204t279 75.5q235 0 381.5 -158t148.5 -408h-807zM905 604v326
q-61 55 -124 74.5t-156 19.5q-91 0 -154 -20.5t-121 -73.5v-326h555z" />
    <glyph glyph-name="uni2153" unicode="&#x2153;" horiz-adv-x="1916" 
d="M1010 1481h307l-563 -1497h-308zM532 584h-249v540h-238v140q184 0 266 198h221v-878zM1718 453q154 -46 154 -226q0 -100 -92.5 -176t-239.5 -76q-164 0 -255.5 64t-121.5 194l-6 27h242l4 -14q19 -68 125 -68q46 0 74 24t28 64q0 38 -26.5 60t-73.5 22q-78 0 -115 -4
v182h92q41 0 69 22.5t28 65.5q0 37 -27 58.5t-64 21.5q-74 0 -88 -67l-4 -21h-250q18 133 105.5 212t232.5 79q159 0 251.5 -67.5t92.5 -198.5q0 -74 -39 -117t-96 -61z" />
    <glyph glyph-name="uni2154" unicode="&#x2154;" horiz-adv-x="2031" 
d="M745 797v-213h-698q-3 65 1.5 106.5t16 76t43.5 66.5t69.5 60.5t109.5 75.5q10 7 29 19q54 35 75.5 50t46.5 35.5t32 36t12 35t5 49.5q0 34 -22 58t-59 24t-64.5 -26t-30.5 -91h-252q0 132 102 227t238 95q159 0 249.5 -79t90.5 -190q0 -101 -37 -170t-147 -151
q-25 -18 -51.5 -34.5t-58 -34t-44.5 -25.5h344zM1194 1481h307l-563 -1497h-307zM1833 453q154 -46 154 -226q0 -100 -92.5 -176t-239.5 -76q-164 0 -255.5 64t-121.5 194l-6 27h241l5 -14q19 -68 124 -68q46 0 74.5 24t28.5 64q0 38 -26.5 60t-73.5 22q-78 0 -115 -4v182
h92q41 0 68.5 22.5t27.5 65.5q0 37 -26.5 58.5t-63.5 21.5q-74 0 -88 -67l-4 -21h-250q18 133 105.5 212t232.5 79q159 0 251.5 -67.5t92.5 -198.5q0 -74 -39 -117t-96 -61z" />
    <glyph glyph-name="oneeighth" unicode="&#x215b;" horiz-adv-x="1863" 
d="M1014 1481h307l-563 -1497h-307zM532 584h-249v540h-238v140q184 0 266 198h221v-878zM1663 467q64 -20 109 -80t45 -141q0 -126 -81.5 -198.5t-252.5 -72.5q-175 0 -257.5 72t-82.5 199q1 81 45 140.5t108 80.5q-54 22 -87 69.5t-33 118.5q0 44 17 85.5t51.5 78.5
t95.5 59.5t141 22.5t141.5 -22.5t95 -59.5t50 -78.5t16.5 -85.5q0 -74 -30 -118t-91 -70zM1481 725q-40 0 -63 -21.5t-23 -60.5q0 -40 23 -62t63 -22q86 0 86 84q0 40 -22.5 61t-63.5 21zM1481 145q53 0 81.5 32.5t28.5 78.5q0 43 -29 78t-81 35q-53 0 -83 -34.5t-30 -78.5
t30 -77.5t83 -33.5z" />
    <glyph glyph-name="threeeighths" unicode="&#x215c;" horiz-adv-x="1980" 
d="M760 811q0 -100 -92.5 -176t-239.5 -76q-164 0 -255.5 64t-121.5 194l-6 27h242l4 -15q19 -67 125 -67q46 0 74 24t28 64q0 38 -26.5 60t-73.5 22q-78 0 -115 -4v182h92q41 0 69 22.5t28 65.5q0 37 -27 58.5t-64 21.5q-74 0 -88 -68l-4 -20h-250q18 133 105.5 212
t232.5 79q159 0 251.5 -68t92.5 -199q0 -74 -39 -117t-96 -61q154 -46 154 -225zM1139 1481h307l-563 -1497h-308zM1780 467q64 -20 108.5 -80t44.5 -141q0 -126 -81.5 -198.5t-252.5 -72.5q-175 0 -257 72t-82 199q1 81 45 140.5t108 80.5q-55 22 -88 69.5t-33 118.5
q0 44 17 85.5t51.5 78.5t95.5 59.5t141 22.5t141.5 -22.5t95.5 -59.5t50.5 -78.5t16.5 -85.5q0 -74 -30 -118t-91 -70zM1597 725q-40 0 -63 -21.5t-23 -60.5q0 -40 23 -62t63 -22q86 0 86 84q0 40 -22.5 61t-63.5 21zM1597 145q53 0 82 32.5t29 78.5q0 43 -29.5 78t-81.5 35
q-53 0 -82.5 -34.5t-29.5 -78.5t29.5 -77.5t82.5 -33.5z" />
    <glyph glyph-name="fiveeighths" unicode="&#x215d;" horiz-adv-x="1992" 
d="M1147 1481h307l-563 -1497h-307zM748 879q0 -138 -102.5 -229t-237.5 -91q-42 0 -80 5.5t-66.5 13.5t-55 23t-44 26t-35 32t-26.5 32.5t-20.5 35t-15 31t-12 30t-8.5 23.5l250 8q11 -14 20 -22t32.5 -16.5t55.5 -8.5q51 0 72 32.5t21 78.5q0 42 -22 70t-66 28
q-34 0 -57.5 -8t-33 -16t-28.5 -29l-234 12l72 526l557 -4v-205h-338l-16 -110q43 37 125 37q133 0 213 -85t80 -220zM1792 467q64 -20 109 -80t45 -141q0 -126 -81.5 -198.5t-252.5 -72.5q-175 0 -257.5 72t-82.5 199q1 81 45 140.5t108 80.5q-54 22 -87 69.5t-33 118.5
q0 44 17 85.5t51.5 78.5t95.5 59.5t141 22.5t141.5 -22.5t95 -59.5t50 -78.5t16.5 -85.5q0 -74 -30 -118t-91 -70zM1610 725q-40 0 -63 -21.5t-23 -60.5q0 -40 23 -62t63 -22q86 0 86 84q0 40 -22.5 61t-63.5 21zM1610 145q53 0 81.5 32.5t28.5 78.5q0 43 -29 78t-81 35
q-53 0 -83 -34.5t-30 -78.5t30 -77.5t83 -33.5z" />
    <glyph glyph-name="seveneighths" unicode="&#x215e;" horiz-adv-x="1804" 
d="M954 1481h308l-564 -1497h-307zM141 584q21 230 89.5 401t160.5 256h-346v221h668v-143q-133 -130 -221.5 -331t-100.5 -404h-250zM1604 467q64 -20 108.5 -80t44.5 -141q0 -126 -81.5 -198.5t-252.5 -72.5q-175 0 -257.5 72t-82.5 199q1 81 45.5 140t108.5 81
q-55 22 -88 69.5t-33 118.5q0 44 17 85.5t51.5 78.5t95.5 59.5t141 22.5t141.5 -22.5t95 -59.5t50 -78.5t16.5 -85.5q0 -74 -29.5 -118t-90.5 -70zM1421 725q-40 0 -63 -21.5t-23 -60.5q0 -40 23 -62t63 -22q86 0 86 84q0 40 -22.5 61t-63.5 21zM1421 145q53 0 82 32.5
t29 78.5q0 43 -29.5 78t-81.5 35q-53 0 -82.5 -34.5t-29.5 -78.5t29.5 -77.5t82.5 -33.5z" />
    <glyph glyph-name="arrowleft" unicode="&#x2190;" horiz-adv-x="1843" 
d="M57 735l736 738l237 -238l-321 -322l1044 -2v-358l-1040 2l319 -319l-237 -236z" />
    <glyph glyph-name="arrowup" unicode="&#x2191;" horiz-adv-x="1587" 
d="M57 811l738 735l735 -737l-236 -238l-323 322v-893h-359l2 891l-321 -318z" />
    <glyph glyph-name="arrowright" unicode="&#x2192;" horiz-adv-x="1843" 
d="M90 553v358l1045 2l-322 322l238 238l735 -738l-737 -735l-238 236l319 319z" />
    <glyph glyph-name="arrowdown" unicode="&#x2193;" horiz-adv-x="1587" 
d="M57 651l236 238l321 -318l-2 891h359v-893l323 322l236 -238l-735 -737z" />
    <glyph glyph-name="uni2196" unicode="&#x2196;" horiz-adv-x="1263" 
d="M915 424l-514 518l2 -164v-250h-292v934h933v-293h-249l-164 2l522 -514z" />
    <glyph glyph-name="uni2197" unicode="&#x2197;" horiz-adv-x="1263" 
d="M348 424l-237 233l522 514l-164 -2h-250v293h934v-934h-293v250l2 164z" />
    <glyph glyph-name="uni2198" unicode="&#x2198;" horiz-adv-x="1263" 
d="M219 0v293h250l164 -2l-522 514l237 233l514 -518l-2 164v250h293v-934h-934z" />
    <glyph glyph-name="uni2199" unicode="&#x2199;" horiz-adv-x="1263" 
d="M111 0v934h292v-250l-2 -164l514 518l238 -233l-522 -514l164 2h249v-293h-933z" />
    <glyph glyph-name="partialdiff" unicode="&#x2202;" horiz-adv-x="1275" 
d="M49 528q0 129 43.5 238t114 179t156.5 108.5t174 38.5q22 0 40.5 -0.5t34 -2t26.5 -2.5t22.5 -3.5t17.5 -4t15.5 -5t12.5 -4.5t12 -5.5l11 -5.5q-58 87 -194 207t-248 192l315 191q215 -157 348.5 -309.5t205 -338.5t71.5 -411q0 -128 -32 -233t-87 -176t-129.5 -120
t-157.5 -71.5t-174 -22.5q-89 0 -174.5 21.5t-162.5 67.5t-135 111t-92 158t-34 203zM414 528q0 -122 63.5 -202t169.5 -80q107 0 171.5 80.5t64.5 201.5q0 122 -65 203.5t-171 81.5t-169.5 -81.5t-63.5 -203.5z" />
    <glyph glyph-name="uni2206" unicode="&#x2206;" horiz-adv-x="1501" 
d="M45 0l612 1458h170l629 -1458h-1411zM494 291h503l-256 594z" />
    <glyph glyph-name="product" unicode="&#x220f;" horiz-adv-x="1568" 
d="M16 1178v284h1536v-284h-176v-1477h-364v1477h-455v-1477h-364v1477h-177z" />
    <glyph glyph-name="summation" unicode="&#x2211;" horiz-adv-x="1368" 
d="M78 -299v283l489 606l-461 590v282h1147v-291h-692l426 -581l-463 -598h754v-291h-1200z" />
    <glyph glyph-name="minus" unicode="&#x2212;" horiz-adv-x="1267" 
d="M78 727h1112v-303h-1112v303z" />
    <glyph glyph-name="uni2215" unicode="&#x2215;" horiz-adv-x="616" 
d="M743 1481l-563 -1497h-307l563 1497h307z" />
    <glyph glyph-name="uni2219" unicode="&#x2219;" horiz-adv-x="573" 
d="M287 768q54 0 92.5 -38.5t38.5 -92.5q0 -50 -39.5 -90.5t-89.5 -40.5q-54 0 -93.5 38.5t-39.5 92.5t38.5 92.5t92.5 38.5z" />
    <glyph glyph-name="radical" unicode="&#x221a;" horiz-adv-x="1425" 
d="M1020 1462h393l-477 -1460l-424 -2l-260 793h-242v266h531l184 -592z" />
    <glyph glyph-name="infinity" unicode="&#x221e;" horiz-adv-x="1595" 
d="M78 518q0 166 98.5 263.5t263.5 97.5q103 0 179.5 -35.5t185.5 -120.5q103 87 176 120.5t182 33.5q162 0 258.5 -98t96.5 -263q0 -67 -22 -129t-63 -112t-108.5 -80.5t-150.5 -30.5q-63 0 -116 12.5t-100 40t-78.5 52.5t-80.5 69q-86 -86 -172 -131t-197 -45
q-76 0 -137 20.5t-100.5 54.5t-66 80.5t-37.5 96.5t-11 104zM344 524q0 -41 38 -63.5t79 -22.5q17 0 32.5 3.5t34.5 14t29 17t36 24.5t36 25q-101 88 -168 88q-40 0 -78.5 -22.5t-38.5 -63.5zM1255 524q0 40 -38.5 62t-77.5 22q-34 0 -80 -22.5t-92 -63.5q111 -84 163 -84
q47 0 86 21.5t39 64.5z" />
    <glyph glyph-name="integral" unicode="&#x222b;" horiz-adv-x="935" 
d="M-82 -342l47 268h60q38 0 66.5 12.5t47 33t33 56.5t23 71.5t18.5 90.5l145 830q20 114 50 190.5t84 136t139 87.5t207 28h139l-47 -264h-33q-91 0 -120.5 -34.5t-51.5 -157.5l-156 -885q-17 -95 -35.5 -159t-52.5 -126t-81.5 -98t-122 -58t-175.5 -22h-184z" />
    <glyph glyph-name="approxequal" unicode="&#x2248;" horiz-adv-x="1320" 
d="M1208 999q0 -221 -69 -337.5t-228 -116.5q-60 0 -130 20t-121 43.5t-103 43.5t-80 20q-37 0 -53.5 -28t-17.5 -99h-295q0 220 72 337t233 117q80 0 174 -30t165 -60t95 -30q33 0 47.5 25.5t15.5 94.5h295zM1208 508q0 -221 -69 -338t-228 -117q-60 0 -130 20t-121 43.5
t-103 43.5t-80 20q-37 0 -53.5 -28t-17.5 -99h-295q0 220 72 337.5t233 117.5q63 0 136 -19t125.5 -41.5t102 -41.5t70.5 -19q33 0 47.5 26t15.5 95h295z" />
    <glyph glyph-name="notequal" unicode="&#x2260;" horiz-adv-x="1302" 
d="M1225 567h-394l-65 -112h459v-279h-619l-164 -282l-200 116l96 166h-260v279h420l65 112h-485v279h647l162 280l200 -116l-94 -164h232v-279z" />
    <glyph glyph-name="lessequal" unicode="&#x2264;" horiz-adv-x="1079" 
d="M78 719v268l923 412v-332l-548 -213l548 -211v-330zM78 0v279h923v-279h-923z" />
    <glyph glyph-name="greaterequal" unicode="&#x2265;" horiz-adv-x="1079" 
d="M1001 719l-923 -406v330l549 211l-549 213v332l923 -412v-268zM1001 0h-923v279h923v-279z" />
    <glyph glyph-name="lozenge" unicode="&#x25ca;" horiz-adv-x="1155" 
d="M684 1462l453 -733l-453 -729h-205l-461 729l461 733h205zM582 352l225 377l-225 381l-234 -381z" />
    <glyph glyph-name="fi" unicode="&#xfb01;" horiz-adv-x="1327" 
d="M657 1202q-83 0 -107 -27.5t-26 -115.5h185v-266h-185v-793h-368v793h-152v266h152q2 84 13 144t37.5 111.5t70.5 82.5t112.5 48t163.5 17h137v-260h-33zM836 1462h376v-303h-376v303zM836 0v1059h368v-1059h-368z" />
    <glyph glyph-name="fl" unicode="&#xfb02;" horiz-adv-x="1318" 
d="M657 1202q-83 0 -107 -27.5t-26 -115.5h185v-266h-185v-793h-368v793h-152v266h152q2 84 13 144t37.5 111.5t70.5 82.5t112.5 48t163.5 17h137v-260h-33zM836 1462h368v-1462h-368v1462z" />
    <glyph glyph-name="uniFEFF" unicode="&#xfeff;" 
 />
    <glyph glyph-name="NULL" 
 />
    <glyph glyph-name="i.loclTRK" horiz-adv-x="598" 
d="M426 1206h-254v260h254v-260zM115 0v1059h368v-1059h-368z" />
    <glyph glyph-name="zero.zero" horiz-adv-x="1384" 
d="M692 1483q135 0 240.5 -42t172 -111.5t109.5 -168t60.5 -204t17.5 -226.5q0 -122 -17.5 -228.5t-60.5 -207.5t-109.5 -173t-172 -115.5t-240.5 -43.5t-240.5 43.5t-172 116t-109.5 173.5t-60.5 207.5t-17.5 227.5t17.5 226.5t60.5 204t109.5 168t172 111.5t240.5 42z
M692 1186q-243 0 -243 -453q0 -140 24 -248l322 674q-49 27 -103 27zM692 260q125 0 184.5 129t59.5 344q0 169 -37 281l-336 -703q54 -51 129 -51z" />
    <glyph glyph-name="zero.lf" horiz-adv-x="1384" 
d="M692 1483q135 0 240.5 -42t172 -111.5t109.5 -168t60.5 -204t17.5 -226.5q0 -122 -17.5 -228.5t-60.5 -207.5t-109.5 -173t-172 -115.5t-240.5 -43.5t-240.5 43.5t-172 116t-109.5 173.5t-60.5 207.5t-17.5 227.5t17.5 226.5t60.5 204t109.5 168t172 111.5t240.5 42z
M692 260q125 0 184.5 129t59.5 344q0 212 -59 332.5t-185 120.5q-243 0 -243 -453q0 -104 13.5 -187.5t41.5 -149t76 -101t112 -35.5z" />
    <glyph glyph-name="one.lf" horiz-adv-x="915" 
d="M463 1462h313v-1462h-356v952h-383v205q97 0 173 26t144 95.5t109 183.5z" />
    <glyph glyph-name="two.lf" horiz-adv-x="1251" 
d="M563 311h627v-311h-1120q-2 85 4.5 148.5t28 119t48.5 97t79 88.5t105.5 86t141.5 96q29 19 75 49t65 43t52 35.5t45 33.5t33 30t28 32t18 32t13.5 38t5.5 42.5t3 51.5q0 72 -48 122t-128 50q-78 0 -135.5 -54.5t-57.5 -170.5h-356q0 109 47 206.5t123.5 165t175 107
t199.5 39.5q147 0 270.5 -59t194.5 -160.5t71 -220.5q0 -167 -74 -290t-249 -255q-62 -47 -158 -107t-127 -84z" />
    <glyph glyph-name="three.lf" horiz-adv-x="1243" 
d="M72 1026q22 211 160.5 336t369.5 125q245 0 388 -108.5t143 -313.5q0 -198 -201 -301q123 -49 182.5 -143t61.5 -215q1 -56 -18 -115.5t-61.5 -118.5t-102.5 -105t-149.5 -75t-195.5 -29q-265 0 -429 114t-181 324l-2 27h350l4 -27q10 -64 80 -103.5t154 -39.5
q82 0 143 45.5t61 134.5q0 30 -8 57t-27.5 54.5t-61 44t-101.5 16.5q-127 0 -170 -2v264q55 -2 141 -2q81 0 129.5 42.5t48.5 127.5q0 73 -50 114.5t-126 41.5q-149 0 -172 -135l-6 -35h-354z" />
    <glyph glyph-name="four.lf" horiz-adv-x="1277" 
d="M1212 612v-293h-186v-319h-356v319h-629v381l586 762h399v-850h186zM330 612h340v432h-23z" />
    <glyph glyph-name="five.lf" horiz-adv-x="1243" 
d="M700 989q226 0 362 -137t136 -365q0 -112 -44.5 -210.5t-119.5 -167t-176 -107.5t-211 -39q-91 0 -167.5 14.5t-129.5 37t-96.5 58.5t-70.5 69.5t-50 79t-35 78t-26 76.5q0 2 -0.5 3.5t-1.5 3.5l356 8q59 -125 215 -125q88 0 144.5 70.5t56.5 155.5q0 86 -57.5 148
t-139.5 62q-55 0 -98.5 -17t-65.5 -36t-53 -53l-334 16l117 856l879 -6v-293h-574l-37 -247h2q90 67 219 67z" />
    <glyph glyph-name="six.lf" horiz-adv-x="1345" 
d="M92 686q0 130 21.5 246t69.5 219t119 177.5t175.5 117.5t233.5 43q239 0 374 -110t156 -287h-356q-13 28 -28.5 48t-56.5 38t-100 18q-50 0 -88.5 -17.5t-63 -44.5t-42.5 -70t-27.5 -83.5t-17.5 -95.5q3 2 19 14t30.5 22t41.5 24.5t54 24t65 16.5t77 7q230 0 375 -133
t145 -338q0 -120 -38 -222t-109.5 -178t-182 -118.5t-248.5 -42.5q-292 0 -454 225q-144 201 -144 500zM473 479q0 -101 61.5 -160t157.5 -59q97 0 158 59t61 160t-62 162t-157 61q-100 0 -159.5 -69t-59.5 -154z" />
    <glyph glyph-name="seven.lf" horiz-adv-x="1132" 
d="M12 1462h1067v-221q-221 -218 -370.5 -560.5t-169.5 -680.5h-357q23 263 92.5 495.5t161.5 392.5t201 263h-625v311z" />
    <glyph glyph-name="eight.lf" horiz-adv-x="1288" 
d="M934 776q106 -30 184 -129.5t78 -236.5q0 -206 -139 -326.5t-408 -120.5q-276 0 -417.5 120.5t-139.5 326.5q1 136 80 235t186 131q-96 35 -152 116t-56 204q0 75 30 145t88.5 127.5t156.5 92t222 34.5t222 -34.5t156 -92.5t88 -127t30 -145q0 -236 -209 -320zM647 1233
q-82 0 -124 -45.5t-42 -114.5t42 -114.5t124 -45.5t122 44.5t40 115.5q0 70 -40.5 115t-121.5 45zM647 221q101 0 152 60t51 141q0 79 -51.5 141t-151.5 62q-71 0 -120 -32t-69 -76t-20 -95q0 -79 52.5 -140t156.5 -61z" />
    <glyph glyph-name="nine.lf" horiz-adv-x="1345" 
d="M78 932q0 120 37.5 221.5t109 177t182 118t248.5 42.5q241 0 402 -164q96 -99 146 -244.5t50 -316.5q0 -104 -15 -201t-45.5 -188t-81 -166t-117.5 -131.5t-160 -87.5t-203 -31q-125 0 -221 30t-157.5 85t-96.5 125t-47 157h356q25 -48 42 -65q43 -39 132 -39
q60 0 106 28.5t73 78t42 103.5t21 116q-2 -1 -21 -18t-41 -32t-55 -32.5t-78.5 -28t-95.5 -10.5q-228 0 -370 134t-142 339zM434 975q0 -102 62.5 -163.5t156.5 -61.5q99 0 156 66t57 159q0 99 -58.5 158t-154.5 59q-97 0 -158 -58t-61 -159z" />
    <glyph glyph-name="zero.tf" horiz-adv-x="1261" 
d="M662 1483q135 0 240.5 -42t172 -111.5t109.5 -168t60.5 -204t17.5 -226.5q0 -122 -17.5 -228.5t-60.5 -207.5t-109.5 -173t-172 -115.5t-240.5 -43.5t-240.5 43.5t-172.5 116t-110 173.5t-60.5 207.5t-17.5 227.5t17.5 226.5t60.5 204t110 168t172.5 111.5t240.5 42z
M662 260q64 0 112 35.5t76 101t41.5 149t13.5 187.5q0 453 -243 453q-126 0 -185 -120.5t-59 -332.5q0 -215 59.5 -344t184.5 -129z" />
    <glyph glyph-name="one.tf" horiz-adv-x="1261" 
d="M895 262h274v-262h-1065v262h435v701h-383v260q139 0 236.5 56.5t160.5 182.5h342v-1200z" />
    <glyph glyph-name="two.tf" horiz-adv-x="1273" 
d="M569 311h627v-311h-1120q-2 85 4.5 148.5t28 119t48.5 97t79 88.5t105.5 86t141.5 96q29 19 75 49t65 43t52 35.5t45 33.5t33 30t28 32t18 32t13.5 38t5.5 42.5t3 51.5q0 72 -48 122t-128 50q-78 0 -135 -54.5t-57 -170.5h-357q0 109 47 206.5t123.5 165t175 107
t199.5 39.5q147 0 270.5 -59t195 -160.5t71.5 -220.5q0 -167 -74.5 -290t-249.5 -255q-62 -47 -158 -107t-127 -84z" />
    <glyph glyph-name="three.tf" horiz-adv-x="1261" 
d="M53 1026q22 211 161 336t370 125q245 0 387.5 -108.5t142.5 -313.5q0 -198 -201 -301q123 -49 182.5 -143t61.5 -215q1 -56 -18 -115.5t-61 -118.5t-102 -105t-149.5 -75t-195.5 -29q-265 0 -429.5 114t-181.5 324l-2 27h351l4 -27q10 -64 79.5 -103.5t153.5 -39.5
q52 0 97 17.5t76.5 60t31.5 102.5q0 30 -8 57t-28 54.5t-61.5 44t-101.5 16.5q-127 0 -170 -2v264q55 -2 142 -2q81 0 129.5 42.5t48.5 127.5q0 73 -50 114.5t-126 41.5q-149 0 -172 -135l-6 -35h-355z" />
    <glyph glyph-name="four.tf" horiz-adv-x="1261" 
d="M1221 612v-293h-187v-319h-356v319h-629v381l586 762h399v-850h187zM338 612h340v432h-23z" />
    <glyph glyph-name="five.tf" horiz-adv-x="1261" 
d="M698 989q226 0 362 -137t136 -365q0 -112 -44.5 -210.5t-119.5 -167t-176 -107.5t-211 -39q-91 0 -167.5 14.5t-129.5 37t-96.5 58.5t-70.5 69.5t-50 79t-35 78t-26 76.5q0 2 -0.5 3.5t-1.5 3.5l356 8q59 -125 215 -125q88 0 144.5 70.5t56.5 155.5q0 86 -57.5 148
t-139.5 62q-55 0 -98.5 -17t-65.5 -36t-53 -53l-334 16l117 856l878 -6v-293h-573l-37 -247h2q90 67 219 67z" />
    <glyph glyph-name="six.tf" horiz-adv-x="1261" 
d="M84 686q0 130 21.5 246t69 219t118.5 177.5t175.5 117.5t233.5 43q240 0 375 -110t156 -287h-356q-13 28 -28.5 48t-56.5 38t-100 18q-50 0 -88.5 -17.5t-63 -44.5t-42.5 -70t-27.5 -83.5t-17.5 -95.5l23 17q22 18 42.5 29.5t54.5 27.5t76.5 25t89.5 9q230 0 375.5 -133
t145.5 -338q0 -120 -38 -222t-109.5 -178t-182 -118.5t-248.5 -42.5q-147 0 -262.5 59t-192.5 166q-143 199 -143 500zM465 479q0 -101 61.5 -160t157.5 -59q97 0 158 59t61 160t-62 162t-157 61q-100 0 -159.5 -69t-59.5 -154z" />
    <glyph glyph-name="seven.tf" horiz-adv-x="1261" 
d="M98 1462h1067v-221q-221 -218 -370.5 -560.5t-169.5 -680.5h-357q23 263 92.5 495.5t161.5 392.5t201 263h-625v311z" />
    <glyph glyph-name="eight.tf" horiz-adv-x="1261" 
d="M952 776q106 -30 184 -129.5t78 -236.5q0 -206 -138.5 -326.5t-407.5 -120.5q-276 0 -417.5 120.5t-139.5 326.5q1 136 80 235t186 131q-97 35 -153 116t-56 204q0 75 30.5 145t89 127.5t156.5 92t222 34.5q100 0 183 -23t140 -61.5t96.5 -90t57.5 -108t18 -116.5
q0 -236 -209 -320zM666 1233q-82 0 -124 -45.5t-42 -114.5t42 -114.5t124 -45.5t121.5 44.5t39.5 115.5q0 70 -40 115t-121 45zM666 221q101 0 151.5 60t50.5 141q0 79 -51 141t-151 62q-71 0 -120 -32t-69 -76t-20 -95q0 -79 52.5 -140t156.5 -61z" />
    <glyph glyph-name="nine.tf" horiz-adv-x="1261" 
d="M72 932q0 120 37.5 221.5t109 177t182 118t248.5 42.5q241 0 402 -164q96 -99 146 -244.5t50 -316.5q0 -104 -15 -201t-45.5 -188t-81 -166t-117.5 -131.5t-160 -87.5t-203 -31q-125 0 -221 30t-157.5 85t-97 125t-47.5 157h357q25 -48 42 -65q43 -39 132 -39
q49 0 88.5 19.5t65 51t44.5 75.5t29 87.5t14 92.5q-2 -1 -21 -18t-41 -32t-54.5 -32.5t-78 -28t-95.5 -10.5q-228 0 -370 134t-142 339zM428 975q0 -102 62.5 -163.5t156.5 -61.5q99 0 156 66t57 159q0 99 -58.5 158t-154.5 59q-97 0 -158 -58t-61 -159z" />
    <glyph glyph-name="zero.subs" horiz-adv-x="845" 
d="M422 -244q-86 0 -152.5 26.5t-108 70t-68.5 104.5t-37.5 125.5t-10.5 138.5t10.5 137t37.5 122.5t68.5 101.5t108 67t152.5 25t153 -25t109 -67t69 -101.5t37.5 -122.5t10.5 -137t-10.5 -138.5t-37.5 -125.5t-69 -104.5t-109 -70t-153 -26.5zM422 -35q127 0 127 258
q0 122 -30 183t-97 61t-96 -60.5t-29 -183.5q0 -258 125 -258z" />
    <glyph glyph-name="one.subs" horiz-adv-x="577" 
d="M311 659h221v-878h-249v541h-238v139q184 0 266 198z" />
    <glyph glyph-name="two.subs" horiz-adv-x="796" 
d="M401 -6h344v-213h-698q-3 65 1.5 106.5t16 76t43.5 66.5t69.5 60.5t109.5 75.5q10 7 29 19q54 35 75.5 50t46.5 35.5t32 36t12 35t5 49.5q0 34 -22 58t-59 24t-64.5 -26t-30.5 -91h-252q0 132 102 227t238 95q159 0 249.5 -78.5t90.5 -189.5q0 -101 -37 -170.5
t-147 -151.5q-25 -18 -51.5 -34.5t-58 -34t-44.5 -25.5z" />
    <glyph glyph-name="three.subs" horiz-adv-x="804" 
d="M428 -244q-164 0 -255.5 64t-121.5 194l-6 27h242l4 -14q19 -68 125 -68q46 0 74 24t28 64q0 38 -26.5 60t-73.5 22q-78 0 -115 -4v182h92q41 0 69 22.5t28 65.5q0 37 -27 58.5t-64 21.5q-74 0 -88 -67l-4 -21h-250q18 133 105.5 212t232.5 79q159 0 251.5 -67.5
t92.5 -198.5q0 -74 -39 -117.5t-96 -61.5q154 -46 154 -225q0 -100 -92.5 -176t-239.5 -76z" />
    <glyph glyph-name="four.subs" horiz-adv-x="833" 
d="M788 168v-205h-116v-182h-250v182h-377v279l338 417h289v-491h116zM240 168h182v242h-2z" />
    <glyph glyph-name="five.subs" horiz-adv-x="792" 
d="M408 -244q-42 0 -80 5.5t-66.5 13.5t-55 23t-44 26t-35 32t-26.5 32.5t-20.5 35t-15 31t-12 30t-8.5 23.5l250 8q11 -14 20 -22t32.5 -16.5t55.5 -8.5q51 0 72 32.5t21 78.5q0 42 -22 70t-66 28q-34 0 -57.5 -8t-33 -16t-28.5 -29l-234 12l72 527l557 -5v-204h-338
l-16 -111q43 37 125 37q133 0 213 -85t80 -220q0 -138 -102.5 -229t-237.5 -91z" />
    <glyph glyph-name="six.subs" horiz-adv-x="813" 
d="M408 -246q-184 0 -281 142q-82 124 -82 294q0 102 21 187.5t64.5 154t119 107.5t176.5 39q151 0 237 -68.5t95 -177.5h-252q-20 41 -92 41q-32 0 -54.5 -12t-36 -36.5t-20 -47.5t-12.5 -60q1 1 6.5 7.5t10.5 11t14.5 12t21 12.5t26 10.5t34.5 8t42 2.5q144 0 233 -77.5
t89 -199.5q0 -156 -91.5 -253t-268.5 -97zM410 -35q49 0 78.5 26.5t29.5 78.5q0 53 -30 80.5t-78 27.5q-52 0 -80.5 -35.5t-28.5 -72.5q0 -52 30.5 -78.5t78.5 -26.5z" />
    <glyph glyph-name="seven.subs" horiz-adv-x="757" 
d="M45 659h668v-143q-133 -130 -221.5 -331t-100.5 -404h-250q21 230 89.5 401t160.5 256h-346v221z" />
    <glyph glyph-name="eight.subs" horiz-adv-x="768" 
d="M567 248q64 -20 109 -80t45 -141q0 -126 -81.5 -198.5t-252.5 -72.5q-175 0 -257.5 72t-82.5 199q1 81 45.5 140t108.5 81q-55 22 -88 69.5t-33 118.5q0 44 17 85.5t51.5 78.5t95.5 59.5t141 22.5t141.5 -22.5t95 -59.5t50 -78.5t16.5 -85.5q0 -74 -30 -118t-91 -70z
M385 506q-40 0 -63 -21.5t-23 -60.5q0 -40 23 -62t63 -22q86 0 86 84q0 40 -22.5 61t-63.5 21zM385 -74q53 0 82 32.5t29 78.5q0 43 -29.5 78t-81.5 35q-53 0 -83 -34.5t-30 -78.5t30 -77.5t83 -33.5z" />
    <glyph glyph-name="nine.subs" horiz-adv-x="802" 
d="M381 -246q-290 0 -322 246h252q0 -1 4.5 -8.5t6 -9.5t8 -7.5t13.5 -7.5t19.5 -4t28.5 -2q28 0 50 13t35 29.5t22.5 43t13.5 43.5t8 41q-23 -21 -35 -31t-49.5 -24.5t-81.5 -14.5q-138 0 -223.5 83.5t-85.5 205.5q0 153 89.5 241.5t268.5 88.5q174 0 269 -113
q86 -103 86 -321q0 -76 -11 -143.5t-38 -133t-69 -112t-108.5 -75t-150.5 -28.5zM401 258q52 0 77.5 30.5t25.5 76.5q0 50 -27.5 77t-75.5 27q-106 0 -106 -104q0 -52 29.5 -79.5t76.5 -27.5z" />
    <glyph glyph-name="zero.dnom" horiz-adv-x="845" 
d="M422 -25q-86 0 -152.5 26.5t-108 70t-68.5 104.5t-37.5 125.5t-10.5 138.5t10.5 137t37.5 122.5t68.5 101.5t108 67t152.5 25t153 -25t109 -67t69 -101.5t37.5 -122.5t10.5 -137t-10.5 -138.5t-37.5 -125.5t-69 -104.5t-109 -70t-153 -26.5zM422 184q127 0 127 258
q0 122 -30 183t-97 61t-96 -60.5t-29 -183.5q0 -258 125 -258z" />
    <glyph glyph-name="one.dnom" horiz-adv-x="577" 
d="M311 879h221v-879h-249v541h-238v139q183 0 266 199z" />
    <glyph glyph-name="two.dnom" horiz-adv-x="796" 
d="M401 213h344v-213h-698q-3 65 1.5 106.5t16 76t43.5 66.5t69.5 60.5t109.5 75.5q10 7 29 19q54 35 75.5 50t46.5 35.5t32 36t12 35t5 49.5q0 34 -22 58t-59 24t-64.5 -26t-30.5 -91h-252q0 132 102 227t238 95q159 0 249.5 -78.5t90.5 -189.5q0 -101 -37 -170.5
t-147 -151.5q-25 -18 -51.5 -34.5t-58 -34t-44.5 -25.5z" />
    <glyph glyph-name="three.dnom" horiz-adv-x="804" 
d="M428 -25q-164 0 -255.5 64t-121.5 194l-6 27h242l4 -14q19 -68 125 -68q46 0 74 24t28 64q0 38 -26.5 60t-73.5 22q-78 0 -115 -4v182h92q41 0 69 22.5t28 65.5q0 37 -27 58.5t-64 21.5q-74 0 -88 -67l-4 -21h-250q18 133 105.5 212t232.5 79q159 0 251.5 -67.5
t92.5 -198.5q0 -74 -39 -117t-96 -61q154 -46 154 -226q0 -100 -92.5 -176t-239.5 -76z" />
    <glyph glyph-name="four.dnom" horiz-adv-x="833" 
d="M788 387v-205h-116v-182h-250v182h-377v279l338 418h289v-492h116zM240 387h182v242h-2z" />
    <glyph glyph-name="five.dnom" horiz-adv-x="792" 
d="M408 -25q-42 0 -80 5.5t-66.5 13.5t-55 23t-44 26t-35 32t-26.5 32.5t-20.5 35t-15 31t-12 30t-8.5 23.5l250 9q11 -14 19.5 -22t32.5 -17t56 -9q51 0 72 32.5t21 78.5q0 42 -22 70t-66 28q-34 0 -57.5 -8t-33 -16t-28.5 -29l-234 12l72 527l557 -4v-205h-338l-16 -111
q43 37 125 37q133 0 213 -85t80 -220q0 -138 -102.5 -229t-237.5 -91z" />
    <glyph glyph-name="six.dnom" horiz-adv-x="813" 
d="M408 -27q-184 0 -281 142q-82 124 -82 295q0 102 21 187t64.5 154t119 107.5t176.5 38.5q151 0 237 -68.5t95 -177.5h-252q-20 41 -92 41q-32 0 -54.5 -11.5t-36 -36t-20 -47.5t-12.5 -60l6 7q6 7 11 11t14.5 11.5t21 12.5t26 10.5t34.5 8t42 2.5q144 0 233 -77t89 -199
q0 -156 -91.5 -253.5t-268.5 -97.5zM410 184q49 0 78.5 26.5t29.5 78.5q0 53 -30 80.5t-78 27.5q-52 0 -80.5 -35.5t-28.5 -72.5q0 -52 30.5 -78.5t78.5 -26.5z" />
    <glyph glyph-name="seven.dnom" horiz-adv-x="757" 
d="M45 879h668v-144q-133 -130 -221.5 -331t-100.5 -404h-250q21 230 89.5 401t160.5 256h-346v222z" />
    <glyph glyph-name="eight.dnom" horiz-adv-x="768" 
d="M567 467q64 -20 109 -80t45 -141q0 -126 -81.5 -198.5t-252.5 -72.5q-175 0 -257.5 72t-82.5 199q1 81 45.5 140t108.5 81q-55 22 -88 69.5t-33 118.5q0 44 17 85.5t51.5 78.5t95.5 59.5t141 22.5t141.5 -22.5t95 -59.5t50 -78.5t16.5 -85.5q0 -74 -30 -118t-91 -70z
M385 725q-40 0 -63 -21.5t-23 -60.5q0 -40 23 -62t63 -22q86 0 86 84q0 40 -22.5 61t-63.5 21zM385 145q53 0 82 32.5t29 78.5q0 43 -29.5 78t-81.5 35q-53 0 -83 -34.5t-30 -78.5t30 -77.5t83 -33.5z" />
    <glyph glyph-name="nine.dnom" horiz-adv-x="802" 
d="M381 -27q-290 0 -322 246h252q0 -1 4.5 -8.5t6 -9.5t8 -7.5t13.5 -7.5t19.5 -4t28.5 -2q28 0 50 13t35 29.5t22.5 43t13.5 43.5t8 41q-22 -21 -35 -31t-50 -24t-81 -14q-138 0 -223.5 83t-85.5 205q0 153 89.5 241.5t268.5 88.5q174 0 269 -113q86 -103 86 -321
q0 -76 -11 -143.5t-38 -133t-69 -112t-108.5 -75t-150.5 -28.5zM401 477q52 0 77.5 30.5t25.5 76.5q0 50 -27.5 77t-75.5 27q-106 0 -106 -104q0 -52 29.5 -79.5t76.5 -27.5z" />
    <glyph glyph-name="zero.numr" horiz-adv-x="845" 
d="M422 559q-86 0 -152.5 26.5t-108 70t-68.5 104.5t-37.5 125.5t-10.5 138.5t10.5 137t37.5 122.5t68.5 101.5t108 67t152.5 25t153 -25t109 -67t69 -101.5t37.5 -122.5t10.5 -137t-10.5 -138.5t-37.5 -125.5t-69 -104.5t-109 -70t-153 -26.5zM422 768q127 0 127 258
q0 122 -30 183t-97 61t-96 -60.5t-29 -183.5q0 -258 125 -258z" />
    <glyph glyph-name="one.numr" horiz-adv-x="577" 
d="M311 1462h221v-878h-249v540h-238v140q184 0 266 198z" />
    <glyph glyph-name="two.numr" horiz-adv-x="796" 
d="M401 797h344v-213h-698q-3 65 1.5 106.5t16 76t43.5 66.5t69.5 60.5t109.5 75.5q10 7 29 19q54 35 75.5 50t46.5 35.5t32 36t12 35t5 49.5q0 34 -22 58t-59 24t-64.5 -26t-30.5 -91h-252q0 132 102 227t238 95q159 0 249.5 -79t90.5 -190q0 -101 -37 -170t-147 -151
q-25 -18 -51.5 -34.5t-58 -34t-44.5 -25.5z" />
    <glyph glyph-name="three.numr" horiz-adv-x="804" 
d="M428 559q-164 0 -255.5 64t-121.5 194l-6 27h242l4 -15q19 -67 125 -67q46 0 74 24t28 64q0 38 -26.5 60t-73.5 22q-78 0 -115 -4v182h92q41 0 69 22.5t28 65.5q0 37 -27 58.5t-64 21.5q-74 0 -88 -68l-4 -20h-250q18 133 105.5 212t232.5 79q159 0 251.5 -68t92.5 -199
q0 -74 -39 -117t-96 -61q154 -46 154 -225q0 -100 -92.5 -176t-239.5 -76z" />
    <glyph glyph-name="four.numr" horiz-adv-x="833" 
d="M788 971v-205h-116v-182h-250v182h-377v278l338 418h289v-491h116zM240 971h182v241h-2z" />
    <glyph glyph-name="five.numr" horiz-adv-x="792" 
d="M408 559q-42 0 -80 5.5t-66.5 13.5t-55 23t-44 26t-35 32t-26.5 32.5t-20.5 35t-15 31t-12 30t-8.5 23.5l250 8q11 -14 20 -22t32.5 -16.5t55.5 -8.5q51 0 72 32.5t21 78.5q0 42 -22 70t-66 28q-34 0 -57.5 -8t-33 -16t-28.5 -29l-234 12l72 526l557 -4v-205h-338
l-16 -110q43 37 125 37q133 0 213 -85t80 -220q0 -138 -102.5 -229t-237.5 -91z" />
    <glyph glyph-name="six.numr" horiz-adv-x="813" 
d="M408 557q-184 0 -281 141q-82 124 -82 295q0 102 21 187.5t64.5 154t119 107.5t176.5 39q151 0 237 -68.5t95 -177.5h-252q-20 41 -92 41q-32 0 -54.5 -12t-36 -36.5t-20 -47.5t-12.5 -60q1 1 6.5 7.5t10.5 11t14.5 12t21 12.5t26 10.5t34.5 8t42 2.5q144 0 233 -77.5
t89 -199.5q0 -156 -91.5 -253t-268.5 -97zM410 768q50 0 79 26t29 78q0 53 -30 81t-78 28q-52 0 -80.5 -36t-28.5 -73q0 -52 30 -78t79 -26z" />
    <glyph glyph-name="seven.numr" horiz-adv-x="757" 
d="M45 1462h668v-143q-133 -130 -221.5 -331t-100.5 -404h-250q21 230 89.5 401t160.5 256h-346v221z" />
    <glyph glyph-name="eight.numr" horiz-adv-x="768" 
d="M567 1051q64 -20 109 -80.5t45 -141.5q0 -126 -81.5 -198t-252.5 -72q-175 0 -257.5 71.5t-82.5 198.5q1 81 45.5 141t108.5 81q-55 22 -88 69.5t-33 118.5q0 44 17 85.5t51.5 78.5t95.5 59.5t141 22.5t141.5 -22.5t95 -59.5t50 -78.5t16.5 -85.5q0 -74 -30 -118t-91 -70
zM385 1309q-40 0 -63 -21.5t-23 -60.5q0 -40 23 -62t63 -22q86 0 86 84q0 40 -22.5 61t-63.5 21zM385 729q53 0 82 32.5t29 78.5q0 43 -29.5 77.5t-81.5 34.5q-53 0 -83 -34t-30 -78t30 -77.5t83 -33.5z" />
    <glyph glyph-name="nine.numr" horiz-adv-x="802" 
d="M381 557q-290 0 -322 246h252q0 -1 4.5 -8.5t6 -9.5t8 -7.5t13.5 -7.5t19.5 -4t28.5 -2q28 0 50 13t35 29.5t22.5 43t13.5 43.5t8 41q-23 -21 -35 -31t-49.5 -24.5t-81.5 -14.5q-138 0 -223.5 83.5t-85.5 205.5q0 153 89.5 241.5t268.5 88.5q174 0 269 -113
q86 -103 86 -321q0 -76 -11 -143.5t-38 -133t-69 -112t-108.5 -75t-150.5 -28.5zM401 1061q52 0 77.5 30.5t25.5 75.5q0 50 -27.5 77.5t-75.5 27.5q-106 0 -106 -105q0 -52 29.5 -79t76.5 -27z" />
    <glyph glyph-name="zero.sups" horiz-adv-x="845" 
d="M422 776q-86 0 -152.5 26.5t-108 70t-68.5 104.5t-37.5 125.5t-10.5 138.5t10.5 137t37.5 122.5t68.5 101.5t108 67t152.5 25t153 -25t109 -67t69 -101.5t37.5 -122.5t10.5 -137t-10.5 -138.5t-37.5 -125.5t-69 -104.5t-109 -70t-153 -26.5zM422 985q127 0 127 258
q0 122 -30 183t-97 61t-96 -60.5t-29 -183.5q0 -258 125 -258z" />
    <glyph glyph-name="one.sups" horiz-adv-x="577" 
d="M311 1679h221v-878h-249v540h-238v140q184 0 266 198z" />
    <glyph glyph-name="two.sups" horiz-adv-x="796" 
d="M401 1014h344v-213h-698q-3 65 1.5 106.5t16 76t43.5 66.5t69.5 60.5t109.5 75.5q10 7 29 19q54 35 75.5 50t46.5 35.5t32 36t12 35t5 49.5q0 34 -22 58t-59 24t-64.5 -26t-30.5 -91h-252q0 132 102 227t238 95q159 0 249.5 -78.5t90.5 -189.5q0 -101 -37 -170.5
t-147 -151.5q-25 -18 -51.5 -34.5t-58 -34t-44.5 -25.5z" />
    <glyph glyph-name="three.sups" horiz-adv-x="804" 
d="M428 776q-164 0 -255.5 64t-121.5 194l-6 27h242l4 -14q19 -68 125 -68q46 0 74 24t28 64q0 38 -26.5 60t-73.5 22q-78 0 -115 -4v182h92q41 0 69 22.5t28 65.5q0 37 -27 58.5t-64 21.5q-74 0 -88 -68l-4 -20h-250q18 133 105.5 212t232.5 79q159 0 251.5 -67.5
t92.5 -198.5q0 -74 -39 -117.5t-96 -61.5q154 -46 154 -225q0 -100 -92.5 -176t-239.5 -76z" />
    <glyph glyph-name="four.sups" horiz-adv-x="833" 
d="M788 1188v-205h-116v-182h-250v182h-377v279l338 417h289v-491h116zM240 1188h182v242h-2z" />
    <glyph glyph-name="five.sups" horiz-adv-x="792" 
d="M408 776q-42 0 -80 5.5t-66.5 13.5t-55 23t-44 26t-35 32t-26.5 32.5t-20.5 35t-15 31t-12 30t-8.5 23.5l250 8q11 -14 20 -22t32.5 -16.5t55.5 -8.5q51 0 72 32.5t21 78.5q0 42 -22 70t-66 28q-34 0 -57.5 -8t-33 -16t-28.5 -29l-234 12l72 526l557 -4v-204h-338
l-16 -111q43 37 125 37q133 0 213 -85t80 -220q0 -138 -102.5 -229t-237.5 -91z" />
    <glyph glyph-name="six.sups" horiz-adv-x="813" 
d="M408 774q-184 0 -281 141q-82 124 -82 295q0 102 21 187.5t64.5 154t119 107.5t176.5 39q151 0 237 -68.5t95 -177.5h-252q-20 41 -92 41q-32 0 -54.5 -12t-36 -36.5t-20 -47.5t-12.5 -60q1 1 6.5 7.5t10.5 11t14.5 12t21 12.5t26 10.5t34.5 8t42 2.5q144 0 233 -77.5
t89 -199.5q0 -156 -91.5 -253t-268.5 -97zM410 985q49 0 78.5 26.5t29.5 78.5q0 53 -30 80.5t-78 27.5q-52 0 -80.5 -35.5t-28.5 -72.5q0 -52 30.5 -78.5t78.5 -26.5z" />
    <glyph glyph-name="seven.sups" horiz-adv-x="757" 
d="M45 1679h668v-143q-133 -130 -221.5 -331t-100.5 -404h-250q21 230 89.5 401t160.5 256h-346v221z" />
    <glyph glyph-name="eight.sups" horiz-adv-x="768" 
d="M567 1268q64 -20 109 -80t45 -141q0 -126 -81.5 -198.5t-252.5 -72.5q-175 0 -257.5 72t-82.5 199q1 81 45.5 140t108.5 81q-55 22 -88 69.5t-33 118.5q0 44 17 85.5t51.5 78.5t95.5 59.5t141 22.5t141.5 -22.5t95 -59.5t50 -78.5t16.5 -85.5q0 -74 -30 -118t-91 -70z
M385 1526q-40 0 -63 -21.5t-23 -60.5q0 -40 23 -62t63 -22q86 0 86 84q0 40 -22.5 61t-63.5 21zM385 946q53 0 82 32.5t29 78.5q0 43 -29.5 77.5t-81.5 34.5q-53 0 -83 -34t-30 -78t30 -77.5t83 -33.5z" />
    <glyph glyph-name="nine.sups" horiz-adv-x="802" 
d="M381 774q-290 0 -322 246h252q0 -1 4.5 -8.5t6 -9.5t8 -7.5t13.5 -7.5t19.5 -4t28.5 -2q28 0 50 13t35 29.5t22.5 43t13.5 43.5t8 41q-23 -21 -35 -31t-49.5 -24.5t-81.5 -14.5q-138 0 -223.5 83.5t-85.5 205.5q0 153 89.5 241.5t268.5 88.5q174 0 269 -113
q86 -103 86 -321q0 -76 -11 -143.5t-38 -133t-69 -112t-108.5 -75t-150.5 -28.5zM401 1278q52 0 77.5 30.5t25.5 75.5q0 50 -27.5 77.5t-75.5 27.5q-106 0 -106 -105q0 -52 29.5 -79t76.5 -27z" />
    <glyph glyph-name="colon.case" horiz-adv-x="622" 
d="M133 1153h356v-360h-356v360zM133 504h356v-361h-356v361z" />
    <glyph glyph-name="exclamdown.case" horiz-adv-x="659" 
d="M156 1135v327h348v-327h-348zM520 406v-406h-381v406l60 624h260z" />
    <glyph glyph-name="questiondown.case" horiz-adv-x="1093" 
d="M758 1135h-365v327h365v-327zM1071 477l-4 -53q-7 -92 -39.5 -172t-91.5 -145.5t-156 -103.5t-221 -38q-247 0 -374.5 118t-127.5 306q0 59 13 107.5t40.5 90t51 67.5t63.5 65q41 39 53.5 51t43 46.5t41 55.5t21.5 54t11 67v17h361v-41q0 -217 -191 -371
q-35 -28 -48.5 -38.5t-40 -35.5t-37.5 -41.5t-21 -40t-10 -47.5q0 -65 37.5 -101t113.5 -36q75 0 118.5 46.5t51.5 119.5l6 53h336z" />
    <glyph glyph-name="periodcentered.case" horiz-adv-x="528" 
d="M264 850q54 0 92.5 -38.5t38.5 -92.5q0 -50 -39.5 -90.5t-89.5 -40.5q-54 0 -93.5 38.5t-39.5 92.5t38.5 92.5t92.5 38.5z" />
    <glyph glyph-name="bullet.case" horiz-adv-x="993" 
d="M498 1087q158 0 267 -108t109 -266q0 -159 -109 -270t-267 -111t-268.5 111.5t-110.5 269.5t110 266t269 108z" />
    <glyph glyph-name="parenleft.case" horiz-adv-x="684" 
d="M336 -27q-120 197 -189 382.5t-69 381.5q0 191 70.5 394.5t187.5 357.5h319q-108 -179 -154 -357.5t-46 -394.5q0 -456 200 -764h-319z" />
    <glyph glyph-name="parenright.case" horiz-adv-x="684" 
d="M346 -27h-317q198 305 198 764q0 217 -45.5 395.5t-152.5 356.5h317q117 -155 188.5 -358t71.5 -394q0 -196 -69.5 -382.5t-190.5 -381.5z" />
    <glyph glyph-name="braceleft.case" horiz-adv-x="645" 
d="M588 1190h-4q-70 0 -70 -131v-125q0 -49 -15 -88.5t-37.5 -62t-42 -34.5t-34.5 -16v-4q12 -2 26.5 -8.5t33 -21.5t33.5 -36t25.5 -55.5t10.5 -77.5v-129q0 -131 70 -131h4v-286h-246q-61 0 -110.5 52t-49.5 140v273q0 39 -9.5 63.5t-29 35.5t-38 14t-48.5 3v332
q60 0 92.5 23t32.5 94v270q0 91 49.5 144t110.5 53h246v-291z" />
    <glyph glyph-name="braceright.case" horiz-adv-x="647" 
d="M57 1190v291h246q61 0 111.5 -53.5t50.5 -143.5v-270q0 -71 32.5 -94t92.5 -23v-332q-30 0 -48.5 -3t-38 -14t-29 -35.5t-9.5 -63.5v-273q0 -88 -50.5 -140t-111.5 -52h-246v286h6q38 0 54 38.5t16 92.5v129q0 43 10.5 77.5t25.5 55.5t33.5 36t33 21.5t26.5 8.5v4
q-15 4 -34.5 16t-42 34.5t-37.5 62t-15 88.5v125q0 131 -70 131h-6z" />
    <glyph glyph-name="bracketleft.case" horiz-adv-x="722" 
d="M666 246v-285h-527v1536h527v-285h-193v-966h193z" />
    <glyph glyph-name="bracketright.case" horiz-adv-x="722" 
d="M57 246h193v966h-193v285h527v-1536h-527v285z" />
    <glyph glyph-name="hyphen.case" horiz-adv-x="1089" 
d="M164 842h762v-307h-762v307z" />
    <glyph glyph-name="endash.case" horiz-adv-x="1409" 
d="M164 842h1081v-307h-1081v307z" />
    <glyph glyph-name="emdash.case" horiz-adv-x="2072" 
d="M164 842h1745v-307h-1745v307z" />
    <glyph glyph-name="guillemotleft.case" horiz-adv-x="1206" 
d="M41 692l299 502h319l-274 -502l274 -499h-319zM547 692l299 502h319l-274 -502l274 -499h-319z" />
    <glyph glyph-name="guillemotright.case" horiz-adv-x="1206" 
d="M659 692l-299 -499h-319l274 499l-274 502h319zM1165 692l-299 -499h-319l274 499l-274 502h319z" />
    <glyph glyph-name="guilsinglleft.case" horiz-adv-x="700" 
d="M41 692l299 502h319l-274 -502l274 -499h-319z" />
    <glyph glyph-name="guilsinglright.case" horiz-adv-x="700" 
d="M659 692l-299 -499h-319l274 499l-274 502h319z" />
    <glyph glyph-name="plus.case" horiz-adv-x="1325" 
d="M811 887h436v-305h-436v-435h-297v435h-436v305h436v434h297v-434z" />
    <glyph glyph-name="minus.case" horiz-adv-x="1267" 
d="M78 891h1112v-303h-1112v303z" />
    <glyph glyph-name="multiply.case" horiz-adv-x="1230" 
d="M78 1012l211 211l329 -332l328 332l207 -209l-330 -328l330 -330l-209 -211l-332 332l-327 -332l-207 209l330 328z" />
    <glyph glyph-name="divide.case" horiz-adv-x="1269" 
d="M424 1176q0 86 62.5 148t148.5 62t148.5 -62t62.5 -148q0 -79 -63.5 -144t-145.5 -65q-86 0 -149.5 62t-63.5 147zM78 895h1114v-305h-1114v305zM424 291q0 86 62.5 148.5t148.5 62.5t148.5 -62.5t62.5 -148.5q0 -79 -63.5 -145t-145.5 -66q-86 0 -149.5 62.5
t-63.5 148.5z" />
    <glyph glyph-name="equal.case" horiz-adv-x="1302" 
d="M1225 731h-1147v279h1147v-279zM78 618h1147v-278h-1147v278z" />
    <glyph glyph-name="notequal.case" horiz-adv-x="1302" 
d="M1225 731h-394l-65 -113h459v-278h-619l-164 -283l-200 117l96 166h-260v278h420l65 113h-485v279h647l162 280l200 -116l-94 -164h232v-279z" />
    <glyph glyph-name="greater.case" horiz-adv-x="1171" 
d="M78 963v323l1016 -491v-226l-1016 -491v323l596 283z" />
    <glyph glyph-name="less.case" horiz-adv-x="1171" 
d="M1094 963l-596 -279l596 -283v-323l-1016 491v226l1016 491v-323z" />
    <glyph glyph-name="greaterequal.case" horiz-adv-x="1079" 
d="M1001 883l-923 -406v330l549 211l-549 213v332l923 -412v-268zM1001 164h-923v278h923v-278z" />
    <glyph glyph-name="lessequal.case" horiz-adv-x="1079" 
d="M78 883v268l923 412v-332l-548 -213l548 -211v-330zM78 164v278h923v-278h-923z" />
    <glyph glyph-name="plusminus.case" horiz-adv-x="1267" 
d="M78 1032h405v264h301v-264h406v-309h-406v-262h-301v262h-405v309zM78 330h1112v-281h-1112v281z" />
    <glyph glyph-name="approxequal.case" horiz-adv-x="1320" 
d="M1208 1163q0 -221 -69 -337.5t-228 -116.5q-60 0 -130 20t-121 43.5t-103 43.5t-80 20q-37 0 -53.5 -28t-17.5 -99h-295q0 220 72 337t233 117q80 0 174 -30.5t165 -60.5t95 -30q33 0 47.5 26t15.5 95h295zM1208 672q0 -221 -69 -338t-228 -117q-60 0 -130 20t-121 43.5
t-103 43.5t-80 20q-37 0 -53.5 -28t-17.5 -99h-295q0 220 72 337.5t233 117.5q63 0 136 -19t125.5 -41.5t102 -41.5t70.5 -19q33 0 47.5 26t15.5 95h295z" />
    <glyph glyph-name="asciitilde.case" horiz-adv-x="1386" 
d="M1208 913q0 -221 -69 -337.5t-228 -116.5q-60 0 -130 20t-121 43.5t-103 43.5t-80 20q-37 0 -53.5 -28t-17.5 -99h-295q0 220 72 337t233 117q80 0 174 -30t165 -60t95 -30q33 0 47.5 25.5t15.5 94.5h295z" />
    <glyph glyph-name="ampersand.alt" horiz-adv-x="1357" 
d="M1358 635v-229h-160v-5q-17 -210 -181 -324t-429 -114q-106 0 -195.5 29t-149.5 75t-102.5 105t-61.5 118.5t-18 115.5q2 121 61.5 215t182.5 143q-201 103 -201 301q0 205 143 313.5t388 108.5q231 0 369.5 -125t160.5 -336h-354l-6 35q-23 135 -172 135
q-76 0 -126 -41.5t-50 -114.5q0 -70 33.5 -111t91.5 -52v-267q-52 -4 -88.5 -21.5t-54 -44.5t-24.5 -52.5t-7 -53.5q0 -89 61 -134.5t143 -45.5q84 0 154 39.5t80 103.5v5h-141v229h653z" />
    <glyph glyph-name="uni030C.alt" 
d="M-401 1462h264l-72 -334h-205z" />
    <glyph glyph-name="uni0328.alt" 
d="M33 0q-227 -81 -242 -176q-8 -48 21 -67t110 -19l-33 -182q-185 0 -275.5 43t-90.5 151q0 73 62 139t175 111h273z" />
    <glyph glyph-name="uni0308.case" 
d="M-649 1792h254v-244h-254v244zM-274 1792h251v-244h-251v244z" />
    <glyph glyph-name="uni0307.case" 
d="M-293 1792h299v-244h-299v244z" />
    <glyph glyph-name="gravecomb.case" 
d="M-287 1792l201 -244h-320l-241 244h360z" />
    <glyph glyph-name="acutecomb.case" 
d="M-190 1792h360l-242 -244h-319z" />
    <glyph glyph-name="uni030B.case" 
d="M-530 1792h292l-221 -244h-229zM-190 1792h292l-221 -244h-229z" />
    <glyph glyph-name="uni030C.alt.case" 
d="M-422 1462h285l-133 -436h-185z" />
    <glyph glyph-name="uni0302.case" 
d="M-827 1548l159 244h412l158 -244h-305l-64 111l-55 -111h-305z" />
    <glyph glyph-name="uni030C.case" 
d="M-668 1548l-159 244h305l55 -111l64 111h305l-158 -244h-412z" />
    <glyph glyph-name="uni0306.case" 
d="M-49 1792q-9 -113 -95.5 -183.5t-217.5 -70.5q-132 0 -218.5 70.5t-95.5 183.5h225q0 -33 23.5 -53.5t65.5 -20.5q40 0 63 20.5t25 53.5h225z" />
    <glyph glyph-name="uni030A.case" 
d="M-518 1751q0 96 69.5 165t165.5 69t166 -69t70 -165q0 -95 -70 -163t-166 -68t-165.5 68t-69.5 163zM-358 1749q0 -33 21 -54.5t54 -21.5q34 0 56 22t22 54q0 34 -22 56t-56 22q-33 0 -54 -22t-21 -56z" />
    <glyph glyph-name="tildecomb.case" 
d="M-725 1548q0 105 58 176.5t153 71.5q46 0 87.5 -18.5t72 -37t49.5 -18.5q11 0 18.5 3.5t11.5 7.5t7.5 16t4 18t3.5 25h203q0 -116 -54 -182t-147 -66q-42 0 -79 11.5t-58 25.5t-43.5 25.5t-40.5 11.5q-25 0 -36.5 -17t-14.5 -53h-195z" />
    <glyph glyph-name="uni0304.case" 
d="M-760 1737h721v-131h-721v131z" />
    <glyph glyph-name="uni0327.case" 
d="M-399 -446q-93 0 -183 22l25 139q53 -18 108 -18q38 0 57 14t19 33q0 20 -15.5 31.5t-41.5 11.5q-22 0 -49 -10l-84 94l137 156l172 -13l-145 -123l2 -2q25 5 53 5q104 -3 161.5 -42t57.5 -110q0 -49 -27.5 -87t-71 -59t-88.5 -31.5t-87 -10.5z" />
    <glyph glyph-name="uni0335.case" 
d="M-1018 676v233h832v-233h-832z" />
    <glyph glyph-name="uni0336.case" 
d="M-20 1243v-131h-1465v131h1465z" />
    <glyph glyph-name="uni0337.case" 
d="M-1141 389v164l824 582v-164z" />
    <glyph glyph-name="uni0338.case" 
d="M-274 1538l122 -96l-1306 -1508l-123 103z" />
    <glyph glyph-name="VICE" horiz-adv-x="5605" 
d="M5456 1343q1 -9 1 -14t-5.5 -13.5t-8.5 -12.5t-10 -11l-10 -10q-20 -25 -66.5 -83t-76 -93t-71.5 -82t-83.5 -84.5t-83.5 -67.5q6 -42 2.5 -92t-16.5 -78q5 -6 23 -28t25 -31.5t20 -28.5t21 -36.5t15 -36.5q-50 -257 -221 -383q-24 -18 -50 -32.5t-61.5 -28.5
t-56.5 -22.5t-68.5 -21.5t-63 -17t-75 -18.5t-71.5 -17.5q-115 -25 -225.5 -43t-250.5 -29t-257 -5t-229.5 37.5t-184.5 90.5q-100 -60 -246 -94t-296.5 -36.5t-296 33.5t-238.5 107q-33 -42 -90 -74.5t-124 -49t-142.5 -21t-145.5 8.5t-131.5 41t-101.5 75.5t-56.5 112
t4.5 151.5q-271 -211 -516 -315q-66 -28 -147.5 -42t-164 -6.5t-148.5 34.5t-102 88.5t-24 148.5q2 17 7.5 31.5t16 32t15.5 28.5q-92 159 -141 281q-5 13 -29 69t-35 84.5t-23.5 79.5t-15.5 96q-4 98 29.5 184.5t95 151.5t133 113t154.5 82q45 16 145.5 64t157.5 65
q121 34 211 -22.5t96 -166.5q177 54 334.5 79t321.5 1q56 44 139.5 63.5t162.5 19t185 -18t175 -34.5t165 -44q20 -5 86 -31.5t90 -25.5q19 1 70.5 31.5t64.5 35.5q50 22 93 38.5t99 35t109.5 30t112.5 19t121 6t123 -11.5q21 -5 68.5 -20t72.5 -19q20 -1 60 5t55 7
q204 9 428 -12t386 -52t392.5 -77t372.5 -68zM5087 1171q2 2 8.5 6.5t10 7.5t8.5 8.5t5 9.5t-1 11q-68 10 -162 28t-178.5 35t-183.5 35.5t-195 31.5t-194.5 22t-199 8t-192.5 -12q-25 -4 -49.5 -21t-49.5 -41.5t-40 -33.5q3 3 0 6q2 8 9 29.5t10 35t4 29.5
q-65 23 -134 31.5t-129 5.5t-130 -20t-121 -34.5t-118.5 -49t-108 -52.5t-101.5 -55q-284 -158 -453 -330q75 125 133 205q26 37 78 97.5t70 84.5q-18 4 -123 30.5t-162 37.5q-71 17 -113 25.5t-109.5 17.5t-120.5 2t-93 -29q-9 -6 -39 -36t-49 -33q-14 -1 -49.5 10
t-52.5 12q-160 17 -324 -22q-44 -7 -70.5 -12t-78.5 -18.5t-83.5 -27t-61 -36.5t-36.5 -50q-10 -31 4 -90.5t11 -85.5q-13 -72 -93 -176q-29 -51 -57.5 -83.5t-67.5 -49.5q-6 29 -10 57t-4.5 59t-1.5 53t3.5 57t6 50.5t9 54t9 48.5t11 52.5t10.5 47.5q4 24 15 69.5t16.5 74
t4.5 67.5t-13 70q-41 6 -81.5 -8t-93 -45t-79.5 -42q-13 -5 -49 -19.5t-51.5 -20.5t-48.5 -21t-49.5 -24t-43.5 -26t-41.5 -31t-33.5 -35t-29.5 -41.5t-19 -47t-11.5 -55.5q-3 -22 -3.5 -43t3 -41.5t6.5 -35.5t10.5 -36.5t11.5 -32.5t13.5 -34.5t13.5 -32.5
q87 -232 230 -430q-10 -18 -31 -37.5t-37 -39.5t-20 -50q29 -41 135 -41q57 0 111 11.5t112 37.5t90.5 43t93.5 53q62 34 124 80.5t105 83.5t105.5 102t90.5 96.5t96 111t88 102.5q8 9 23.5 28.5t24.5 30.5t23.5 23.5t28.5 19.5q10 -44 11 -85.5t-4.5 -74t-18 -70.5
t-24.5 -65.5t-29.5 -68.5t-28.5 -72q-93 -238 -56 -330q15 -44 104 -64.5t185.5 -12.5t138.5 36q19 14 33 40t27.5 61.5t21.5 50.5q16 30 76 153q0 -60 18.5 -107.5t45.5 -78.5t72.5 -56t85.5 -39t98 -30q101 -26 211.5 -26t203 18.5t188.5 53.5t164.5 69t135.5 74
q-5 -33 -5 -58t3 -43t15 -32t21.5 -22t32 -16t38.5 -11.5l48 -10.5q110 -22 228 -25t236.5 13.5t209.5 35t205 48.5q184 44 250 71q138 58 184 168q16 37 23 82q-49 42 -197 23q-62 -10 -175.5 -43t-222.5 -53t-220 -13q-146 20 -152 49q-7 30 35.5 54.5t97.5 31.5
q74 14 299 20.5t309 39.5q59 19 108.5 74t45.5 116q-6 40 -53 67t-105 32q-67 3 -146 -13t-136 -34t-137.5 -27.5t-151.5 6.5q14 16 31.5 59t33.5 58q75 1 230 -12.5t237 -10.5q145 11 243.5 67.5t176.5 155.5zM3674 1266l-4 -2q1 0 2 1t2 1zM3645 1176q24 -30 100 -52.5
t97 -36.5q-7 -1 -105.5 -15t-140.5 -32q9 22 24.5 68t24.5 68zM3459 692q20 25 45 103q16 -25 26 -55t12 -66.5t-15 -65.5q-65 1 -133 -18.5t-127 -47.5t-117.5 -56t-125.5 -48t-130 -20q-85 0 -130.5 46t-10.5 128q23 57 68 116t88.5 100.5t99 96t86.5 92.5
q-11 -51 -48 -167t-51 -177q90 0 266 18.5t197 20.5z" />
    <glyph glyph-name="TV" horiz-adv-x="2447" 
d="M2042 1462h401l-493 -1460l-424 -2l-385 1139h-346v-1139h-381v1139h-398v323h1418l305 -989z" />
    </font>
</defs>
</svg>
