<svg xmlns="http://www.w3.org/2000/svg" viewBox="0 0 199.95 199.92"><defs><style>.cls-1{fill:#ff4e00}</style></defs><g id="Layer_2" data-name="Layer 2"><g id="Layer_1-2" data-name="Layer 1"><path class="cls-1" d="M192 135.09a9.29 9.29 0 01-2.35-.28c-.42-.12-1.54-.85-2-.84-1.68 0-2.31 1.26-3.24-1-.51-1.25-1.39-7.38 1.42-5.93 2.59 1.33 1.77 6.23 6 4.85.88-.29 2.82-1.51 2.9-2.56.11-1.57-2.19-2.45-3.32-2.7-2.83-.62-5.84.29-6.87-3.23-.83-2.86.14-5.44 3.09-6a12.38 12.38 0 014.72.22 11.72 11.72 0 002 .47c.77 0 1.45-.75 2.18-.08s.47 3.93.11 4.79c-.84 2-1.76.63-2.5-.52-.87-1.35-1.93-2.91-3.71-2.93-1.44 0-3.47 1.05-3.23 2.7s2.09 2 3.34 2.19c2.14.38 4.34.43 5.9 2.19a100.79 100.79 0 00-19.15-90q-1.77-2.16-3.67-4.22c-1.19-1.3-1-1.14-2.29-.05-3.26 2.74-6.22 3.16-10.28 2.34-7.55-1.51-15.42 1.23-21.28 6.24-2.34 2-4.08 6.22-5.17 9.06-1.43 3.7-1.7 7.45-2.49 11.27-.74 3.53-3.52 6.6-5.13 9.79-1.75 3.47-2.82 7.24-4.46 10.75-2 4.22-4.75 8.18-7 12.25-1.88 3.36-5 7.19-5 11.12-.06 4.85 2.25 9 4.32 13.24a95.89 95.89 0 007.06 12.33c0-3.1.29-6.09 0-9.23-.14-1.71-.46-1.73-2-1.84-1-.07-3-.42-1.76-1.94.73-.92 2.55-.38 3.47-.29a64.13 64.13 0 007 .18c1.86 0 3.85-.63 4.33 1.59.23 1.06.66 4.86-.42 5.39-1.85.89-1.58-1.84-1.64-2.82-.12-1.88-1-2.71-3-2.75-1.34 0-3.15-.39-3.85 1-.32.64-.25 4.12.24 4.66 1.66 1.89 2.3-1.58 2.72-2.11 1.11-1.4 1.78 0 1.9 1.24.1 1 .74 9.23-1.7 6.51-.65-.72-.43-4-2.39-3-.72.37-.8 3.22-.48 3.93.71 1.57 2.51.11 3.65 1.17 2.13 2-2.66 1.93-3.57 2a24.28 24.28 0 013.26 6.06c.84 2 2.27 3.42 3.62 5.12a93.6 93.6 0 018 11.54c2.09 3.62 4.07 7.37 6.85 10.52a21.55 21.55 0 0011.37 6.68c2.26.6 4.12.22 6.42.28 2.59.07 3-.23 5-2.06a100.23 100.23 0 0024.8-37.54 5.2 5.2 0 01-1.72.25zm-46.29-1.24c-.55 1.37-7.28.53-8.62.64-1 .08-2.72.24-2.85-1.21s1.65-1.44 2.68-1.61c1.73-.28 1.73-.29 1.81-1.93.1-2.09 0-4.15.14-6.23.09-1.24.47-2.94-.74-3.62-.94-.53-3.31.42-3.48-1.3-.18-1.88 7-1.08 8.31-1.07.64 0 2.91-.08 2.94.95 0 1.5-2.6.92-3.28 1.23-1.44.67-.94 2.53-.91 3.77 0 1.51 0 3 .05 4.53s-.3 3.12 1.14 3.72c.85.35 4.63.12 2.81 2.13 0 0 .33-.37 0 0-.29.62.29-.34-.04 0zm18-.49c-2.08 1.65-5.09.88-7.53 1-1.28 0-2.55-.07-3.83 0s-2.85.8-4 .1a1.22 1.22 0 01-.07-2.27c1-.7 2 .1 3-.21 1.82-.59 1-5.6 1-7.27 0-1.2.56-2.95.1-4.08-.6-1.49-1.31-.94-2.58-1.19-2.22-.42-2.12-2.2.29-2.34 1.26-.08 2.59.24 3.85.27a18.12 18.12 0 013.69.21c4.13.95-1.78 1.83-2.85 2.76.95.5.12 2.09 0 2.84-.13 1.09.37 1.94.43 2.93.1 1.7-1.24 5.05.83 6.1.79.4 3.45.28 4.18-.53 1-1.12-.23-3.21.82-4.2.73-.7 2.38.13 2.77.82.52.93.27 4.18-.06 5.11-.4.31.11-.29 0 0-.65.36.01-.41-.12-.05zm17.19.12c-.49 1.63-3.78 1.07-5 1-1.42 0-2.85-.13-4.28-.17s-3.81.42-5.29-.11c-.64-.23-2-.58-1.66-1.63s1.94-.68 2.83-.83c2.34-.4 1.78-1.93 1.86-4a23.87 23.87 0 00-.2-6.3c-.35-1.47-.46-1.51-1.89-1.72-1-.15-2.26.16-2.39-1.38-.19-2.19 4-1.07 5.42-1 2.47.06 4.92 0 7.38.06 2.65.11 3.55 1.31 3.32 4-.05.58-.2 2.41-.71 2.77-1.29.91-1.51-1.59-1.64-2.25-.49-2.46-1.83-2.19-4-2.23-2.71 0-3 .34-3.09 3-.05 1.42.86 2.92 2.42 1.95 1-.63.31-1.51.58-2.29.34-1 1.27-1.92 2.24-.6.77 1.06-.12 5-.06 6.39 0 .78.41 2.21-.6 2.42-1.34.28-1.41-2.22-1.75-2.85-.45-.84-1.17-1.5-2.2-.9s-.83 2.56-.62 3.63c.35 1.78 1.28 1.74 3.05 1.66 1.21-.06 2.06.07 2.86-.67s1-5.66 3-3.55c.81.84.59 4.67.36 5.56-.39 1.29.05-.21-.02.04zM59.29 77c-1-4.2-1.87-9.42-4.51-12.55S48.27 57.17 48 53.08c-.11-2 0-4.19-1.11-5.88a23.74 23.74 0 00-5.56-5.14 20.64 20.64 0 00-13.32-4.64c-1.57 0-4.62-.59-6 .13-1.76.89-3.34 4.17-4.45 5.78A99.55 99.55 0 001 85.92a100.85 100.85 0 001.36 35.58c-.1-2.39-.55-4.46 2.49-4.61a50.59 50.59 0 019.48.1c1.47.23 1.93.41 2.23 2.11a14.58 14.58 0 01.07 4.2c-.2 1.25-1 2.12-2.12.83-.68-.81-.38-2.28-.78-3.22-.31-.73-1.16-2-2.21-1.33-.81.52-.41 2.1-.39 2.84 0 1.59.09 3.2.08 4.79 0 1.15-.5 3 .43 3.88.74.74 2.11.22 2.78 1a1.62 1.62 0 01-.44 2.44c-1.47.86-6.35.12-7.9-.29a100.3 100.3 0 0020.31 33.36 20.33 20.33 0 013.29-3.91c1-.73 2.2-1.08 3.09-1.88A35 35 0 0039 154.2c1.69-2.9 2.73-6.06 4.55-8.9 2.06-3.22 2.76-7.29 4.21-10.82a39.5 39.5 0 00-7.63-.14c-.63 0-7 .16-4.83-2.22 1.39-1.51 3.22.86 4.15-1.42.61-1.5.33-3.59.38-5.26 0-1.4.12-4.87-1.26-5.62-1-.56-2.06.53-3-.6-.83-1-.51-1.61.39-2.06 1.26-.63 3.8.11 5.11.2 2.38.16 4.69-.06 7.07 0 2.64.06 3.28 1.29 3.15 3.81 0 1-.25 4.26-1.8 2.63-1.13-1.19 0-3.13-1.71-4-.94-.46-4.9-.51-5.57.32-.93 1.16-.67 4.35.85 4.58 2.79.43.94-2.37 2.19-3.35 2.35-1.84 1.85 3 1.82 3.74s.69 5.22-.55 5.47c-2.18.46-.86-4.6-3.56-3.9-2.08.54-1.45 4.86.16 5.39 2.12.69 4.94 0 5.53-2.25.2-.76-.17-1.71.66-2.16a1.25 1.25 0 011.87 1q2.43-4 4.79-8.12c1-1.78 2.22-5.38 4.08-6.31 2.07-1 4.69 0 6.3-2s2.39-5.09 3-7.43a19.46 19.46 0 00-2.59-15.7c-1.48-2.25-3.42-4.21-4.53-6.67-.57-1.1-2.94-5.41-2.94-5.41zM34 133.18c.22 1.56-3.45 1.3-4.22 1.28s-2.05.15-2.55-.59c-.81-1.2.38-1.36 1-2 1-1 1.61-3.46.6-4.82-1.13-1.51-5.12-.83-5.77.61a8.26 8.26 0 000 2.85c.33 1 .94.89 1.61 1.53 2.2 2.15-1.49 2.57-3.12 2.55-1.19 0-5.51.09-3.39-2.31.62-.71 1.7-.33 2.26-.93s.22-2.57.23-3.37c0-2.13.37-4.44.17-6.54-.22-2.34-2.57-1.31-3.07-2.94-.89-2.89 8.45-1.73 7.45.31-.66 1.35-2 .68-2.28 2.62-.26 2.24.68 2.77 2.71 2.89 2.77.17 3.66-.17 3.46-3-.1-1.36-.31-1.29-1.35-2-.76-.54-1.69-.83-.56-1.7s6-.93 6.5.36-1 1.08-1.71 1.55c-1 .68-1 1.11-1 2.35-.08 2.53.14 5.08.16 7.59 0 1.43 0 1.73 1.25 2.37.64.34 1.76.28 1.64 1.34.13 1.07.15-1.5-.02 0zM51.73 20.63c6.6-2.33 14.89.19 20.94 3.13 2.54 1.23 6.58 2.33 6.44 5.72-.12 3.08-3 4.2-5.24 5.6A12.43 12.43 0 0069 40.82c-1.42 3.33-.28 5.56 2.36 7.7s5.45 4.23 7.24 7.15c2 3.32 2.22 7 5.09 9.89 1.59 1.59 3.57 5 5.66 5.69a10 10 0 004.58-.25c1.1-.73 1-2.75 1.36-4 .92-3.27 1.88-5.74 5.26-6.7a13.48 13.48 0 007.56-5.64c1.93-2.76 3.37-6.13 3.12-9.56-.28-3.81-2.58-7.33-4.85-10.27-1.89-2.44-3.55-4.93-1.71-8 1.66-2.76 6.68-3.57 9.57-4.29a15.67 15.67 0 015.79-.64c1.83.23 3.26 1 5.1.32 1.52-.56 2.81-1.94 4.41-2.27 1.88-.38 4.34.37 6.22.62 4.18.56 7.91-.74 12.06-.73 1.9 0 3.72.54 5.59.73 2.21.22 4.21-.73 6.43-.73a99.88 99.88 0 00-118.93-.56c3.93 1.68 7.11 2.66 11.25 1.23l-.9.32.45-.16zm48.82 170.28c-2.41-2.89-3.81-7.38-1.89-10.9.85-1.56 2.12-1.89 3.64-2.52 1.93-.79 3.26-2.6 4.83-3.93s3-2.64 1.67-4.53c-.46-.67-1.33-1-1.86-1.6a5.75 5.75 0 01-1.13-2.79 30.34 30.34 0 00-5-12c-2-2.73-2.71-8.13-5.67-10-1.32-.86-3.82-.52-5.23.06-1.91.78-3.06 2.92-4.29 4.5a45.87 45.87 0 00-6.81 11.28c-1.7 4.29-1.93 9.18-3.85 13.32-.95 2-2.26 3.79-1.51 6.11s2.59 4.31 4.06 6.19c3.48 4.46 5.46 8.43 3 13.92a100.91 100.91 0 0025.43 1.73 36.32 36.32 0 00-3.13-6.05c-.66-.87-1.89-3-2.85-3.51a12.91 12.91 0 01.83 1.07 1.48 1.48 0 00-.19-.35c-1.75-2.05.87 1.47-.05 0zm-24.3-57.28c0 1.6-5.7 1.4-6.44.63-1.41-1.48 1.66-3 .07-4.31a5.17 5.17 0 00-3.73 0c-2.22 1.67 3.17 4.24-1.48 4.47-.91 0-3.74.27-4.47-.19-1.28-.8-.52-2.68.55-3.24.52-.28 1.12.1 1.65-.28s.66-1.08.93-1.58a28.79 28.79 0 001.56-4c.46-1.33.67-2.74 1.13-4.06.34-1 .44-3.46 1.89-3.71 2.34-.41 3.28 6.47 3.66 8a34 34 0 001.5 4.73c.65 1.49 3.18 1.78 3.18 3.54zm-6.93-6.85a5.75 5.75 0 00-.85-3c-.82-.77-.64-.24-1 .7-.31.73-1 2-.47 2.72.39.59 2.32.64 2.32-.42zm24.18 7.02c0 1.13-1.91 1.08-2.61 1a2.91 2.91 0 01-2.89-2.6c-.38-2.28-.16-6.92-4.14-5.35-1.41.55-1.42 1.94-1.34 3.27.11 1.92.48 1.25 1.8 2.14 3.15 2.13-3.45 2.15-4.5 2.18-.85 0-3 .19-2.71-1.33.19-1.13 2.25-1.15 2.75-2.29.64-1.46.22-4 .27-5.6 0-1.1.4-3.22 0-4.22s-2.51-1.12-2.67-2.41c-.25-1.95 2.92-1.18 4-1.14 3.14.12 6.65-.6 9.06 1.89a4.57 4.57 0 011.48 4.09c-.34 1.34-2.2 2-2.47 3.15a13.34 13.34 0 001.31 4.42c.72 1.09 2.66 1.18 2.66 2.8zm-4.18-11.25c-.14-2.48-1.38-2.85-3.62-2.69s-3 .36-3.1 2.93c-.12 2.33 1.64 2.39 3.69 2 1.24-.21 3-1.3 3-2.29-.02-.7.02.26.02.05zm19.76 7.45c0 4.47-5.51 5.78-8.9 4.57a3.73 3.73 0 00-2.16-.38c-1.09.08-.86.66-1.78-.24-1.19-1.18-.91-3.27-.94-4.77 0-1.2-.17-2.84 1.55-2.35s1.68 2.63 2.49 3.79c1.84 2.66 7.72.8 6.24-2.2-1.76-3.57-7.45-.33-9.43-3.94-1.31-2.39-.77-6.45 2.28-7a12.85 12.85 0 013.75 0c.91.11 1.82.29 2.73.41.4.05.71.25 1.14.28s.8-.5 1.23-.35c1.32.45.91 2.45.84 3.58 0 .69 0 2.37-1 2.58s-1.32-1.1-1.7-1.68c-1-1.52-2-3-4.07-2.83s-3.88 2.55-1.81 4.12c1.59 1.2 4.09.69 6 1.45a5.55 5.55 0 013.54 4.96z"/><path class="cls-1" d="M7.16 131.58c1.64-.81 1.16-2.16 1.16-4 0-2.33.44-5 0-7.26-.31-1.77-2-1.34-2.61.15-.33.88.3 2.08-.21 2.92a1.81 1.81 0 01-2.69.3q1 4.27 2.46 8.43a3.58 3.58 0 011.84-.59c.47-.16-.37.05.05.05z"/></g></g></svg>