<svg xmlns="http://www.w3.org/2000/svg" viewBox="0 0 144.1 144.1"><g data-name="Layer 2"><circle cx="72.05" cy="72.05" r="72.05" fill="#ff4e00"/><path d="M46.5 94l-.9-5.89A20.76 20.76 0 0130 94.9c-8 0-13-4.79-13-12.27 0-11 9.38-15.37 27.84-17.26v-1.9c0-5.59-3.29-7.48-8.38-7.48S26 57.68 21.26 59.78l-1.1-7.09C25.45 50.59 30.44 49 37.22 49c10.68 0 15.87 4.29 15.87 14.17V94H46.5zm-1.6-22.35c-16.27 1.6-19.66 6-19.66 10.58s2.4 5.89 6.59 5.89 9.38-2.4 13.07-6.19V71.65zM72.25 68v26h-8.18V50h6.59L72 59c3.09-5 8.18-9.48 15.47-9.88L88.81 57c-7.38.28-13.57 5.17-16.56 11zm37.22 26.9a36.12 36.12 0 01-16.07-4.19l1.2-7.78A27.54 27.54 0 00110.17 88c5.59 0 9-2.1 9-5.79s-2.49-5.59-10.48-7.48C98.3 72.15 94.2 69.06 94.2 61.17S100.09 49 109.77 49a35.63 35.63 0 0114.47 3l-1.3 7.78A28.14 28.14 0 00109.57 56c-5 0-7.58 1.9-7.58 5.09s2.2 4.59 9.18 6.39c10.88 2.79 15.77 5.89 15.77 14.27s-6.09 13.15-17.47 13.15z" fill="#fff"/></g></svg>