<svg width="29" height="23" viewBox="0 0 29 23" xmlns="http://www.w3.org/2000/svg"><path d="M28.134 2.693c-1.042.457-2.151.76-3.308.907A5.708 5.708 0 0 0 27.351.427a11.472 11.472 0 0 1-3.64 1.39 5.738 5.738 0 0 0-9.93 3.925c0 .455.04.892.134 1.309C9.143 6.818 4.92 4.53 2.083 1.046a5.78 5.78 0 0 0-.786 2.902 5.749 5.749 0 0 0 2.55 4.77 5.669 5.669 0 0 1-2.593-.707v.064c0 2.789 1.99 5.106 4.599 5.64a5.73 5.73 0 0 1-1.505.189c-.368 0-.739-.021-1.087-.098.744 2.273 2.854 3.944 5.364 3.999a11.534 11.534 0 0 1-7.118 2.448c-.47 0-.922-.021-1.373-.079A16.16 16.16 0 0 0 8.94 22.75c10.563 0 16.338-8.75 16.338-16.334 0-.254-.01-.5-.021-.743a11.451 11.451 0 0 0 2.877-2.98z" fill="#FEEE96" fill-rule="evenodd"/></svg>