<svg viewBox="0 0 433 161" xmlns="http://www.w3.org/2000/svg"><switch><g><path d="M32.5 74.17c-1.21 5.36-3.49 8.72-8.72 8.72-3.08 0-6.17-2.41-7.78-8.45L3 25.09h12.47l8.45 35.67 6.44-28.56c1.34-6.03 4.43-7.78 8.18-7.78 3.89 0 6.84 1.74 8.18 7.78l6.57 28.56 8.45-35.67h12.47L61.06 74.44c-1.61 6.03-4.56 8.45-7.64 8.45-5.36 0-7.51-3.35-8.72-8.72l-6.17-28.03zM119.05 77.66s-6.03 5.23-16.49 5.23c-16.76 0-29.37-13.01-29.37-29.23 0-16.09 12.87-29.23 29.37-29.23 14.88 0 29.37 10.33 29.37 29.64v28.16h-12.87v-4.57zm-16.5-7.11c9.12 0 16.49-6.84 16.49-16.9 0-9.66-7.11-16.9-16.49-16.9-9.25 0-16.49 7.24-16.49 16.9 0 9.93 7.24 16.9 16.49 16.9zM286.31 24.42c16.09 0 29.23 13.14 29.23 29.23 0 16.23-13.14 29.23-29.23 29.23-16.23 0-29.37-13.01-29.37-29.23 0-16.09 13.14-29.23 29.37-29.23zm0 46.13c9.12 0 16.49-6.97 16.49-16.9s-7.38-16.9-16.49-16.9-16.49 6.97-16.49 16.9 7.37 16.9 16.49 16.9zM352.95 51.37v30.84h-12.87V51.37c0-19.71 12.74-26.95 24.27-26.95 11.67 0 24.41 7.38 24.41 26.95v30.84h-12.87V51.37c0-9.79-4.69-14.62-11.53-14.62-6.71.01-11.41 4.7-11.41 14.62zM417.3 69.92c-6.97 0-9.46-3.93-9.46-10.64V37.36h11.14V25.02h-11.14V3.44L395.15 7.3v51.99c0 17.84 10.75 22.98 22.15 22.98h2.7V69.92zM320.94 29.6v52.66h12.85V25.7zM222.49 24.42c-14.88 0-29.4 10.33-29.4 29.64v60.35l12.85-3.88V77.66s6.08 5.23 16.54 5.23c16.76 0 29.37-13.01 29.37-29.23 0-16.1-12.87-29.24-29.36-29.24zm.03 46.13c-9.12 0-16.49-6.84-16.49-16.9 0-9.66 7.11-16.9 16.49-16.9 9.25 0 16.49 7.24 16.49 16.9.01 9.93-7.23 16.9-16.49 16.9zM173.72 29.07v26.87c0 10.33-5.03 14.62-11.33 14.62-6.57 0-11.46-4.56-11.46-14.62V25.12l-12.85 3.87v26.94c0 18.64 11.32 26.95 22.99 26.95 4.96 0 9.23-1.34 12.66-3.75v9.79c0 9.25-3.85 15.31-11.76 15.31-8.56 0-12.41-6.86-12.56-13.88l-12.58 3.79c1.86 13.38 12.23 21.75 25.48 21.75 14.08 0 24.44-9.82 24.44-26.98V25.19zM5.32 149.28c-1.5-1.64-2.32-3.92-2.32-6.55 0-2.71.92-5.1 2.56-6.74 1.43-1.45 3.43-2.3 5.92-2.3 4.45 0 7.11 2.37 7.66 5.99h-4.16c-.31-1.4-1.47-2.46-3.36-2.46-2.85 0-4.28 2.37-4.28 5.51 0 3.17 1.64 5.51 4.35 5.51 2.25 0 3.58-1.5 3.75-3.02v-.05H12.2v-3.14h7.2v9.28h-3l-.24-2.08h-.05c-1.14 1.76-2.83 2.47-4.91 2.47-2.45 0-4.45-.87-5.88-2.42zM26.5 134.03h4.4l6.24 17.28h-4.5l-1.02-3.12h-6.04l-.99 3.12h-4.3zm4.13 11.09l-1.3-4.18c-.29-.89-.68-2.44-.68-2.44h-.05s-.41 1.55-.7 2.44l-1.33 4.18zM38.34 134.03h5.75l2.1 7.57c.31 1.09.99 3.94.99 3.94h.05s.68-2.85.97-3.94l2.13-7.57h5.8v17.28h-3.92v-8.7c0-.7.07-3.46.07-3.46h-.05s-.6 2.59-.8 3.21l-2.49 8.94h-3.53l-2.47-8.92c-.19-.63-.8-3.24-.8-3.24h-.05s.07 2.78.07 3.48v8.68h-3.84v-17.27zM58.5 134.03h13.1v3.53h-8.82v3.09h7.57v3.34h-7.57v3.7h8.97v3.63H58.5zM72.74 145.87h4.3c.19 1.74 1.33 2.47 3.38 2.47 1.4 0 2.78-.51 2.78-1.81 0-1.38-1.4-1.67-3.77-2.25-3-.7-6.16-1.62-6.16-5.25 0-3.7 3-5.32 6.86-5.32 3.75 0 6.65 1.69 6.82 5.32h-4.18c-.17-1.33-1.18-2.08-2.78-2.08-1.5 0-2.49.65-2.49 1.62 0 1.21 1.33 1.5 3.92 2.08 3.21.75 6.12 1.74 6.12 5.44 0 3.63-3.09 5.63-7.08 5.63-4.6 0-7.62-2.03-7.72-5.85zM93.03 134.03h8.34c1.79 0 3.12.43 4.04 1.18.99.82 1.5 1.93 1.5 3.31 0 1.72-.89 2.8-2.42 3.38v.07c1.89.58 3.09 2.18 3.09 4.23 0 1.74-.63 3-1.76 3.87-1.02.8-2.44 1.23-4.25 1.23h-8.53v-17.27zm7.71 6.84c1.23 0 2.08-.6 2.08-1.74 0-1.09-.8-1.72-2.05-1.72h-3.51v3.46zm.33 7.01c1.4 0 2.27-.8 2.27-2.03 0-1.38-1.02-2.08-2.32-2.08h-3.77v4.11zM113.21 144.93l-5.85-10.9h4.66l2.22 4.47c.58 1.18 1.14 2.63 1.14 2.63h.05s.6-1.45 1.18-2.63l2.2-4.47h4.52l-5.85 10.9v6.38h-4.28v-6.38zM127.06 134.03h4.45l2.71 9.06c.39 1.3.8 3.05.8 3.05h.05s.43-1.76.8-3.05l2.68-9.06h4.33l-5.68 17.28h-4.42zM144.06 134.03h4.28v17.28h-4.28zM150 142.73c0-5.15 3.36-9.04 8.51-9.04 2.01 0 3.7.58 4.93 1.52 1.5 1.14 2.37 2.83 2.59 4.76h-4.28c-.22-1.55-1.43-2.73-3.26-2.73-2.8 0-4.13 2.34-4.13 5.49 0 3.17 1.6 5.46 4.16 5.46 1.91 0 3.17-1.21 3.36-2.88h4.28a6.751 6.751 0 01-2.08 4.42c-1.33 1.28-3.09 1.96-5.53 1.96-5.09.01-8.55-3.79-8.55-8.96zM167.67 134.03h13.1v3.53h-8.82v3.09h7.57v3.34h-7.57v3.7h8.97v3.63h-13.25z"/></g></switch></svg>