<svg version="1" xmlns="http://www.w3.org/2000/svg" width="1866.667" height="1866.667" viewBox="0 0 1400 1400"><path d="M658 113.1c-6.9.5-21.3 2-32 3.4-112.3 14.1-215.7 59.3-304.5 133.1-16.7 13.9-58 55.2-71.9 71.9C200.7 380.3 165.7 443 142 514c-27.9 83.6-36.6 172.2-25.5 260.5 14.1 111.7 59.4 215.3 133.1 304 13.9 16.7 55.2 58 71.9 71.9 58.8 48.9 121.5 83.9 192.5 107.6 83.6 27.9 172.2 36.6 260.5 25.5 111.7-14.1 215.4-59.5 304-133.1 16.7-13.9 58-55.2 71.9-71.9 48.9-58.8 83.9-121.5 107.6-192.5 27.9-83.6 36.6-172.2 25.5-260.5-14.1-111.7-59.5-215.4-133.1-304-13.9-16.7-55.2-58-71.9-71.9C1019.7 200.7 957 165.7 886 142c-47.7-15.9-96.5-25.6-146.4-28.9-18.3-1.3-63.2-1.2-81.6 0zM450.7 514.5c27.8 4 49.1 12.9 63.9 26.7 14.2 13.4 21.9 28.1 27.7 53 2.1 9.2 2.1 10.6 2.4 147l.4 137.8h-26.5c-24.4 0-26.5-.1-27-1.8-.2-.9-1.9-11.7-3.8-23.9l-3.3-22.3-5.5 5.4c-24.9 24.2-53.7 39.5-87.5 46.6-14.5 3-40.4 3.8-55.3 1.6-35.2-5.2-60.6-22.3-74.3-50.1-16.5-33.5-13.9-79.2 6.3-110.1 26.7-40.8 89.9-65.4 199.1-77.5l10.7-1.2v-13.6c0-23.1-4.1-35.4-15.2-46.4-7-6.9-13.5-10.5-25.4-13.9-7.1-2.1-10-2.3-28.9-2.3-23.3 0-32.6 1.2-56.6 7-16.6 4.1-33.8 9.8-51.8 17.1-7.4 3-13.6 5.2-13.9 4.9-.4-.4-9-52.8-9.2-55.7 0-1 18.1-7.8 37.5-14.1 26.7-8.6 51.5-13.7 77.3-15.7 14.4-1.2 46.3-.3 58.9 1.5zm594.2 0c23.6 3 47.1 8.9 69.4 17.5 7.7 3 10.7 4.6 10.7 5.8 0 2.3-9.8 60.3-10.2 60.8-.2.2-5.2-2.1-11.2-5.1-33.4-16.8-71.9-25.7-104.4-24.2-27.1 1.2-44.7 9.8-52 25.5-2.3 5-2.7 7-2.7 15.7s.3 10.7 2.6 15.5c5.3 11.1 17.9 19.8 39.6 27.4 5.7 1.9 21.2 6.5 34.5 10.1 62.1 16.9 89.1 30.2 106.9 52.3 11.3 14 17.3 30.7 18.9 52.5 3.5 47.6-15.6 82.7-55.5 101.7-37.2 17.7-95.6 20.9-148 8.1-21.4-5.2-38.5-11.3-58.7-20.8-8-3.8-9.8-5-9.8-6.8 0-1.2 2-15.3 4.5-31.3s4.5-29.3 4.5-29.6c0-.3 4.2 2.2 9.3 5.5 19.2 12.6 45.2 23.6 69.2 29.2 32.7 7.8 67.8 7.6 89.7-.3 23.4-8.6 35.2-26.4 31.8-48.2-3.9-25.7-23-38.3-80-52.9-35.1-9-53.5-15.1-70-23.4-38.4-19.2-54.4-47.1-52.6-92 .6-16.2 2.9-26.9 8.1-38.2 15-32.5 47.9-51.5 97.5-56.3 12.7-1.2 42.5-.4 57.9 1.5zm-214.1 29.7c2.9 17.2 5.2 31.6 5.2 31.9 0 .4-3 1-6.7 1.4-43.8 4.4-83.8 27.6-112.2 64.8-3.9 5.1-9.1 12.8-11.6 17.2l-4.5 8V879h-66V520l26.7.2 26.8.3 5.1 34.5c2.8 19 5.3 35.4 5.5 36.5.3 1.5 1.8 0 6.2-6.2 24.7-35.4 55.5-58.2 91-67.4 7.4-2 22-4.5 27.3-4.8 1.9-.1 2.3 1.8 7.2 31.1z"/><path d="M466.5 697.7c-89.4 11.3-133.7 31.3-145.7 66-2 5.8-2.3 8.7-2.3 20.3 0 11.6.3 14.5 2.3 20.3 4.3 12.3 12 19.6 25 23.8 10.4 3.4 33.2 3.8 47.2.9 27.2-5.6 56.5-21.2 79.8-42.4l6.2-5.8V697l-4.7.1c-2.7.1-6.1.4-7.8.6z"/></svg>