<svg xmlns="http://www.w3.org/2000/svg" viewBox="0 0 429 382.7"><path d="M78.3 303.6h341.2c.3 0 .5-.2.5-.5V9.5c0-.3-.2-.5-.5-.5H78.3c-.3 0-.5.2-.5.5v293.6c0 .3.2.5.5.5z" fill="none" stroke="#fff" stroke-width="18" stroke-linecap="round" stroke-miterlimit="10" stroke-dasharray="30.9407,43.9159"/><path d="M222.7 368.2H14.5s0 0 0 0V215.4s0 0 0 0h208.2s0 0 0 0v152.8s0 0 0 0z" stroke="#fff" stroke-width="29" stroke-miterlimit="10"/><path fill="none" stroke="#fff" stroke-width="18" stroke-linecap="round" stroke-miterlimit="10" d="M248.7 189.5l69.2-75.3"/><path fill="#fff" d="M340.6 151.8L359 69.5l-80.5 25.2z"/></svg>