<svg width="29" height="28" xmlns="http://www.w3.org/2000/svg"><path d="M20.406 0c4.261 0 7.728 3.466 7.728 7.727v12.546c0 4.26-3.467 7.727-7.728 7.727H7.86C3.6 28 .134 24.534.134 20.273V7.727C.134 3.467 3.6 0 7.86 0zm0 2.484H7.86a5.249 5.249 0 0 0-5.242 5.243v12.546a5.249 5.249 0 0 0 5.242 5.243h12.547a5.249 5.249 0 0 0 5.242-5.243V7.727a5.249 5.249 0 0 0-5.243-5.243zM14.134 7c3.86 0 7 3.14 7 7s-3.14 7-7 7-7-3.14-7-7 3.14-7 7-7zm0 2.41A4.595 4.595 0 0 0 9.544 14c0 2.53 2.059 4.59 4.59 4.59 2.53 0 4.59-2.06 4.59-4.59s-2.06-4.59-4.59-4.59zm8-4.41a2.01 2.01 0 0 1 1.414.585c.373.371.586.888.586 1.415 0 .525-.213 1.042-.586 1.415A2.02 2.02 0 0 1 22.134 9a2.015 2.015 0 0 1-1.413-.585A2.016 2.016 0 0 1 20.134 7c0-.527.214-1.044.587-1.415A2.008 2.008 0 0 1 22.134 5z" fill="#FEEE96"/></svg>