<svg width="161" height="159" fill="none" xmlns="http://www.w3.org/2000/svg"><path d="M75 84.5a1.5 1.5 0 1 0-3 0 1.5 1.5 0 0 0 3 0zM75 108.5a1.5 1.5 0 1 0-3 0 1.5 1.5 0 0 0 3 0zM75 96.5a1.5 1.5 0 1 0-3 0 1.5 1.5 0 0 0 3 0zM75 120.5a1.5 1.5 0 1 0-3 0 1.5 1.5 0 0 0 3 0zM75 88.5a1.5 1.5 0 1 0-3 0 1.5 1.5 0 0 0 3 0zM75 112.5a1.5 1.5 0 1 0-3 0 1.5 1.5 0 0 0 3 0zM75 100.5a1.5 1.5 0 1 0-3 0 1.5 1.5 0 0 0 3 0zM75 124.5a1.5 1.5 0 1 0-3 0 1.5 1.5 0 0 0 3 0zM75 92.5a1.5 1.5 0 1 0-3 0 1.5 1.5 0 0 0 3 0zM75 116.5a1.5 1.5 0 1 0-3 0 1.5 1.5 0 0 0 3 0zM75 104.5a1.5 1.5 0 1 0-3 0 1.5 1.5 0 0 0 3 0zM75 128.5a1.5 1.5 0 1 0-3 0 1.5 1.5 0 0 0 3 0zM75 132.5a1.5 1.5 0 1 0-3 0 1.5 1.5 0 0 0 3 0zM75 136.5a1.5 1.5 0 1 0-3 0 1.5 1.5 0 0 0 3 0zM75 140.5a1.5 1.5 0 1 0-3 0 1.5 1.5 0 0 0 3 0zM75 144.5a1.5 1.5 0 1 0-3 0 1.5 1.5 0 0 0 3 0zM75 148.5a1.5 1.5 0 1 0-3 0 1.5 1.5 0 0 0 3 0zM75 152.5a1.5 1.5 0 1 0-3 0 1.5 1.5 0 0 0 3 0zM79 84.5a1.5 1.5 0 1 0-3 0 1.5 1.5 0 0 0 3 0zM79 108.5a1.5 1.5 0 1 0-3 0 1.5 1.5 0 0 0 3 0zM79 96.5a1.5 1.5 0 1 0-3 0 1.5 1.5 0 0 0 3 0zM79 120.5a1.5 1.5 0 1 0-3 0 1.5 1.5 0 0 0 3 0zM79 88.5a1.5 1.5 0 1 0-3 0 1.5 1.5 0 0 0 3 0zM79 112.5a1.5 1.5 0 1 0-3 0 1.5 1.5 0 0 0 3 0zM79 100.5a1.5 1.5 0 1 0-3 0 1.5 1.5 0 0 0 3 0zM79 124.5a1.5 1.5 0 1 0-3 0 1.5 1.5 0 0 0 3 0zM79 92.5a1.5 1.5 0 1 0-3 0 1.5 1.5 0 0 0 3 0zM79 116.5a1.5 1.5 0 1 0-3 0 1.5 1.5 0 0 0 3 0zM79 104.5a1.5 1.5 0 1 0-3 0 1.5 1.5 0 0 0 3 0zM79 128.5a1.5 1.5 0 1 0-3 0 1.5 1.5 0 0 0 3 0zM79 132.5a1.5 1.5 0 1 0-3 0 1.5 1.5 0 0 0 3 0zM79 136.5a1.5 1.5 0 1 0-3 0 1.5 1.5 0 0 0 3 0zM79 140.5a1.5 1.5 0 1 0-3 0 1.5 1.5 0 0 0 3 0zM79 144.5a1.5 1.5 0 1 0-3 0 1.5 1.5 0 0 0 3 0zM79 148.5a1.5 1.5 0 1 0-3 0 1.5 1.5 0 0 0 3 0zM79 152.5a1.5 1.5 0 1 0-3 0 1.5 1.5 0 0 0 3 0zM83 140.5a1.5 1.5 0 1 0-3 0 1.5 1.5 0 0 0 3 0zM83 144.5a1.5 1.5 0 1 0-3 0 1.5 1.5 0 0 0 3 0zM83 148.5a1.5 1.5 0 1 0-3 0 1.5 1.5 0 0 0 3 0zM83 152.5a1.5 1.5 0 1 0-3 0 1.5 1.5 0 0 0 3 0zM87 140.5a1.5 1.5 0 1 0-3 0 1.5 1.5 0 0 0 3 0zM87 144.5a1.5 1.5 0 1 0-3 0 1.5 1.5 0 0 0 3 0zM91 140.5a1.5 1.5 0 1 0-3 0 1.5 1.5 0 0 0 3 0zM91 144.5a1.5 1.5 0 1 0-3 0 1.5 1.5 0 0 0 3 0zM95 140.5a1.5 1.5 0 1 0-3 0 1.5 1.5 0 0 0 3 0zM99 140.5a1.5 1.5 0 1 0-3 0 1.5 1.5 0 0 0 3 0zM43 84.5a1.5 1.5 0 1 0-3 0 1.5 1.5 0 0 0 3 0zM43 88.5a1.5 1.5 0 1 0-3 0 1.5 1.5 0 0 0 3 0zM43 92.5a1.5 1.5 0 1 0-3 0 1.5 1.5 0 0 0 3 0zM43 96.5a1.5 1.5 0 1 0-3 0 1.5 1.5 0 0 0 3 0zM23 84.5a1.5 1.5 0 1 0-3 0 1.5 1.5 0 0 0 3 0zM23 80.5a1.5 1.5 0 1 0-3 0 1.5 1.5 0 0 0 3 0zM23 76.5a1.5 1.5 0 1 0-3 0 1.5 1.5 0 0 0 3 0zM23 72.5a1.5 1.5 0 1 0-3 0 1.5 1.5 0 0 0 3 0zM23 68.5a1.5 1.5 0 1 0-3 0 1.5 1.5 0 0 0 3 0zM23 64.5a1.5 1.5 0 1 0-3 0 1.5 1.5 0 0 0 3 0zM23 88.5a1.5 1.5 0 1 0-3 0 1.5 1.5 0 0 0 3 0zM23 92.5a1.5 1.5 0 1 0-3 0 1.5 1.5 0 0 0 3 0zM23 96.5a1.5 1.5 0 1 0-3 0 1.5 1.5 0 0 0 3 0zM47 84.5a1.5 1.5 0 1 0-3 0 1.5 1.5 0 0 0 3 0zM47 88.5a1.5 1.5 0 1 0-3 0 1.5 1.5 0 0 0 3 0zM47 92.5a1.5 1.5 0 1 0-3 0 1.5 1.5 0 0 0 3 0zM47 96.5a1.5 1.5 0 1 0-3 0 1.5 1.5 0 0 0 3 0zM27 84.5a1.5 1.5 0 1 0-3 0 1.5 1.5 0 0 0 3 0zM27 88.5a1.5 1.5 0 1 0-3 0 1.5 1.5 0 0 0 3 0zM27 92.5a1.5 1.5 0 1 0-3 0 1.5 1.5 0 0 0 3 0zM27 96.5a1.5 1.5 0 1 0-3 0 1.5 1.5 0 0 0 3 0zM7 84.5a1.5 1.5 0 1 0-3 0 1.5 1.5 0 0 0 3 0zM7 80.5a1.5 1.5 0 1 0-3 0 1.5 1.5 0 0 0 3 0zM7 88.5a1.5 1.5 0 1 0-3 0 1.5 1.5 0 0 0 3 0zM7 92.5a1.5 1.5 0 1 0-3 0 1.5 1.5 0 0 0 3 0zM7 96.5a1.5 1.5 0 1 0-3 0 1.5 1.5 0 0 0 3 0zM51 84.5a1.5 1.5 0 1 0-3 0 1.5 1.5 0 0 0 3 0zM51 88.5a1.5 1.5 0 1 0-3 0 1.5 1.5 0 0 0 3 0zM51 92.5a1.5 1.5 0 1 0-3 0 1.5 1.5 0 0 0 3 0zM51 96.5a1.5 1.5 0 1 0-3 0 1.5 1.5 0 0 0 3 0zM31 84.5a1.5 1.5 0 1 0-3 0 1.5 1.5 0 0 0 3 0zM31 88.5a1.5 1.5 0 1 0-3 0 1.5 1.5 0 0 0 3 0zM31 92.5a1.5 1.5 0 1 0-3 0 1.5 1.5 0 0 0 3 0zM31 96.5a1.5 1.5 0 1 0-3 0 1.5 1.5 0 0 0 3 0zM11 84.5a1.5 1.5 0 1 0-3 0 1.5 1.5 0 0 0 3 0zM11 80.5a1.5 1.5 0 1 0-3 0 1.5 1.5 0 0 0 3 0zM11 76.5a1.5 1.5 0 1 0-3 0 1.5 1.5 0 0 0 3 0zM11 88.5a1.5 1.5 0 1 0-3 0 1.5 1.5 0 0 0 3 0zM11 92.5a1.5 1.5 0 1 0-3 0 1.5 1.5 0 0 0 3 0zM11 96.5a1.5 1.5 0 1 0-3 0 1.5 1.5 0 0 0 3 0zM55 84.5a1.5 1.5 0 1 0-3 0 1.5 1.5 0 0 0 3 0zM55 88.5a1.5 1.5 0 1 0-3 0 1.5 1.5 0 0 0 3 0zM55 92.5a1.5 1.5 0 1 0-3 0 1.5 1.5 0 0 0 3 0zM55 96.5a1.5 1.5 0 1 0-3 0 1.5 1.5 0 0 0 3 0zM35 84.5a1.5 1.5 0 1 0-3 0 1.5 1.5 0 0 0 3 0zM35 88.5a1.5 1.5 0 1 0-3 0 1.5 1.5 0 0 0 3 0zM35 92.5a1.5 1.5 0 1 0-3 0 1.5 1.5 0 0 0 3 0zM35 96.5a1.5 1.5 0 1 0-3 0 1.5 1.5 0 0 0 3 0zM15 84.5a1.5 1.5 0 1 0-3 0 1.5 1.5 0 0 0 3 0zM15 80.5a1.5 1.5 0 1 0-3 0 1.5 1.5 0 0 0 3 0zM15 76.5a1.5 1.5 0 1 0-3 0 1.5 1.5 0 0 0 3 0zM15 72.5a1.5 1.5 0 1 0-3 0 1.5 1.5 0 0 0 3 0zM15 88.5a1.5 1.5 0 1 0-3 0 1.5 1.5 0 0 0 3 0zM15 92.5a1.5 1.5 0 1 0-3 0 1.5 1.5 0 0 0 3 0zM15 96.5a1.5 1.5 0 1 0-3 0 1.5 1.5 0 0 0 3 0zM59 84.5a1.5 1.5 0 1 0-3 0 1.5 1.5 0 0 0 3 0zM59 88.5a1.5 1.5 0 1 0-3 0 1.5 1.5 0 0 0 3 0zM59 92.5a1.5 1.5 0 1 0-3 0 1.5 1.5 0 0 0 3 0zM59 96.5a1.5 1.5 0 1 0-3 0 1.5 1.5 0 0 0 3 0zM39 84.5a1.5 1.5 0 1 0-3 0 1.5 1.5 0 0 0 3 0zM39 88.5a1.5 1.5 0 1 0-3 0 1.5 1.5 0 0 0 3 0zM39 92.5a1.5 1.5 0 1 0-3 0 1.5 1.5 0 0 0 3 0zM39 96.5a1.5 1.5 0 1 0-3 0 1.5 1.5 0 0 0 3 0zM19 84.5a1.5 1.5 0 1 0-3 0 1.5 1.5 0 0 0 3 0zM19 80.5a1.5 1.5 0 1 0-3 0 1.5 1.5 0 0 0 3 0zM19 76.5a1.5 1.5 0 1 0-3 0 1.5 1.5 0 0 0 3 0zM19 72.5a1.5 1.5 0 1 0-3 0 1.5 1.5 0 0 0 3 0zM19 68.5a1.5 1.5 0 1 0-3 0 1.5 1.5 0 0 0 3 0zM19 88.5a1.5 1.5 0 1 0-3 0 1.5 1.5 0 0 0 3 0zM19 92.5a1.5 1.5 0 1 0-3 0 1.5 1.5 0 0 0 3 0zM19 96.5a1.5 1.5 0 1 0-3 0 1.5 1.5 0 0 0 3 0zM43 100.5a1.5 1.5 0 1 0-3 0 1.5 1.5 0 0 0 3 0zM23 100.5a1.5 1.5 0 1 0-3 0 1.5 1.5 0 0 0 3 0zM47 100.5a1.5 1.5 0 1 0-3 0 1.5 1.5 0 0 0 3 0zM27 100.5a1.5 1.5 0 1 0-3 0 1.5 1.5 0 0 0 3 0zM7 100.5a1.5 1.5 0 1 0-3 0 1.5 1.5 0 0 0 3 0zM51 100.5a1.5 1.5 0 1 0-3 0 1.5 1.5 0 0 0 3 0zM31 100.5a1.5 1.5 0 1 0-3 0 1.5 1.5 0 0 0 3 0zM11 100.5a1.5 1.5 0 1 0-3 0 1.5 1.5 0 0 0 3 0zM55 100.5a1.5 1.5 0 1 0-3 0 1.5 1.5 0 0 0 3 0zM35 100.5a1.5 1.5 0 1 0-3 0 1.5 1.5 0 0 0 3 0zM15 100.5a1.5 1.5 0 1 0-3 0 1.5 1.5 0 0 0 3 0zM59 100.5a1.5 1.5 0 1 0-3 0 1.5 1.5 0 0 0 3 0zM39 100.5a1.5 1.5 0 1 0-3 0 1.5 1.5 0 0 0 3 0zM19 100.5a1.5 1.5 0 1 0-3 0 1.5 1.5 0 0 0 3 0zM95 144.5a1.5 1.5 0 1 0-3 0 1.5 1.5 0 0 0 3 0zM91 148.5a1.5 1.5 0 1 0-3 0 1.5 1.5 0 0 0 3 0zM87 148.5a1.5 1.5 0 1 0-3 0 1.5 1.5 0 0 0 3 0zM87 152.5a1.5 1.5 0 1 0-3 0 1.5 1.5 0 0 0 3 0zM71 84.5a1.5 1.5 0 1 0-3 0 1.5 1.5 0 0 0 3 0zM71 108.5a1.5 1.5 0 1 0-3 0 1.5 1.5 0 0 0 3 0zM71 96.5a1.5 1.5 0 1 0-3 0 1.5 1.5 0 0 0 3 0zM71 120.5a1.5 1.5 0 1 0-3 0 1.5 1.5 0 0 0 3 0zM71 88.5a1.5 1.5 0 1 0-3 0 1.5 1.5 0 0 0 3 0zM71 112.5a1.5 1.5 0 1 0-3 0 1.5 1.5 0 0 0 3 0zM71 100.5a1.5 1.5 0 1 0-3 0 1.5 1.5 0 0 0 3 0zM71 124.5a1.5 1.5 0 1 0-3 0 1.5 1.5 0 0 0 3 0zM71 92.5a1.5 1.5 0 1 0-3 0 1.5 1.5 0 0 0 3 0zM71 116.5a1.5 1.5 0 1 0-3 0 1.5 1.5 0 0 0 3 0zM71 104.5a1.5 1.5 0 1 0-3 0 1.5 1.5 0 0 0 3 0zM71 128.5a1.5 1.5 0 1 0-3 0 1.5 1.5 0 0 0 3 0zM71 132.5a1.5 1.5 0 1 0-3 0 1.5 1.5 0 0 0 3 0zM71 136.5a1.5 1.5 0 1 0-3 0 1.5 1.5 0 0 0 3 0zM71 140.5a1.5 1.5 0 1 0-3 0 1.5 1.5 0 0 0 3 0zM71 144.5a1.5 1.5 0 1 0-3 0 1.5 1.5 0 0 0 3 0zM71 148.5a1.5 1.5 0 1 0-3 0 1.5 1.5 0 0 0 3 0zM71 152.5a1.5 1.5 0 1 0-3 0 1.5 1.5 0 0 0 3 0zM79 12.5a1.5 1.5 0 1 0-3 0 1.5 1.5 0 0 0 3 0zM79 24.5a1.5 1.5 0 1 0-3 0 1.5 1.5 0 0 0 3 0zM79 16.5a1.5 1.5 0 1 0-3 0 1.5 1.5 0 0 0 3 0zM79 28.5a1.5 1.5 0 1 0-3 0 1.5 1.5 0 0 0 3 0zM79 20.5a1.5 1.5 0 1 0-3 0 1.5 1.5 0 0 0 3 0zM79 8.5a1.5 1.5 0 1 0-3 0 1.5 1.5 0 0 0 3 0zM79 32.5a1.5 1.5 0 1 0-3 0 1.5 1.5 0 0 0 3 0zM79 36.5a1.5 1.5 0 1 0-3 0 1.5 1.5 0 0 0 3 0zM79 40.5a1.5 1.5 0 1 0-3 0 1.5 1.5 0 0 0 3 0zM79 44.5a1.5 1.5 0 1 0-3 0 1.5 1.5 0 0 0 3 0zM79 48.5a1.5 1.5 0 1 0-3 0 1.5 1.5 0 0 0 3 0zM79 52.5a1.5 1.5 0 1 0-3 0 1.5 1.5 0 0 0 3 0zM79 56.5a1.5 1.5 0 1 0-3 0 1.5 1.5 0 0 0 3 0zM75 12.5a1.5 1.5 0 1 0-3 0 1.5 1.5 0 0 0 3 0zM75 24.5a1.5 1.5 0 1 0-3 0 1.5 1.5 0 0 0 3 0zM75 16.5a1.5 1.5 0 1 0-3 0 1.5 1.5 0 0 0 3 0zM75 28.5a1.5 1.5 0 1 0-3 0 1.5 1.5 0 0 0 3 0zM75 20.5a1.5 1.5 0 1 0-3 0 1.5 1.5 0 0 0 3 0zM75 32.5a1.5 1.5 0 1 0-3 0 1.5 1.5 0 0 0 3 0zM75 36.5a1.5 1.5 0 1 0-3 0 1.5 1.5 0 0 0 3 0zM75 40.5a1.5 1.5 0 1 0-3 0 1.5 1.5 0 0 0 3 0zM75 44.5a1.5 1.5 0 1 0-3 0 1.5 1.5 0 0 0 3 0zM75 48.5a1.5 1.5 0 1 0-3 0 1.5 1.5 0 0 0 3 0zM75 52.5a1.5 1.5 0 1 0-3 0 1.5 1.5 0 0 0 3 0zM75 56.5a1.5 1.5 0 1 0-3 0 1.5 1.5 0 0 0 3 0zM71 24.5a1.5 1.5 0 1 0-3 0 1.5 1.5 0 0 0 3 0zM71 16.5a1.5 1.5 0 1 0-3 0 1.5 1.5 0 0 0 3 0zM71 28.5a1.5 1.5 0 1 0-3 0 1.5 1.5 0 0 0 3 0zM71 20.5a1.5 1.5 0 1 0-3 0 1.5 1.5 0 0 0 3 0zM71 32.5a1.5 1.5 0 1 0-3 0 1.5 1.5 0 0 0 3 0zM71 36.5a1.5 1.5 0 1 0-3 0 1.5 1.5 0 0 0 3 0zM71 40.5a1.5 1.5 0 1 0-3 0 1.5 1.5 0 0 0 3 0zM71 44.5a1.5 1.5 0 1 0-3 0 1.5 1.5 0 0 0 3 0zM71 48.5a1.5 1.5 0 1 0-3 0 1.5 1.5 0 0 0 3 0zM71 52.5a1.5 1.5 0 1 0-3 0 1.5 1.5 0 0 0 3 0zM71 56.5a1.5 1.5 0 1 0-3 0 1.5 1.5 0 0 0 3 0zM67 24.5a1.5 1.5 0 1 0-3 0 1.5 1.5 0 0 0 3 0zM67 28.5a1.5 1.5 0 1 0-3 0 1.5 1.5 0 0 0 3 0zM67 20.5a1.5 1.5 0 1 0-3 0 1.5 1.5 0 0 0 3 0zM67 32.5a1.5 1.5 0 1 0-3 0 1.5 1.5 0 0 0 3 0zM67 36.5a1.5 1.5 0 1 0-3 0 1.5 1.5 0 0 0 3 0zM67 40.5a1.5 1.5 0 1 0-3 0 1.5 1.5 0 0 0 3 0zM67 44.5a1.5 1.5 0 1 0-3 0 1.5 1.5 0 0 0 3 0zM67 48.5a1.5 1.5 0 1 0-3 0 1.5 1.5 0 0 0 3 0zM67 52.5a1.5 1.5 0 1 0-3 0 1.5 1.5 0 0 0 3 0zM67 56.5a1.5 1.5 0 1 0-3 0 1.5 1.5 0 0 0 3 0zM63 24.5a1.5 1.5 0 1 0-3 0 1.5 1.5 0 0 0 3 0zM63 28.5a1.5 1.5 0 1 0-3 0 1.5 1.5 0 0 0 3 0zM63 32.5a1.5 1.5 0 1 0-3 0 1.5 1.5 0 0 0 3 0zM63 36.5a1.5 1.5 0 1 0-3 0 1.5 1.5 0 0 0 3 0zM63 40.5a1.5 1.5 0 1 0-3 0 1.5 1.5 0 0 0 3 0zM63 44.5a1.5 1.5 0 1 0-3 0 1.5 1.5 0 0 0 3 0zM63 48.5a1.5 1.5 0 1 0-3 0 1.5 1.5 0 0 0 3 0zM63 52.5a1.5 1.5 0 1 0-3 0 1.5 1.5 0 0 0 3 0zM63 56.5a1.5 1.5 0 1 0-3 0 1.5 1.5 0 0 0 3 0zM149.5 83a1.5 1.5 0 1 1 0 3 1.5 1.5 0 0 1 0-3zM137.5 83a1.5 1.5 0 1 1 0 3 1.5 1.5 0 0 1 0-3zM145.5 83a1.5 1.5 0 1 1 0 3 1.5 1.5 0 0 1 0-3zM133.5 83a1.5 1.5 0 1 1 0 3 1.5 1.5 0 0 1 0-3zM141.5 83a1.5 1.5 0 1 1 0 3 1.5 1.5 0 0 1 0-3zM153.5 83a1.5 1.5 0 1 1 0 3 1.5 1.5 0 0 1 0-3zM129.5 83a1.5 1.5 0 1 1 0 3 1.5 1.5 0 0 1 0-3zM125.5 83a1.5 1.5 0 1 1 0 3 1.5 1.5 0 0 1 0-3zM121.5 83a1.5 1.5 0 1 1 0 3 1.5 1.5 0 0 1 0-3zM117.5 83a1.5 1.5 0 1 1 0 3 1.5 1.5 0 0 1 0-3zM113.5 83a1.5 1.5 0 1 1 0 3 1.5 1.5 0 0 1 0-3zM109.5 83a1.5 1.5 0 1 1 0 3 1.5 1.5 0 0 1 0-3zM105.5 83a1.5 1.5 0 1 1 0 3 1.5 1.5 0 0 1 0-3zM149.5 87a1.5 1.5 0 1 1 0 3 1.5 1.5 0 0 1 0-3zM137.5 87a1.5 1.5 0 1 1 0 3 1.5 1.5 0 0 1 0-3zM145.5 87a1.5 1.5 0 1 1 0 3 1.5 1.5 0 0 1 0-3zM133.5 87a1.5 1.5 0 1 1 0 3 1.5 1.5 0 0 1 0-3zM141.5 87a1.5 1.5 0 1 1 0 3 1.5 1.5 0 0 1 0-3zM129.5 87a1.5 1.5 0 1 1 0 3 1.5 1.5 0 0 1 0-3zM125.5 87a1.5 1.5 0 1 1 0 3 1.5 1.5 0 0 1 0-3zM121.5 87a1.5 1.5 0 1 1 0 3 1.5 1.5 0 0 1 0-3zM117.5 87a1.5 1.5 0 1 1 0 3 1.5 1.5 0 0 1 0-3zM113.5 87a1.5 1.5 0 1 1 0 3 1.5 1.5 0 0 1 0-3zM109.5 87a1.5 1.5 0 1 1 0 3 1.5 1.5 0 0 1 0-3zM105.5 87a1.5 1.5 0 1 1 0 3 1.5 1.5 0 0 1 0-3zM137.5 91a1.5 1.5 0 1 1 0 3 1.5 1.5 0 0 1 0-3zM145.5 91a1.5 1.5 0 1 1 0 3 1.5 1.5 0 0 1 0-3zM133.5 91a1.5 1.5 0 1 1 0 3 1.5 1.5 0 0 1 0-3zM141.5 91a1.5 1.5 0 1 1 0 3 1.5 1.5 0 0 1 0-3zM129.5 91a1.5 1.5 0 1 1 0 3 1.5 1.5 0 0 1 0-3zM125.5 91a1.5 1.5 0 1 1 0 3 1.5 1.5 0 0 1 0-3zM121.5 91a1.5 1.5 0 1 1 0 3 1.5 1.5 0 0 1 0-3zM117.5 91a1.5 1.5 0 1 1 0 3 1.5 1.5 0 0 1 0-3zM113.5 91a1.5 1.5 0 1 1 0 3 1.5 1.5 0 0 1 0-3zM109.5 91a1.5 1.5 0 1 1 0 3 1.5 1.5 0 0 1 0-3zM105.5 91a1.5 1.5 0 1 1 0 3 1.5 1.5 0 0 1 0-3zM137.5 95a1.5 1.5 0 1 1 0 3 1.5 1.5 0 0 1 0-3zM133.5 95a1.5 1.5 0 1 1 0 3 1.5 1.5 0 0 1 0-3zM141.5 95a1.5 1.5 0 1 1 0 3 1.5 1.5 0 0 1 0-3zM129.5 95a1.5 1.5 0 1 1 0 3 1.5 1.5 0 0 1 0-3zM125.5 95a1.5 1.5 0 1 1 0 3 1.5 1.5 0 0 1 0-3zM121.5 95a1.5 1.5 0 1 1 0 3 1.5 1.5 0 0 1 0-3zM117.5 95a1.5 1.5 0 1 1 0 3 1.5 1.5 0 0 1 0-3zM113.5 95a1.5 1.5 0 1 1 0 3 1.5 1.5 0 0 1 0-3zM109.5 95a1.5 1.5 0 1 1 0 3 1.5 1.5 0 0 1 0-3zM105.5 95a1.5 1.5 0 1 1 0 3 1.5 1.5 0 0 1 0-3zM137.5 99a1.5 1.5 0 1 1 0 3 1.5 1.5 0 0 1 0-3zM133.5 99a1.5 1.5 0 1 1 0 3 1.5 1.5 0 0 1 0-3zM129.5 99a1.5 1.5 0 1 1 0 3 1.5 1.5 0 0 1 0-3zM125.5 99a1.5 1.5 0 1 1 0 3 1.5 1.5 0 0 1 0-3zM121.5 99a1.5 1.5 0 1 1 0 3 1.5 1.5 0 0 1 0-3zM117.5 99a1.5 1.5 0 1 1 0 3 1.5 1.5 0 0 1 0-3zM113.5 99a1.5 1.5 0 1 1 0 3 1.5 1.5 0 0 1 0-3zM109.5 99a1.5 1.5 0 1 1 0 3 1.5 1.5 0 0 1 0-3zM105.5 99a1.5 1.5 0 1 1 0 3 1.5 1.5 0 0 1 0-3zM67 84.5a1.5 1.5 0 1 0-3 0 1.5 1.5 0 0 0 3 0zM67 108.5a1.5 1.5 0 1 0-3 0 1.5 1.5 0 0 0 3 0zM67 96.5a1.5 1.5 0 1 0-3 0 1.5 1.5 0 0 0 3 0zM67 120.5a1.5 1.5 0 1 0-3 0 1.5 1.5 0 0 0 3 0zM67 88.5a1.5 1.5 0 1 0-3 0 1.5 1.5 0 0 0 3 0zM67 112.5a1.5 1.5 0 1 0-3 0 1.5 1.5 0 0 0 3 0zM67 100.5a1.5 1.5 0 1 0-3 0 1.5 1.5 0 0 0 3 0zM67 124.5a1.5 1.5 0 1 0-3 0 1.5 1.5 0 0 0 3 0zM67 92.5a1.5 1.5 0 1 0-3 0 1.5 1.5 0 0 0 3 0zM67 116.5a1.5 1.5 0 1 0-3 0 1.5 1.5 0 0 0 3 0zM67 104.5a1.5 1.5 0 1 0-3 0 1.5 1.5 0 0 0 3 0zM67 128.5a1.5 1.5 0 1 0-3 0 1.5 1.5 0 0 0 3 0zM67 132.5a1.5 1.5 0 1 0-3 0 1.5 1.5 0 0 0 3 0zM67 136.5a1.5 1.5 0 1 0-3 0 1.5 1.5 0 0 0 3 0zM67 140.5a1.5 1.5 0 1 0-3 0 1.5 1.5 0 0 0 3 0zM67 144.5a1.5 1.5 0 1 0-3 0 1.5 1.5 0 0 0 3 0zM67 148.5a1.5 1.5 0 1 0-3 0 1.5 1.5 0 0 0 3 0zM67 152.5a1.5 1.5 0 1 0-3 0 1.5 1.5 0 0 0 3 0zM63 84.5a1.5 1.5 0 1 0-3 0 1.5 1.5 0 0 0 3 0zM63 108.5a1.5 1.5 0 1 0-3 0 1.5 1.5 0 0 0 3 0zM63 96.5a1.5 1.5 0 1 0-3 0 1.5 1.5 0 0 0 3 0zM63 120.5a1.5 1.5 0 1 0-3 0 1.5 1.5 0 0 0 3 0zM63 88.5a1.5 1.5 0 1 0-3 0 1.5 1.5 0 0 0 3 0zM63 112.5a1.5 1.5 0 1 0-3 0 1.5 1.5 0 0 0 3 0zM63 100.5a1.5 1.5 0 1 0-3 0 1.5 1.5 0 0 0 3 0zM63 124.5a1.5 1.5 0 1 0-3 0 1.5 1.5 0 0 0 3 0zM63 92.5a1.5 1.5 0 1 0-3 0 1.5 1.5 0 0 0 3 0zM63 116.5a1.5 1.5 0 1 0-3 0 1.5 1.5 0 0 0 3 0zM63 104.5a1.5 1.5 0 1 0-3 0 1.5 1.5 0 0 0 3 0zM63 128.5a1.5 1.5 0 1 0-3 0 1.5 1.5 0 0 0 3 0zM63 132.5a1.5 1.5 0 1 0-3 0 1.5 1.5 0 0 0 3 0zM63 136.5a1.5 1.5 0 1 0-3 0 1.5 1.5 0 0 0 3 0zM63 140.5a1.5 1.5 0 1 0-3 0 1.5 1.5 0 0 0 3 0zM63 144.5a1.5 1.5 0 1 0-3 0 1.5 1.5 0 0 0 3 0zM63 148.5a1.5 1.5 0 1 0-3 0 1.5 1.5 0 0 0 3 0zM63 152.5a1.5 1.5 0 1 0-3 0 1.5 1.5 0 0 0 3 0z" fill="#fff"/><path fill-rule="evenodd" clip-rule="evenodd" d="M21.21 57.133A3.987 3.987 0 0 1 24.03 56H56.5V23.5a4 4 0 0 1 1.208-2.864l20-19.5.01-.01A4 4 0 0 1 80.53 0h19.97a4 4 0 0 1 4 4v52H157a4 4 0 0 1 4 4v19.5a4.002 4.002 0 0 1-2.586 3.743l-18.586 18.585A3.995 3.995 0 0 1 137 103h-32.5v32.467a3.993 3.993 0 0 1-1.208 2.897l-20 19.5A4.002 4.002 0 0 1 80.5 159h-20a4 4 0 0 1-4-4v-52H4a4 4 0 0 1-4-4V79.5a4 4 0 0 1 1.208-2.864L21.21 57.133zM96.398 139.5L80.5 155h-20V99H4V79.5l16-15.6v15.6a4 4 0 0 0 4 4h52.5v52a4 4 0 0 0 4 4h15.897zM80.5 60V4h20v56H157v19.5h-56.5v56h-20v-56H24V60h56.5zm-4-4h-16V23.5l16-15.6V56zm28 27.5h48L137 99h-32.5V83.5z" fill="#fff"/></svg>