<svg width="163" height="23" viewBox="0 0 163 23" xmlns="http://www.w3.org/2000/svg"><path d="M156.924 1.025a3.5 3.5 0 1 1 4.95 4.95l-15.59 15.59a3.5 3.5 0 0 1-4.95 0L128.219 8.45l-13.115 13.115a3.5 3.5 0 0 1-4.95 0L97.039 8.45 83.924 21.565a3.5 3.5 0 0 1-4.95 0L65.86 8.45 52.744 21.565a3.5 3.5 0 0 1-4.95 0L34.68 8.45 21.565 21.565a3.5 3.5 0 0 1-4.95 0L1.025 5.975a3.5 3.5 0 1 1 4.95-4.95L19.09 14.14 32.205 1.025a3.5 3.5 0 0 1 4.95 0L50.27 14.14 63.385 1.025a3.5 3.5 0 0 1 4.95 0L81.448 14.14 94.564 1.025a3.5 3.5 0 0 1 4.95 0l13.115 13.115 13.115-13.115a3.5 3.5 0 0 1 4.95 0l13.115 13.115 13.115-13.115zM3.5 1a2.5 2.5 0 1 0 0 5 2.5 2.5 0 0 0 0-5zm155.68 0a2.5 2.5 0 1 0 0 5 2.5 2.5 0 0 0 0-5z" fill="#000" fill-rule="nonzero"/></svg>